<?xml version="1.0" standalone="no"?>
<!DOCTYPE svg PUBLIC "-//W3C//DTD SVG 1.1//EN" "http://www.w3.org/Graphics/SVG/1.1/DTD/svg11.dtd" >
<svg xmlns="http://www.w3.org/2000/svg" xmlns:xlink="http://www.w3.org/1999/xlink" version="1.1">
<metadata>
Created by FontForge 20170731 at Wed Jun  9 21:56:24 2021
 By Aleksey,,,
Copyright (c) 2020 by INARI TYPE. All rights reserved.
</metadata>
<defs>
<font id="FrameGothic-Regular" horiz-adv-x="0" >
  <font-face 
    font-family="Frame Gothic"
    font-weight="400"
    font-stretch="normal"
    units-per-em="1000"
    panose-1="0 0 5 0 0 0 0 0 0 0"
    ascent="800"
    descent="-200"
    x-height="530"
    cap-height="700"
    bbox="-414 -280 3626 970"
    underline-thickness="50"
    underline-position="-150"
    unicode-range="U+000D-25CA"
  />
<missing-glyph horiz-adv-x="581" 
d="M55 700h471v-700h-471v700zM98 676l193 -302l192 302h-385zM276 351l-195 304v-609zM306 351l194 -305v609zM291 327l-194 -303h387z" />
    <glyph glyph-name="f_f" unicode="ff" horiz-adv-x="688" 
d="M522 651q-18 -20 -18 -57v-64h158v-74h-158v-456h-82v456h-216v-456h-82v456h-88v74h88v64q1 71 41 111t110 40h103v-74h-103q-33 0 -51 -20t-18 -57v-64h216v64q1 71 41 111t110 40h103v-74h-103q-33 0 -51 -20z" />
    <glyph glyph-name=".notdef" horiz-adv-x="581" 
d="M55 700h471v-700h-471v700zM98 676l193 -302l192 302h-385zM276 351l-195 304v-609zM306 351l194 -305v609zM291 327l-194 -303h387z" />
    <glyph glyph-name=".null" horiz-adv-x="576" 
 />
    <glyph glyph-name="nonmarkingreturn" unicode="&#xd;" horiz-adv-x="600" 
 />
    <glyph glyph-name="space" unicode=" " horiz-adv-x="225" 
 />
    <glyph glyph-name="exclam" unicode="!" horiz-adv-x="261" 
d="M90 711h82v-491h-82v491zM85.5 8q-17.5 18 -17.5 45q0 26 17.5 43.5t44.5 17.5t44.5 -17.5t17.5 -43.5q0 -27 -17.5 -45t-44.5 -18t-44.5 18z" />
    <glyph glyph-name="quotedbl" unicode="&#x22;" horiz-adv-x="310" 
d="M45 712h73v-256h-73v256zM191 712h74v-256h-74v256z" />
    <glyph glyph-name="numbersign" unicode="#" horiz-adv-x="794" 
d="M759 457h-163l-52 -220h152v-62h-166l-42 -175h-72l42 175h-196l-42 -175h-72l42 175h-155v62h169l52 220h-158v62h173l43 181h73l-43 -181h196l43 181h71l-43 -181h148v-62zM473 237l52 220h-196l-52 -220h196z" />
    <glyph glyph-name="dollar" unicode="$" horiz-adv-x="654" 
d="M572 87q-32 -45 -89.5 -71t-130.5 -27v-93h-49v95q-113 8 -179.5 65t-73.5 153h86q6 -60 49.5 -97t117.5 -45v253q-65 13 -112 31.5t-79.5 57.5t-32.5 104q0 54 28.5 97.5t79 69.5t116.5 30v91h49v-91q101 -5 164.5 -60.5t76.5 -149.5h-85q-12 59 -52.5 94t-103.5 41
v-246h1q82 -16 132.5 -34t84.5 -57.5t34 -107.5q0 -58 -32 -103zM197 438q35 -24 106 -39v236q-63 -6 -102 -38.5t-39 -80.5q0 -54 35 -78zM473 101q47 34 47 86q0 41 -20 64.5t-54.5 35.5t-93.5 23v-245q74 2 121 36z" />
    <glyph glyph-name="percent" unicode="%" horiz-adv-x="916" 
d="M122.5 368q-36.5 23 -57 64.5t-20.5 94.5q0 54 20.5 95.5t56.5 65t83 23.5q70 0 114.5 -50.5t44.5 -130.5q0 -54 -20 -96t-56.5 -65.5t-82.5 -23.5t-82.5 23zM659 700h82l-485 -700h-82zM275 436.5q27 35.5 27 92.5q0 56 -27 91t-70 35t-70.5 -35.5t-27.5 -91.5
t27.5 -91.5t70.5 -35.5t70 35.5zM628.5 12q-36.5 23 -57 64.5t-20.5 94.5q0 54 20.5 95.5t56.5 65t83 23.5q46 0 82.5 -23t57 -64t20.5 -94q0 -54 -20.5 -96t-57 -65.5t-82.5 -23.5t-82.5 23zM781.5 81q27.5 36 27.5 92t-27.5 91t-70.5 35t-70.5 -35.5t-27.5 -91.5
q0 -55 27.5 -91t70.5 -36t70.5 36z" />
    <glyph glyph-name="ampersand" unicode="&#x26;" horiz-adv-x="699" 
d="M612 0l-86 81q-42 -45 -98 -68.5t-124 -23.5q-76 0 -134.5 26.5t-91.5 73.5t-33 107q0 80 42 129t116 88q-65 84 -65 148q0 43 21.5 77t60 53.5t87.5 19.5q75 0 122 -41t47 -106q0 -59 -39.5 -96t-113.5 -74q76 -87 188 -193q38 79 38 186h83q0 -142 -59 -243
q45 -42 96 -87zM246 617q-24 -21 -24 -56q0 -43 55 -114q57 27 86 52.5t29 61.5q0 34 -23.5 55.5t-59.5 21.5q-39 0 -63 -21zM393.5 83.5q41.5 18.5 73.5 54.5q-130 125 -216 220q-58 -31 -90 -67t-32 -90q0 -61 48.5 -98.5t126.5 -37.5q48 0 89.5 18.5z" />
    <glyph glyph-name="quotesingle" unicode="'" horiz-adv-x="163" 
d="M45 712h73v-256h-73v256z" />
    <glyph glyph-name="parenleft" unicode="(" horiz-adv-x="317" 
d="M116 67q-39 112 -39 237q0 126 39.5 243.5t114.5 209.5l65 -26q-71 -83 -107.5 -191.5t-36.5 -230.5q0 -120 37 -228t109 -188l-67 -23q-76 85 -115 197z" />
    <glyph glyph-name="parenright" unicode=")" horiz-adv-x="317" 
d="M19 -107q72 80 109 188t37 228q0 122 -36.5 230.5t-107.5 191.5l65 26q75 -92 114.5 -209.5t39.5 -243.5q0 -125 -39 -237t-115 -197z" />
    <glyph glyph-name="asterisk" unicode="*" horiz-adv-x="502" 
d="M457 589l-143 -83l143 -83l-31 -52l-145 84v-146h-60v146l-145 -84l-31 52l143 83l-143 83l31 52l145 -85v144h60v-144l145 85z" />
    <glyph glyph-name="plus" unicode="+" horiz-adv-x="562" 
d="M517 345v-68h-199v-190h-74v190h-199v68h199v191h74v-191h199z" />
    <glyph glyph-name="comma" unicode="," horiz-adv-x="223" 
d="M155.5 96.5q17.5 -17.5 17.5 -43.5v-96q0 -37 -20.5 -56t-58.5 -19h-24v47h24q27 0 27 28v40q-3 -1 -10 -1q-26 0 -43.5 16.5t-17.5 41.5q0 26 17.5 43t43.5 17q27 0 44.5 -17.5z" />
    <glyph glyph-name="hyphen" unicode="-" horiz-adv-x="457" 
d="M45 345h367v-68h-367v68z" />
    <glyph glyph-name="period" unicode="." horiz-adv-x="224" 
d="M67.5 8q-17.5 18 -17.5 45q0 26 17.5 43.5t44.5 17.5t44.5 -17.5t17.5 -43.5q0 -27 -17.5 -45t-44.5 -18t-44.5 18z" />
    <glyph glyph-name="slash" unicode="/" horiz-adv-x="313" 
d="M230 711h79l-218 -722h-79z" />
    <glyph glyph-name="zero" unicode="0" horiz-adv-x="631" 
d="M174.5 34q-60.5 45 -93 127t-32.5 191t33 190t93.5 125t140.5 44q81 0 141 -44t92.5 -125.5t32.5 -189.5q0 -110 -32.5 -192t-93 -126.5t-140.5 -44.5q-81 0 -141.5 45zM415 103q41 38 62.5 103.5t21.5 145.5q0 89 -24.5 153t-66 97t-92.5 33q-58 0 -99 -37.5t-62.5 -102
t-21.5 -143.5q0 -91 24 -155.5t66 -98t93 -33.5q58 0 99 38z" />
    <glyph glyph-name="one" unicode="1" horiz-adv-x="362" 
d="M282 700v-700h-82v553q-51 -66 -160 -66h-13v74h13q79 0 120 33t41 96v10h81z" />
    <glyph glyph-name="two" unicode="2" horiz-adv-x="563" 
d="M150 75h359v-75h-446v66q0 64 28.5 110.5t69 77.5t107.5 71q57 34 89 57.5t54 56t22 74.5q0 54 -38.5 88t-96.5 34q-72 0 -118.5 -38t-56.5 -104h-85q14 101 84 159.5t176 58.5q63 0 113.5 -25t78.5 -70t28 -103q0 -61 -27.5 -105.5t-67 -73.5t-103.5 -65
q-57 -31 -90.5 -55t-56.5 -58t-23 -79v-2z" />
    <glyph glyph-name="three" unicode="3" horiz-adv-x="606" 
d="M524 300q38 -45 38 -110q0 -59 -30.5 -104.5t-85.5 -71t-125 -25.5q-82 0 -144 28.5t-97.5 81.5t-39.5 124h86q5 -73 56.5 -115.5t138.5 -42.5q71 0 115.5 37t44.5 99q0 58 -45 91.5t-124 33.5h-94v68h94q64 2 103 34.5t39 86.5q0 52 -39 86t-101 34q-68 0 -113.5 -38.5
t-55.5 -103.5h-86q14 100 83 159t172 59q65 0 115.5 -24t78.5 -67t28 -98t-31.5 -96.5t-88.5 -61.5q70 -19 108 -64z" />
    <glyph glyph-name="four" unicode="4" horiz-adv-x="595" 
d="M563 249v-70h-100v-179h-81v179h-348v70l347 451l1 -1v1h81v-451h100zM123 249h259v339z" />
    <glyph glyph-name="five" unicode="5" horiz-adv-x="601" 
d="M446 431q52 -30 81 -83t29 -121q0 -69 -31 -123.5t-86.5 -84.5t-127.5 -30q-108 0 -179.5 60t-82.5 160h85q8 -66 56 -105t121 -39q71 0 116 45t45 117t-44.5 117.5t-114.5 45.5q-46 0 -89 -19.5t-69 -49.5h-81l56 379h396v-75h-328l-34 -235q29 33 71.5 52t91.5 19
q67 0 119 -30z" />
    <glyph glyph-name="six" unicode="6" horiz-adv-x="622" 
d="M464 433.5q53 -29.5 82.5 -83t29.5 -122.5q0 -70 -30.5 -124t-85.5 -84.5t-125 -30.5q-93 0 -158.5 46t-98.5 124.5t-33 176.5q0 120 35.5 204.5t100.5 127.5t153 43q94 0 160.5 -54t83.5 -142h-86q-14 54 -57 87t-101 33q-102 0 -157.5 -78.5t-55.5 -209.5q0 -14 2 -38
q19 65 79 109.5t142 44.5q67 0 120 -29.5zM448 110q44 45 44 118t-44 118t-115 45q-75 0 -122 -46t-47 -118t47 -117t122 -45q71 0 115 45z" />
    <glyph glyph-name="seven" unicode="7" horiz-adv-x="526" 
d="M29 700h469v-75l-324 -625h-94l327 625h-378v75z" />
    <glyph glyph-name="eight" unicode="8" horiz-adv-x="621" 
d="M539.5 299.5q36.5 -45.5 36.5 -105.5t-32.5 -106.5t-92.5 -72.5t-139 -26t-139.5 25t-94 71.5t-33.5 108.5q0 60 36.5 105.5t101.5 69.5q-50 23 -78 63.5t-28 91.5q0 54 29.5 96.5t83 66.5t122.5 24q67 0 120 -24t82.5 -66.5t29.5 -96.5q0 -51 -27.5 -91t-77.5 -64
q64 -24 100.5 -69.5zM202.5 604.5q-42.5 -32.5 -42.5 -84.5q0 -54 42.5 -88.5t109.5 -34.5q66 0 108 34.5t42 88.5q0 52 -42 84.5t-108 32.5q-67 0 -109.5 -32.5zM441 102.5q50 37.5 50 96.5q0 39 -23 70t-63.5 48t-92.5 17q-80 0 -130.5 -38t-50.5 -97t50.5 -96.5
t130.5 -37.5q79 0 129 37.5z" />
    <glyph glyph-name="nine" unicode="9" horiz-adv-x="604" 
d="M489.5 614.5q69.5 -96.5 69.5 -258.5q0 -174 -68 -270.5t-195 -96.5q-103 0 -170.5 55.5t-81.5 154.5h85q7 -63 51.5 -98.5t115.5 -35.5q90 0 139 74t49 208q0 12 -2 34q-13 -63 -65 -101t-127 -38q-70 0 -125.5 30t-86.5 83.5t-31 122.5q0 68 31 121t86.5 82.5
t125.5 29.5q130 0 199.5 -96.5zM406 358.5q43 44.5 43 115.5q0 72 -43 117t-111 45q-73 0 -119 -44.5t-47 -115.5q-1 -72 45.5 -117t120.5 -45q68 0 111 44.5z" />
    <glyph glyph-name="colon" unicode=":" horiz-adv-x="241" 
d="M75.5 8q-17.5 18 -17.5 45q0 26 17.5 43.5t44.5 17.5t44.5 -17.5t17.5 -43.5q0 -27 -17.5 -45t-44.5 -18t-44.5 18zM75.5 436q-17.5 18 -17.5 45q0 26 17.5 43.5t44.5 17.5t44.5 -17.5t17.5 -43.5q0 -27 -17.5 -45t-44.5 -18t-44.5 18z" />
    <glyph glyph-name="semicolon" unicode=";" horiz-adv-x="241" 
d="M163.5 96.5q17.5 -17.5 17.5 -43.5v-96q0 -37 -20.5 -56t-58.5 -19h-24v47h24q27 0 27 28v40q-3 -1 -10 -1q-26 0 -43.5 16.5t-17.5 41.5q0 26 17.5 43t43.5 17q27 0 44.5 -17.5zM75.5 436q-17.5 18 -17.5 45q0 26 17.5 43.5t44.5 17.5t44.5 -17.5t17.5 -43.5
q0 -27 -17.5 -45t-44.5 -18t-44.5 18z" />
    <glyph glyph-name="less" unicode="&#x3c;" horiz-adv-x="556" 
d="M491 551v-80l-369 -192l369 -192v-80l-446 232v80z" />
    <glyph glyph-name="equal" unicode="=" horiz-adv-x="560" 
d="M45 433h470v-68h-470v68zM45 221h470v-68h-470v68z" />
    <glyph glyph-name="greater" unicode="&#x3e;" horiz-adv-x="556" 
d="M65 551l446 -232v-80l-446 -232v80l369 192l-369 192v80z" />
    <glyph glyph-name="question" unicode="?" horiz-adv-x="526" 
d="M246.5 318.5q14.5 39.5 34 62.5t49.5 48q32 27 47.5 48.5t15.5 57.5q0 45 -33.5 72.5t-86.5 27.5q-63 0 -100.5 -39t-39.5 -111h-85q6 106 65.5 166t159.5 60q59 0 106 -21.5t73 -59.5t26 -86q0 -38 -10.5 -65t-25.5 -44t-41 -40q-28 -25 -45 -44.5t-28.5 -51.5
t-11.5 -79h-85q1 59 15.5 98.5zM235.5 8q-17.5 18 -17.5 45q0 26 17.5 43.5t44.5 17.5t44.5 -17.5t17.5 -43.5q0 -27 -17.5 -45t-44.5 -18t-44.5 18z" />
    <glyph glyph-name="at" unicode="@" horiz-adv-x="862" 
d="M584 200q-3 -10 -3 -20q0 -22 14.5 -35t39.5 -13q32 0 57.5 26.5t40 73.5t14.5 107q0 83 -36 148t-100.5 101t-146.5 36q-97 0 -176 -46t-124 -128.5t-45 -187.5q0 -93 41.5 -164t118 -109.5t178.5 -38.5q62 0 117.5 14.5t91.5 40.5v-56q-34 -25 -89 -40t-120 -15
q-121 0 -211.5 45.5t-139.5 129.5t-49 197q0 117 52 212t144.5 149t210.5 54q99 0 176.5 -43.5t121 -121.5t43.5 -178q0 -74 -22 -131t-62 -89t-91 -32q-42 0 -69 24.5t-28 64.5q-30 -42 -73.5 -65.5t-92.5 -23.5q-72 0 -109 45.5t-37 116.5q0 68 30.5 126.5t84.5 93.5
t119 35q46 0 78.5 -22.5t47.5 -61.5l24 70h40zM486 184.5q45 44.5 60 115.5l1 -1v2l-1 -1q4 19 4 39q0 49 -28 79.5t-74 30.5q-44 0 -82 -25.5t-61 -70t-23 -98.5q0 -50 26.5 -82.5t75.5 -32.5q57 0 102 44.5z" />
    <glyph glyph-name="A" unicode="A" horiz-adv-x="717" 
d="M605 0l-86 208h-325l-86 -208h-80l288 700h84l289 -700h-84zM224 281h265l-133 322z" />
    <glyph glyph-name="B" unicode="B" horiz-adv-x="680" 
d="M598 298q30 -44 30 -100q0 -62 -28.5 -106.5t-77.5 -68t-108 -23.5h-329v700h321q98 0 152 -49.5t54 -131.5q0 -55 -26.5 -94.5t-73.5 -61.5q56 -21 86 -65zM166 625v-232h235q60 0 94 36t34 90q0 50 -32 78t-83 28h-248zM511 111q32 36 32 89q0 57 -39 88.5t-98 31.5
h-240v-245h257q56 0 88 36z" />
    <glyph glyph-name="C" unicode="C" horiz-adv-x="775" 
d="M212.5 35q-77.5 46 -118.5 128.5t-41 188.5q0 104 41 185.5t118.5 127.5t182.5 46q133 0 219.5 -74t109.5 -206h-85q-19 97 -84 150.5t-160 53.5q-78 0 -135.5 -34.5t-88.5 -98.5t-31 -150q0 -134 68.5 -210.5t186.5 -76.5q99 0 161.5 52t82.5 152h85
q-23 -136 -107.5 -208t-221.5 -72q-105 0 -182.5 46z" />
    <glyph glyph-name="D" unicode="D" horiz-adv-x="725" 
d="M508.5 656q77.5 -44 120.5 -122.5t43 -179.5q0 -103 -43 -183.5t-120.5 -125.5t-176.5 -45h-247v700h247q99 0 176.5 -44zM466.5 110.5q56.5 35.5 88 99t31.5 144.5q0 75 -31.5 135.5t-88 96t-129.5 39.5h-170v-550h170q73 0 129.5 35.5z" />
    <glyph glyph-name="E" unicode="E" horiz-adv-x="620" 
d="M166 75h405v-75h-486v700h477v-75h-396v-224h356v-73h-356v-253z" />
    <glyph glyph-name="F" unicode="F" horiz-adv-x="603" 
d="M561 625h-394v-230h364v-75h-364v-320h-82v700h476v-75z" />
    <glyph glyph-name="G" unicode="G" horiz-adv-x="785" 
d="M688.5 326.5q27.5 -26.5 27.5 -76.5v-250h-69v250h-2q-8 -121 -74.5 -191t-177.5 -70q-101 0 -178 44.5t-119.5 127t-42.5 191.5q0 104 41 185.5t118 127.5t181 46q132 0 219.5 -75t109.5 -205h-85q-19 97 -83.5 150.5t-160.5 53.5q-78 0 -135.5 -34t-88 -98t-30.5 -151
q0 -88 31 -152.5t88.5 -99.5t134.5 -35q60 0 107 27.5t73 77.5t26 113h-237v70h246q53 0 80.5 -26.5z" />
    <glyph glyph-name="H" unicode="H" horiz-adv-x="767" 
d="M600 700h82v-700h-82v323h-432v-323h-83v700h83v-302h432v302z" />
    <glyph glyph-name="I" unicode="I" horiz-adv-x="252" 
d="M85 700h82v-700h-82v700z" />
    <glyph glyph-name="J" unicode="J" horiz-adv-x="577" 
d="M499 700v-503q0 -61 -28.5 -108t-79.5 -73.5t-117 -26.5q-67 0 -119.5 25t-81.5 70t-29 103v96h81v-95q0 -55 41.5 -89t107.5 -34q64 0 103.5 37t39.5 96v502h82z" />
    <glyph glyph-name="K" unicode="K" horiz-adv-x="682" 
d="M657 0h-97l-255 351l-137 -143v-208h-83v700h83v-393l369 393h101l-279 -292z" />
    <glyph glyph-name="L" unicode="L" horiz-adv-x="571" 
d="M168 76h375v-76h-458v700h83v-624z" />
    <glyph glyph-name="M" unicode="M" horiz-adv-x="873" 
d="M788 700v-700h-81v564l-232 -564h-77l-231 560v-560h-82v700h102l250 -608l250 608h101z" />
    <glyph glyph-name="N" unicode="N" horiz-adv-x="739" 
d="M573 700h81v-700h-91l-396 579v-579h-82v700h92l396 -580v580z" />
    <glyph glyph-name="O" unicode="O" horiz-adv-x="781" 
d="M214.5 33.5q-76.5 44.5 -119 127t-42.5 191.5q0 104 40.5 185.5t117 127.5t179.5 46q100 0 176.5 -44.5t119 -126t42.5 -188.5q0 -105 -41 -187.5t-117.5 -129t-179.5 -46.5q-99 0 -175.5 44.5zM525 100q57 35 88 100t31 152q0 86 -31 150t-88.5 98.5t-134.5 34.5
t-134 -34.5t-87.5 -98.5t-30.5 -150q0 -87 31 -152t88 -100t133 -35q78 0 135 35z" />
    <glyph glyph-name="P" unicode="P" horiz-adv-x="679" 
d="M536.5 673q50.5 -27 76.5 -74t26 -104q0 -68 -29.5 -117t-80 -74.5t-113.5 -25.5h-248v-278h-83v700h331q70 0 120.5 -27zM519 393q36 40 36 102q0 61 -38 95.5t-97 34.5h-252v-272h252q63 0 99 40z" />
    <glyph glyph-name="Q" unicode="Q" horiz-adv-x="781" 
d="M687 164.5q-41 -82.5 -116 -128.5l80 -140l-59 -27l-81 139q-59 -19 -121 -19q-99 0 -175.5 44.5t-119 127t-42.5 191.5q0 104 40.5 185.5t117 127.5t179.5 46q100 0 176.5 -44.5t119 -126t42.5 -188.5q0 -105 -41 -187.5zM169 200q31 -65 88 -100t133 -35q42 0 80 11
l-104 185l64 28l101 -185q54 35 83.5 99t29.5 149q0 86 -31 150t-88.5 98.5t-134.5 34.5t-134 -34.5t-87.5 -98.5t-30.5 -150q0 -87 31 -152z" />
    <glyph glyph-name="R" unicode="R" horiz-adv-x="691" 
d="M658 0h-86l-90 243q-9 24 -27.5 35.5t-41.5 11.5h-246v-290h-82v700h319q70 0 120 -25t76 -69.5t26 -100.5q0 -65 -33.5 -111.5t-91.5 -67.5q42 -17 58 -60zM167 363h241q64 0 99.5 39.5t35.5 102.5q0 56 -38 88t-97 32h-241v-262z" />
    <glyph glyph-name="S" unicode="S" horiz-adv-x="654" 
d="M135.5 47q-77.5 58 -85.5 162h86q7 -68 61.5 -106t145.5 -38q51 0 91.5 15.5t63 43.5t22.5 63q0 43 -22.5 67t-59 35.5t-105.5 24.5q-78 15 -127.5 31.5t-88 56.5t-38.5 111q0 58 32 103t89 70t129 25q110 0 180 -55.5t84 -155.5h-85q-13 64 -60.5 100t-118.5 36
q-73 0 -120 -33.5t-47 -86.5q0 -44 24 -68t58.5 -34t108.5 -25q82 -16 132.5 -34t84.5 -57.5t34 -107.5q0 -59 -33.5 -104.5t-92.5 -71t-135 -25.5q-130 0 -207.5 58z" />
    <glyph glyph-name="T" unicode="T" horiz-adv-x="637" 
d="M602 700v-75h-242v-625h-82v625h-243v75h567z" />
    <glyph glyph-name="U" unicode="U" horiz-adv-x="714" 
d="M636 700v-466q0 -68 -33 -124t-95.5 -88.5t-149.5 -32.5t-150 33t-96 88.5t-33 123.5v466h83v-464q0 -79 56 -124t140 -45t140 45t56 124v464h82z" />
    <glyph glyph-name="V" unicode="V" horiz-adv-x="664" 
d="M557 700h87l-264 -700h-88l-272 700h88l228 -586z" />
    <glyph glyph-name="W" unicode="W" horiz-adv-x="945" 
d="M839 700h86l-198 -700h-93l-162 580l-162 -580h-92l-198 700h85l165 -584l163 584h79l162 -582z" />
    <glyph glyph-name="X" unicode="X" horiz-adv-x="680" 
d="M654 0h-101l-214 289l-214 -289h-99l261 352l-258 348h101l209 -283l208 283h99l-256 -345z" />
    <glyph glyph-name="Y" unicode="Y" horiz-adv-x="649" 
d="M536 700h96l-267 -391v-309h-81v309l-267 391h97l211 -313z" />
    <glyph glyph-name="Z" unicode="Z" horiz-adv-x="625" 
d="M150 75h423v-75h-521v75l414 550h-396v75h493v-75z" />
    <glyph glyph-name="bracketleft" unicode="[" horiz-adv-x="347" 
d="M312 701h-140v-766h140v-63h-212v892h212v-63z" />
    <glyph glyph-name="backslash" unicode="\" horiz-adv-x="313" 
d="M301 -11h-79l-218 722h79z" />
    <glyph glyph-name="bracketright" unicode="]" horiz-adv-x="347" 
d="M247 764v-892h-212v63h140v766h-140v63h212z" />
    <glyph glyph-name="underscore" unicode="_" horiz-adv-x="537" 
d="M45 -11h447v-68h-447v68z" />
    <glyph glyph-name="grave" unicode="`" horiz-adv-x="417" 
d="M88 750h110l61 -166h-61z" />
    <glyph glyph-name="a" unicode="a" horiz-adv-x="573" 
d="M548 74v-74h-39q-43 0 -68.5 20t-25.5 55v5q-55 -87 -184 -87q-57 0 -101.5 19t-69.5 53.5t-25 78.5q0 64 40 98.5t93 47t133 21.5q58 6 84 12.5t26 22.5q0 59 -35 92t-99 33q-62 0 -103 -29t-45 -78h-80q7 81 70.5 129.5t157.5 48.5q101 0 157 -52t56 -145v-239
q0 -15 8.5 -23.5t24.5 -8.5h25zM367.5 103q42.5 41 43.5 113v60q-9 -15 -36 -21t-81 -12q-56 -5 -91.5 -12.5t-61 -27t-25.5 -55.5q0 -38 34 -62t88 -24q87 0 129.5 41z" />
    <glyph glyph-name="b" unicode="b" horiz-adv-x="616" 
d="M458 507.5q55 -34.5 86 -97t31 -142.5q0 -82 -30.5 -145t-85.5 -98.5t-126 -35.5q-63 0 -112 24.5t-79 69.5l-7 -83h-65v750h81v-290q33 39 80 60.5t102 21.5q70 0 125 -34.5zM415 87.5q37 27.5 56.5 75t19.5 105.5q0 63 -22 109t-59.5 70t-82.5 24q-84 0 -130 -56
t-46 -143q0 -67 23 -114.5t63 -72.5t90 -25q51 0 88 27.5z" />
    <glyph glyph-name="c" unicode="c" horiz-adv-x="580" 
d="M162 26q-60 37 -90.5 100.5t-30.5 141.5q0 86 34.5 148t93.5 94t131 32q101 0 167 -57.5t77 -158.5h-79q-11 67 -55 106t-110 39q-80 0 -128 -55t-48 -148q0 -66 24.5 -113t66 -71t93.5 -24q62 0 104 39t53 108h79q-11 -103 -74 -160.5t-165 -57.5q-83 0 -143 37z" />
    <glyph glyph-name="d" unicode="d" horiz-adv-x="612" 
d="M544 750v-750h-64l-12 82q-30 -44 -76.5 -68.5t-103.5 -24.5q-78 0 -133.5 36.5t-84.5 99t-29 139.5q0 87 33 150t89 95.5t125 32.5q53 0 98 -20.5t77 -57.5v286h81zM413 112.5q47 52.5 52 138.5l1 21l-1 20q-5 80 -52 129.5t-118 49.5q-49 0 -87.5 -26t-60 -73
t-21.5 -108q0 -60 21.5 -106.5t60 -72t87.5 -25.5q71 0 118 52.5z" />
    <glyph glyph-name="e" unicode="e" horiz-adv-x="575" 
d="M534 252h-411q3 -87 50.5 -139.5t128.5 -52.5q57 0 95 28.5t56 85.5h79q-18 -87 -79 -136t-151 -49q-77 0 -136.5 35t-92 97.5t-32.5 141.5q0 87 34 150.5t91.5 96t125.5 32.5q109 0 174.5 -69t67.5 -189v-32zM184.5 431.5q-43.5 -39.5 -56.5 -111.5h322
q-10 69 -51.5 110t-106.5 41q-64 0 -107.5 -39.5z" />
    <glyph glyph-name="f" unicode="f" horiz-adv-x="390" 
d="M224 651q-18 -20 -18 -57v-64h158v-74h-158v-456h-82v456h-88v74h88v64q1 71 41 111t110 40h103v-74h-103q-33 0 -51 -20z" />
    <glyph glyph-name="g" unicode="g" horiz-adv-x="614" 
d="M546 530v-515q0 -67 -30.5 -118.5t-86 -80t-128.5 -28.5q-72 0 -126.5 22t-84.5 62.5t-30 95.5h81q0 -51 43.5 -80.5t116.5 -29.5q74 0 119.5 43t45.5 114v65q-30 -43 -76 -66.5t-102 -23.5q-78 0 -133.5 36.5t-84.5 98.5t-29 139q0 87 33 150t89 95.5t125 32.5
q58 0 106 -24.5t81 -69.5l6 82h65zM383 88q39 27 61 75t22 109q0 58 -22 103.5t-60.5 70.5t-88.5 25q-49 0 -87.5 -26t-60 -73t-21.5 -108q0 -59 21.5 -105.5t60 -72t87.5 -25.5t88 27z" />
    <glyph glyph-name="h" unicode="h" horiz-adv-x="580" 
d="M431 518q44 -24 67.5 -66.5t23.5 -96.5v-355h-80v352q0 55 -34 86.5t-87 31.5q-76 0 -119.5 -42t-44.5 -106v-322h-82v750h82v-282q29 36 74.5 55t97.5 19q58 0 102 -24z" />
    <glyph glyph-name="i" unicode="i" horiz-adv-x="227" 
d="M70.5 635.5q-17.5 17.5 -17.5 43.5t17.5 43t43.5 17t43 -17t17 -43t-17 -43.5t-43 -17.5t-43.5 17.5zM74 530h80v-530h-80v530z" />
    <glyph glyph-name="j" unicode="j" horiz-adv-x="234" 
d="M163 722q17 -17 17 -43q0 -27 -17 -44t-43 -17q-27 0 -44 17t-17 44q0 26 17 43t44 17q26 0 43 -17zM79 530h81v-575q-1 -76 -44.5 -115.5t-124.5 -39.5h-62v73h62q43 0 65.5 21t22.5 61v575z" />
    <glyph glyph-name="k" unicode="k" horiz-adv-x="543" 
d="M450 0l-181 281l-112 -113v-168h-82v750h82v-484l261 264h97l-193 -195l219 -335h-91z" />
    <glyph glyph-name="l" unicode="l" horiz-adv-x="233" 
d="M75 750h83v-750h-83v750z" />
    <glyph glyph-name="m" unicode="m" horiz-adv-x="918" 
d="M771.5 518q42.5 -24 65.5 -66.5t23 -96.5v-355h-81v352q0 55 -33 86.5t-82 31.5q-73 0 -115.5 -42t-43.5 -106v-322h-81v352q0 55 -34 86.5t-85 31.5q-70 0 -112 -42.5t-43 -105.5v-322h-82v530h69l5 -71q28 40 75.5 61.5t101.5 21.5q58 0 102 -27t66 -74q26 48 76 74.5
t111 26.5q55 0 97.5 -24z" />
    <glyph glyph-name="n" unicode="n" horiz-adv-x="573" 
d="M424 518q44 -24 67.5 -66.5t23.5 -96.5v-355h-80v352q0 56 -34.5 87t-90.5 31q-73 0 -116 -42t-44 -106v-322h-82v530h69l6 -78q27 41 75 65.5t103 24.5q59 0 103 -24z" />
    <glyph glyph-name="o" unicode="o" horiz-adv-x="598" 
d="M159 25.5q-58 36.5 -88 100t-30 144.5q0 86 34 147.5t93 93t131 31.5q81 0 139.5 -36t88.5 -98t30 -138q0 -89 -33.5 -152.5t-92 -96t-132.5 -32.5q-82 0 -140 36.5zM394 88q40 28 61 75.5t21 106.5q0 90 -48 145.5t-129 55.5t-129 -55.5t-48 -145.5q0 -66 23.5 -113.5
t63.5 -72t90 -24.5q55 0 95 28z" />
    <glyph glyph-name="p" unicode="p" horiz-adv-x="614" 
d="M461.5 505.5q54.5 -36.5 83 -98.5t28.5 -139q0 -87 -32.5 -150t-87.5 -96t-122 -33q-58 0 -104.5 21.5t-77.5 60.5v-271h-81v730h65l7 -81q34 44 83 68.5t108 24.5q76 0 130.5 -36.5zM413 87.5q37 27.5 56.5 75t19.5 105.5q0 63 -22 109t-59.5 70t-82.5 24
q-84 0 -130 -56t-46 -143q0 -67 23 -114.5t63 -72.5t90 -25q51 0 88 27.5z" />
    <glyph glyph-name="q" unicode="q" horiz-adv-x="615" 
d="M547 530v-730h-81v279q-31 -43 -76.5 -66.5t-101.5 -23.5q-78 0 -133.5 36.5t-84.5 99t-29 139.5q0 87 33 150t89 95.5t125 32.5q58 0 107 -25t81 -69l7 82h64zM384 87q39 27 60.5 75t21.5 110q0 58 -22 103.5t-60.5 70.5t-88.5 25q-49 0 -87.5 -26t-60 -73t-21.5 -108
q0 -60 21.5 -106.5t60 -72t87.5 -25.5q50 0 89 27z" />
    <glyph glyph-name="r" unicode="r" horiz-adv-x="371" 
d="M344 533v-81h-17q-86 0 -131.5 -44.5t-45.5 -129.5v-278h-82v530h65l10 -101q52 104 184 104h17z" />
    <glyph glyph-name="s" unicode="s" horiz-adv-x="501" 
d="M104 34q-59 45 -64 127h80q4 -49 42 -75.5t102 -26.5q53 0 85.5 22t32.5 59q0 39 -28.5 57.5t-97.5 32.5q-58 12 -96 24.5t-68.5 44t-30.5 86.5q0 44 25.5 80t69.5 56.5t98 20.5q85 0 139 -44t65 -124h-79q-8 48 -40.5 73t-84.5 25q-50 0 -82 -23t-32 -62q0 -29 16 -46
t42 -25.5t73 -17.5q59 -12 98 -26.5t66 -45t27 -83.5q0 -45 -25.5 -80t-70.5 -54.5t-103 -19.5q-100 0 -159 45z" />
    <glyph glyph-name="t" unicode="t" horiz-adv-x="363" 
d="M189 456v-305q0 -37 18 -57t51 -20h66v-74h-66q-70 0 -109.5 40t-40.5 111v305h-95v74h95v144h81v-144h144v-74h-144z" />
    <glyph glyph-name="u" unicode="u" horiz-adv-x="573" 
d="M505 530v-530h-64l-8 81q-25 -44 -70.5 -68t-101.5 -24q-63 0 -108.5 24t-70 66.5t-24.5 96.5v354h81v-351q0 -56 35.5 -87t94.5 -31q72 0 113 42t42 107v320h81z" />
    <glyph glyph-name="v" unicode="v" horiz-adv-x="567" 
d="M462 530h85l-221 -530h-85l-221 530h86l178 -431z" />
    <glyph glyph-name="w" unicode="w" horiz-adv-x="759" 
d="M661 530h78l-157 -530h-89l-113 407l-113 -407h-90l-157 530h80l127 -429l119 429h69l119 -429z" />
    <glyph glyph-name="x" unicode="x" horiz-adv-x="528" 
d="M502 0h-92l-146 206l-146 -206h-92l193 264l-190 266h91l145 -206l144 206h91l-190 -266z" />
    <glyph glyph-name="y" unicode="y" horiz-adv-x="550" 
d="M530 530l-234 -631q-17 -45 -58.5 -72t-101.5 -27h-74v74h74q33 0 56 16t32 41l26 69h-20l-210 530h86l174 -449l167 449h83z" />
    <glyph glyph-name="z" unicode="z" horiz-adv-x="502" 
d="M140 73h317v-73h-410v73l313 384h-304v73h397v-73z" />
    <glyph glyph-name="braceleft" unicode="{" horiz-adv-x="379" 
d="M214 369q-20 -29 -55 -37q34 -8 54.5 -34t20.5 -65v-220q0 -38 19 -58t55 -20h36v-63h-36q-71 0 -109 37t-38 104v220q0 31 -22.5 49t-61.5 18v64q39 0 61.5 20t22.5 56v182q0 68 38 105t109 37h36v-63h-36q-36 0 -55 -20t-19 -59v-182q0 -42 -20 -71z" />
    <glyph glyph-name="bar" unicode="|" horiz-adv-x="262" 
d="M90 700h82v-795h-82v795z" />
    <glyph glyph-name="braceright" unicode="}" horiz-adv-x="379" 
d="M240.5 384q22.5 -20 61.5 -20v-64q-39 0 -61.5 -18t-22.5 -49v-220q0 -67 -38 -104t-109 -37h-36v63h36q36 0 55 20t19 58v220q0 39 20.5 65t54.5 34q-35 8 -55 37t-20 71v182q0 39 -19 59t-55 20h-36v63h36q71 0 109 -37t38 -105v-182q0 -36 22.5 -56z" />
    <glyph glyph-name="exclamdown" unicode="&#xa1;" horiz-adv-x="261" 
d="M175.5 524q17.5 -18 17.5 -45q0 -26 -17.5 -43.5t-44.5 -17.5t-44.5 17.5t-17.5 43.5q0 27 17.5 45t44.5 18t44.5 -18zM91 312h82v-491h-82v491z" />
    <glyph glyph-name="cent" unicode="&#xa2;" horiz-adv-x="580" 
d="M415.5 185.5q39.5 38.5 49.5 105.5h79q-11 -100 -70.5 -157t-156.5 -61v-73h-49v75q-72 8 -123 46.5t-77.5 98.5t-26.5 132q0 80 29.5 139t81 92.5t116.5 40.5v76h49v-74q95 -5 156 -62t71 -154h-79q-10 63 -49 101.5t-99 42.5v-410q59 3 98.5 41.5zM163.5 214
q39.5 -53 104.5 -66v404q-67 -11 -105.5 -64t-38.5 -136q0 -85 39.5 -138z" />
    <glyph glyph-name="sterling" unicode="&#xa3;" horiz-adv-x="699" 
d="M562 271h76v-112q-1 -74 -45 -116.5t-125 -42.5h-423v75q75 0 109.5 30.5t34.5 77.5q0 30 -10 57t-30 64h-104v62h71q-31 67 -31 131q0 62 31.5 111t88 76t129.5 27q126 0 204 -72t101 -208h-85q-20 100 -76.5 153t-143.5 53q-71 0 -115 -38.5t-44 -99.5q0 -37 8.5 -68.5
t24.5 -64.5h220v-62h-187q17 -31 26.5 -57t9.5 -54q0 -43 -25.5 -75t-68.5 -43h285q43 0 68.5 22t25.5 62v112z" />
    <glyph glyph-name="currency" unicode="&#xa4;" horiz-adv-x="563" 
d="M440 186l78 -79l-38 -35l-79 79q-52 -35 -119 -35t-119 35l-79 -79l-39 35l79 79q-44 52 -44 124q0 69 43 120l-78 78l39 36l78 -78q53 35 120 35q68 0 120 -35l78 78l38 -36l-77 -78q43 -51 43 -120q0 -72 -44 -124zM192 219q36 -36 90 -36q55 0 91 36t36 91
q0 53 -36 88.5t-91 35.5q-54 0 -90 -35.5t-36 -88.5q0 -55 36 -91z" />
    <glyph glyph-name="yen" unicode="&#xa5;" horiz-adv-x="650" 
d="M633 700l-267 -391h189v-62h-189v-76h189v-62h-189v-109h-82v109h-189v62h189v76h-189v62h189l-267 391h96l213 -311l212 311h95z" />
    <glyph glyph-name="brokenbar" unicode="&#xa6;" horiz-adv-x="262" 
d="M90 700h82v-345h-82v345zM90 250h82v-345h-82v345z" />
    <glyph glyph-name="dieresis" unicode="&#xa8;" horiz-adv-x="411" 
d="M64.5 640q-16.5 17 -16.5 42t16.5 41t41.5 16t41.5 -16t16.5 -41t-16.5 -42t-41.5 -17t-41.5 17zM270.5 639.5q-16.5 16.5 -16.5 42.5q0 25 16.5 41t41.5 16t41 -16t16 -41q0 -26 -16 -42.5t-41 -16.5t-41.5 16.5z" />
    <glyph glyph-name="copyright" unicode="&#xa9;" horiz-adv-x="930" 
d="M262.5 9.5q-88.5 49.5 -138 138t-49.5 202.5t49.5 202.5t138 138t202.5 49.5t202.5 -49.5t138 -138t49.5 -202.5t-49.5 -202.5t-138 -138t-202.5 -49.5t-202.5 49.5zM635 56q75 43 116.5 119.5t41.5 174.5q0 97 -41.5 172.5t-116.5 118t-170 42.5t-170 -42.5t-116.5 -118
t-41.5 -172.5q0 -98 41.5 -174.5t116.5 -119.5t170 -43t170 43zM379 184.5q-41 24.5 -64 68t-23 99.5q0 55 22.5 98t63 67t91.5 24q69 0 115.5 -40.5t53.5 -108.5h-59q-7 43 -37 68.5t-73 25.5q-52 0 -84.5 -37.5t-32.5 -96.5q0 -60 34 -98.5t88 -38.5q41 0 69.5 25.5
t35.5 69.5h59q-8 -68 -53 -109t-113 -41q-52 0 -93 24.5z" />
    <glyph glyph-name="ordfeminine" unicode="&#xaa;" horiz-adv-x="380" 
d="M335 453v-45h-8q-58 0 -74 44q-16 -22 -41.5 -33.5t-58.5 -11.5q-48 0 -78 23.5t-30 60.5q0 35 21.5 54.5t49.5 26.5t72 13q33 4 47 8t14 13q0 28 -19 44t-51 16q-31 0 -52 -15t-23 -37h-51q3 43 38 70t88 27q57 0 89.5 -30t32.5 -83v-115q0 -14 7 -22t19 -8h8zM224 471
q25 20 25 51v34q-5 -6 -17 -8.5t-38 -5.5q-46 -4 -70.5 -13t-24.5 -35q0 -20 18 -31.5t44 -11.5q38 0 63 20z" />
    <glyph glyph-name="logicalnot" unicode="&#xac;" horiz-adv-x="572" 
d="M45 325h467v-308h-74v240h-393v68z" />
    <glyph glyph-name="registered" unicode="&#xae;" horiz-adv-x="930" 
d="M667.5 690.5q88.5 -49.5 138 -138t49.5 -202.5t-49.5 -202.5t-138 -138t-202.5 -49.5t-202.5 49.5t-138 138t-49.5 202.5t49.5 202.5t138 138t202.5 49.5t202.5 -49.5zM635 56q75 43 116.5 119.5t41.5 174.5q0 97 -41.5 172.5t-116.5 118t-170 42.5t-170 -42.5
t-116.5 -118t-41.5 -172.5q0 -98 41.5 -174.5t116.5 -119.5t170 -43t170 43zM590 302l50 -133h-62l-44 120q-8 22 -34 22h-112v-142h-57v363h171q53 0 87 -28.5t34 -74.5q0 -33 -18 -57.5t-50 -35.5q25 -7 35 -34zM505 364q28 0 44 17t16 41q0 22 -16 39t-44 17h-117v-114
h117z" />
    <glyph glyph-name="macron" unicode="&#xaf;" horiz-adv-x="413" 
d="M45 711h324v-59h-324v59z" />
    <glyph glyph-name="degree" unicode="&#xb0;" horiz-adv-x="375" 
d="M110.5 417q-34.5 19 -54 53t-19.5 75t19.5 75t54 53t76.5 19t76.5 -19t54.5 -53t20 -75t-20 -75t-54.5 -53t-76.5 -19t-76.5 19zM250.5 479.5q25.5 26.5 25.5 65.5t-25.5 65t-63.5 26t-63 -26t-25 -65t25 -65.5t63 -26.5t63.5 26.5z" />
    <glyph glyph-name="plusminus" unicode="&#xb1;" horiz-adv-x="590" 
d="M332 379h213v-68h-213v-157h-74v157h-213v68h213v157h74v-157zM45 34v68h500v-68h-500z" />
    <glyph glyph-name="uni00B2" unicode="&#xb2;" horiz-adv-x="337" 
d="M64 499.5q14 24.5 34 40t53 36.5q37 22 55.5 40t18.5 45q0 22 -15 35.5t-39 13.5q-28 0 -46.5 -17t-21.5 -47h-65q7 55 43 87.5t91 32.5q53 0 86 -29.5t33 -75.5q0 -30 -15 -52.5t-35 -38t-54 -35.5q-35 -20 -51.5 -34.5t-16.5 -33.5h173v-59h-242v33q0 34 14 58.5z" />
    <glyph glyph-name="uni00B3" unicode="&#xb3;" horiz-adv-x="360" 
d="M83.5 432q-39.5 32 -43.5 88h65q1 -30 24 -48t56 -18q31 0 50 15.5t19 38.5q0 24 -20.5 39.5t-50.5 15.5h-54v50h54q25 0 41 14.5t16 36.5q0 20 -16 34t-40 14q-27 0 -46.5 -15.5t-23.5 -41.5h-65q7 52 44.5 81.5t90.5 29.5t86 -26.5t33 -68.5q0 -28 -17 -49t-47 -31
q37 -10 57 -33t20 -56q0 -45 -36 -73.5t-95 -28.5q-62 0 -101.5 32z" />
    <glyph glyph-name="acute" unicode="&#xb4;" horiz-adv-x="417" 
d="M219 750h110l-110 -166h-61z" />
    <glyph glyph-name="paragraph" unicode="&#xb6;" horiz-adv-x="588" 
d="M515 -103h-77v736h-77v-736h-77v381h-13q-63 0 -114 25.5t-80.5 74.5t-29.5 117q0 57 26 104t77 74t121 27h244v-803z" />
    <glyph glyph-name="periodcentered" unicode="&#xb7;" horiz-adv-x="244" 
d="M77.5 266q-17.5 18 -17.5 45q0 26 17.5 43.5t44.5 17.5t44.5 -17.5t17.5 -43.5q0 -27 -17.5 -45t-44.5 -18t-44.5 18z" />
    <glyph glyph-name="cedilla" unicode="&#xb8;" horiz-adv-x="225" 
d="M228 -75.5q21 -18.5 21 -45.5q0 -41 -35.5 -63.5t-86.5 -22.5q-35 0 -71 11v50q15 -7 36 -10.5t41 -3.5q28 0 45 9.5t17 25.5q0 13 -12.5 19.5t-33.5 6.5q-30 0 -56 -12l-24 36l67 98h47l-62 -87q28 7 48 7q38 0 59 -18.5z" />
    <glyph glyph-name="uni00B9" unicode="&#xb9;" horiz-adv-x="245" 
d="M31 639h-4v51h4q35 0 53.5 16t18.5 47v5h62v-350h-62v257q-26 -26 -72 -26z" />
    <glyph glyph-name="ordmasculine" unicode="&#xba;" horiz-adv-x="371" 
d="M80.5 448.5q-40.5 43.5 -40.5 111.5q0 67 40.5 109t104.5 42q65 0 105.5 -42t40.5 -109q0 -68 -41 -111.5t-105 -43.5t-104.5 43.5zM251 482.5q25 30.5 25 77.5q0 46 -25 75t-65 29q-41 0 -66.5 -29t-25.5 -75q0 -48 25.5 -78t66.5 -30q40 0 65 30.5z" />
    <glyph glyph-name="questiondown" unicode="&#xbf;" horiz-adv-x="526" 
d="M290.5 524q17.5 -18 17.5 -45q0 -26 -17.5 -43.5t-44.5 -17.5t-44.5 17.5t-17.5 43.5q0 27 17.5 45t44.5 18t44.5 -18zM279.5 213.5q-14.5 -39.5 -34 -62.5t-49.5 -48q-32 -27 -47.5 -48.5t-15.5 -57.5q0 -45 33.5 -72.5t86.5 -27.5q63 0 100.5 39t39.5 111h85
q-6 -106 -65.5 -166t-159.5 -60q-59 0 -106 21.5t-73 59.5t-26 86q0 38 10.5 65t25.5 44t41 40q28 25 45 44.5t28.5 51.5t11.5 79h85q-1 -59 -15.5 -98.5z" />
    <glyph glyph-name="Agrave" unicode="&#xc0;" horiz-adv-x="717" 
d="M605 0l-86 208h-325l-86 -208h-80l288 700h84l289 -700h-84zM224 281h265l-133 322zM224 920h111l60 -166h-61z" />
    <glyph glyph-name="Aacute" unicode="&#xc1;" horiz-adv-x="717" 
d="M605 0l-86 208h-325l-86 -208h-80l288 700h84l289 -700h-84zM224 281h265l-133 322zM384 920h111l-110 -166h-61z" />
    <glyph glyph-name="Acircumflex" unicode="&#xc2;" horiz-adv-x="717" 
d="M605 0l-86 208h-325l-86 -208h-80l288 700h84l289 -700h-84zM224 281h265l-133 322zM529 754h-56l-116 117l-123 -117h-56l120 166h121z" />
    <glyph glyph-name="Atilde" unicode="&#xc3;" horiz-adv-x="717" 
d="M605 0l-86 208h-325l-86 -208h-80l288 700h84l289 -700h-84zM224 281h265l-133 322zM393.5 793q-23.5 13 -53.5 37q-19 16 -31 23.5t-24 7.5q-20 0 -31.5 -19.5t-11.5 -56.5h-67q0 63 27.5 100t76.5 37q27 0 47 -11.5t46 -34.5q20 -18 34 -27t30 -9q19 0 30 19t11 54h67
q0 -63 -25 -98t-70 -35q-32 0 -55.5 13z" />
    <glyph glyph-name="Adieresis" unicode="&#xc4;" horiz-adv-x="717" 
d="M605 0l-86 208h-325l-86 -208h-80l288 700h84l289 -700h-84zM224 281h265l-133 322zM212.5 790q-16.5 17 -16.5 42t16.5 41t41.5 16t41.5 -16t16.5 -41t-16.5 -42t-41.5 -17t-41.5 17zM418.5 789.5q-16.5 16.5 -16.5 42.5q0 25 16.5 41t41.5 16t41 -16t16 -41
q0 -26 -16 -42.5t-41 -16.5t-41.5 16.5z" />
    <glyph glyph-name="Aring" unicode="&#xc5;" horiz-adv-x="717" 
d="M605 0l-86 208h-325l-86 -208h-80l288 700h84l289 -700h-84zM224 281h265l-133 322zM286 774.5q-28 26.5 -28 67.5q0 40 28 67t71 27t71 -27t28 -67q0 -41 -28 -67.5t-71 -26.5t-71 26.5zM393 806q14 14 14 36t-14 36t-36 14t-36 -14t-14 -36t14 -36t36 -14t36 14z" />
    <glyph glyph-name="AE" unicode="&#xc6;" horiz-adv-x="983" 
d="M529 75h405v-75h-486v208h-262l-78 -208h-80l264 700h633v-75h-396v-224h356v-73h-356v-253zM214 281h234v346h-104z" />
    <glyph glyph-name="Ccedilla" unicode="&#xc7;" horiz-adv-x="775" 
d="M556.5 117q62.5 52 82.5 152h85q-22 -132 -101.5 -203.5t-208.5 -76.5l-38 -53q28 7 48 7q38 0 59 -18.5t21 -45.5q0 -41 -35.5 -63.5t-86.5 -22.5q-35 0 -71 11v50q15 -7 36 -10.5t41 -3.5q28 0 45 9.5t17 25.5q0 13 -12.5 19.5t-33.5 6.5q-30 0 -56 -12l-24 36l44 65
q-97 6 -168.5 53.5t-109 127t-37.5 181.5q0 104 41 185.5t118.5 127.5t182.5 46q133 0 219.5 -74t109.5 -206h-85q-19 97 -84 150.5t-160 53.5q-78 0 -135.5 -34.5t-88.5 -98.5t-31 -150q0 -134 68.5 -210.5t186.5 -76.5q99 0 161.5 52z" />
    <glyph glyph-name="Egrave" unicode="&#xc8;" horiz-adv-x="620" 
d="M166 75h405v-75h-486v700h477v-75h-396v-224h356v-73h-356v-253zM198 920h111l60 -166h-61z" />
    <glyph glyph-name="Eacute" unicode="&#xc9;" horiz-adv-x="620" 
d="M166 75h405v-75h-486v700h477v-75h-396v-224h356v-73h-356v-253zM358 920h111l-110 -166h-61z" />
    <glyph glyph-name="Ecircumflex" unicode="&#xca;" horiz-adv-x="620" 
d="M166 75h405v-75h-486v700h477v-75h-396v-224h356v-73h-356v-253zM503 754h-56l-116 117l-123 -117h-56l120 166h121z" />
    <glyph glyph-name="Edieresis" unicode="&#xcb;" horiz-adv-x="620" 
d="M166 75h405v-75h-486v700h477v-75h-396v-224h356v-73h-356v-253zM186.5 790q-16.5 17 -16.5 42t16.5 41t41.5 16t41.5 -16t16.5 -41t-16.5 -42t-41.5 -17t-41.5 17zM392.5 789.5q-16.5 16.5 -16.5 42.5q0 25 16.5 41t41.5 16t41 -16t16 -41q0 -26 -16 -42.5t-41 -16.5
t-41.5 16.5z" />
    <glyph glyph-name="Igrave" unicode="&#xcc;" horiz-adv-x="252" 
d="M85 700h82v-700h-82v700zM-7 920h111l60 -166h-61z" />
    <glyph glyph-name="Iacute" unicode="&#xcd;" horiz-adv-x="252" 
d="M85 700h82v-700h-82v700zM153 920h111l-110 -166h-61z" />
    <glyph glyph-name="Icircumflex" unicode="&#xce;" horiz-adv-x="252" 
d="M85 700h82v-700h-82v700zM298 754h-56l-116 117l-123 -117h-56l120 166h121z" />
    <glyph glyph-name="Idieresis" unicode="&#xcf;" horiz-adv-x="252" 
d="M85 700h82v-700h-82v700zM-18.5 790q-16.5 17 -16.5 42t16.5 41t41.5 16t41.5 -16t16.5 -41t-16.5 -42t-41.5 -17t-41.5 17zM187.5 789.5q-16.5 16.5 -16.5 42.5q0 25 16.5 41t41.5 16t41 -16t16 -41q0 -26 -16 -42.5t-41 -16.5t-41.5 16.5z" />
    <glyph glyph-name="Eth" unicode="&#xd0;" horiz-adv-x="744" 
d="M527.5 656q77.5 -44 120.5 -122.5t43 -179.5q0 -103 -43 -183.5t-120.5 -125.5t-176.5 -45h-247v329h-85v75h85v296h247q99 0 176.5 -44zM485.5 110.5q56.5 35.5 88 99t31.5 144.5q0 75 -31.5 135.5t-88 96t-129.5 39.5h-170v-221h207v-75h-207v-254h170q73 0 129.5 35.5
z" />
    <glyph glyph-name="Ntilde" unicode="&#xd1;" horiz-adv-x="739" 
d="M573 700h81v-700h-91l-396 579v-579h-82v700h92l396 -580v580zM412.5 793q-23.5 13 -53.5 37q-19 16 -31 23.5t-24 7.5q-20 0 -31.5 -19.5t-11.5 -56.5h-67q0 63 27.5 100t76.5 37q27 0 47 -11.5t46 -34.5q20 -18 34 -27t30 -9q19 0 30 19t11 54h67q0 -63 -25 -98
t-70 -35q-32 0 -55.5 13z" />
    <glyph glyph-name="Ograve" unicode="&#xd2;" horiz-adv-x="781" 
d="M214.5 33.5q-76.5 44.5 -119 127t-42.5 191.5q0 104 40.5 185.5t117 127.5t179.5 46q100 0 176.5 -44.5t119 -126t42.5 -188.5q0 -105 -41 -187.5t-117.5 -129t-179.5 -46.5q-99 0 -175.5 44.5zM525 100q57 35 88 100t31 152q0 86 -31 150t-88.5 98.5t-134.5 34.5
t-134 -34.5t-87.5 -98.5t-30.5 -150q0 -87 31 -152t88 -100t133 -35q78 0 135 35zM257 920h111l60 -166h-61z" />
    <glyph glyph-name="Oacute" unicode="&#xd3;" horiz-adv-x="781" 
d="M214.5 33.5q-76.5 44.5 -119 127t-42.5 191.5q0 104 40.5 185.5t117 127.5t179.5 46q100 0 176.5 -44.5t119 -126t42.5 -188.5q0 -105 -41 -187.5t-117.5 -129t-179.5 -46.5q-99 0 -175.5 44.5zM525 100q57 35 88 100t31 152q0 86 -31 150t-88.5 98.5t-134.5 34.5
t-134 -34.5t-87.5 -98.5t-30.5 -150q0 -87 31 -152t88 -100t133 -35q78 0 135 35zM417 920h111l-110 -166h-61z" />
    <glyph glyph-name="Ocircumflex" unicode="&#xd4;" horiz-adv-x="781" 
d="M214.5 33.5q-76.5 44.5 -119 127t-42.5 191.5q0 104 40.5 185.5t117 127.5t179.5 46q100 0 176.5 -44.5t119 -126t42.5 -188.5q0 -105 -41 -187.5t-117.5 -129t-179.5 -46.5q-99 0 -175.5 44.5zM525 100q57 35 88 100t31 152q0 86 -31 150t-88.5 98.5t-134.5 34.5
t-134 -34.5t-87.5 -98.5t-30.5 -150q0 -87 31 -152t88 -100t133 -35q78 0 135 35zM562 754h-56l-116 117l-123 -117h-56l120 166h121z" />
    <glyph glyph-name="Otilde" unicode="&#xd5;" horiz-adv-x="781" 
d="M214.5 33.5q-76.5 44.5 -119 127t-42.5 191.5q0 104 40.5 185.5t117 127.5t179.5 46q100 0 176.5 -44.5t119 -126t42.5 -188.5q0 -105 -41 -187.5t-117.5 -129t-179.5 -46.5q-99 0 -175.5 44.5zM525 100q57 35 88 100t31 152q0 86 -31 150t-88.5 98.5t-134.5 34.5
t-134 -34.5t-87.5 -98.5t-30.5 -150q0 -87 31 -152t88 -100t133 -35q78 0 135 35zM426.5 793q-23.5 13 -53.5 37q-19 16 -31 23.5t-24 7.5q-20 0 -31.5 -19.5t-11.5 -56.5h-67q0 63 27.5 100t76.5 37q27 0 47 -11.5t46 -34.5q20 -18 34 -27t30 -9q19 0 30 19t11 54h67
q0 -63 -25 -98t-70 -35q-32 0 -55.5 13z" />
    <glyph glyph-name="Odieresis" unicode="&#xd6;" horiz-adv-x="781" 
d="M214.5 33.5q-76.5 44.5 -119 127t-42.5 191.5q0 104 40.5 185.5t117 127.5t179.5 46q100 0 176.5 -44.5t119 -126t42.5 -188.5q0 -105 -41 -187.5t-117.5 -129t-179.5 -46.5q-99 0 -175.5 44.5zM525 100q57 35 88 100t31 152q0 86 -31 150t-88.5 98.5t-134.5 34.5
t-134 -34.5t-87.5 -98.5t-30.5 -150q0 -87 31 -152t88 -100t133 -35q78 0 135 35zM245.5 790q-16.5 17 -16.5 42t16.5 41t41.5 16t41.5 -16t16.5 -41t-16.5 -42t-41.5 -17t-41.5 17zM451.5 789.5q-16.5 16.5 -16.5 42.5q0 25 16.5 41t41.5 16t41 -16t16 -41q0 -26 -16 -42.5
t-41 -16.5t-41.5 16.5z" />
    <glyph glyph-name="multiply" unicode="&#xd7;" horiz-adv-x="500" 
d="M466 459l-167 -167l167 -168l-49 -49l-167 168l-167 -167l-48 48l167 167l-168 167l49 49l168 -167l167 167z" />
    <glyph glyph-name="Oslash" unicode="&#xd8;" horiz-adv-x="781" 
d="M703.5 499q24.5 -67 24.5 -147q0 -105 -41 -187.5t-117.5 -129t-179.5 -46.5q-115 0 -201 61l-48 -61l-45 31l52 66q-46 48 -70.5 116t-24.5 150q0 104 40.5 185.5t117 127.5t179.5 46q117 0 203 -61l48 61l45 -31l-52 -66q45 -48 69.5 -115zM199 151l345 437
q-64 47 -154 47q-77 0 -134 -34.5t-87.5 -98.5t-30.5 -150q0 -124 61 -201zM525 100q57 35 88 100t31 152q0 122 -61 197l-345 -436q63 -48 152 -48q78 0 135 35z" />
    <glyph glyph-name="Ugrave" unicode="&#xd9;" horiz-adv-x="714" 
d="M636 700v-466q0 -68 -33 -124t-95.5 -88.5t-149.5 -32.5t-150 33t-96 88.5t-33 123.5v466h83v-464q0 -79 56 -124t140 -45t140 45t56 124v464h82zM225 920h111l60 -166h-61z" />
    <glyph glyph-name="Uacute" unicode="&#xda;" horiz-adv-x="714" 
d="M636 700v-466q0 -68 -33 -124t-95.5 -88.5t-149.5 -32.5t-150 33t-96 88.5t-33 123.5v466h83v-464q0 -79 56 -124t140 -45t140 45t56 124v464h82zM385 920h111l-110 -166h-61z" />
    <glyph glyph-name="Ucircumflex" unicode="&#xdb;" horiz-adv-x="714" 
d="M636 700v-466q0 -68 -33 -124t-95.5 -88.5t-149.5 -32.5t-150 33t-96 88.5t-33 123.5v466h83v-464q0 -79 56 -124t140 -45t140 45t56 124v464h82zM530 754h-56l-116 117l-123 -117h-56l120 166h121z" />
    <glyph glyph-name="Udieresis" unicode="&#xdc;" horiz-adv-x="714" 
d="M636 700v-466q0 -68 -33 -124t-95.5 -88.5t-149.5 -32.5t-150 33t-96 88.5t-33 123.5v466h83v-464q0 -79 56 -124t140 -45t140 45t56 124v464h82zM213.5 790q-16.5 17 -16.5 42t16.5 41t41.5 16t41.5 -16t16.5 -41t-16.5 -42t-41.5 -17t-41.5 17zM419.5 789.5
q-16.5 16.5 -16.5 42.5q0 25 16.5 41t41.5 16t41 -16t16 -41q0 -26 -16 -42.5t-41 -16.5t-41.5 16.5z" />
    <glyph glyph-name="Yacute" unicode="&#xdd;" horiz-adv-x="649" 
d="M536 700h96l-267 -391v-309h-81v309l-267 391h97l211 -313zM351 920h111l-110 -166h-61z" />
    <glyph glyph-name="Thorn" unicode="&#xde;" horiz-adv-x="678" 
d="M535.5 537q50.5 -27 76.5 -73.5t26 -103.5q0 -68 -29.5 -117t-80 -74.5t-113.5 -25.5h-248v-143h-82v700h82v-136h248q70 0 120.5 -27zM518 258q36 40 36 102q0 60 -38.5 94.5t-96.5 34.5h-252v-271h252q63 0 99 40z" />
    <glyph glyph-name="germandbls" unicode="&#xdf;" horiz-adv-x="592" 
d="M501 298q45 -50 45 -120q0 -55 -27 -98t-75.5 -67t-111.5 -24q-62 0 -107 16v73q51 -19 94 -19q64 0 105 33.5t41 96.5q0 59 -42.5 97t-110.5 38h-51v70h51q55 0 90 35t35 87q0 55 -37.5 89.5t-97.5 34.5q-69 0 -107 -42t-38 -119v-479h-82v479q1 110 61 171t166 61
q64 0 113 -23t76.5 -64.5t27.5 -94.5q0 -60 -37.5 -104t-101.5 -60q76 -17 121 -67z" />
    <glyph glyph-name="agrave" unicode="&#xe0;" horiz-adv-x="573" 
d="M548 74v-74h-39q-43 0 -68.5 20t-25.5 55v5q-55 -87 -184 -87q-57 0 -101.5 19t-69.5 53.5t-25 78.5q0 64 40 98.5t93 47t133 21.5q58 6 84 12.5t26 22.5q0 59 -35 92t-99 33q-62 0 -103 -29t-45 -78h-80q7 81 70.5 129.5t157.5 48.5q101 0 157 -52t56 -145v-239
q0 -15 8.5 -23.5t24.5 -8.5h25zM367.5 103q42.5 41 43.5 113v60q-9 -15 -36 -21t-81 -12q-56 -5 -91.5 -12.5t-61 -27t-25.5 -55.5q0 -38 34 -62t88 -24q87 0 129.5 41zM140 750h110l61 -166h-61z" />
    <glyph glyph-name="aacute" unicode="&#xe1;" horiz-adv-x="573" 
d="M548 74v-74h-39q-43 0 -68.5 20t-25.5 55v5q-55 -87 -184 -87q-57 0 -101.5 19t-69.5 53.5t-25 78.5q0 64 40 98.5t93 47t133 21.5q58 6 84 12.5t26 22.5q0 59 -35 92t-99 33q-62 0 -103 -29t-45 -78h-80q7 81 70.5 129.5t157.5 48.5q101 0 157 -52t56 -145v-239
q0 -15 8.5 -23.5t24.5 -8.5h25zM367.5 103q42.5 41 43.5 113v60q-9 -15 -36 -21t-81 -12q-56 -5 -91.5 -12.5t-61 -27t-25.5 -55.5q0 -38 34 -62t88 -24q87 0 129.5 41zM294 750h110l-110 -166h-61z" />
    <glyph glyph-name="acircumflex" unicode="&#xe2;" horiz-adv-x="573" 
d="M548 74v-74h-39q-43 0 -68.5 20t-25.5 55v5q-55 -87 -184 -87q-57 0 -101.5 19t-69.5 53.5t-25 78.5q0 64 40 98.5t93 47t133 21.5q58 6 84 12.5t26 22.5q0 59 -35 92t-99 33q-62 0 -103 -29t-45 -78h-80q7 81 70.5 129.5t157.5 48.5q101 0 157 -52t56 -145v-239
q0 -15 8.5 -23.5t24.5 -8.5h25zM367.5 103q42.5 41 43.5 113v60q-9 -15 -36 -21t-81 -12q-56 -5 -91.5 -12.5t-61 -27t-25.5 -55.5q0 -38 34 -62t88 -24q87 0 129.5 41zM451 584h-56l-119 114l-120 -114h-56l120 166h111z" />
    <glyph glyph-name="atilde" unicode="&#xe3;" horiz-adv-x="573" 
d="M548 74v-74h-39q-43 0 -68.5 20t-25.5 55v5q-55 -87 -184 -87q-57 0 -101.5 19t-69.5 53.5t-25 78.5q0 64 40 98.5t93 47t133 21.5q58 6 84 12.5t26 22.5q0 59 -35 92t-99 33q-62 0 -103 -29t-45 -78h-80q7 81 70.5 129.5t157.5 48.5q101 0 157 -52t56 -145v-239
q0 -15 8.5 -23.5t24.5 -8.5h25zM367.5 103q42.5 41 43.5 113v60q-9 -15 -36 -21t-81 -12q-56 -5 -91.5 -12.5t-61 -27t-25.5 -55.5q0 -38 34 -62t88 -24q87 0 129.5 41zM308.5 653q-23.5 13 -53.5 37q-19 16 -31 23.5t-24 7.5q-20 0 -31.5 -19.5t-11.5 -56.5h-67
q0 63 27.5 100t76.5 37q27 0 47 -11.5t46 -34.5q20 -18 34 -27t30 -9q19 0 30 19t11 54h67q0 -63 -25 -98t-70 -35q-32 0 -55.5 13z" />
    <glyph glyph-name="adieresis" unicode="&#xe4;" horiz-adv-x="573" 
d="M548 74v-74h-39q-43 0 -68.5 20t-25.5 55v5q-55 -87 -184 -87q-57 0 -101.5 19t-69.5 53.5t-25 78.5q0 64 40 98.5t93 47t133 21.5q58 6 84 12.5t26 22.5q0 59 -35 92t-99 33q-62 0 -103 -29t-45 -78h-80q7 81 70.5 129.5t157.5 48.5q101 0 157 -52t56 -145v-239
q0 -15 8.5 -23.5t24.5 -8.5h25zM367.5 103q42.5 41 43.5 113v60q-9 -15 -36 -21t-81 -12q-56 -5 -91.5 -12.5t-61 -27t-25.5 -55.5q0 -38 34 -62t88 -24q87 0 129.5 41zM127.5 640q-16.5 17 -16.5 42t16.5 41t41.5 16t41.5 -16t16.5 -41t-16.5 -42t-41.5 -17t-41.5 17z
M333.5 639.5q-16.5 16.5 -16.5 42.5q0 25 16.5 41t41.5 16t41 -16t16 -41q0 -26 -16 -42.5t-41 -16.5t-41.5 16.5z" />
    <glyph glyph-name="aring" unicode="&#xe5;" horiz-adv-x="573" 
d="M548 74v-74h-39q-43 0 -68.5 20t-25.5 55v5q-55 -87 -184 -87q-57 0 -101.5 19t-69.5 53.5t-25 78.5q0 64 40 98.5t93 47t133 21.5q58 6 84 12.5t26 22.5q0 59 -35 92t-99 33q-62 0 -103 -29t-45 -78h-80q7 81 70.5 129.5t157.5 48.5q101 0 157 -52t56 -145v-239
q0 -15 8.5 -23.5t24.5 -8.5h25zM367.5 103q42.5 41 43.5 113v60q-9 -15 -36 -21t-81 -12q-56 -5 -91.5 -12.5t-61 -27t-25.5 -55.5q0 -38 34 -62t88 -24q87 0 129.5 41zM201 614.5q-28 26.5 -28 67.5q0 40 28 67t71 27t71 -27t28 -67q0 -41 -28 -67.5t-71 -26.5t-71 26.5z
M304 650q13 13 13 32q0 20 -13 32.5t-32 12.5q-20 0 -32.5 -12.5t-12.5 -32.5q0 -19 12.5 -32t32.5 -13q19 0 32 13z" />
    <glyph glyph-name="ae" unicode="&#xe6;" horiz-adv-x="945" 
d="M904 252h-411q3 -87 50.5 -139.5t128.5 -52.5q57 0 95 28.5t56 85.5h79q-18 -87 -79 -136t-151 -49q-75 0 -133 33t-91 92q-28 -56 -85 -88.5t-132 -32.5q-57 0 -101.5 19t-69.5 53.5t-25 78.5q0 64 40 98t93 46.5t132 21.5q57 6 84 13t27 23q0 59 -35 92t-99 33
q-62 0 -103 -28t-45 -72h-80q5 50 35.5 89t81 60.5t111.5 21.5q68 0 116.5 -24.5t73.5 -69.5q35 46 85.5 70t109.5 24q109 0 174.5 -69t67.5 -189v-32zM554.5 431.5q-43.5 -39.5 -56.5 -111.5h322q-10 69 -51.5 110t-106.5 41q-64 0 -107.5 -39.5zM362 104.5
q48 42.5 49 109.5v61q-9 -13 -33.5 -17.5t-74.5 -8.5q-60 -6 -96.5 -13t-63.5 -28t-27 -60q0 -38 34 -62t88 -24q76 0 124 42.5z" />
    <glyph glyph-name="ccedilla" unicode="&#xe7;" horiz-adv-x="580" 
d="M412 99q42 39 53 108h79q-11 -98 -68.5 -155t-151.5 -62l-38 -54q28 7 48 7q38 0 59 -18.5t21 -45.5q0 -41 -35.5 -63.5t-86.5 -22.5q-35 0 -71 11v50q15 -7 36 -10.5t41 -3.5q28 0 45 9.5t17 25.5q0 13 -12.5 19.5t-33.5 6.5q-30 0 -56 -12l-24 36l44 65
q-75 6 -128.5 44t-81 99t-27.5 135q0 86 34.5 148t93.5 94t131 32q101 0 167 -57.5t77 -158.5h-79q-11 67 -55 106t-110 39q-80 0 -128 -55t-48 -148q0 -66 24.5 -113t66 -71t93.5 -24q62 0 104 39z" />
    <glyph glyph-name="egrave" unicode="&#xe8;" horiz-adv-x="575" 
d="M534 252h-411q3 -87 50.5 -139.5t128.5 -52.5q57 0 95 28.5t56 85.5h79q-18 -87 -79 -136t-151 -49q-77 0 -136.5 35t-92 97.5t-32.5 141.5q0 87 34 150.5t91.5 96t125.5 32.5q109 0 174.5 -69t67.5 -189v-32zM184.5 431.5q-43.5 -39.5 -56.5 -111.5h322
q-10 69 -51.5 110t-106.5 41q-64 0 -107.5 -39.5zM160 750h110l61 -166h-61z" />
    <glyph glyph-name="eacute" unicode="&#xe9;" horiz-adv-x="575" 
d="M534 252h-411q3 -87 50.5 -139.5t128.5 -52.5q57 0 95 28.5t56 85.5h79q-18 -87 -79 -136t-151 -49q-77 0 -136.5 35t-92 97.5t-32.5 141.5q0 87 34 150.5t91.5 96t125.5 32.5q109 0 174.5 -69t67.5 -189v-32zM184.5 431.5q-43.5 -39.5 -56.5 -111.5h322
q-10 69 -51.5 110t-106.5 41q-64 0 -107.5 -39.5zM314 750h110l-110 -166h-61z" />
    <glyph glyph-name="ecircumflex" unicode="&#xea;" horiz-adv-x="575" 
d="M534 252h-411q3 -87 50.5 -139.5t128.5 -52.5q57 0 95 28.5t56 85.5h79q-18 -87 -79 -136t-151 -49q-77 0 -136.5 35t-92 97.5t-32.5 141.5q0 87 34 150.5t91.5 96t125.5 32.5q109 0 174.5 -69t67.5 -189v-32zM184.5 431.5q-43.5 -39.5 -56.5 -111.5h322
q-10 69 -51.5 110t-106.5 41q-64 0 -107.5 -39.5zM471 584h-56l-119 114l-120 -114h-56l120 166h111z" />
    <glyph glyph-name="edieresis" unicode="&#xeb;" horiz-adv-x="575" 
d="M534 252h-411q3 -87 50.5 -139.5t128.5 -52.5q57 0 95 28.5t56 85.5h79q-18 -87 -79 -136t-151 -49q-77 0 -136.5 35t-92 97.5t-32.5 141.5q0 87 34 150.5t91.5 96t125.5 32.5q109 0 174.5 -69t67.5 -189v-32zM184.5 431.5q-43.5 -39.5 -56.5 -111.5h322
q-10 69 -51.5 110t-106.5 41q-64 0 -107.5 -39.5zM147.5 640q-16.5 17 -16.5 42t16.5 41t41.5 16t41.5 -16t16.5 -41t-16.5 -42t-41.5 -17t-41.5 17zM353.5 639.5q-16.5 16.5 -16.5 42.5q0 25 16.5 41t41.5 16t41 -16t16 -41q0 -26 -16 -42.5t-41 -16.5t-41.5 16.5z" />
    <glyph glyph-name="igrave" unicode="&#xec;" horiz-adv-x="229" 
d="M71 530h80l-1 -530h-80zM-21 750h110l61 -166h-61z" />
    <glyph glyph-name="iacute" unicode="&#xed;" horiz-adv-x="229" 
d="M71 530h80l-1 -530h-80zM133 750h110l-110 -166h-61z" />
    <glyph glyph-name="icircumflex" unicode="&#xee;" horiz-adv-x="229" 
d="M71 530h80l-1 -530h-80zM290 584h-56l-119 114l-120 -114h-56l120 166h111z" />
    <glyph glyph-name="idieresis" unicode="&#xef;" horiz-adv-x="229" 
d="M71 530h80l-1 -530h-80zM-33.5 640q-16.5 17 -16.5 42t16.5 41t41.5 16t41.5 -16t16.5 -41t-16.5 -42t-41.5 -17t-41.5 17zM172.5 639.5q-16.5 16.5 -16.5 42.5q0 25 16.5 41t41.5 16t41 -16t16 -41q0 -26 -16 -42.5t-41 -16.5t-41.5 16.5z" />
    <glyph glyph-name="eth" unicode="&#xf0;" horiz-adv-x="582" 
d="M501 479.5q35 -83.5 35 -186.5q0 -90 -32 -159t-89 -107t-130 -38q-71 0 -126.5 33t-86.5 91.5t-31 134.5q0 72 30 127.5t84.5 86.5t123.5 31q53 0 96 -21t72 -59q-25 106 -131 179l-186 -72v71l111 43q-52 24 -111 38v74q117 -24 203 -76l181 70v-71l-117 -45
q69 -61 104 -144.5zM371 83.5q36 23.5 56 66t20 97.5q0 51 -20.5 90.5t-57 61.5t-83.5 22q-71 0 -116 -48t-45 -125q0 -55 20.5 -97.5t58 -66.5t85.5 -24q46 0 82 23.5z" />
    <glyph glyph-name="ntilde" unicode="&#xf1;" horiz-adv-x="573" 
d="M424 518q44 -24 67.5 -66.5t23.5 -96.5v-355h-80v352q0 56 -34.5 87t-90.5 31q-73 0 -116 -42t-44 -106v-322h-82v530h69l6 -78q27 41 75 65.5t103 24.5q59 0 103 -24zM343.5 653q-23.5 13 -53.5 37q-19 16 -31 23.5t-24 7.5q-20 0 -31.5 -19.5t-11.5 -56.5h-67
q0 63 27.5 100t76.5 37q27 0 47 -11.5t46 -34.5q20 -18 34 -27t30 -9q19 0 30 19t11 54h67q0 -63 -25 -98t-70 -35q-32 0 -55.5 13z" />
    <glyph glyph-name="ograve" unicode="&#xf2;" horiz-adv-x="598" 
d="M159 25.5q-58 36.5 -88 100t-30 144.5q0 86 34 147.5t93 93t131 31.5q81 0 139.5 -36t88.5 -98t30 -138q0 -89 -33.5 -152.5t-92 -96t-132.5 -32.5q-82 0 -140 36.5zM394 88q40 28 61 75.5t21 106.5q0 90 -48 145.5t-129 55.5t-129 -55.5t-48 -145.5q0 -66 23.5 -113.5
t63.5 -72t90 -24.5q55 0 95 28zM167 750h110l61 -166h-61z" />
    <glyph glyph-name="oacute" unicode="&#xf3;" horiz-adv-x="598" 
d="M159 25.5q-58 36.5 -88 100t-30 144.5q0 86 34 147.5t93 93t131 31.5q81 0 139.5 -36t88.5 -98t30 -138q0 -89 -33.5 -152.5t-92 -96t-132.5 -32.5q-82 0 -140 36.5zM394 88q40 28 61 75.5t21 106.5q0 90 -48 145.5t-129 55.5t-129 -55.5t-48 -145.5q0 -66 23.5 -113.5
t63.5 -72t90 -24.5q55 0 95 28zM321 750h110l-110 -166h-61z" />
    <glyph glyph-name="ocircumflex" unicode="&#xf4;" horiz-adv-x="598" 
d="M159 25.5q-58 36.5 -88 100t-30 144.5q0 86 34 147.5t93 93t131 31.5q81 0 139.5 -36t88.5 -98t30 -138q0 -89 -33.5 -152.5t-92 -96t-132.5 -32.5q-82 0 -140 36.5zM394 88q40 28 61 75.5t21 106.5q0 90 -48 145.5t-129 55.5t-129 -55.5t-48 -145.5q0 -66 23.5 -113.5
t63.5 -72t90 -24.5q55 0 95 28zM478 584h-56l-119 114l-120 -114h-56l120 166h111z" />
    <glyph glyph-name="otilde" unicode="&#xf5;" horiz-adv-x="598" 
d="M159 25.5q-58 36.5 -88 100t-30 144.5q0 86 34 147.5t93 93t131 31.5q81 0 139.5 -36t88.5 -98t30 -138q0 -89 -33.5 -152.5t-92 -96t-132.5 -32.5q-82 0 -140 36.5zM394 88q40 28 61 75.5t21 106.5q0 90 -48 145.5t-129 55.5t-129 -55.5t-48 -145.5q0 -66 23.5 -113.5
t63.5 -72t90 -24.5q55 0 95 28zM335.5 653q-23.5 13 -53.5 37q-19 16 -31 23.5t-24 7.5q-20 0 -31.5 -19.5t-11.5 -56.5h-67q0 63 27.5 100t76.5 37q27 0 47 -11.5t46 -34.5q20 -18 34 -27t30 -9q19 0 30 19t11 54h67q0 -63 -25 -98t-70 -35q-32 0 -55.5 13z" />
    <glyph glyph-name="odieresis" unicode="&#xf6;" horiz-adv-x="598" 
d="M159 25.5q-58 36.5 -88 100t-30 144.5q0 86 34 147.5t93 93t131 31.5q81 0 139.5 -36t88.5 -98t30 -138q0 -89 -33.5 -152.5t-92 -96t-132.5 -32.5q-82 0 -140 36.5zM394 88q40 28 61 75.5t21 106.5q0 90 -48 145.5t-129 55.5t-129 -55.5t-48 -145.5q0 -66 23.5 -113.5
t63.5 -72t90 -24.5q55 0 95 28zM154.5 640q-16.5 17 -16.5 42t16.5 41t41.5 16t41.5 -16t16.5 -41t-16.5 -42t-41.5 -17t-41.5 17zM360.5 639.5q-16.5 16.5 -16.5 42.5q0 25 16.5 41t41.5 16t41 -16t16 -41q0 -26 -16 -42.5t-41 -16.5t-41.5 16.5z" />
    <glyph glyph-name="divide" unicode="&#xf7;" horiz-adv-x="572" 
d="M241.5 448q-17.5 18 -17.5 44t17.5 44t44.5 18t44.5 -18t17.5 -44t-17.5 -44t-44.5 -18t-44.5 18zM45 345h482v-68h-482v68zM241.5 86q-17.5 18 -17.5 45q0 26 17.5 43.5t44.5 17.5t44.5 -17.5t17.5 -43.5q0 -27 -17.5 -45t-44.5 -18t-44.5 18z" />
    <glyph glyph-name="oslash" unicode="&#xf8;" horiz-adv-x="598" 
d="M539.5 377.5q17.5 -50.5 17.5 -107.5q0 -89 -33.5 -152.5t-92 -96t-132.5 -32.5q-86 0 -150 43l-34 -43l-42 29l37 48q-34 38 -51.5 90t-17.5 114q0 86 34 147.5t93 93t131 31.5q88 0 150 -43l34 43l43 -29l-38 -48q34 -37 51.5 -87.5zM161 130l241 309q-41 32 -103 32
q-81 0 -129 -55.5t-48 -145.5q0 -83 39 -140zM394 88q40 28 61 75.5t21 106.5q0 80 -37 132l-242 -309q42 -33 102 -33q55 0 95 28z" />
    <glyph glyph-name="ugrave" unicode="&#xf9;" horiz-adv-x="573" 
d="M505 530v-530h-64l-8 81q-25 -44 -70.5 -68t-101.5 -24q-63 0 -108.5 24t-70 66.5t-24.5 96.5v354h81v-351q0 -56 35.5 -87t94.5 -31q72 0 113 42t42 107v320h81zM150 750h110l61 -166h-61z" />
    <glyph glyph-name="uacute" unicode="&#xfa;" horiz-adv-x="573" 
d="M505 530v-530h-64l-8 81q-25 -44 -70.5 -68t-101.5 -24q-63 0 -108.5 24t-70 66.5t-24.5 96.5v354h81v-351q0 -56 35.5 -87t94.5 -31q72 0 113 42t42 107v320h81zM304 750h110l-110 -166h-61z" />
    <glyph glyph-name="ucircumflex" unicode="&#xfb;" horiz-adv-x="573" 
d="M505 530v-530h-64l-8 81q-25 -44 -70.5 -68t-101.5 -24q-63 0 -108.5 24t-70 66.5t-24.5 96.5v354h81v-351q0 -56 35.5 -87t94.5 -31q72 0 113 42t42 107v320h81zM461 584h-56l-119 114l-120 -114h-56l120 166h111z" />
    <glyph glyph-name="udieresis" unicode="&#xfc;" horiz-adv-x="573" 
d="M505 530v-530h-64l-8 81q-25 -44 -70.5 -68t-101.5 -24q-63 0 -108.5 24t-70 66.5t-24.5 96.5v354h81v-351q0 -56 35.5 -87t94.5 -31q72 0 113 42t42 107v320h81zM137.5 640q-16.5 17 -16.5 42t16.5 41t41.5 16t41.5 -16t16.5 -41t-16.5 -42t-41.5 -17t-41.5 17z
M343.5 639.5q-16.5 16.5 -16.5 42.5q0 25 16.5 41t41.5 16t41 -16t16 -41q0 -26 -16 -42.5t-41 -16.5t-41.5 16.5z" />
    <glyph glyph-name="yacute" unicode="&#xfd;" horiz-adv-x="550" 
d="M530 530l-234 -631q-17 -45 -58.5 -72t-101.5 -27h-74v74h74q33 0 56 16t32 41l26 69h-20l-210 530h86l174 -449l167 449h83zM299 750h110l-110 -166h-61z" />
    <glyph glyph-name="thorn" unicode="&#xfe;" horiz-adv-x="621" 
d="M468.5 505.5q54.5 -36.5 83 -98.5t28.5 -139q0 -87 -32.5 -150t-87.5 -96t-122 -33q-58 0 -104.5 21.5t-77.5 60.5v-271h-81v950h81v-290q33 39 80 60.5t102 21.5q76 0 130.5 -36.5zM420 87.5q37 27.5 56.5 75t19.5 105.5q0 63 -22 109t-59.5 70t-82.5 24q-84 0 -130 -56
t-46 -143q0 -67 23 -114.5t63 -72.5t90 -25q51 0 88 27.5z" />
    <glyph glyph-name="ydieresis" unicode="&#xff;" horiz-adv-x="550" 
d="M530 530l-234 -631q-17 -45 -58.5 -72t-101.5 -27h-74v74h74q33 0 56 16t32 41l26 69h-20l-210 530h86l174 -449l167 449h83zM132.5 640q-16.5 17 -16.5 42t16.5 41t41.5 16t41.5 -16t16.5 -41t-16.5 -42t-41.5 -17t-41.5 17zM338.5 639.5q-16.5 16.5 -16.5 42.5
q0 25 16.5 41t41.5 16t41 -16t16 -41q0 -26 -16 -42.5t-41 -16.5t-41.5 16.5z" />
    <glyph glyph-name="Amacron" unicode="&#x100;" horiz-adv-x="717" 
d="M605 0l-86 208h-325l-86 -208h-80l288 700h84l289 -700h-84zM224 281h265l-133 322zM196 871h322v-59h-322v59z" />
    <glyph glyph-name="amacron" unicode="&#x101;" horiz-adv-x="573" 
d="M548 74v-74h-39q-43 0 -68.5 20t-25.5 55v5q-55 -87 -184 -87q-57 0 -101.5 19t-69.5 53.5t-25 78.5q0 64 40 98.5t93 47t133 21.5q58 6 84 12.5t26 22.5q0 59 -35 92t-99 33q-62 0 -103 -29t-45 -78h-80q7 81 70.5 129.5t157.5 48.5q101 0 157 -52t56 -145v-239
q0 -15 8.5 -23.5t24.5 -8.5h25zM367.5 103q42.5 41 43.5 113v60q-9 -15 -36 -21t-81 -12q-56 -5 -91.5 -12.5t-61 -27t-25.5 -55.5q0 -38 34 -62t88 -24q87 0 129.5 41zM110 711h324v-59h-324v59z" />
    <glyph glyph-name="Abreve" unicode="&#x102;" horiz-adv-x="717" 
d="M605 0l-86 208h-325l-86 -208h-80l288 700h84l289 -700h-84zM224 281h265l-133 322zM518 928v-13q0 -65 -45 -105.5t-116 -40.5q-72 0 -117 40.5t-45 105.5v13h71v-13q0 -38 25 -61.5t66 -23.5q40 0 65 23.5t25 61.5v13h71z" />
    <glyph glyph-name="abreve" unicode="&#x103;" horiz-adv-x="573" 
d="M548 74v-74h-39q-43 0 -68.5 20t-25.5 55v5q-55 -87 -184 -87q-57 0 -101.5 19t-69.5 53.5t-25 78.5q0 64 40 98.5t93 47t133 21.5q58 6 84 12.5t26 22.5q0 59 -35 92t-99 33q-62 0 -103 -29t-45 -78h-80q7 81 70.5 129.5t157.5 48.5q101 0 157 -52t56 -145v-239
q0 -15 8.5 -23.5t24.5 -8.5h25zM367.5 103q42.5 41 43.5 113v60q-9 -15 -36 -21t-81 -12q-56 -5 -91.5 -12.5t-61 -27t-25.5 -55.5q0 -38 34 -62t88 -24q87 0 129.5 41zM433 758v-13q0 -65 -45 -105.5t-116 -40.5q-72 0 -117 40.5t-45 105.5v13h71v-13q0 -38 25 -61.5
t66 -23.5q40 0 65 23.5t25 61.5v13h71z" />
    <glyph glyph-name="Cacute" unicode="&#x106;" horiz-adv-x="775" 
d="M212.5 35q-77.5 46 -118.5 128.5t-41 188.5q0 104 41 185.5t118.5 127.5t182.5 46q133 0 219.5 -74t109.5 -206h-85q-19 97 -84 150.5t-160 53.5q-78 0 -135.5 -34.5t-88.5 -98.5t-31 -150q0 -134 68.5 -210.5t186.5 -76.5q99 0 161.5 52t82.5 152h85
q-23 -136 -107.5 -208t-221.5 -72q-105 0 -182.5 46zM422 920h111l-110 -166h-61z" />
    <glyph glyph-name="cacute" unicode="&#x107;" horiz-adv-x="580" 
d="M162 26q-60 37 -90.5 100.5t-30.5 141.5q0 86 34.5 148t93.5 94t131 32q101 0 167 -57.5t77 -158.5h-79q-11 67 -55 106t-110 39q-80 0 -128 -55t-48 -148q0 -66 24.5 -113t66 -71t93.5 -24q62 0 104 39t53 108h79q-11 -103 -74 -160.5t-165 -57.5q-83 0 -143 37z
M322 750h110l-110 -166h-61z" />
    <glyph glyph-name="Cdotaccent" unicode="&#x10a;" horiz-adv-x="775" 
d="M212.5 35q-77.5 46 -118.5 128.5t-41 188.5q0 104 41 185.5t118.5 127.5t182.5 46q133 0 219.5 -74t109.5 -206h-85q-19 97 -84 150.5t-160 53.5q-78 0 -135.5 -34.5t-88.5 -98.5t-31 -150q0 -134 68.5 -210.5t186.5 -76.5q99 0 161.5 52t82.5 152h85
q-23 -136 -107.5 -208t-221.5 -72q-105 0 -182.5 46zM350.5 785q-17.5 18 -17.5 45q0 26 17.5 43.5t44.5 17.5t44.5 -17.5t17.5 -43.5q0 -27 -17.5 -45t-44.5 -18t-44.5 18z" />
    <glyph glyph-name="cdotaccent" unicode="&#x10b;" horiz-adv-x="580" 
d="M162 26q-60 37 -90.5 100.5t-30.5 141.5q0 86 34.5 148t93.5 94t131 32q101 0 167 -57.5t77 -158.5h-79q-11 67 -55 106t-110 39q-80 0 -128 -55t-48 -148q0 -66 24.5 -113t66 -71t93.5 -24q62 0 104 39t53 108h79q-11 -103 -74 -160.5t-165 -57.5q-83 0 -143 37z
M255.5 635q-17.5 18 -17.5 45q0 26 17.5 43.5t44.5 17.5t44.5 -17.5t17.5 -43.5q0 -27 -17.5 -45t-44.5 -18t-44.5 18z" />
    <glyph glyph-name="Ccaron" unicode="&#x10c;" horiz-adv-x="775" 
d="M212.5 35q-77.5 46 -118.5 128.5t-41 188.5q0 104 41 185.5t118.5 127.5t182.5 46q133 0 219.5 -74t109.5 -206h-85q-19 97 -84 150.5t-160 53.5q-78 0 -135.5 -34.5t-88.5 -98.5t-31 -150q0 -134 68.5 -210.5t186.5 -76.5q99 0 161.5 52t82.5 152h85
q-23 -136 -107.5 -208t-221.5 -72q-105 0 -182.5 46zM514 920h56l-110 -166h-121l-120 166h56l123 -117z" />
    <glyph glyph-name="ccaron" unicode="&#x10d;" horiz-adv-x="580" 
d="M162 26q-60 37 -90.5 100.5t-30.5 141.5q0 86 34.5 148t93.5 94t131 32q101 0 167 -57.5t77 -158.5h-79q-11 67 -55 106t-110 39q-80 0 -128 -55t-48 -148q0 -66 24.5 -113t66 -71t93.5 -24q62 0 104 39t53 108h79q-11 -103 -74 -160.5t-165 -57.5q-83 0 -143 37z
M419 750h56l-120 -166h-111l-120 166h56l120 -114z" />
    <glyph glyph-name="Dcaron" unicode="&#x10e;" horiz-adv-x="725" 
d="M508.5 656q77.5 -44 120.5 -122.5t43 -179.5q0 -103 -43 -183.5t-120.5 -125.5t-176.5 -45h-247v700h247q99 0 176.5 -44zM466.5 110.5q56.5 35.5 88 99t31.5 144.5q0 75 -31.5 135.5t-88 96t-129.5 39.5h-170v-550h170q73 0 129.5 35.5zM445 920h56l-110 -166h-121
l-120 166h56l123 -117z" />
    <glyph glyph-name="dcaron" unicode="&#x10f;" horiz-adv-x="707" 
d="M613 760h94l-67 -218h-52zM463 750h81v-750h-64l-12 82q-30 -44 -76.5 -68.5t-103.5 -24.5q-78 0 -133.5 36.5t-84.5 99t-29 139.5q0 87 33 150t89 95.5t125 32.5q53 0 98 -20.5t77 -57.5v286zM413 112.5q47 52.5 52 138.5l1 21l-1 20q-5 80 -52 129.5t-118 49.5
q-49 0 -87.5 -26t-60 -73t-21.5 -108q0 -60 21.5 -106.5t60 -72t87.5 -25.5q71 0 118 52.5z" />
    <glyph glyph-name="Dcroat" unicode="&#x110;" horiz-adv-x="744" 
d="M527.5 656q77.5 -44 120.5 -122.5t43 -179.5q0 -103 -43 -183.5t-120.5 -125.5t-176.5 -45h-247v329h-85v75h85v296h247q99 0 176.5 -44zM485.5 110.5q56.5 35.5 88 99t31.5 144.5q0 75 -31.5 135.5t-88 96t-129.5 39.5h-170v-221h207v-75h-207v-254h170q73 0 129.5 35.5
z" />
    <glyph glyph-name="dcroat" unicode="&#x111;" horiz-adv-x="628" 
d="M604 616h-60v-616h-64l-12 82q-30 -44 -76.5 -68.5t-103.5 -24.5q-78 0 -133.5 36.5t-84.5 99t-29 139.5q0 87 33 150t89 95.5t125 32.5q53 0 98 -20.5t77 -57.5v152h-239v73h239v61h81v-61h60v-73zM413 112.5q47 52.5 52 138.5l1 21l-1 20q-5 80 -52 129.5t-118 49.5
q-49 0 -87.5 -26t-60 -73t-21.5 -108q0 -60 21.5 -106.5t60 -72t87.5 -25.5q71 0 118 52.5z" />
    <glyph glyph-name="Emacron" unicode="&#x112;" horiz-adv-x="620" 
d="M166 75h405v-75h-486v700h477v-75h-396v-224h356v-73h-356v-253zM170 871h322v-59h-322v59z" />
    <glyph glyph-name="emacron" unicode="&#x113;" horiz-adv-x="575" 
d="M534 252h-411q3 -87 50.5 -139.5t128.5 -52.5q57 0 95 28.5t56 85.5h79q-18 -87 -79 -136t-151 -49q-77 0 -136.5 35t-92 97.5t-32.5 141.5q0 87 34 150.5t91.5 96t125.5 32.5q109 0 174.5 -69t67.5 -189v-32zM184.5 431.5q-43.5 -39.5 -56.5 -111.5h322
q-10 69 -51.5 110t-106.5 41q-64 0 -107.5 -39.5zM130 711h324v-59h-324v59z" />
    <glyph glyph-name="Edotaccent" unicode="&#x116;" horiz-adv-x="620" 
d="M166 75h405v-75h-486v700h477v-75h-396v-224h356v-73h-356v-253zM286.5 785q-17.5 18 -17.5 45q0 26 17.5 43.5t44.5 17.5t44.5 -17.5t17.5 -43.5q0 -27 -17.5 -45t-44.5 -18t-44.5 18z" />
    <glyph glyph-name="edotaccent" unicode="&#x117;" horiz-adv-x="575" 
d="M534 252h-411q3 -87 50.5 -139.5t128.5 -52.5q57 0 95 28.5t56 85.5h79q-18 -87 -79 -136t-151 -49q-77 0 -136.5 35t-92 97.5t-32.5 141.5q0 87 34 150.5t91.5 96t125.5 32.5q109 0 174.5 -69t67.5 -189v-32zM184.5 431.5q-43.5 -39.5 -56.5 -111.5h322
q-10 69 -51.5 110t-106.5 41q-64 0 -107.5 -39.5zM247.5 635q-17.5 18 -17.5 45q0 26 17.5 43.5t44.5 17.5t44.5 -17.5t17.5 -43.5q0 -27 -17.5 -45t-44.5 -18t-44.5 18z" />
    <glyph glyph-name="Ecaron" unicode="&#x11a;" horiz-adv-x="620" 
d="M166 75h405v-75h-486v700h477v-75h-396v-224h356v-73h-356v-253zM450 920h56l-110 -166h-121l-120 166h56l123 -117z" />
    <glyph glyph-name="ecaron" unicode="&#x11b;" horiz-adv-x="575" 
d="M534 252h-411q3 -87 50.5 -139.5t128.5 -52.5q57 0 95 28.5t56 85.5h79q-18 -87 -79 -136t-151 -49q-77 0 -136.5 35t-92 97.5t-32.5 141.5q0 87 34 150.5t91.5 96t125.5 32.5q109 0 174.5 -69t67.5 -189v-32zM184.5 431.5q-43.5 -39.5 -56.5 -111.5h322
q-10 69 -51.5 110t-106.5 41q-64 0 -107.5 -39.5zM411 750h56l-120 -166h-111l-120 166h56l120 -114z" />
    <glyph glyph-name="Gbreve" unicode="&#x11e;" horiz-adv-x="785" 
d="M688.5 326.5q27.5 -26.5 27.5 -76.5v-250h-69v250h-2q-8 -121 -74.5 -191t-177.5 -70q-101 0 -178 44.5t-119.5 127t-42.5 191.5q0 104 41 185.5t118 127.5t181 46q132 0 219.5 -75t109.5 -205h-85q-19 97 -83.5 150.5t-160.5 53.5q-78 0 -135.5 -34t-88 -98t-30.5 -151
q0 -88 31 -152.5t88.5 -99.5t134.5 -35q60 0 107 27.5t73 77.5t26 113h-237v70h246q53 0 80.5 -26.5zM554 928v-13q0 -65 -45 -105.5t-116 -40.5q-72 0 -117 40.5t-45 105.5v13h71v-13q0 -38 25 -61.5t66 -23.5q40 0 65 23.5t25 61.5v13h71z" />
    <glyph glyph-name="gbreve" unicode="&#x11f;" horiz-adv-x="614" 
d="M546 530v-515q0 -67 -30.5 -118.5t-86 -80t-128.5 -28.5q-72 0 -126.5 22t-84.5 62.5t-30 95.5h81q0 -51 43.5 -80.5t116.5 -29.5q74 0 119.5 43t45.5 114v65q-30 -43 -76 -66.5t-102 -23.5q-78 0 -133.5 36.5t-84.5 98.5t-29 139q0 87 33 150t89 95.5t125 32.5
q58 0 106 -24.5t81 -69.5l6 82h65zM383 88q39 27 61 75t22 109q0 58 -22 103.5t-60.5 70.5t-88.5 25q-49 0 -87.5 -26t-60 -73t-21.5 -108q0 -59 21.5 -105.5t60 -72t87.5 -25.5t88 27zM455 758v-13q0 -65 -45 -105.5t-116 -40.5q-72 0 -117 40.5t-45 105.5v13h71v-13
q0 -38 25 -61.5t66 -23.5q40 0 65 23.5t25 61.5v13h71z" />
    <glyph glyph-name="Gdotaccent" unicode="&#x120;" horiz-adv-x="785" 
d="M688.5 326.5q27.5 -26.5 27.5 -76.5v-250h-69v250h-2q-8 -121 -74.5 -191t-177.5 -70q-101 0 -178 44.5t-119.5 127t-42.5 191.5q0 104 41 185.5t118 127.5t181 46q132 0 219.5 -75t109.5 -205h-85q-19 97 -83.5 150.5t-160.5 53.5q-78 0 -135.5 -34t-88 -98t-30.5 -151
q0 -88 31 -152.5t88.5 -99.5t134.5 -35q60 0 107 27.5t73 77.5t26 113h-237v70h246q53 0 80.5 -26.5zM348.5 785q-17.5 18 -17.5 45q0 26 17.5 43.5t44.5 17.5t44.5 -17.5t17.5 -43.5q0 -27 -17.5 -45t-44.5 -18t-44.5 18z" />
    <glyph glyph-name="gdotaccent" unicode="&#x121;" horiz-adv-x="614" 
d="M546 530v-515q0 -67 -30.5 -118.5t-86 -80t-128.5 -28.5q-72 0 -126.5 22t-84.5 62.5t-30 95.5h81q0 -51 43.5 -80.5t116.5 -29.5q74 0 119.5 43t45.5 114v65q-30 -43 -76 -66.5t-102 -23.5q-78 0 -133.5 36.5t-84.5 98.5t-29 139q0 87 33 150t89 95.5t125 32.5
q58 0 106 -24.5t81 -69.5l6 82h65zM383 88q39 27 61 75t22 109q0 58 -22 103.5t-60.5 70.5t-88.5 25q-49 0 -87.5 -26t-60 -73t-21.5 -108q0 -59 21.5 -105.5t60 -72t87.5 -25.5t88 27zM249.5 635q-17.5 18 -17.5 45q0 26 17.5 43.5t44.5 17.5t44.5 -17.5t17.5 -43.5
q0 -27 -17.5 -45t-44.5 -18t-44.5 18z" />
    <glyph glyph-name="uni0122" unicode="&#x122;" horiz-adv-x="785" 
d="M688.5 326.5q27.5 -26.5 27.5 -76.5v-250h-69v250h-2q-8 -121 -74.5 -191t-177.5 -70q-101 0 -178 44.5t-119.5 127t-42.5 191.5q0 104 41 185.5t118 127.5t181 46q132 0 219.5 -75t109.5 -205h-85q-19 97 -83.5 150.5t-160.5 53.5q-78 0 -135.5 -34t-88 -98t-30.5 -151
q0 -88 31 -152.5t88.5 -99.5t134.5 -35q60 0 107 27.5t73 77.5t26 113h-237v70h246q53 0 80.5 -26.5zM435.5 -65.5q17.5 -17.5 17.5 -43.5v-96q0 -37 -20.5 -56t-58.5 -19h-24v47h24q27 0 27 28v40q-3 -1 -10 -1q-26 0 -43.5 16.5t-17.5 41.5q0 26 17.5 43t43.5 17
q27 0 44.5 -17.5z" />
    <glyph glyph-name="uni0123" unicode="&#x123;" horiz-adv-x="614" 
d="M251.5 595.5q-17.5 17.5 -17.5 43.5v96q0 37 20.5 56t58.5 19h24v-47h-24q-27 0 -27 -28v-40q3 1 10 1q26 0 43.5 -16.5t17.5 -41.5q0 -26 -17.5 -43t-43.5 -17q-27 0 -44.5 17.5zM546 530v-515q0 -67 -30.5 -118.5t-86 -80t-128.5 -28.5q-72 0 -126.5 22t-84.5 62.5
t-30 95.5h81q0 -51 43.5 -80.5t116.5 -29.5q74 0 119.5 43t45.5 114v65q-30 -43 -76 -66.5t-102 -23.5q-78 0 -133.5 36.5t-84.5 98.5t-29 139q0 87 33 150t89 95.5t125 32.5q58 0 106 -24.5t81 -69.5l6 82h65zM383 88q39 27 61 75t22 109q0 58 -22 103.5t-60.5 70.5
t-88.5 25q-49 0 -87.5 -26t-60 -73t-21.5 -108q0 -59 21.5 -105.5t60 -72t87.5 -25.5t88 27z" />
    <glyph glyph-name="Hbar" unicode="&#x126;" horiz-adv-x="815" 
d="M760 598v-73h-54v-525h-82v323h-432v-323h-83v525h-54v73h54v102h83v-102h432v102h82v-102h54zM624 398v127h-432v-127h432z" />
    <glyph glyph-name="hbar" unicode="&#x127;" horiz-adv-x="616" 
d="M467 518q44 -24 67.5 -66.5t23.5 -96.5v-355h-80v352q0 55 -34 86.5t-87 31.5q-76 0 -119.5 -42t-44.5 -106v-322h-82v616h-87v73h87v61h82v-61h232v-73h-232v-148q29 36 74.5 55t97.5 19q58 0 102 -24z" />
    <glyph glyph-name="Imacron" unicode="&#x12a;" horiz-adv-x="252" 
d="M85 700h82v-700h-82v700zM-35 871h322v-59h-322v59z" />
    <glyph glyph-name="imacron" unicode="&#x12b;" horiz-adv-x="229" 
d="M71 530h80l-1 -530h-80zM-51 711h324v-59h-324v59z" />
    <glyph glyph-name="Idotaccent" unicode="&#x130;" horiz-adv-x="252" 
d="M85 700h82v-700h-82v700zM81.5 785q-17.5 18 -17.5 45q0 26 17.5 43.5t44.5 17.5t44.5 -17.5t17.5 -43.5q0 -27 -17.5 -45t-44.5 -18t-44.5 18z" />
    <glyph glyph-name="dotlessi" unicode="&#x131;" horiz-adv-x="229" 
d="M71 530h80l-1 -530h-80z" />
    <glyph glyph-name="uni0136" unicode="&#x136;" horiz-adv-x="682" 
d="M657 0h-97l-255 351l-137 -143v-208h-83v700h83v-393l369 393h101l-279 -292zM383.5 -65.5q17.5 -17.5 17.5 -43.5v-96q0 -37 -20.5 -56t-58.5 -19h-24v47h24q27 0 27 28v40q-3 -1 -10 -1q-26 0 -43.5 16.5t-17.5 41.5q0 26 17.5 43t43.5 17q27 0 44.5 -17.5z" />
    <glyph glyph-name="uni0137" unicode="&#x137;" horiz-adv-x="543" 
d="M450 0l-181 281l-112 -113v-168h-82v750h82v-484l261 264h97l-193 -195l219 -335h-91zM331.5 -65.5q17.5 -17.5 17.5 -43.5v-96q0 -37 -20.5 -56t-58.5 -19h-24v47h24q27 0 27 28v40q-3 -1 -10 -1q-26 0 -43.5 16.5t-17.5 41.5q0 26 17.5 43t43.5 17q27 0 44.5 -17.5z
" />
    <glyph glyph-name="Lacute" unicode="&#x139;" horiz-adv-x="571" 
d="M168 76h375v-76h-458v700h83v-624zM153 920h111l-110 -166h-61z" />
    <glyph glyph-name="lacute" unicode="&#x13a;" horiz-adv-x="233" 
d="M75 750h83v-750h-83v750zM138 970h110l-110 -166h-61z" />
    <glyph glyph-name="uni013B" unicode="&#x13b;" horiz-adv-x="571" 
d="M168 76h375v-76h-458v700h83v-624zM361.5 -65.5q17.5 -17.5 17.5 -43.5v-96q0 -37 -20.5 -56t-58.5 -19h-24v47h24q27 0 27 28v40q-3 -1 -10 -1q-26 0 -43.5 16.5t-17.5 41.5q0 26 17.5 43t43.5 17q27 0 44.5 -17.5z" />
    <glyph glyph-name="uni013C" unicode="&#x13c;" horiz-adv-x="233" 
d="M75 750h83v-750h-83v750zM158.5 -65.5q17.5 -17.5 17.5 -43.5v-96q0 -37 -20.5 -56t-58.5 -19h-24v47h24q27 0 27 28v40q-3 -1 -10 -1q-26 0 -43.5 16.5t-17.5 41.5q0 26 17.5 43t43.5 17q27 0 44.5 -17.5z" />
    <glyph glyph-name="Lcaron" unicode="&#x13d;" horiz-adv-x="577" 
d="M407 724l-67 -218h-52l25 218h94zM168 76h375v-76h-458v700h83v-624z" />
    <glyph glyph-name="lcaron" unicode="&#x13e;" horiz-adv-x="321" 
d="M227 760h94l-67 -218h-52zM158 750v-750h-83v750h83z" />
    <glyph glyph-name="Lslash" unicode="&#x141;" horiz-adv-x="585" 
d="M182 76h375v-76h-458v323l-109 -67v83l109 67v294h83v-243l145 89v-84l-145 -89v-297z" />
    <glyph glyph-name="lslash" unicode="&#x142;" horiz-adv-x="317" 
d="M327 546v-84l-127 -78v-384h-83v334l-127 -78v83l127 78v333h83v-282z" />
    <glyph glyph-name="Nacute" unicode="&#x143;" horiz-adv-x="739" 
d="M573 700h81v-700h-91l-396 579v-579h-82v700h92l396 -580v580zM403 920h111l-110 -166h-61z" />
    <glyph glyph-name="nacute" unicode="&#x144;" horiz-adv-x="573" 
d="M424 518q44 -24 67.5 -66.5t23.5 -96.5v-355h-80v352q0 56 -34.5 87t-90.5 31q-73 0 -116 -42t-44 -106v-322h-82v530h69l6 -78q27 41 75 65.5t103 24.5q59 0 103 -24zM329 750h110l-110 -166h-61z" />
    <glyph glyph-name="uni0145" unicode="&#x145;" horiz-adv-x="739" 
d="M573 700h81v-700h-91l-396 579v-579h-82v700h92l396 -580v580zM399.5 -65.5q17.5 -17.5 17.5 -43.5v-96q0 -37 -20.5 -56t-58.5 -19h-24v47h24q27 0 27 28v40q-3 -1 -10 -1q-26 0 -43.5 16.5t-17.5 41.5q0 26 17.5 43t43.5 17q27 0 44.5 -17.5z" />
    <glyph glyph-name="uni0146" unicode="&#x146;" horiz-adv-x="573" 
d="M424 518q44 -24 67.5 -66.5t23.5 -96.5v-355h-80v352q0 56 -34.5 87t-90.5 31q-73 0 -116 -42t-44 -106v-322h-82v530h69l6 -78q27 41 75 65.5t103 24.5q59 0 103 -24zM334.5 -65.5q17.5 -17.5 17.5 -43.5v-96q0 -37 -20.5 -56t-58.5 -19h-24v47h24q27 0 27 28v40
q-3 -1 -10 -1q-26 0 -43.5 16.5t-17.5 41.5q0 26 17.5 43t43.5 17q27 0 44.5 -17.5z" />
    <glyph glyph-name="Ncaron" unicode="&#x147;" horiz-adv-x="739" 
d="M573 700h81v-700h-91l-396 579v-579h-82v700h92l396 -580v580zM495 920h56l-110 -166h-121l-120 166h56l123 -117z" />
    <glyph glyph-name="ncaron" unicode="&#x148;" horiz-adv-x="573" 
d="M424 518q44 -24 67.5 -66.5t23.5 -96.5v-355h-80v352q0 56 -34.5 87t-90.5 31q-73 0 -116 -42t-44 -106v-322h-82v530h69l6 -78q27 41 75 65.5t103 24.5q59 0 103 -24zM426 750h56l-120 -166h-111l-120 166h56l120 -114z" />
    <glyph glyph-name="Eng" unicode="&#x14a;" horiz-adv-x="719" 
d="M654 700v-770q0 -63 -32 -96.5t-93 -33.5h-58v70h58q44 0 44 60v70h-10l-396 579v-579h-82v700h92l396 -580v580h81z" />
    <glyph glyph-name="eng" unicode="&#x14b;" horiz-adv-x="569" 
d="M424 518q44 -24 67.5 -66.5t23.5 -96.5v-434q0 -59 -32 -90t-93 -31h-58v70h58q45 0 45 51v431q0 56 -34.5 87t-90.5 31q-73 0 -116 -42t-44 -106v-322h-82v530h69l6 -78q27 41 75 65.5t103 24.5q59 0 103 -24z" />
    <glyph glyph-name="Omacron" unicode="&#x14c;" horiz-adv-x="781" 
d="M214.5 33.5q-76.5 44.5 -119 127t-42.5 191.5q0 104 40.5 185.5t117 127.5t179.5 46q100 0 176.5 -44.5t119 -126t42.5 -188.5q0 -105 -41 -187.5t-117.5 -129t-179.5 -46.5q-99 0 -175.5 44.5zM525 100q57 35 88 100t31 152q0 86 -31 150t-88.5 98.5t-134.5 34.5
t-134 -34.5t-87.5 -98.5t-30.5 -150q0 -87 31 -152t88 -100t133 -35q78 0 135 35zM229 871h322v-59h-322v59z" />
    <glyph glyph-name="omacron" unicode="&#x14d;" horiz-adv-x="598" 
d="M159 25.5q-58 36.5 -88 100t-30 144.5q0 86 34 147.5t93 93t131 31.5q81 0 139.5 -36t88.5 -98t30 -138q0 -89 -33.5 -152.5t-92 -96t-132.5 -32.5q-82 0 -140 36.5zM394 88q40 28 61 75.5t21 106.5q0 90 -48 145.5t-129 55.5t-129 -55.5t-48 -145.5q0 -66 23.5 -113.5
t63.5 -72t90 -24.5q55 0 95 28zM137 711h324v-59h-324v59z" />
    <glyph glyph-name="Ohungarumlaut" unicode="&#x150;" horiz-adv-x="781" 
d="M214.5 33.5q-76.5 44.5 -119 127t-42.5 191.5q0 104 40.5 185.5t117 127.5t179.5 46q100 0 176.5 -44.5t119 -126t42.5 -188.5q0 -105 -41 -187.5t-117.5 -129t-179.5 -46.5q-99 0 -175.5 44.5zM525 100q57 35 88 100t31 152q0 86 -31 150t-88.5 98.5t-134.5 34.5
t-134 -34.5t-87.5 -98.5t-30.5 -150q0 -87 31 -152t88 -100t133 -35q78 0 135 35zM330 920h111l-110 -166h-60zM442 920h111l-110 -166h-60z" />
    <glyph glyph-name="ohungarumlaut" unicode="&#x151;" horiz-adv-x="598" 
d="M159 25.5q-58 36.5 -88 100t-30 144.5q0 86 34 147.5t93 93t131 31.5q81 0 139.5 -36t88.5 -98t30 -138q0 -89 -33.5 -152.5t-92 -96t-132.5 -32.5q-82 0 -140 36.5zM394 88q40 28 61 75.5t21 106.5q0 90 -48 145.5t-129 55.5t-129 -55.5t-48 -145.5q0 -66 23.5 -113.5
t63.5 -72t90 -24.5q55 0 95 28zM239 750h111l-110 -166h-60zM351 750h111l-110 -166h-60z" />
    <glyph glyph-name="OE" unicode="&#x152;" horiz-adv-x="1183" 
d="M1134 75v-75h-486v103q-44 -54 -110 -84t-148 -30q-99 0 -175.5 44.5t-119 127t-42.5 191.5q0 104 40.5 185.5t117 127.5t179.5 46q80 0 146.5 -29.5t111.5 -84.5v103h477v-75h-396v-224h356v-73h-356v-253h405zM525 100q57 35 88 100t31 152q0 86 -31 150t-88.5 98.5
t-134.5 34.5t-134 -34.5t-87.5 -98.5t-30.5 -150q0 -87 31 -152t88 -100t133 -35q78 0 135 35z" />
    <glyph glyph-name="oe" unicode="&#x153;" horiz-adv-x="1010" 
d="M969 252h-411q3 -87 50.5 -139.5t128.5 -52.5q57 0 95 28.5t56 85.5h79q-18 -87 -79 -136t-151 -49q-72 0 -129 31t-91 86q-33 -57 -90 -87t-128 -30q-82 0 -140 36.5t-88 100t-30 144.5q0 86 34 147.5t93 93t131 31.5q74 0 129.5 -31t88.5 -85q34 56 89 86t121 30
q109 0 174.5 -69t67.5 -189v-32zM394 88q40 28 61 75.5t21 106.5q0 90 -48 145.5t-129 55.5t-129 -55.5t-48 -145.5q0 -66 23.5 -113.5t63.5 -72t90 -24.5q55 0 95 28zM619.5 431.5q-43.5 -39.5 -56.5 -111.5h322q-10 69 -51.5 110t-106.5 41q-64 0 -107.5 -39.5z" />
    <glyph glyph-name="Racute" unicode="&#x154;" horiz-adv-x="691" 
d="M658 0h-86l-90 243q-9 24 -27.5 35.5t-41.5 11.5h-246v-290h-82v700h319q70 0 120 -25t76 -69.5t26 -100.5q0 -65 -33.5 -111.5t-91.5 -67.5q42 -17 58 -60zM167 363h241q64 0 99.5 39.5t35.5 102.5q0 56 -38 88t-97 32h-241v-262zM346 920h111l-110 -166h-61z" />
    <glyph glyph-name="racute" unicode="&#x155;" horiz-adv-x="371" 
d="M344 533v-81h-17q-86 0 -131.5 -44.5t-45.5 -129.5v-278h-82v530h65l10 -101q52 104 184 104h17zM239 750h110l-110 -166h-61z" />
    <glyph glyph-name="uni0156" unicode="&#x156;" horiz-adv-x="691" 
d="M658 0h-86l-90 243q-9 24 -27.5 35.5t-41.5 11.5h-246v-290h-82v700h319q70 0 120 -25t76 -69.5t26 -100.5q0 -65 -33.5 -111.5t-91.5 -67.5q42 -17 58 -60zM167 363h241q64 0 99.5 39.5t35.5 102.5q0 56 -38 88t-97 32h-241v-262zM386.5 -65.5q17.5 -17.5 17.5 -43.5
v-96q0 -37 -20.5 -56t-58.5 -19h-24v47h24q27 0 27 28v40q-3 -1 -10 -1q-26 0 -43.5 16.5t-17.5 41.5q0 26 17.5 43t43.5 17q27 0 44.5 -17.5z" />
    <glyph glyph-name="uni0157" unicode="&#x157;" horiz-adv-x="371" 
d="M344 533v-81h-17q-86 0 -131.5 -44.5t-45.5 -129.5v-278h-82v530h65l10 -101q52 104 184 104h17zM159.5 -65.5q17.5 -17.5 17.5 -43.5v-96q0 -37 -20.5 -56t-58.5 -19h-24v47h24q27 0 27 28v40q-3 -1 -10 -1q-26 0 -43.5 16.5t-17.5 41.5q0 26 17.5 43t43.5 17
q27 0 44.5 -17.5z" />
    <glyph glyph-name="Rcaron" unicode="&#x158;" horiz-adv-x="691" 
d="M658 0h-86l-90 243q-9 24 -27.5 35.5t-41.5 11.5h-246v-290h-82v700h319q70 0 120 -25t76 -69.5t26 -100.5q0 -65 -33.5 -111.5t-91.5 -67.5q42 -17 58 -60zM167 363h241q64 0 99.5 39.5t35.5 102.5q0 56 -38 88t-97 32h-241v-262zM438 920h56l-110 -166h-121l-120 166
h56l123 -117z" />
    <glyph glyph-name="rcaron" unicode="&#x159;" horiz-adv-x="371" 
d="M344 533v-81h-17q-86 0 -131.5 -44.5t-45.5 -129.5v-278h-82v530h65l10 -101q52 104 184 104h17zM336 750h56l-120 -166h-111l-120 166h56l120 -114z" />
    <glyph glyph-name="Sacute" unicode="&#x15a;" horiz-adv-x="654" 
d="M135.5 47q-77.5 58 -85.5 162h86q7 -68 61.5 -106t145.5 -38q51 0 91.5 15.5t63 43.5t22.5 63q0 43 -22.5 67t-59 35.5t-105.5 24.5q-78 15 -127.5 31.5t-88 56.5t-38.5 111q0 58 32 103t89 70t129 25q110 0 180 -55.5t84 -155.5h-85q-13 64 -60.5 100t-118.5 36
q-73 0 -120 -33.5t-47 -86.5q0 -44 24 -68t58.5 -34t108.5 -25q82 -16 132.5 -34t84.5 -57.5t34 -107.5q0 -59 -33.5 -104.5t-92.5 -71t-135 -25.5q-130 0 -207.5 58zM356 920h111l-110 -166h-61z" />
    <glyph glyph-name="sacute" unicode="&#x15b;" horiz-adv-x="501" 
d="M104 34q-59 45 -64 127h80q4 -49 42 -75.5t102 -26.5q53 0 85.5 22t32.5 59q0 39 -28.5 57.5t-97.5 32.5q-58 12 -96 24.5t-68.5 44t-30.5 86.5q0 44 25.5 80t69.5 56.5t98 20.5q85 0 139 -44t65 -124h-79q-8 48 -40.5 73t-84.5 25q-50 0 -82 -23t-32 -62q0 -29 16 -46
t42 -25.5t73 -17.5q59 -12 98 -26.5t66 -45t27 -83.5q0 -45 -25.5 -80t-70.5 -54.5t-103 -19.5q-100 0 -159 45zM276 750h110l-110 -166h-61z" />
    <glyph glyph-name="Scedilla" unicode="&#x15e;" horiz-adv-x="654" 
d="M573.5 89.5q-30.5 -44.5 -85.5 -71t-126 -29.5l-38 -53q28 7 48 7q38 0 59 -18.5t21 -45.5q0 -41 -35.5 -63.5t-86.5 -22.5q-35 0 -71 11v50q15 -7 36 -10.5t41 -3.5q28 0 45 9.5t17 25.5q0 13 -12.5 19.5t-33.5 6.5q-30 0 -56 -12l-24 36l44 65q-118 6 -188.5 63
t-77.5 156h86q7 -68 61.5 -106t145.5 -38q51 0 91.5 15.5t63 43.5t22.5 63q0 43 -22.5 67t-59 35.5t-105.5 24.5q-78 15 -127.5 31.5t-88 56.5t-38.5 111q0 58 32 103t89 70t129 25q110 0 180 -55.5t84 -155.5h-85q-13 64 -60.5 100t-118.5 36q-73 0 -120 -33.5t-47 -86.5
q0 -44 24 -68t58.5 -34t108.5 -25q82 -16 132.5 -34t84.5 -57.5t34 -107.5q0 -56 -30.5 -100.5z" />
    <glyph glyph-name="scedilla" unicode="&#x15f;" horiz-adv-x="501" 
d="M415.5 39.5q-46.5 -41.5 -122.5 -49.5l-39 -54q28 7 48 7q38 0 59 -18.5t21 -45.5q0 -41 -35.5 -63.5t-86.5 -22.5q-35 0 -71 11v50q15 -7 36 -10.5t41 -3.5q28 0 45 9.5t17 25.5q0 13 -12.5 19.5t-33.5 6.5q-30 0 -56 -12l-24 36l44 64q-93 4 -147 49t-59 123h80
q4 -49 42 -75.5t102 -26.5q53 0 85.5 22t32.5 59q0 39 -28.5 57.5t-97.5 32.5q-58 12 -96 24.5t-68.5 44t-30.5 86.5q0 44 25.5 80t69.5 56.5t98 20.5q85 0 139 -44t65 -124h-79q-8 48 -40.5 73t-84.5 25q-50 0 -82 -23t-32 -62q0 -29 16 -46t42 -25.5t73 -17.5
q59 -12 98 -26.5t66 -45t27 -83.5q0 -62 -46.5 -103.5z" />
    <glyph glyph-name="Scaron" unicode="&#x160;" horiz-adv-x="654" 
d="M135.5 47q-77.5 58 -85.5 162h86q7 -68 61.5 -106t145.5 -38q51 0 91.5 15.5t63 43.5t22.5 63q0 43 -22.5 67t-59 35.5t-105.5 24.5q-78 15 -127.5 31.5t-88 56.5t-38.5 111q0 58 32 103t89 70t129 25q110 0 180 -55.5t84 -155.5h-85q-13 64 -60.5 100t-118.5 36
q-73 0 -120 -33.5t-47 -86.5q0 -44 24 -68t58.5 -34t108.5 -25q82 -16 132.5 -34t84.5 -57.5t34 -107.5q0 -59 -33.5 -104.5t-92.5 -71t-135 -25.5q-130 0 -207.5 58zM448 920h56l-110 -166h-121l-120 166h56l123 -117z" />
    <glyph glyph-name="scaron" unicode="&#x161;" horiz-adv-x="501" 
d="M104 34q-59 45 -64 127h80q4 -49 42 -75.5t102 -26.5q53 0 85.5 22t32.5 59q0 39 -28.5 57.5t-97.5 32.5q-58 12 -96 24.5t-68.5 44t-30.5 86.5q0 44 25.5 80t69.5 56.5t98 20.5q85 0 139 -44t65 -124h-79q-8 48 -40.5 73t-84.5 25q-50 0 -82 -23t-32 -62q0 -29 16 -46
t42 -25.5t73 -17.5q59 -12 98 -26.5t66 -45t27 -83.5q0 -45 -25.5 -80t-70.5 -54.5t-103 -19.5q-100 0 -159 45zM373 750h56l-120 -166h-111l-120 166h56l120 -114z" />
    <glyph glyph-name="uni0162" unicode="&#x162;" horiz-adv-x="637" 
d="M360 625v-602h3l-3 -4v-19h-13l-46 -64q28 7 48 7q38 0 59 -18.5t21 -45.5q0 -41 -35.5 -63.5t-86.5 -22.5q-35 0 -71 11v50q15 -7 36 -10.5t41 -3.5q28 0 45 9.5t17 25.5q0 13 -12.5 19.5t-33.5 6.5q-30 0 -56 -12l-24 36l51 75h-22v625h-243v75h567v-75h-242z" />
    <glyph glyph-name="uni0163" unicode="&#x163;" horiz-adv-x="363" 
d="M325 -75.5q21 -18.5 21 -45.5q0 -41 -35.5 -63.5t-86.5 -22.5q-35 0 -71 11v50q15 -7 36 -10.5t41 -3.5q28 0 45 9.5t17 25.5q0 13 -12.5 19.5t-33.5 6.5q-30 0 -56 -12l-24 36l54 79q-53 10 -82 48t-30 99v305h-95v74h95v144h81v-144h144v-74h-144v-305q0 -37 18 -57
t51 -20h66v-74h-60l-46 -64q28 7 48 7q38 0 59 -18.5z" />
    <glyph glyph-name="Tcaron" unicode="&#x164;" horiz-adv-x="637" 
d="M602 700v-75h-242v-625h-82v625h-243v75h567zM438 920h56l-110 -166h-121l-120 166h56l123 -117z" />
    <glyph glyph-name="tcaron" unicode="&#x165;" horiz-adv-x="363" 
d="M349 781l-67 -218h-52l25 218h94zM189 530h144v-74h-144v-305q0 -37 18 -57t51 -20h66v-74h-66q-70 0 -109.5 40t-40.5 111v305h-95v74h95v144h81v-144z" />
    <glyph glyph-name="Tbar" unicode="&#x166;" horiz-adv-x="637" 
d="M602 625h-242v-208h179v-73h-179v-344h-82v344h-180v73h180v208h-243v75h567v-75z" />
    <glyph glyph-name="tbar" unicode="&#x167;" horiz-adv-x="364" 
d="M190 456v-116h143v-74h-143v-115q0 -37 18 -57t51 -20h66v-74h-66q-70 0 -109.5 40t-40.5 111v115h-96v74h96v116h-95v74h95v144h81v-144h144v-74h-144z" />
    <glyph glyph-name="Umacron" unicode="&#x16a;" horiz-adv-x="714" 
d="M636 700v-466q0 -68 -33 -124t-95.5 -88.5t-149.5 -32.5t-150 33t-96 88.5t-33 123.5v466h83v-464q0 -79 56 -124t140 -45t140 45t56 124v464h82zM197 871h322v-59h-322v59z" />
    <glyph glyph-name="umacron" unicode="&#x16b;" horiz-adv-x="573" 
d="M505 530v-530h-64l-8 81q-25 -44 -70.5 -68t-101.5 -24q-63 0 -108.5 24t-70 66.5t-24.5 96.5v354h81v-351q0 -56 35.5 -87t94.5 -31q72 0 113 42t42 107v320h81zM120 711h324v-59h-324v59z" />
    <glyph glyph-name="Uring" unicode="&#x16e;" horiz-adv-x="714" 
d="M636 700v-466q0 -68 -33 -124t-95.5 -88.5t-149.5 -32.5t-150 33t-96 88.5t-33 123.5v466h83v-464q0 -79 56 -124t140 -45t140 45t56 124v464h82zM287 774.5q-28 26.5 -28 67.5q0 40 28 67t71 27t71 -27t28 -67q0 -41 -28 -67.5t-71 -26.5t-71 26.5zM394 806q14 14 14 36
t-14 36t-36 14t-36 -14t-14 -36t14 -36t36 -14t36 14z" />
    <glyph glyph-name="uring" unicode="&#x16f;" horiz-adv-x="573" 
d="M505 530v-530h-64l-8 81q-25 -44 -70.5 -68t-101.5 -24q-63 0 -108.5 24t-70 66.5t-24.5 96.5v354h81v-351q0 -56 35.5 -87t94.5 -31q72 0 113 42t42 107v320h81zM211 614.5q-28 26.5 -28 67.5q0 40 28 67t71 27t71 -27t28 -67q0 -41 -28 -67.5t-71 -26.5t-71 26.5z
M314 650q13 13 13 32q0 20 -13 32.5t-32 12.5q-20 0 -32.5 -12.5t-12.5 -32.5q0 -19 12.5 -32t32.5 -13q19 0 32 13z" />
    <glyph glyph-name="Uhungarumlaut" unicode="&#x170;" horiz-adv-x="714" 
d="M636 700v-466q0 -68 -33 -124t-95.5 -88.5t-149.5 -32.5t-150 33t-96 88.5t-33 123.5v466h83v-464q0 -79 56 -124t140 -45t140 45t56 124v464h82zM298 920h111l-110 -166h-60zM410 920h111l-110 -166h-60z" />
    <glyph glyph-name="uhungarumlaut" unicode="&#x171;" horiz-adv-x="573" 
d="M505 530v-530h-64l-8 81q-25 -44 -70.5 -68t-101.5 -24q-63 0 -108.5 24t-70 66.5t-24.5 96.5v354h81v-351q0 -56 35.5 -87t94.5 -31q72 0 113 42t42 107v320h81zM222 750h111l-110 -166h-60zM334 750h111l-110 -166h-60z" />
    <glyph glyph-name="Wcircumflex" unicode="&#x174;" horiz-adv-x="945" 
d="M839 700h86l-198 -700h-93l-162 580l-162 -580h-92l-198 700h85l165 -584l163 584h79l162 -582zM644 754h-56l-116 117l-123 -117h-56l120 166h121z" />
    <glyph glyph-name="wcircumflex" unicode="&#x175;" horiz-adv-x="759" 
d="M661 530h78l-157 -530h-89l-113 407l-113 -407h-90l-157 530h80l127 -429l119 429h69l119 -429zM559 584h-56l-119 114l-120 -114h-56l120 166h111z" />
    <glyph glyph-name="Ycircumflex" unicode="&#x176;" horiz-adv-x="649" 
d="M536 700h96l-267 -391v-309h-81v309l-267 391h97l211 -313zM496 754h-56l-116 117l-123 -117h-56l120 166h121z" />
    <glyph glyph-name="ycircumflex" unicode="&#x177;" horiz-adv-x="550" 
d="M530 530l-234 -631q-17 -45 -58.5 -72t-101.5 -27h-74v74h74q33 0 56 16t32 41l26 69h-20l-210 530h86l174 -449l167 449h83zM456 584h-56l-119 114l-120 -114h-56l120 166h111z" />
    <glyph glyph-name="Ydieresis" unicode="&#x178;" horiz-adv-x="649" 
d="M536 700h96l-267 -391v-309h-81v309l-267 391h97l211 -313zM179.5 790q-16.5 17 -16.5 42t16.5 41t41.5 16t41.5 -16t16.5 -41t-16.5 -42t-41.5 -17t-41.5 17zM385.5 789.5q-16.5 16.5 -16.5 42.5q0 25 16.5 41t41.5 16t41 -16t16 -41q0 -26 -16 -42.5t-41 -16.5
t-41.5 16.5z" />
    <glyph glyph-name="Zacute" unicode="&#x179;" horiz-adv-x="625" 
d="M150 75h423v-75h-521v75l414 550h-396v75h493v-75zM343 920h111l-110 -166h-61z" />
    <glyph glyph-name="zacute" unicode="&#x17a;" horiz-adv-x="502" 
d="M140 73h317v-73h-410v73l313 384h-304v73h397v-73zM269 750h110l-110 -166h-61z" />
    <glyph glyph-name="Zdotaccent" unicode="&#x17b;" horiz-adv-x="625" 
d="M150 75h423v-75h-521v75l414 550h-396v75h493v-75zM271.5 785q-17.5 18 -17.5 45q0 26 17.5 43.5t44.5 17.5t44.5 -17.5t17.5 -43.5q0 -27 -17.5 -45t-44.5 -18t-44.5 18z" />
    <glyph glyph-name="zdotaccent" unicode="&#x17c;" horiz-adv-x="502" 
d="M140 73h317v-73h-410v73l313 384h-304v73h397v-73zM202.5 635q-17.5 18 -17.5 45q0 26 17.5 43.5t44.5 17.5t44.5 -17.5t17.5 -43.5q0 -27 -17.5 -45t-44.5 -18t-44.5 18z" />
    <glyph glyph-name="Zcaron" unicode="&#x17d;" horiz-adv-x="625" 
d="M150 75h423v-75h-521v75l414 550h-396v75h493v-75zM435 920h56l-110 -166h-121l-120 166h56l123 -117z" />
    <glyph glyph-name="zcaron" unicode="&#x17e;" horiz-adv-x="485" 
d="M126 73h317v-73h-410v73l313 384h-304v73h397v-73zM352 750h56l-120 -166h-111l-120 166h56l120 -114z" />
    <glyph glyph-name="uni0218" unicode="&#x218;" horiz-adv-x="654" 
d="M135.5 47q-77.5 58 -85.5 162h86q7 -68 61.5 -106t145.5 -38q51 0 91.5 15.5t63 43.5t22.5 63q0 43 -22.5 67t-59 35.5t-105.5 24.5q-78 15 -127.5 31.5t-88 56.5t-38.5 111q0 58 32 103t89 70t129 25q110 0 180 -55.5t84 -155.5h-85q-13 64 -60.5 100t-118.5 36
q-73 0 -120 -33.5t-47 -86.5q0 -44 24 -68t58.5 -34t108.5 -25q82 -16 132.5 -34t84.5 -57.5t34 -107.5q0 -59 -33.5 -104.5t-92.5 -71t-135 -25.5q-130 0 -207.5 58zM385.5 -65.5q17.5 -17.5 17.5 -43.5v-96q0 -37 -20.5 -56t-58.5 -19h-24v47h24q27 0 27 28v40
q-3 -1 -10 -1q-26 0 -43.5 16.5t-17.5 41.5q0 26 17.5 43t43.5 17q27 0 44.5 -17.5z" />
    <glyph glyph-name="uni0219" unicode="&#x219;" horiz-adv-x="501" 
d="M104 34q-59 45 -64 127h80q4 -49 42 -75.5t102 -26.5q53 0 85.5 22t32.5 59q0 39 -28.5 57.5t-97.5 32.5q-58 12 -96 24.5t-68.5 44t-30.5 86.5q0 44 25.5 80t69.5 56.5t98 20.5q85 0 139 -44t65 -124h-79q-8 48 -40.5 73t-84.5 25q-50 0 -82 -23t-32 -62q0 -29 16 -46
t42 -25.5t73 -17.5q59 -12 98 -26.5t66 -45t27 -83.5q0 -45 -25.5 -80t-70.5 -54.5t-103 -19.5q-100 0 -159 45zM315.5 -65.5q17.5 -17.5 17.5 -43.5v-96q0 -37 -20.5 -56t-58.5 -19h-24v47h24q27 0 27 28v40q-3 -1 -10 -1q-26 0 -43.5 16.5t-17.5 41.5q0 26 17.5 43
t43.5 17q27 0 44.5 -17.5z" />
    <glyph glyph-name="uni021A" unicode="&#x21a;" horiz-adv-x="637" 
d="M602 700v-75h-242v-625h-82v625h-243v75h567zM362.5 -65.5q17.5 -17.5 17.5 -43.5v-96q0 -37 -20.5 -56t-58.5 -19h-24v47h24q27 0 27 28v40q-3 -1 -10 -1q-26 0 -43.5 16.5t-17.5 41.5q0 26 17.5 43t43.5 17q27 0 44.5 -17.5z" />
    <glyph glyph-name="uni021B" unicode="&#x21b;" horiz-adv-x="363" 
d="M189 456v-305q0 -37 18 -57t51 -20h66v-74h-66q-70 0 -109.5 40t-40.5 111v305h-95v74h95v144h81v-144h144v-74h-144zM279.5 -65.5q17.5 -17.5 17.5 -43.5v-96q0 -37 -20.5 -56t-58.5 -19h-24v47h24q27 0 27 28v40q-3 -1 -10 -1q-26 0 -43.5 16.5t-17.5 41.5
q0 26 17.5 43t43.5 17q27 0 44.5 -17.5z" />
    <glyph glyph-name="circumflex" unicode="&#x2c6;" horiz-adv-x="517" 
d="M440 584h-56l-119 114l-120 -114h-56l120 166h111z" />
    <glyph glyph-name="caron" unicode="&#x2c7;" horiz-adv-x="517" 
d="M393 750h56l-120 -166h-111l-120 166h56l120 -114z" />
    <glyph glyph-name="breve" unicode="&#x2d8;" horiz-adv-x="412" 
d="M368 758v-13q0 -65 -45 -105.5t-116 -40.5q-72 0 -117 40.5t-45 105.5v13h71v-13q0 -38 25 -61.5t66 -23.5t65.5 23.5t24.5 61.5v13h71z" />
    <glyph glyph-name="dotaccent" unicode="&#x2d9;" horiz-adv-x="214" 
d="M61.5 634q-17.5 18 -17.5 45q0 26 17.5 43.5t44.5 17.5t44.5 -17.5t17.5 -43.5q0 -27 -17.5 -45t-44.5 -18t-44.5 18z" />
    <glyph glyph-name="ring" unicode="&#x2da;" horiz-adv-x="288" 
d="M73 614.5q-28 26.5 -28 67.5q0 40 28 67t71 27t71 -27t28 -67q0 -41 -28 -67.5t-71 -26.5t-71 26.5zM176.5 650q12.5 13 12.5 32q0 20 -12.5 32.5t-32.5 12.5q-19 0 -32 -12.5t-13 -32.5q0 -19 13 -32t32 -13q20 0 32.5 13z" />
    <glyph glyph-name="tilde" unicode="&#x2dc;" horiz-adv-x="458" 
d="M263.5 653q-23.5 13 -53.5 37q-19 16 -31 23.5t-24 7.5q-20 0 -31.5 -19.5t-11.5 -56.5h-67q0 63 27.5 100t76.5 37q27 0 47 -11.5t46 -34.5q20 -18 34 -27t30 -9q19 0 30 19t11 54h67q0 -63 -25 -98t-70 -35q-32 0 -55.5 13z" />
    <glyph glyph-name="hungarumlaut" unicode="&#x2dd;" horiz-adv-x="494" 
d="M147 750h111l-110 -166h-60zM259 750h111l-110 -166h-60z" />
    <glyph glyph-name="gravecomb" unicode="&#x300;" 
d="M-287 750h110l61 -166h-61z" />
    <glyph glyph-name="acutecomb" unicode="&#x301;" 
d="M-152 750h110l-110 -166h-61z" />
    <glyph glyph-name="uni0302" unicode="&#x302;" 
d="M-31 584h-56l-119 114l-120 -114h-56l120 166h111z" />
    <glyph glyph-name="tildecomb" unicode="&#x303;" 
d="M-195.5 653q-23.5 13 -53.5 37q-19 16 -31 23.5t-24 7.5q-20 0 -31.5 -19.5t-11.5 -56.5h-67q0 63 27.5 100t76.5 37q27 0 47 -11.5t46 -34.5q20 -18 34 -27t30 -9q19 0 30 19t11 54h67q0 -63 -25 -98t-70 -35q-32 0 -55.5 13z" />
    <glyph glyph-name="uni0304" unicode="&#x304;" 
d="M-344 711h324v-59h-324v59z" />
    <glyph glyph-name="uni0306" unicode="&#x306;" 
d="M-31 758v-13q0 -65 -45 -105.5t-116 -40.5q-72 0 -117 40.5t-45 105.5v13h71v-13q0 -38 25 -61.5t66 -23.5q40 0 65 23.5t25 61.5v13h71z" />
    <glyph glyph-name="uni0307" unicode="&#x307;" 
d="M-148.5 635q-17.5 18 -17.5 45q0 26 17.5 43.5t44.5 17.5t44.5 -17.5t17.5 -43.5q0 -27 -17.5 -45t-44.5 -18t-44.5 18z" />
    <glyph glyph-name="uni0308" unicode="&#x308;" 
d="M-337.5 640q-16.5 17 -16.5 42t16.5 41t41.5 16t41.5 -16t16.5 -41t-16.5 -42t-41.5 -17t-41.5 17zM-131.5 639.5q-16.5 16.5 -16.5 42.5q0 25 16.5 41t41.5 16t41 -16t16 -41q0 -26 -16 -42.5t-41 -16.5t-41.5 16.5z" />
    <glyph glyph-name="uni030A" unicode="&#x30a;" 
d="M-228 614.5q-28 26.5 -28 67.5q0 40 28 67t71 27t71 -27t28 -67q0 -41 -28 -67.5t-71 -26.5t-71 26.5zM-125 650q13 13 13 32q0 20 -13 32.5t-32 12.5q-20 0 -32.5 -12.5t-12.5 -32.5q0 -19 12.5 -32t32.5 -13q19 0 32 13z" />
    <glyph glyph-name="uni030B" unicode="&#x30b;" 
d="M-346 750h111l-110 -166h-60zM-234 750h111l-110 -166h-60z" />
    <glyph glyph-name="uni030C" unicode="&#x30c;" 
d="M-78 750h56l-120 -166h-111l-120 166h56l120 -114z" />
    <glyph glyph-name="uni0326" unicode="&#x326;" 
d="M-79.5 -65.5q17.5 -17.5 17.5 -43.5v-96q0 -37 -20.5 -56t-58.5 -19h-24v47h24q27 0 27 28v40q-3 -1 -10 -1q-26 0 -43.5 16.5t-17.5 41.5q0 26 17.5 43t43.5 17q27 0 44.5 -17.5z" />
    <glyph glyph-name="uni0327" unicode="&#x327;" 
d="M-39 -75.5q21 -18.5 21 -45.5q0 -41 -35.5 -63.5t-86.5 -22.5q-35 0 -71 11v50q15 -7 36 -10.5t41 -3.5q28 0 45 9.5t17 25.5q0 13 -12.5 19.5t-33.5 6.5q-30 0 -56 -12l-24 36l67 98h47l-62 -87q28 7 48 7q38 0 59 -18.5z" />
    <glyph glyph-name="Wgrave" unicode="&#x1e80;" horiz-adv-x="945" 
d="M839 700h86l-198 -700h-93l-162 580l-162 -580h-92l-198 700h85l165 -584l163 584h79l162 -582zM339 920h111l60 -166h-61z" />
    <glyph glyph-name="wgrave" unicode="&#x1e81;" horiz-adv-x="759" 
d="M661 530h78l-157 -530h-89l-113 407l-113 -407h-90l-157 530h80l127 -429l119 429h69l119 -429zM248 750h110l61 -166h-61z" />
    <glyph glyph-name="Wacute" unicode="&#x1e82;" horiz-adv-x="945" 
d="M839 700h86l-198 -700h-93l-162 580l-162 -580h-92l-198 700h85l165 -584l163 584h79l162 -582zM499 920h111l-110 -166h-61z" />
    <glyph glyph-name="wacute" unicode="&#x1e83;" horiz-adv-x="759" 
d="M661 530h78l-157 -530h-89l-113 407l-113 -407h-90l-157 530h80l127 -429l119 429h69l119 -429zM402 750h110l-110 -166h-61z" />
    <glyph glyph-name="Wdieresis" unicode="&#x1e84;" horiz-adv-x="945" 
d="M839 700h86l-198 -700h-93l-162 580l-162 -580h-92l-198 700h85l165 -584l163 584h79l162 -582zM327.5 790q-16.5 17 -16.5 42t16.5 41t41.5 16t41.5 -16t16.5 -41t-16.5 -42t-41.5 -17t-41.5 17zM533.5 789.5q-16.5 16.5 -16.5 42.5q0 25 16.5 41t41.5 16t41 -16t16 -41
q0 -26 -16 -42.5t-41 -16.5t-41.5 16.5z" />
    <glyph glyph-name="wdieresis" unicode="&#x1e85;" horiz-adv-x="759" 
d="M661 530h78l-157 -530h-89l-113 407l-113 -407h-90l-157 530h80l127 -429l119 429h69l119 -429zM235.5 640q-16.5 17 -16.5 42t16.5 41t41.5 16t41.5 -16t16.5 -41t-16.5 -42t-41.5 -17t-41.5 17zM441.5 639.5q-16.5 16.5 -16.5 42.5q0 25 16.5 41t41.5 16t41 -16t16 -41
q0 -26 -16 -42.5t-41 -16.5t-41.5 16.5z" />
    <glyph glyph-name="uni1E9E" unicode="&#x1e9e;" horiz-adv-x="714" 
d="M596.5 356q60.5 -62 60.5 -153q0 -65 -28.5 -113.5t-80.5 -74.5t-120 -26q-87 0 -159 34v74q75 -37 157 -37q69 0 109 38.5t40 105.5q0 50 -29 88.5t-81.5 60t-122.5 21.5v61l163 190h-239q-49 0 -74.5 -27t-25.5 -77v-521h-81v521q0 87 46.5 133t134.5 46h340v-69
l-170 -199q100 -14 160.5 -76z" />
    <glyph glyph-name="Ygrave" unicode="&#x1ef2;" horiz-adv-x="649" 
d="M536 700h96l-267 -391v-309h-81v309l-267 391h97l211 -313zM191 920h111l60 -166h-61z" />
    <glyph glyph-name="ygrave" unicode="&#x1ef3;" horiz-adv-x="550" 
d="M530 530l-234 -631q-17 -45 -58.5 -72t-101.5 -27h-74v74h74q33 0 56 16t32 41l26 69h-20l-210 530h86l174 -449l167 449h83zM145 750h110l61 -166h-61z" />
    <glyph glyph-name="endash" unicode="&#x2013;" horiz-adv-x="537" 
d="M45 345h447v-68h-447v68z" />
    <glyph glyph-name="emdash" unicode="&#x2014;" horiz-adv-x="882" 
d="M45 345h792v-68h-792v68z" />
    <glyph glyph-name="quoteleft" unicode="&#x2018;" horiz-adv-x="223" 
d="M155.5 580.5q17.5 -16.5 17.5 -41.5q0 -26 -17.5 -43t-43.5 -17q-27 0 -44.5 17.5t-17.5 43.5v96q0 37 20.5 56t58.5 19h24v-47h-24q-27 0 -27 -28v-40q3 1 10 1q26 0 43.5 -16.5z" />
    <glyph glyph-name="quoteright" unicode="&#x2019;" horiz-adv-x="223" 
d="M155.5 693.5q17.5 -17.5 17.5 -43.5v-96q0 -37 -20.5 -56t-58.5 -19h-24v47h24q27 0 27 28v40q-3 -1 -10 -1q-26 0 -43.5 16.5t-17.5 41.5q0 26 17.5 43t43.5 17q27 0 44.5 -17.5z" />
    <glyph glyph-name="quotesinglbase" unicode="&#x201a;" horiz-adv-x="223" 
d="M155.5 96.5q17.5 -17.5 17.5 -43.5v-96q0 -37 -20.5 -56t-58.5 -19h-24v47h24q27 0 27 28v40q-3 -1 -10 -1q-26 0 -43.5 16.5t-17.5 41.5q0 26 17.5 43t43.5 17q27 0 44.5 -17.5z" />
    <glyph glyph-name="quotedblleft" unicode="&#x201c;" horiz-adv-x="380" 
d="M155.5 580.5q17.5 -16.5 17.5 -41.5q0 -26 -17.5 -43t-43.5 -17q-27 0 -44.5 17.5t-17.5 43.5v96q0 37 20.5 56t58.5 19h24v-47h-24q-27 0 -27 -28v-40q3 1 10 1q26 0 43.5 -16.5zM312.5 580.5q17.5 -16.5 17.5 -41.5q0 -26 -17.5 -43t-43.5 -17q-27 0 -44.5 17.5
t-17.5 43.5v96q0 37 20.5 56t58.5 19h24v-47h-24q-27 0 -27 -28v-40q3 1 10 1q26 0 43.5 -16.5z" />
    <glyph glyph-name="quotedblright" unicode="&#x201d;" horiz-adv-x="380" 
d="M312.5 693.5q17.5 -17.5 17.5 -43.5v-96q0 -37 -20.5 -56t-58.5 -19h-24v47h24q27 0 27 28v40q-3 -1 -10 -1q-26 0 -43.5 16.5t-17.5 41.5q0 26 17.5 43t43.5 17q27 0 44.5 -17.5zM155.5 693.5q17.5 -17.5 17.5 -43.5v-96q0 -37 -20.5 -56t-58.5 -19h-24v47h24
q27 0 27 28v40q-3 -1 -10 -1q-26 0 -43.5 16.5t-17.5 41.5q0 26 17.5 43t43.5 17q27 0 44.5 -17.5z" />
    <glyph glyph-name="quotedblbase" unicode="&#x201e;" horiz-adv-x="380" 
d="M312.5 96.5q17.5 -17.5 17.5 -43.5v-96q0 -37 -20.5 -56t-58.5 -19h-24v47h24q27 0 27 28v40q-3 -1 -10 -1q-26 0 -43.5 16.5t-17.5 41.5q0 26 17.5 43t43.5 17q27 0 44.5 -17.5zM155.5 96.5q17.5 -17.5 17.5 -43.5v-96q0 -37 -20.5 -56t-58.5 -19h-24v47h24q27 0 27 28
v40q-3 -1 -10 -1q-26 0 -43.5 16.5t-17.5 41.5q0 26 17.5 43t43.5 17q27 0 44.5 -17.5z" />
    <glyph glyph-name="dagger" unicode="&#x2020;" horiz-adv-x="430" 
d="M390 616v-71h-135v-321h-80v321h-135v71h135v119h80v-119h135z" />
    <glyph glyph-name="daggerdbl" unicode="&#x2021;" horiz-adv-x="430" 
d="M390 548h-135v-99h135v-68h-135v-119h-80v119h-135v68h135v99h-135v68h135v119h80v-119h135v-68z" />
    <glyph glyph-name="bullet" unicode="&#x2022;" horiz-adv-x="498" 
d="M159 167q-41 24 -65 65t-24 90t24 90t65 65t90 24t90 -24t65 -65t24 -90t-24 -90t-65 -65t-90 -24t-90 24z" />
    <glyph glyph-name="ellipsis" unicode="&#x2026;" horiz-adv-x="638" 
d="M481.5 8q-17.5 18 -17.5 45q0 26 17.5 43.5t44.5 17.5t44.5 -17.5t17.5 -43.5q0 -27 -17.5 -45t-44.5 -18t-44.5 18zM67.5 8q-17.5 18 -17.5 45q0 26 17.5 43.5t44.5 17.5t44.5 -17.5t17.5 -43.5q0 -27 -17.5 -45t-44.5 -18t-44.5 18zM274.5 8q-17.5 18 -17.5 45
q0 26 17.5 43.5t44.5 17.5t44.5 -17.5t17.5 -43.5q0 -27 -17.5 -45t-44.5 -18t-44.5 18z" />
    <glyph glyph-name="perthousand" unicode="&#x2030;" horiz-adv-x="1252" 
d="M122.5 368q-36.5 23 -57 64.5t-20.5 94.5q0 54 20.5 95.5t56.5 65t83 23.5q70 0 114.5 -50.5t44.5 -130.5q0 -54 -20 -96t-56.5 -65.5t-82.5 -23.5t-82.5 23zM741 700l-485 -700h-82l485 700h82zM275 436.5q27 35.5 27 92.5q0 56 -27 91t-70 35t-70.5 -35.5t-27.5 -91.5
t27.5 -91.5t70.5 -35.5t70 35.5zM628.5 12q-36.5 23 -57 64.5t-20.5 94.5q0 54 20.5 95.5t56.5 65t83 23.5q46 0 82.5 -23t57 -64t20.5 -94q0 -54 -20.5 -96t-57 -65.5t-82.5 -23.5t-82.5 23zM965.5 12q-36.5 23 -57 64.5t-20.5 94.5q0 54 20.5 95.5t56.5 65t83 23.5
q46 0 82 -23t56.5 -64t20.5 -94q0 -54 -20.5 -96t-56.5 -65.5t-82 -23.5t-82.5 23zM781.5 81q27.5 36 27.5 92t-27.5 91t-70.5 35t-70.5 -35.5t-27.5 -91.5q0 -55 27.5 -91t70.5 -36t70.5 36zM1118 81q27 36 27 92t-27 91t-70 35t-70.5 -35.5t-27.5 -91.5t27.5 -91.5
t70.5 -35.5t70 36z" />
    <glyph glyph-name="uni2070" unicode="&#x2070;" horiz-adv-x="378" 
d="M87 449.5q-38 49.5 -38 132.5q0 84 38 134t102 50t102 -49.5t38 -131.5q0 -85 -38 -135t-102 -50t-102 49.5zM245.5 491q21.5 35 21.5 93q0 57 -21.5 91.5t-56.5 34.5t-56.5 -34.5t-21.5 -92.5t21.5 -92.5t56.5 -34.5t56.5 35z" />
    <glyph glyph-name="uni2074" unicode="&#x2074;" horiz-adv-x="345" 
d="M201 485h-167v55l167 218h62v-218h50v-55h-50v-77h-62v77zM201 540v132l-102 -132h102z" />
    <glyph glyph-name="uni2075" unicode="&#x2075;" horiz-adv-x="360" 
d="M91.5 431q-36.5 31 -42.5 85h68q3 -28 21 -43t47 -15t48 18.5t19 47.5t-19.5 48t-50.5 19q-17 0 -33.5 -6.5t-25.5 -16.5h-60l27 190h212v-59h-161l-11 -79q29 21 67 21q52 0 85 -32.5t33 -84.5q0 -55 -36 -89.5t-94 -34.5q-57 0 -93.5 31z" />
    <glyph glyph-name="uni2076" unicode="&#x2076;" horiz-adv-x="372" 
d="M83 450.5q-38 50.5 -38 131.5q0 84 40.5 134t112.5 50q55 0 90 -30t40 -81h-65q-3 24 -20.5 38.5t-46.5 14.5q-43 0 -68.5 -33t-25.5 -91q12 28 38.5 44.5t61.5 16.5q53 0 87.5 -34.5t34.5 -88.5t-36 -88t-95 -34q-72 0 -110 50.5zM243.5 475q18.5 19 18.5 48t-18.5 48
t-47.5 19q-31 0 -51 -19t-20 -48t20 -48t51 -19q29 0 47.5 19z" />
    <glyph glyph-name="uni2077" unicode="&#x2077;" horiz-adv-x="306" 
d="M214 699h-185v59h249v-59l-156 -291h-68z" />
    <glyph glyph-name="uni2078" unicode="&#x2078;" horiz-adv-x="370" 
d="M84.5 429q-39.5 29 -39.5 75q0 30 19.5 53.5t52.5 34.5q-26 12 -41 33t-15 47q0 41 34.5 67.5t89.5 26.5t89.5 -26.5t34.5 -68.5q0 -26 -14.5 -46.5t-40.5 -32.5q34 -11 52.5 -34t18.5 -54q0 -46 -39 -75t-100 -29q-62 0 -101.5 29zM229.5 631q17.5 14 17.5 35
q0 20 -17.5 33.5t-43.5 13.5t-44.5 -13.5t-18.5 -33.5q0 -21 18 -35t45 -14q26 0 43.5 14zM239.5 470q21.5 16 21.5 40q0 23 -21 39t-54 16t-55 -16t-22 -39q0 -24 21.5 -40t55.5 -16q32 0 53.5 16z" />
    <glyph glyph-name="uni2079" unicode="&#x2079;" horiz-adv-x="361" 
d="M87 429.5q-36 29.5 -43 78.5h65q2 -22 21 -36t47 -14q40 0 59.5 31.5t20.5 87.5q-23 -50 -87 -50q-54 0 -89.5 33.5t-35.5 85.5q0 53 36.5 86.5t92.5 33.5q67 0 104.5 -49t37.5 -134q0 -84 -36.5 -133.5t-104.5 -49.5q-52 0 -88 29.5zM222 599.5q18 18.5 18 46.5
t-18 46.5t-46 18.5q-29 0 -49 -18.5t-20 -46.5t19.5 -46.5t49.5 -18.5q28 0 46 18.5z" />
    <glyph glyph-name="uni2080" unicode="&#x2080;" horiz-adv-x="378" 
d="M87 -53.5q-38 49.5 -38 132.5q0 84 38 134t102 50t102 -49.5t38 -131.5q0 -85 -38 -135t-102 -50t-102 49.5zM245.5 -12q21.5 35 21.5 93q0 57 -21.5 91.5t-56.5 34.5t-56.5 -34.5t-21.5 -92.5t21.5 -92.5t56.5 -34.5t56.5 35z" />
    <glyph glyph-name="uni2081" unicode="&#x2081;" horiz-adv-x="245" 
d="M31 136h-4v51h4q35 0 53.5 16t18.5 47v5h62v-350h-62v257q-26 -26 -72 -26z" />
    <glyph glyph-name="uni2082" unicode="&#x2082;" horiz-adv-x="337" 
d="M64 -3.5q14 24.5 34 40t53 36.5q37 22 55.5 40t18.5 45q0 22 -15 35.5t-39 13.5q-28 0 -46.5 -17t-21.5 -47h-65q7 55 43 87.5t91 32.5q53 0 86 -29.5t33 -75.5q0 -30 -15 -52.5t-35 -38t-54 -35.5q-35 -20 -51.5 -34.5t-16.5 -33.5h173v-59h-242v33q0 34 14 58.5z" />
    <glyph glyph-name="uni2083" unicode="&#x2083;" horiz-adv-x="360" 
d="M83.5 -71q-39.5 32 -43.5 88h65q1 -30 24 -48t56 -18q31 0 50 15.5t19 38.5q0 24 -20.5 39.5t-50.5 15.5h-54v50h54q25 0 41 14.5t16 36.5q0 20 -16 34t-40 14q-27 0 -46.5 -15.5t-23.5 -41.5h-65q7 52 44.5 81.5t90.5 29.5t86 -26.5t33 -68.5q0 -28 -17 -49t-47 -31
q37 -10 57 -33t20 -56q0 -45 -36 -73.5t-95 -28.5q-62 0 -101.5 32z" />
    <glyph glyph-name="uni2084" unicode="&#x2084;" horiz-adv-x="345" 
d="M201 -18h-167v55l167 218h62v-218h50v-55h-50v-77h-62v77zM201 37v132l-102 -132h102z" />
    <glyph glyph-name="uni2085" unicode="&#x2085;" horiz-adv-x="360" 
d="M91.5 -72q-36.5 31 -42.5 85h68q3 -28 21 -43t47 -15t48 18.5t19 47.5t-19.5 48t-50.5 19q-17 0 -33.5 -6.5t-25.5 -16.5h-60l27 190h212v-59h-161l-11 -79q29 21 67 21q52 0 85 -32.5t33 -84.5q0 -55 -36 -89.5t-94 -34.5q-57 0 -93.5 31z" />
    <glyph glyph-name="uni2086" unicode="&#x2086;" horiz-adv-x="372" 
d="M83 -52.5q-38 50.5 -38 131.5q0 84 40.5 134t112.5 50q55 0 90 -30t40 -81h-65q-3 24 -20.5 38.5t-46.5 14.5q-43 0 -68.5 -33t-25.5 -91q12 28 38.5 44.5t61.5 16.5q53 0 87.5 -34.5t34.5 -88.5t-36 -88t-95 -34q-72 0 -110 50.5zM243.5 -28q18.5 19 18.5 48t-18.5 48
t-47.5 19q-31 0 -51 -19t-20 -48t20 -48t51 -19q29 0 47.5 19z" />
    <glyph glyph-name="uni2087" unicode="&#x2087;" horiz-adv-x="306" 
d="M214 196h-185v59h249v-59l-156 -291h-68z" />
    <glyph glyph-name="uni2088" unicode="&#x2088;" horiz-adv-x="370" 
d="M84.5 -74q-39.5 29 -39.5 75q0 30 19.5 53.5t52.5 34.5q-26 12 -41 33t-15 47q0 41 34.5 67.5t89.5 26.5t89.5 -26.5t34.5 -68.5q0 -26 -14.5 -46.5t-40.5 -32.5q34 -11 52.5 -34t18.5 -54q0 -46 -39 -75t-100 -29q-62 0 -101.5 29zM229.5 128q17.5 14 17.5 35
q0 20 -17.5 33.5t-43.5 13.5t-44.5 -13.5t-18.5 -33.5q0 -21 18 -35t45 -14q26 0 43.5 14zM239.5 -33q21.5 16 21.5 40q0 23 -21 39t-54 16t-55 -16t-22 -39q0 -24 21.5 -40t55.5 -16q32 0 53.5 16z" />
    <glyph glyph-name="uni2089" unicode="&#x2089;" horiz-adv-x="361" 
d="M87 -73.5q-36 29.5 -43 78.5h65q2 -22 21 -36t47 -14q40 0 59.5 31.5t20.5 87.5q-23 -50 -87 -50q-54 0 -89.5 33.5t-35.5 85.5q0 53 36.5 86.5t92.5 33.5q67 0 104.5 -49t37.5 -134q0 -84 -36.5 -133.5t-104.5 -49.5q-52 0 -88 29.5zM222 96.5q18 18.5 18 46.5t-18 46.5
t-46 18.5q-29 0 -49 -18.5t-20 -46.5t19.5 -46.5t49.5 -18.5q28 0 46 18.5z" />
    <glyph glyph-name="Euro" unicode="&#x20ac;" horiz-adv-x="848" 
d="M629 117q63 52 83 152h85q-23 -136 -107.5 -208t-221.5 -72q-132 0 -218 71t-113 192h-104v62h95q-1 12 -1 38q0 18 1 27h-95v62h102q25 124 112 197t221 73q133 0 219.5 -74t109.5 -206h-85q-19 97 -84 150.5t-160 53.5t-159.5 -51.5t-85.5 -142.5h316v-62h-325
q-1 -9 -1 -27q0 -14 2 -38h324v-62h-314q23 -89 86.5 -138t156.5 -49q98 0 161 52z" />
    <glyph glyph-name="uni2116" unicode="&#x2116;" horiz-adv-x="1057" 
d="M980.5 664.5q41.5 -43.5 41.5 -112.5q0 -72 -41.5 -117t-106.5 -45q-66 0 -108 45t-42 117q0 69 42 112.5t108 43.5q65 0 106.5 -43.5zM573 120v580h81v-700h-91l-396 579v-579h-82v700h92zM936 477q24 29 24 75q0 44 -24 71t-62 27q-39 0 -63 -27t-24 -71
q0 -47 24 -75.5t63 -28.5q38 0 62 29zM916.5 320.5q17.5 -17.5 17.5 -43.5q0 -27 -17.5 -45t-44.5 -18t-44.5 18t-17.5 45q0 26 17.5 43.5t44.5 17.5t44.5 -17.5z" />
    <glyph glyph-name="trademark" unicode="&#x2122;" horiz-adv-x="706" 
d="M304 700v-48h-111v-290h-52v290h-111v48h274zM656 700v-338h-51v220l-88 -220h-49l-87 218v-218h-52v338h52l112 -278l112 278h51z" />
    <glyph glyph-name="arrowleft" unicode="&#x2190;" horiz-adv-x="907" 
d="M862 373v-70h-715l264 -263l-54 -49l-312 312v70l312 312l54 -49l-264 -263h715z" />
    <glyph glyph-name="arrowup" unicode="&#x2191;" horiz-adv-x="791" 
d="M746 389l-53 -51l-259 259v-628h-77v628l-259 -259l-53 51l312 311h77z" />
    <glyph glyph-name="arrowright" unicode="&#x2192;" horiz-adv-x="907" 
d="M550 685l312 -312v-70l-312 -312l-54 49l264 263h-715v70h715l-264 263z" />
    <glyph glyph-name="arrowdown" unicode="&#x2193;" horiz-adv-x="791" 
d="M693 362l53 -51l-312 -311h-77l-312 311l53 51l259 -259v628h77v-628z" />
    <glyph glyph-name="arrowboth" unicode="&#x2194;" horiz-adv-x="1046" 
d="M689 685l312 -312v-70l-312 -312l-55 49l265 263h-751l264 -263l-55 -49l-312 312v70l312 312l55 -49l-264 -263h751l-265 263z" />
    <glyph glyph-name="uni2196" unicode="&#x2196;" horiz-adv-x="816" 
d="M771 44l-56 -54l-532 531v-399h-76v475l56 54h474v-70h-404z" />
    <glyph glyph-name="uni2197" unicode="&#x2197;" horiz-adv-x="789" 
d="M626 650l56 -54v-475h-76v399l-532 -531l-56 54l538 537h-404v70h474z" />
    <glyph glyph-name="uni2198" unicode="&#x2198;" horiz-adv-x="789" 
d="M633 579h76v-475l-56 -54h-474v70h404l-538 537l56 54l532 -531v399z" />
    <glyph glyph-name="uni2199" unicode="&#x2199;" horiz-adv-x="816" 
d="M771 657l-538 -537h404v-70h-474l-56 54v475h76v-399l532 531z" />
    <glyph glyph-name="uni21B0" unicode="&#x21b0;" horiz-adv-x="924" 
d="M142 462h693v-462h-76v392h-617l174 -173l-52 -47l-219 220v70l219 220l52 -48z" />
    <glyph glyph-name="uni21B1" unicode="&#x21b1;" horiz-adv-x="924" 
d="M660 682l219 -220v-70l-219 -220l-52 47l174 173h-617v-392h-76v462h693l-174 172z" />
    <glyph glyph-name="uni21B2" unicode="&#x21b2;" horiz-adv-x="924" 
d="M759 700h76v-462h-693l174 -172l-52 -48l-219 220v70l219 220l52 -47l-174 -173h617v392z" />
    <glyph glyph-name="uni21B3" unicode="&#x21b3;" horiz-adv-x="924" 
d="M660 528l219 -220v-70l-219 -220l-52 48l174 172h-693v462h76v-392h617l-174 173z" />
    <glyph glyph-name="partialdiff" unicode="&#x2202;" horiz-adv-x="604" 
d="M469.5 620.5q89.5 -109.5 89.5 -280.5q0 -106 -33 -185t-94 -122.5t-142 -43.5q-68 0 -121.5 32t-83 88.5t-29.5 129.5q0 74 31 132t86.5 90t127.5 32q102 0 170 -70q-16 97 -83.5 165t-182.5 103v79q175 -40 264.5 -149.5zM388.5 96.5q41.5 33.5 64.5 96.5t23 149
q-75 80 -168 80q-75 0 -121.5 -49.5t-46.5 -129.5t42 -130t110 -50q55 0 96.5 33.5z" />
    <glyph glyph-name="emptyset" unicode="&#x2205;" horiz-adv-x="730" 
d="M654.5 473q25.5 -60 25.5 -129q0 -89 -41 -161t-113 -113t-161 -41q-100 0 -176 51l-47 -59h-69l73 92q-46 43 -71 102.5t-25 128.5q0 89 41 161t113 113t161 41q97 0 175 -50l46 59h71l-74 -93q46 -42 71.5 -102zM143 250q18 -44 50 -77l299 377q-56 34 -127 34
q-68 0 -122.5 -31.5t-86 -86t-31.5 -122.5q0 -50 18 -94zM487.5 135.5q54.5 31.5 86 86t31.5 122.5q0 51 -18 95t-51 77l-300 -377q59 -35 129 -35q68 0 122.5 31.5z" />
    <glyph glyph-name="product" unicode="&#x220f;" horiz-adv-x="686" 
d="M618 700v-75h-110v-625h-82v625h-166v-625h-82v625h-110v75h550z" />
    <glyph glyph-name="summation" unicode="&#x2211;" horiz-adv-x="590" 
d="M535 700v-75h-379l213 -233v-70l-213 -247h379v-75h-480v75l244 283l-244 267v75h480z" />
    <glyph glyph-name="minus" unicode="&#x2212;" horiz-adv-x="532" 
d="M45 345h442v-68h-442v68z" />
    <glyph glyph-name="radical" unicode="&#x221a;" horiz-adv-x="646" 
d="M557 711h85l-228 -711h-88l-157 455h-156v75h214l143 -406z" />
    <glyph glyph-name="integral" unicode="&#x222b;" horiz-adv-x="445" 
d="M433 700v-75h-45q-30 0 -49 -16t-24 -45l-101 -575q-12 -67 -52.5 -101.5t-105.5 -34.5h-44v75h44q31 0 50 15.5t24 45.5l101 575q12 67 52.5 101.5t104.5 34.5h45z" />
    <glyph glyph-name="notequal" unicode="&#x2260;" horiz-adv-x="560" 
d="M515 365h-160l-91 -144h251v-68h-293l-72 -114h-56l72 114h-121v68h164l91 144h-255v68h298l69 109h54l-68 -109h117v-68z" />
    <glyph glyph-name="lessequal" unicode="&#x2264;" horiz-adv-x="619" 
d="M548 222v-73l-483 161v73l483 161v-73l-373 -124zM55 102h499v-68h-499v68z" />
    <glyph glyph-name="greaterequal" unicode="&#x2265;" horiz-adv-x="619" 
d="M554 383v-73l-483 -161v73l374 125l-374 124v73zM65 102h499v-68h-499v68z" />
    <glyph glyph-name="uni23CE" unicode="&#x23ce;" horiz-adv-x="1014" 
d="M925 700v-462h-773l174 -172l-52 -48l-219 220v70l219 220l52 -47l-174 -173h697v322h-345v70h421z" />
    <glyph glyph-name="lozenge" unicode="&#x25ca;" horiz-adv-x="566" 
d="M321 700l205 -350l-205 -350h-77l-204 350l204 350h77zM282 80l159 270l-158 270l-158 -270z" />
    <glyph glyph-name="F.ss06" horiz-adv-x="603" 
d="M193.5 597.5q-26.5 -27.5 -26.5 -76.5v-126h364v-75h-364v-320h-82v521q0 84 48 131.5t133 47.5h295v-75h-295q-46 0 -72.5 -27.5z" />
    <glyph glyph-name="L.ss05" horiz-adv-x="571" 
d="M543 76v-76h-277q-85 0 -133 47.5t-48 131.5v521h83v-521q0 -49 26 -76t72 -27h277z" />
    <glyph glyph-name="Lacute.ss05" horiz-adv-x="571" 
d="M543 76v-76h-277q-85 0 -133 47.5t-48 131.5v521h83v-521q0 -49 26 -76t72 -27h277zM153 920h111l-110 -166h-61z" />
    <glyph glyph-name="Lcaron.ss05" horiz-adv-x="571" 
d="M407 724l-67 -218h-52l25 218h94zM543 76v-76h-277q-85 0 -133 47.5t-48 131.5v521h83v-521q0 -49 26 -76t72 -27h277z" />
    <glyph glyph-name="uni013B.ss05" horiz-adv-x="571" 
d="M543 76v-76h-277q-85 0 -133 47.5t-48 131.5v521h83v-521q0 -49 26 -76t72 -27h277zM361.5 -65.5q17.5 -17.5 17.5 -43.5v-96q0 -37 -20.5 -56t-58.5 -19h-24v47h24q27 0 27 28v40q-3 -1 -10 -1q-26 0 -43.5 16.5t-17.5 41.5q0 26 17.5 43t43.5 17q27 0 44.5 -17.5z" />
    <glyph glyph-name="Lslash.ss05" horiz-adv-x="571" 
d="M543 76v-76h-277q-85 0 -133 47.5t-48 131.5v135l-95 -58v83l95 58v303h83v-252l159 98v-84l-159 -97v-186q0 -49 26 -76t72 -27h277z" />
    <glyph glyph-name="Q.ss07" horiz-adv-x="781" 
d="M543 -74.5q22 -20.5 65 -20.5h62v-74h-62q-81 0 -124.5 39.5t-44.5 115.5v6q-24 -3 -49 -3q-99 0 -175.5 44.5t-119 127t-42.5 191.5q0 104 40.5 185.5t117 127.5t179.5 46q100 0 176.5 -44.5t119 -126t42.5 -188.5q0 -122 -54.5 -212.5t-152.5 -127.5v-26
q0 -40 22 -60.5zM169 200q31 -65 88 -100t133 -35q78 0 135 35t88 100t31 152q0 86 -31 150t-88.5 98.5t-134.5 34.5t-134 -34.5t-87.5 -98.5t-30.5 -150q0 -87 31 -152z" />
    <glyph glyph-name="Q.ss08" horiz-adv-x="781" 
d="M692.5 175.5q-35.5 -78.5 -103 -127t-159.5 -57.5v-159h-78v159q-89 8 -157 55t-105 125.5t-37 180.5q0 104 40.5 185.5t117 127.5t179.5 46q100 0 176.5 -44.5t119 -126t42.5 -188.5q0 -98 -35.5 -176.5zM525 100q57 35 88 100t31 152q0 86 -31 150t-88.5 98.5
t-134.5 34.5t-134 -34.5t-87.5 -98.5t-30.5 -150q0 -87 31 -152t88 -100t133 -35q78 0 135 35z" />
    <glyph glyph-name="Q.ss09" horiz-adv-x="781" 
d="M694 178.5q-34 -77.5 -98 -125.5l102 -136l-67 -42l-104 139q-64 -25 -137 -25q-99 0 -175.5 44.5t-119 127t-42.5 191.5q0 104 40.5 185.5t117 127.5t179.5 46q100 0 176.5 -44.5t119 -126t42.5 -188.5q0 -96 -34 -173.5zM169 200q31 -65 88 -100t133 -35q78 0 135 35
t88 100t31 152q0 86 -31 150t-88.5 98.5t-134.5 34.5t-134 -34.5t-87.5 -98.5t-30.5 -150q0 -87 31 -152z" />
    <glyph glyph-name="Q.ss10" horiz-adv-x="781" 
d="M692.5 175.5q-35.5 -78.5 -103 -127t-158.5 -57.5v-5q0 -40 22.5 -60.5t65.5 -20.5h61v-74h-61q-81 0 -124.5 39.5t-44.5 115.5v5q-89 9 -156 55.5t-104 125t-37 180.5q0 104 40.5 185.5t117 127.5t179.5 46q100 0 176.5 -44.5t119 -126t42.5 -188.5q0 -98 -35.5 -176.5z
M195 156.5q57 -75.5 155 -88.5v149h81v-149q100 13 156.5 89t56.5 195q0 86 -31 150t-88.5 98.5t-134.5 34.5t-134 -34.5t-87.5 -98.5t-30.5 -150q0 -120 57 -195.5z" />
    <glyph glyph-name="Q.ss11" horiz-adv-x="781" 
d="M692.5 175.5q-35.5 -78.5 -103 -127t-158.5 -57.5q1 -38 23 -58.5t65 -20.5h61v-73h-61q-80 0 -124 39t-45 113q-89 9 -156 55.5t-104 125t-37 180.5q0 104 40.5 185.5t117 127.5t179.5 46q100 0 176.5 -44.5t119 -126t42.5 -188.5q0 -98 -35.5 -176.5zM525 100
q57 35 88 100t31 152q0 86 -31 150t-88.5 98.5t-134.5 34.5t-134 -34.5t-87.5 -98.5t-30.5 -150q0 -87 31 -152t88 -100t133 -35q78 0 135 35z" />
    <glyph glyph-name="a.ss01" horiz-adv-x="614" 
d="M546 530v-530h-80v79q-31 -43 -76.5 -66.5t-101.5 -23.5q-78 0 -133.5 36.5t-84.5 99t-29 139.5q0 87 33 150t89 95.5t125 32.5q57 0 105 -24t80 -67l5 79h68zM384 87q39 27 60.5 75t21.5 110q0 58 -22 103.5t-60.5 70.5t-88.5 25q-49 0 -87.5 -26t-60 -73t-21.5 -108
q0 -60 21.5 -106.5t60 -72t87.5 -25.5q50 0 89 27z" />
    <glyph glyph-name="aacute.ss01" horiz-adv-x="614" 
d="M546 530v-530h-80v79q-31 -43 -76.5 -66.5t-101.5 -23.5q-78 0 -133.5 36.5t-84.5 99t-29 139.5q0 87 33 150t89 95.5t125 32.5q57 0 105 -24t80 -67l5 79h68zM384 87q39 27 60.5 75t21.5 110q0 58 -22 103.5t-60.5 70.5t-88.5 25q-49 0 -87.5 -26t-60 -73t-21.5 -108
q0 -60 21.5 -106.5t60 -72t87.5 -25.5q50 0 89 27zM326 750h110l-110 -166h-61z" />
    <glyph glyph-name="abreve.ss01" horiz-adv-x="614" 
d="M546 530v-530h-80v79q-31 -43 -76.5 -66.5t-101.5 -23.5q-78 0 -133.5 36.5t-84.5 99t-29 139.5q0 87 33 150t89 95.5t125 32.5q57 0 105 -24t80 -67l5 79h68zM384 87q39 27 60.5 75t21.5 110q0 58 -22 103.5t-60.5 70.5t-88.5 25q-49 0 -87.5 -26t-60 -73t-21.5 -108
q0 -60 21.5 -106.5t60 -72t87.5 -25.5q50 0 89 27zM465 758v-13q0 -65 -45 -105.5t-116 -40.5q-72 0 -117 40.5t-45 105.5v13h71v-13q0 -38 25 -61.5t66 -23.5q40 0 65 23.5t25 61.5v13h71z" />
    <glyph glyph-name="acircumflex.ss01" horiz-adv-x="614" 
d="M546 530v-530h-80v79q-31 -43 -76.5 -66.5t-101.5 -23.5q-78 0 -133.5 36.5t-84.5 99t-29 139.5q0 87 33 150t89 95.5t125 32.5q57 0 105 -24t80 -67l5 79h68zM384 87q39 27 60.5 75t21.5 110q0 58 -22 103.5t-60.5 70.5t-88.5 25q-49 0 -87.5 -26t-60 -73t-21.5 -108
q0 -60 21.5 -106.5t60 -72t87.5 -25.5q50 0 89 27zM483 584h-56l-119 114l-120 -114h-56l120 166h111z" />
    <glyph glyph-name="adieresis.ss01" horiz-adv-x="614" 
d="M546 530v-530h-80v79q-31 -43 -76.5 -66.5t-101.5 -23.5q-78 0 -133.5 36.5t-84.5 99t-29 139.5q0 87 33 150t89 95.5t125 32.5q57 0 105 -24t80 -67l5 79h68zM384 87q39 27 60.5 75t21.5 110q0 58 -22 103.5t-60.5 70.5t-88.5 25q-49 0 -87.5 -26t-60 -73t-21.5 -108
q0 -60 21.5 -106.5t60 -72t87.5 -25.5q50 0 89 27zM159.5 640q-16.5 17 -16.5 42t16.5 41t41.5 16t41.5 -16t16.5 -41t-16.5 -42t-41.5 -17t-41.5 17zM365.5 639.5q-16.5 16.5 -16.5 42.5q0 25 16.5 41t41.5 16t41 -16t16 -41q0 -26 -16 -42.5t-41 -16.5t-41.5 16.5z" />
    <glyph glyph-name="agrave.ss01" horiz-adv-x="614" 
d="M546 530v-530h-80v79q-31 -43 -76.5 -66.5t-101.5 -23.5q-78 0 -133.5 36.5t-84.5 99t-29 139.5q0 87 33 150t89 95.5t125 32.5q57 0 105 -24t80 -67l5 79h68zM384 87q39 27 60.5 75t21.5 110q0 58 -22 103.5t-60.5 70.5t-88.5 25q-49 0 -87.5 -26t-60 -73t-21.5 -108
q0 -60 21.5 -106.5t60 -72t87.5 -25.5q50 0 89 27zM172 750h110l61 -166h-61z" />
    <glyph glyph-name="amacron.ss01" horiz-adv-x="614" 
d="M546 530v-530h-80v79q-31 -43 -76.5 -66.5t-101.5 -23.5q-78 0 -133.5 36.5t-84.5 99t-29 139.5q0 87 33 150t89 95.5t125 32.5q57 0 105 -24t80 -67l5 79h68zM384 87q39 27 60.5 75t21.5 110q0 58 -22 103.5t-60.5 70.5t-88.5 25q-49 0 -87.5 -26t-60 -73t-21.5 -108
q0 -60 21.5 -106.5t60 -72t87.5 -25.5q50 0 89 27zM142 711h324v-59h-324v59z" />
    <glyph glyph-name="aring.ss01" horiz-adv-x="614" 
d="M546 530v-530h-80v79q-31 -43 -76.5 -66.5t-101.5 -23.5q-78 0 -133.5 36.5t-84.5 99t-29 139.5q0 87 33 150t89 95.5t125 32.5q57 0 105 -24t80 -67l5 79h68zM384 87q39 27 60.5 75t21.5 110q0 58 -22 103.5t-60.5 70.5t-88.5 25q-49 0 -87.5 -26t-60 -73t-21.5 -108
q0 -60 21.5 -106.5t60 -72t87.5 -25.5q50 0 89 27zM233 614.5q-28 26.5 -28 67.5q0 40 28 67t71 27t71 -27t28 -67q0 -41 -28 -67.5t-71 -26.5t-71 26.5zM336 650q13 13 13 32q0 20 -13 32.5t-32 12.5q-20 0 -32.5 -12.5t-12.5 -32.5q0 -19 12.5 -32t32.5 -13q19 0 32 13z
" />
    <glyph glyph-name="atilde.ss01" horiz-adv-x="614" 
d="M546 530v-530h-80v79q-31 -43 -76.5 -66.5t-101.5 -23.5q-78 0 -133.5 36.5t-84.5 99t-29 139.5q0 87 33 150t89 95.5t125 32.5q57 0 105 -24t80 -67l5 79h68zM384 87q39 27 60.5 75t21.5 110q0 58 -22 103.5t-60.5 70.5t-88.5 25q-49 0 -87.5 -26t-60 -73t-21.5 -108
q0 -60 21.5 -106.5t60 -72t87.5 -25.5q50 0 89 27zM340.5 653q-23.5 13 -53.5 37q-19 16 -31 23.5t-24 7.5q-20 0 -31.5 -19.5t-11.5 -56.5h-67q0 63 27.5 100t76.5 37q27 0 47 -11.5t46 -34.5q20 -18 34 -27t30 -9q19 0 30 19t11 54h67q0 -63 -25 -98t-70 -35
q-32 0 -55.5 13z" />
    <glyph glyph-name="g.ss02" horiz-adv-x="614" 
d="M546 530v-575q-1 -76 -44.5 -115.5t-124.5 -39.5h-240v73h240q44 0 66.5 21t22.5 61v125q-30 -43 -76 -66.5t-102 -23.5q-78 0 -133.5 36.5t-84.5 98.5t-29 139q0 87 33 150t89 95.5t125 32.5q58 0 106 -24.5t81 -69.5l6 82h65zM383 88q39 27 61 75t22 109
q0 58 -22 103.5t-60.5 70.5t-88.5 25q-49 0 -87.5 -26t-60 -73t-21.5 -108q0 -59 21.5 -105.5t60 -72t87.5 -25.5t88 27z" />
    <glyph glyph-name="gbreve.ss02" horiz-adv-x="614" 
d="M546 530v-575q-1 -76 -44.5 -115.5t-124.5 -39.5h-240v73h240q44 0 66.5 21t22.5 61v125q-30 -43 -76 -66.5t-102 -23.5q-78 0 -133.5 36.5t-84.5 98.5t-29 139q0 87 33 150t89 95.5t125 32.5q58 0 106 -24.5t81 -69.5l6 82h65zM383 88q39 27 61 75t22 109
q0 58 -22 103.5t-60.5 70.5t-88.5 25q-49 0 -87.5 -26t-60 -73t-21.5 -108q0 -59 21.5 -105.5t60 -72t87.5 -25.5t88 27zM455 758v-13q0 -65 -45 -105.5t-116 -40.5q-72 0 -117 40.5t-45 105.5v13h71v-13q0 -38 25 -61.5t66 -23.5q40 0 65 23.5t25 61.5v13h71z" />
    <glyph glyph-name="uni0123.ss02" horiz-adv-x="614" 
d="M251.5 595.5q-17.5 17.5 -17.5 43.5v96q0 37 20.5 56t58.5 19h24v-47h-24q-27 0 -27 -28v-40q3 1 10 1q26 0 43.5 -16.5t17.5 -41.5q0 -26 -17.5 -43t-43.5 -17q-27 0 -44.5 17.5zM546 530v-575q-1 -76 -44.5 -115.5t-124.5 -39.5h-240v73h240q44 0 66.5 21t22.5 61v125
q-30 -43 -76 -66.5t-102 -23.5q-78 0 -133.5 36.5t-84.5 98.5t-29 139q0 87 33 150t89 95.5t125 32.5q58 0 106 -24.5t81 -69.5l6 82h65zM383 88q39 27 61 75t22 109q0 58 -22 103.5t-60.5 70.5t-88.5 25q-49 0 -87.5 -26t-60 -73t-21.5 -108q0 -59 21.5 -105.5t60 -72
t87.5 -25.5t88 27z" />
    <glyph glyph-name="gdotaccent.ss02" horiz-adv-x="614" 
d="M546 530v-575q-1 -76 -44.5 -115.5t-124.5 -39.5h-240v73h240q44 0 66.5 21t22.5 61v125q-30 -43 -76 -66.5t-102 -23.5q-78 0 -133.5 36.5t-84.5 98.5t-29 139q0 87 33 150t89 95.5t125 32.5q58 0 106 -24.5t81 -69.5l6 82h65zM383 88q39 27 61 75t22 109
q0 58 -22 103.5t-60.5 70.5t-88.5 25q-49 0 -87.5 -26t-60 -73t-21.5 -108q0 -59 21.5 -105.5t60 -72t87.5 -25.5t88 27z" />
    <glyph glyph-name="g.ss03" horiz-adv-x="508" 
d="M473.5 31.5q39.5 -36.5 39.5 -94.5q0 -60 -40 -98.5t-103 -38.5h-211q-65 0 -105 30t-40 84q0 36 23 61.5t65 36.5q-22 13 -34.5 34t-12.5 46q0 34 23.5 60.5t63.5 35.5q-43 25 -66.5 66.5t-23.5 94.5q0 56 26 100t72 68.5t105 24.5q61 0 108 -25q31 2 48 20t17 47v14h74
v-14q0 -38 -23 -66.5t-64 -41.5q45 -51 45 -127q0 -55 -26 -98t-72.5 -67t-106.5 -24h-68q-29 0 -46.5 -13.5t-17.5 -36.5q0 -19 12.5 -30.5t34.5 -11.5h200q64 0 103.5 -36.5zM163.5 441q-34.5 -33 -34.5 -88q0 -58 34.5 -93t91.5 -35q59 0 93.5 35t34.5 93q0 55 -34.5 88
t-93.5 33q-57 0 -91.5 -33zM417.5 -109.5q18.5 17.5 18.5 45.5q0 26 -18.5 43t-47.5 17h-198q-40 0 -62.5 -17.5t-22.5 -45.5q0 -27 19.5 -43.5t52.5 -16.5h211q29 0 47.5 17.5z" />
    <glyph glyph-name="gbreve.ss03" horiz-adv-x="508" 
d="M473.5 31.5q39.5 -36.5 39.5 -94.5q0 -60 -40 -98.5t-103 -38.5h-211q-65 0 -105 30t-40 84q0 36 23 61.5t65 36.5q-22 13 -34.5 34t-12.5 46q0 34 23.5 60.5t63.5 35.5q-43 25 -66.5 66.5t-23.5 94.5q0 56 26 100t72 68.5t105 24.5q61 0 108 -25q31 2 48 20t17 47v14h74
v-14q0 -38 -23 -66.5t-64 -41.5q45 -51 45 -127q0 -55 -26 -98t-72.5 -67t-106.5 -24h-68q-29 0 -46.5 -13.5t-17.5 -36.5q0 -19 12.5 -30.5t34.5 -11.5h200q64 0 103.5 -36.5zM163.5 441q-34.5 -33 -34.5 -88q0 -58 34.5 -93t91.5 -35q59 0 93.5 35t34.5 93q0 55 -34.5 88
t-93.5 33q-57 0 -91.5 -33zM417.5 -109.5q18.5 17.5 18.5 45.5q0 26 -18.5 43t-47.5 17h-198q-40 0 -62.5 -17.5t-22.5 -45.5q0 -27 19.5 -43.5t52.5 -16.5h211q29 0 47.5 17.5zM416 758v-13q0 -65 -45 -105.5t-116 -40.5q-72 0 -117 40.5t-45 105.5v13h71v-13
q0 -38 25 -61.5t66 -23.5q40 0 65 23.5t25 61.5v13h71z" />
    <glyph glyph-name="uni0123.ss03" horiz-adv-x="508" 
d="M212.5 595.5q-17.5 17.5 -17.5 43.5v96q0 37 20.5 56t58.5 19h24v-47h-24q-27 0 -27 -28v-40q3 1 10 1q26 0 43.5 -16.5t17.5 -41.5q0 -26 -17.5 -43t-43.5 -17q-27 0 -44.5 17.5zM473.5 31.5q39.5 -36.5 39.5 -94.5q0 -60 -40 -98.5t-103 -38.5h-211q-65 0 -105 30
t-40 84q0 36 23 61.5t65 36.5q-22 13 -34.5 34t-12.5 46q0 34 23.5 60.5t63.5 35.5q-43 25 -66.5 66.5t-23.5 94.5q0 56 26 100t72 68.5t105 24.5q61 0 108 -25q31 2 48 20t17 47v14h74v-14q0 -38 -23 -66.5t-64 -41.5q45 -51 45 -127q0 -55 -26 -98t-72.5 -67t-106.5 -24
h-68q-29 0 -46.5 -13.5t-17.5 -36.5q0 -19 12.5 -30.5t34.5 -11.5h200q64 0 103.5 -36.5zM163.5 441q-34.5 -33 -34.5 -88q0 -58 34.5 -93t91.5 -35q59 0 93.5 35t34.5 93q0 55 -34.5 88t-93.5 33q-57 0 -91.5 -33zM417.5 -109.5q18.5 17.5 18.5 45.5q0 26 -18.5 43
t-47.5 17h-198q-40 0 -62.5 -17.5t-22.5 -45.5q0 -27 19.5 -43.5t52.5 -16.5h211q29 0 47.5 17.5z" />
    <glyph glyph-name="gdotaccent.ss03" horiz-adv-x="508" 
d="M473.5 31.5q39.5 -36.5 39.5 -94.5q0 -60 -40 -98.5t-103 -38.5h-211q-65 0 -105 30t-40 84q0 36 23 61.5t65 36.5q-22 13 -34.5 34t-12.5 46q0 34 23.5 60.5t63.5 35.5q-43 25 -66.5 66.5t-23.5 94.5q0 56 26 100t72 68.5t105 24.5q61 0 108 -25q31 2 48 20t17 47v14h74
v-14q0 -38 -23 -66.5t-64 -41.5q45 -51 45 -127q0 -55 -26 -98t-72.5 -67t-106.5 -24h-68q-29 0 -46.5 -13.5t-17.5 -36.5q0 -19 12.5 -30.5t34.5 -11.5h200q64 0 103.5 -36.5zM163.5 441q-34.5 -33 -34.5 -88q0 -58 34.5 -93t91.5 -35q59 0 93.5 35t34.5 93q0 55 -34.5 88
t-93.5 33q-57 0 -91.5 -33zM417.5 -109.5q18.5 17.5 18.5 45.5q0 26 -18.5 43t-47.5 17h-198q-40 0 -62.5 -17.5t-22.5 -45.5q0 -27 19.5 -43.5t52.5 -16.5h211q29 0 47.5 17.5zM210.5 635q-17.5 18 -17.5 45q0 26 17.5 43.5t44.5 17.5t44.5 -17.5t17.5 -43.5
q0 -27 -17.5 -45t-44.5 -18t-44.5 18z" />
    <glyph glyph-name="g.ss04" horiz-adv-x="550" 
d="M486 63.5q45 -35.5 45 -95.5q0 -53 -32.5 -94t-92 -63.5t-138.5 -22.5q-109 1 -173.5 41.5t-64.5 108.5q0 38 20.5 66t57.5 43q-25 14 -39 36.5t-14 50.5q0 34 22.5 59.5t62.5 38.5q-33 24 -51 59.5t-18 76.5q0 51 26 90.5t72 61.5t103 22q78 0 132 -40l102 85l46 -51
l-100 -86q21 -39 21 -82q0 -51 -26 -91.5t-71.5 -63t-102.5 -22.5q-32 0 -64 8q-36 -1 -57.5 -16t-21.5 -38q0 -20 15 -33t38 -13h182q76 0 121 -35.5zM183 441.5q-32 -31.5 -32 -74.5q0 -44 32 -75.5t90 -30.5q57 1 88.5 32t31.5 74q0 42 -32 73t-89 32t-89 -30.5z
M404 -114q47 29 47 80q0 30 -23.5 46.5t-66.5 16.5h-169q-38 -1 -62.5 -21.5t-24.5 -51.5q0 -45 45.5 -72t125.5 -27q81 0 128 29z" />
    <glyph glyph-name="gbreve.ss04" horiz-adv-x="550" 
d="M486 63.5q45 -35.5 45 -95.5q0 -53 -32.5 -94t-92 -63.5t-138.5 -22.5q-109 1 -173.5 41.5t-64.5 108.5q0 38 20.5 66t57.5 43q-25 14 -39 36.5t-14 50.5q0 34 22.5 59.5t62.5 38.5q-33 24 -51 59.5t-18 76.5q0 51 26 90.5t72 61.5t103 22q78 0 132 -40l102 85l46 -51
l-100 -86q21 -39 21 -82q0 -51 -26 -91.5t-71.5 -63t-102.5 -22.5q-32 0 -64 8q-36 -1 -57.5 -16t-21.5 -38q0 -20 15 -33t38 -13h182q76 0 121 -35.5zM183 441.5q-32 -31.5 -32 -74.5q0 -44 32 -75.5t90 -30.5q57 1 88.5 32t31.5 74q0 42 -32 73t-89 32t-89 -30.5z
M404 -114q47 29 47 80q0 30 -23.5 46.5t-66.5 16.5h-169q-38 -1 -62.5 -21.5t-24.5 -51.5q0 -45 45.5 -72t125.5 -27q81 0 128 29zM433 758v-13q0 -65 -45 -105.5t-116 -40.5q-72 0 -117 40.5t-45 105.5v13h71v-13q0 -38 25 -61.5t66 -23.5q40 0 65 23.5t25 61.5v13h71z" />
    <glyph glyph-name="uni0123.ss04" horiz-adv-x="550" 
d="M229.5 595.5q-17.5 17.5 -17.5 43.5v96q0 37 20.5 56t58.5 19h24v-47h-24q-27 0 -27 -28v-40q3 1 10 1q26 0 43.5 -16.5t17.5 -41.5q0 -26 -17.5 -43t-43.5 -17q-27 0 -44.5 17.5zM486 63.5q45 -35.5 45 -95.5q0 -53 -32.5 -94t-92 -63.5t-138.5 -22.5
q-109 1 -173.5 41.5t-64.5 108.5q0 38 20.5 66t57.5 43q-25 14 -39 36.5t-14 50.5q0 34 22.5 59.5t62.5 38.5q-33 24 -51 59.5t-18 76.5q0 51 26 90.5t72 61.5t103 22q78 0 132 -40l102 85l46 -51l-100 -86q21 -39 21 -82q0 -51 -26 -91.5t-71.5 -63t-102.5 -22.5
q-32 0 -64 8q-36 -1 -57.5 -16t-21.5 -38q0 -20 15 -33t38 -13h182q76 0 121 -35.5zM183 441.5q-32 -31.5 -32 -74.5q0 -44 32 -75.5t90 -30.5q57 1 88.5 32t31.5 74q0 42 -32 73t-89 32t-89 -30.5zM404 -114q47 29 47 80q0 30 -23.5 46.5t-66.5 16.5h-169
q-38 -1 -62.5 -21.5t-24.5 -51.5q0 -45 45.5 -72t125.5 -27q81 0 128 29z" />
    <glyph glyph-name="gdotaccent.ss04" horiz-adv-x="550" 
d="M486 63.5q45 -35.5 45 -95.5q0 -53 -32.5 -94t-92 -63.5t-138.5 -22.5q-109 1 -173.5 41.5t-64.5 108.5q0 38 20.5 66t57.5 43q-25 14 -39 36.5t-14 50.5q0 34 22.5 59.5t62.5 38.5q-33 24 -51 59.5t-18 76.5q0 51 26 90.5t72 61.5t103 22q78 0 132 -40l102 85l46 -51
l-100 -86q21 -39 21 -82q0 -51 -26 -91.5t-71.5 -63t-102.5 -22.5q-32 0 -64 8q-36 -1 -57.5 -16t-21.5 -38q0 -20 15 -33t38 -13h182q76 0 121 -35.5zM183 441.5q-32 -31.5 -32 -74.5q0 -44 32 -75.5t90 -30.5q57 1 88.5 32t31.5 74q0 42 -32 73t-89 32t-89 -30.5z
M404 -114q47 29 47 80q0 30 -23.5 46.5t-66.5 16.5h-169q-38 -1 -62.5 -21.5t-24.5 -51.5q0 -45 45.5 -72t125.5 -27q81 0 128 29zM227.5 635q-17.5 18 -17.5 45q0 26 17.5 43.5t44.5 17.5t44.5 -17.5t17.5 -43.5q0 -27 -17.5 -45t-44.5 -18t-44.5 18z" />
    <glyph glyph-name="i.loclTRK" horiz-adv-x="229" 
d="M71 530h80l-1 -530h-80zM66.5 635q-17.5 18 -17.5 45q0 26 17.5 43.5t44.5 17.5t44.5 -17.5t17.5 -43.5q0 -27 -17.5 -45t-44.5 -18t-44.5 18z" />
    <glyph glyph-name="f_t" horiz-adv-x="674" 
d="M500 456v-305q0 -37 18 -57t51 -20h66v-74h-66q-70 0 -109.5 40t-40.5 111v305h-213v-456h-82v456h-88v74h88v64q1 71 41 111t110 40h103v-74h-103q-33 0 -51 -20t-18 -57v-64h213v144h81v-144h144v-74h-144z" />
    <glyph glyph-name="t_f" horiz-adv-x="666" 
d="M500 651q-18 -20 -18 -57v-64h158v-74h-158v-456h-82v456h-211v-305q0 -37 18 -57t51 -20h66v-74h-66q-70 0 -109.5 40t-40.5 111v305h-95v74h95v144h81v-144h211v64q1 71 41 111t110 40h103v-74h-103q-33 0 -51 -20z" />
    <glyph glyph-name="t_t" horiz-adv-x="641" 
d="M467 456v-305q0 -37 18 -57t51 -20h66v-74h-66q-70 0 -109.5 40t-40.5 111v305h-197v-305q0 -37 18 -57t51 -20h66v-74h-66q-70 0 -109.5 40t-40.5 111v305h-95v74h95v144h81v-144h197v144h81v-144h144v-74h-144z" />
    <glyph glyph-name="underscore.ss19" horiz-adv-x="736" 
d="M45 -11h646v-68h-646v68z" />
    <glyph glyph-name="ampersand.ss12" horiz-adv-x="716" 
d="M612 0l-86 81q-87 -92 -222 -92q-76 0 -134.5 26.5t-91.5 73.5t-33 107q0 80 42 129t116 88q-65 84 -65 148q0 43 21.5 77t60 53.5t87.5 19.5q75 0 122 -41t47 -106q0 -59 -39.5 -96t-113.5 -74q71 -80 188 -194q38 79 38 187h83q0 -144 -60 -246q78 -73 153 -141h-113z
M246 617q-24 -21 -24 -56q0 -43 55 -114q57 27 86 52.5t29 61.5q0 34 -23.5 55.5t-59.5 21.5q-39 0 -63 -21zM393.5 83.5q41.5 18.5 73.5 54.5q-119 114 -216 220q-58 -31 -90 -67t-32 -90q0 -61 48.5 -98.5t126.5 -37.5q48 0 89.5 18.5z" />
    <glyph glyph-name="ampersand.ss13" horiz-adv-x="721" 
d="M709 74v-74h-31q-42 0 -74.5 19t-77.5 61q-43 -44 -99 -67.5t-123 -23.5q-76 0 -134.5 26.5t-91.5 73.5t-33 107q0 80 42 129t116 88q-65 84 -65 148q0 43 21.5 77t60 53.5t87.5 19.5q75 0 122 -41t47 -106q0 -59 -39.5 -96.5t-114.5 -73.5q76 -85 190 -195q41 82 41 188
h79q0 -144 -61 -247q39 -37 60.5 -51.5t46.5 -14.5h31zM246 617q-24 -21 -24 -56q0 -43 55 -114q57 27 86 52.5t29 61.5q0 34 -23.5 55.5t-59.5 21.5q-39 0 -63 -21zM393.5 83.5q41.5 18.5 73.5 54.5q-129 125 -216 220q-58 -31 -90 -67t-32 -90q0 -61 48.5 -98.5
t126.5 -37.5q48 0 89.5 18.5z" />
    <glyph glyph-name="ampersand.ss14" horiz-adv-x="675" 
d="M632 387q0 -117 -40.5 -207t-114.5 -140.5t-173 -50.5q-76 0 -134.5 26.5t-91.5 73.5t-33 107q0 80 42 129t116 88q-65 84 -65 148q0 43 21.5 77t60 53.5t87.5 19.5q75 0 122 -41t47 -106q0 -59 -39.5 -96.5t-114.5 -73.5q77 -87 190 -193q40 82 40 186h80zM246 617
q-24 -21 -24 -56q0 -43 55 -114q57 27 86 52.5t29 61.5q0 34 -23.5 55.5t-59.5 21.5q-39 0 -63 -21zM393.5 83.5q41.5 18.5 73.5 54.5q-135 129 -217 220q-58 -32 -89.5 -67.5t-31.5 -89.5q0 -61 48.5 -98.5t126.5 -37.5q48 0 89.5 18.5z" />
    <glyph glyph-name="copyright.ss15" horiz-adv-x="615" 
d="M169.5 243q-60.5 34 -94.5 94.5t-34 138.5t34 138.5t94.5 94t138.5 33.5t138.5 -33.5t94 -94t33.5 -138.5t-33.5 -138.5t-94 -94.5t-138.5 -34t-138.5 34zM415 290q47 27 73.5 75.5t26.5 110.5t-26.5 110t-73.5 75t-107 27q-61 0 -108 -27t-73.5 -75t-26.5 -110
t26.5 -110.5t73.5 -75.5t108 -27q60 0 107 27zM221 381q-36 37 -36 95t35.5 95t91.5 37q50 0 82 -28t37 -75h-50q-6 26 -24.5 41.5t-44.5 15.5q-33 0 -53.5 -23.5t-20.5 -62.5q0 -38 21.5 -62.5t55.5 -24.5q26 0 44 16t22 43h50q-5 -47 -37 -75.5t-80 -28.5q-57 0 -93 37z
" />
    <glyph glyph-name="copyright.ss16" horiz-adv-x="615" 
d="M169.5 34q-60.5 34 -94.5 94.5t-34 138.5t34 138.5t94.5 94t138.5 33.5t138.5 -33.5t94 -94t33.5 -138.5t-33.5 -138.5t-94 -94.5t-138.5 -34t-138.5 34zM415 81q47 27 73.5 75.5t26.5 110.5t-26.5 110t-73.5 75t-107 27q-61 0 -108 -27t-73.5 -75t-26.5 -110
t26.5 -110.5t73.5 -75.5t108 -27q60 0 107 27zM221 172q-36 37 -36 95t35.5 95t91.5 37q50 0 82 -28t37 -75h-50q-6 26 -24.5 41.5t-44.5 15.5q-33 0 -53.5 -23.5t-20.5 -62.5q0 -38 21.5 -62.5t55.5 -24.5q26 0 44 16t22 43h50q-5 -47 -37 -75.5t-80 -28.5q-57 0 -93 37z
" />
    <glyph glyph-name="registered.ss17" horiz-adv-x="615" 
d="M446.5 708.5q60.5 -33.5 94 -94t33.5 -138.5t-33.5 -138.5t-94 -94.5t-138.5 -34t-138.5 34t-94.5 94.5t-34 138.5t34 138.5t94.5 94t138.5 33.5t138.5 -33.5zM415 290q47 27 73.5 75.5t26.5 110.5t-26.5 110t-73.5 75t-107 27q-61 0 -108 -27t-73.5 -75t-26.5 -110
t26.5 -110.5t73.5 -75.5t108 -27q60 0 107 27zM407 430l24 -75h-54l-20 64q-5 17 -25 17h-72v-81h-50v242h127q36 0 59.5 -20t23.5 -50q0 -25 -13.5 -41.5t-37.5 -23.5q29 -8 38 -32zM338 479q15 0 23.5 11t8.5 27q0 14 -8.5 24.5t-23.5 10.5h-78v-73h78z" />
    <glyph glyph-name="registered.ss18" horiz-adv-x="615" 
d="M446.5 499.5q60.5 -33.5 94 -94t33.5 -138.5t-33.5 -138.5t-94 -94.5t-138.5 -34t-138.5 34t-94.5 94.5t-34 138.5t34 138.5t94.5 94t138.5 33.5t138.5 -33.5zM415 81q47 27 73.5 75.5t26.5 110.5t-26.5 110t-73.5 75t-107 27q-61 0 -108 -27t-73.5 -75t-26.5 -110
t26.5 -110.5t73.5 -75.5t108 -27q60 0 107 27zM407 221l24 -75h-54l-20 64q-5 17 -25 17h-72v-81h-50v242h127q36 0 59.5 -20t23.5 -50q0 -25 -13.5 -41.5t-37.5 -23.5q29 -8 38 -32zM338 270q15 0 23.5 11t8.5 27q0 14 -8.5 24.5t-23.5 10.5h-78v-73h78z" />
    <glyph glyph-name="circled" horiz-adv-x="930" 
d="M262.5 9.5q-88.5 49.5 -138 138t-49.5 202.5t49.5 202.5t138 138t202.5 49.5t202.5 -49.5t138 -138t49.5 -202.5t-49.5 -202.5t-138 -138t-202.5 -49.5t-202.5 49.5zM635 56q75 43 116.5 119.5t41.5 174.5q0 97 -41.5 172.5t-116.5 118t-170 42.5t-170 -42.5t-116.5 -118
t-41.5 -172.5q0 -98 41.5 -174.5t116.5 -119.5t170 -43t170 43z" />
    <glyph glyph-name="smallcircled" horiz-adv-x="615" 
d="M169.5 243q-60.5 34 -94.5 94.5t-34 138.5t34 138.5t94.5 94t138.5 33.5t138.5 -33.5t94 -94t33.5 -138.5t-33.5 -138.5t-94 -94.5t-138.5 -34t-138.5 34zM415 290q47 27 73.5 75.5t26.5 110.5t-26.5 110t-73.5 75t-107 27q-61 0 -108 -27t-73.5 -75t-26.5 -110
t26.5 -110.5t73.5 -75.5t108 -27q60 0 107 27z" />
    <glyph glyph-name="uni0308.case" 
d="M-336.5 620q-16.5 17 -16.5 42t16.5 41t41.5 16t41.5 -16t16.5 -41t-16.5 -42t-41.5 -17t-41.5 17zM-130.5 619.5q-16.5 16.5 -16.5 42.5q0 25 16.5 41t41.5 16t41 -16t16 -41q0 -26 -16 -42.5t-41 -16.5t-41.5 16.5z" />
    <glyph glyph-name="uni0307.case" 
d="M-148.5 615q-17.5 18 -17.5 45q0 26 17.5 43.5t44.5 17.5t44.5 -17.5t17.5 -43.5q0 -27 -17.5 -45t-44.5 -18t-44.5 18z" />
    <glyph glyph-name="gravecomb.case" 
d="M-275 750h111l60 -166h-61z" />
    <glyph glyph-name="acutecomb.case" 
d="M-135 750h111l-110 -166h-61z" />
    <glyph glyph-name="uni030B.case" 
d="M-257 750h111l-110 -166h-60zM-145 750h111l-110 -166h-60z" />
    <glyph glyph-name="uni0302.case" 
d="M-37 584h-56l-116 117l-123 -117h-56l120 166h121z" />
    <glyph glyph-name="uni030C.case" 
d="M-93 750h56l-110 -166h-121l-120 166h56l123 -117z" />
    <glyph glyph-name="uni0306.case" 
d="M-31 758v-13q0 -65 -45 -105.5t-116 -40.5q-72 0 -117 40.5t-45 105.5v13h71v-13q0 -38 25 -61.5t66 -23.5q40 0 65 23.5t25 61.5v13h71z" />
    <glyph glyph-name="uni030A.case" 
d="M-228 604.5q-28 26.5 -28 67.5q0 40 28 67t71 27t71 -27t28 -67q0 -41 -28 -67.5t-71 -26.5t-71 26.5zM-121 636q14 14 14 36t-14 36t-36 14t-36 -14t-14 -36t14 -36t36 -14t36 14z" />
    <glyph glyph-name="tildecomb.case" 
d="M-168.5 623q-23.5 13 -53.5 37q-19 16 -31 23.5t-24 7.5q-20 0 -31.5 -19.5t-11.5 -56.5h-67q0 63 27.5 100t76.5 37q27 0 47 -11.5t46 -34.5q20 -18 34 -27t30 -9q19 0 30 19t11 54h67q0 -63 -25 -98t-70 -35q-32 0 -55.5 13z" />
    <glyph glyph-name="uni0304.case" 
d="M-343 701h322v-59h-322v59z" />
    <glyph glyph-name="logotype" horiz-adv-x="3667" 
d="M2899 631.5q-20 20.5 -20 49.5q0 30 20 50t50 20t50 -20t20 -50q0 -29 -20 -49.5t-50 -20.5t-50 20.5zM168.5 701.5q44.5 43.5 129.5 43.5h128v-93h-128q-34 0 -52.5 -19.5t-18.5 -56.5v-136h2q0 40 19.5 63.5t53.5 23.5h117v-92h-192v-435h-103v435h-88v92h88v49
q0 82 44.5 125.5zM1257 91.5q8 -8.5 23 -8.5h23v-83h-47q-43 0 -65.5 22t-22.5 63v2q-27 -47 -76.5 -72t-120.5 -25q-58 0 -103.5 20t-70.5 55t-25 81q0 65 39 99.5t92.5 47t131.5 20.5q63 7 90 14t27 26q0 50 -35 80t-94 30q-58 0 -95 -25.5t-45 -69.5h-97q5 52 37 92.5
t85 63t118 22.5q105 0 164 -55t59 -153v-222q0 -16 8 -24.5zM2073.5 496q42.5 -50 42.5 -135v-361h-103v340q0 57 -22 87t-64 30q-58 0 -98 -36.5t-40 -91.5v-329h-103v340q0 57 -22 87t-64 30q-59 0 -99 -40t-41 -100v-317h-103v530h80l11 -84q26 46 74.5 73t104.5 27
q52 0 90 -27t57 -76q25 48 74 75.5t110 27.5q73 0 115.5 -50zM2575.5 514q56.5 -32 88 -92t32.5 -141v-32h-416q5 -83 51 -131.5t121 -48.5q57 0 93.5 27t50.5 76h98q-18 -85 -83.5 -136t-158.5 -51q-80 0 -141.5 35.5t-95.5 99t-34 143.5q0 87 35 151t94.5 98t133.5 34
q75 0 131.5 -32zM3496 511q61 -35 95.5 -97.5t34.5 -143.5q0 -83 -34.5 -148t-95.5 -101t-140 -36q-78 0 -139 36t-95 101t-34 148q0 81 34 143.5t95 97.5t139 35q79 0 140 -35zM742 535h18v-100h-17q-87 0 -128.5 -44t-41.5 -130v-261h-103v530h76l17 -110q44 115 179 115z
M2994.5 500q27.5 -30 27.5 -88v-412h-103v388q0 44 -36 44h-26v98h58q52 0 79.5 -30zM2340.5 427.5q-41.5 -37.5 -55.5 -103.5h310q-11 65 -51 103t-100 38q-62 0 -103.5 -37.5zM3480 125q46 54 46 145q0 87 -46 138.5t-123 51.5t-123 -51.5t-46 -138.5q0 -91 46 -145
t123 -54t123 54zM1107.5 105q43.5 40 44.5 107v56q-7 -15 -34 -21t-78 -10q-53 -4 -86.5 -10t-57.5 -24t-24 -51q0 -40 32 -63.5t88 -23.5q72 0 115.5 40zM2838 113q20 -20 20 -50t-20 -50.5t-51 -20.5q-30 0 -50.5 20.5t-20.5 50.5t20.5 50t50.5 20q31 0 51 -20z" />
    </font>
</defs>
</svg>
