<svg xmlns="http://www.w3.org/2000/svg" xmlns:xlink="http://www.w3.org/1999/xlink" version="1.1"><metadata>Created by FontForge 20170731 at Sun Nov 6 04:35:08 2022 By Aleksey,,,</metadata><defs><font id="GinJus-Regular" horiz-adv-x="897"><font-face x-height="1180" ascent="1536" bbox="-180 -426 1559.1 1874" cap-height="1434" descent="-512" font-family="Gin &amp; Ju:s Heavy" font-stretch="normal" font-weight="850" panose-1="0 0 0 0 0 0 0 0 0 0" underline-position="-358" underline-thickness="102" unicode-range="U+000D-2212" units-per-em="2048"/><glyph glyph-name=".notdef" horiz-adv-x="512"/><glyph glyph-name="uni0000" horiz-adv-x="0"/><glyph glyph-name="uni0000" horiz-adv-x="0"/><glyph glyph-name="uni000D" horiz-adv-x="512"/><glyph glyph-name="space" horiz-adv-x="450"/><glyph d="M63 0v315h343v-315h-343zM125 455l-62 979h343l-62 -979h-219z" glyph-name="exclam" horiz-adv-x="468" unicode="!"/><glyph d="M41 942l74 492h266l-74 -492h-266zM408 942l73 492h267l-74 -492h-266z" glyph-name="quotedbl" horiz-adv-x="788" unicode="&quot;"/><glyph d="M109 823l43 219h213l67 392h254l-68 -392h220l65 392h254l-65 -392h190l-41 -219h-186l-39 -219h201l-43 -219h-195l-66 -385h-256l68 385h-219l-66 -385h-254l66 385h-209l43 219h203l39 219h-219zM545 604h217l37 219h-217z" glyph-name="numbersign" horiz-adv-x="1325" unicode="#"/><glyph d="M764 315q0 -4 0.5 -10.5t-1 -26t-5 -39.5t-13 -47t-23 -51t-37 -49t-53 -44.5t-73.5 -34t-96 -19.5v-88h-119v86q-301 29 -301 426l-2 37l313 -2l2 -86q1 -1 0 -9t1.5 -20.5t6.5 -25t15 -21t27 -8.5q1 0 3.5 -0.5t9 1.5t11 7t8.5 17t4 30q0 6 -3.5 20t-37.5 74.5 t-96 140.5l-178 238q-4 7 -19 35t-20.5 39.5t-16.5 40.5t-15.5 51.5t-8.5 57.5t-4 73q0 4 -0.5 10.5t1 26t5 39t13 47t23 51t37 49t53 45t73.5 34t96 20.5v96h119v-96q301 -29 301 -426v-37l-311 2l-2 86q-1 1 0 8.5t-1.5 19.5t-6.5 23.5t-15 20t-27 8.5q0 -1 -3.5 0 t-9 -2.5t-11 -8t-9 -17t-3.5 -30.5q0 -4 1 -10.5t8.5 -30.5t21.5 -51t43.5 -70t70.5 -88l131 -172q5 -6 13 -16t28.5 -44.5t36.5 -71.5t29.5 -94t15.5 -114z" glyph-name="dollar" horiz-adv-x="806" unicode="$"/><glyph d="M362 903v350q0 19 -7 30t-14 12l-7 1q-3 0 -7.5 -1t-12 -11.5t-7.5 -30.5v-350q0 -9 1 -16t3 -11t4 -7t5 -4.5l5 -2.5t5 -1.5t4 -0.5q8 2 12.5 3.5t10 11.5t5.5 28zM530 1270v-383q0 -7 -1.5 -19t-12 -39.5t-29 -48.5t-58.5 -38.5t-95 -18.5q-55 1 -95 18.5t-58.5 38.5 t-29 49t-11.5 39t-1 19v383v9t3 23t9.5 32.5t21 34t34 32t53 23.5t74.5 10q57 -1 98 -18t59 -41t28 -48t11 -41v-16zM723 180v350q0 19 -7.5 30t-14.5 12l-7 1q-3 0 -7.5 -1t-11.5 -11.5t-7 -30.5v-350q0 -9 1 -16t3 -11l3.5 -7t5 -4.5t5 -2.5t4.5 -1.5t4 -0.5l3 1 q3 0 4 0.5t3.5 1t4 1.5t4 3t3.5 4l2.5 5t2.5 7t1.5 9t0.5 11zM891 547v-383q0 -8 -1 -19t-12 -39t-29.5 -49t-59 -38.5t-95.5 -18.5q-55 1 -95 18.5t-58 38.5t-28.5 49t-11.5 39t-1 19v383v9t3 23t9 32.5t20.5 34t34 32t53 23.5t74.5 10q42 0 75.5 -9.5t53.5 -24t34.5 -32 t20.5 -34.5t9.5 -31.5t3.5 -23.5v-9zM694 1434h293l-360 -666h-64zM332 0h-291l360 666h64z" glyph-name="percent" horiz-adv-x="1028" unicode="%"/><glyph d="M242 702l-2 37q-43 0 -77 17t-54 43.5t-35 59.5t-21 65.5t-9 59t-3 43.5v17q4 1 0 21.5t6.5 56t22.5 76t48.5 83t84 76.5t129.5 55.5t184 21.5h127l-2 -295l-22 -1q-22 0 -46.5 -0.5t-31.5 -0.5q-57 0 -92 -32.5t-35 -100.5q0 -5 0.5 -13.5t7.5 -29.5t20.5 -37 t44.5 -29.5t74 -13.5h215v-320l-209 2q0 -2 -8.5 0t-22 -1.5t-29.5 -8t-32.5 -19t-30 -33.5t-22 -52.5t-8.5 -75.5q0 -24 7 -41t15.5 -25.5t19.5 -13.5t16 -5.5t9 -0.5q16 0 29 5.5t20 14t12 19t6.5 21t2.5 19t1 14.5l-1 5l-2 78l344 -2v-37q0 -65 -10 -121t-38 -113.5 t-72 -98t-118.5 -66t-171.5 -25.5q-90 0 -163 21t-118 55t-78 75t-48.5 82.5t-24 75.5t-9.5 55l-1 21v18t3 44t9.5 63t21 66.5t35 63t55 44.5t77.5 18z" glyph-name="ampersand" horiz-adv-x="935" unicode="&amp;"/><glyph d="M41 942l74 492h266l-74 -492h-266z" glyph-name="quotesingle" horiz-adv-x="421" unicode="'"/><glyph d="M580 -51l-5 -283q-89 0 -163.5 18t-125 48t-90.5 69t-63 82t-39 86t-21.5 82t-8.5 69t-2 48l1 18v1061q-1 7 -1 18.5t2 47t8 70t22 81t39 87t63 81.5t90.5 70t125 47t163.5 18l5 -282q-183 0 -199 -12q-33 -21 -33 -76v-1360q0 -25 25 -43t55.5 -26t70 -13t55.5 -5.5 t26 -0.5z" glyph-name="parenleft" horiz-adv-x="641" unicode="("/><glyph d="M68 -334l-7 283q11 0 27 0.5t56 5.5t70.5 13t55.5 26t25 43v1360q0 55 -33 76q-16 12 -201 12l7 282q89 0 163 -18t124.5 -48t90.5 -69t63 -82t39 -86t22 -82t9 -69t2 -48l-1 -18v-1061q1 -7 1 -18.5t-2 -47t-8.5 -70t-22.5 -81t-39 -87t-63 -81.5t-90.5 -70t-124.5 -47 t-163 -18z" glyph-name="parenright" horiz-adv-x="641" unicode=")"/><glyph d="M352 1434h291l-86 -342l246 260l155 -246l-358 -119l358 -115l-155 -247l-248 260l88 -350h-291l88 344l-241 -254l-156 247l358 115l-358 119l156 246l239 -254z" glyph-name="asterisk" horiz-adv-x="1001" unicode="*"/><glyph d="M41 606v221h317v316h220v-316h317v-221h-317v-315h-220v315h-317z" glyph-name="plus" horiz-adv-x="935" unicode="+"/><glyph d="M41 -176l74 491h266l-74 -491h-266z" glyph-name="comma" horiz-adv-x="421" unicode=","/><glyph d="M41 606v221h596v-221h-596z" glyph-name="hyphen" horiz-adv-x="677" unicode="-"/><glyph d="M41 0v315h266v-315h-266z" glyph-name="period" horiz-adv-x="348" unicode="."/><glyph d="M297 0h-254l465 1423h256z" glyph-name="slash" horiz-adv-x="804" unicode="/"/><glyph d="M446 268l6 1q5 1 7 1.5t7.5 2.5t8 4l7.5 6t7 8t5.5 10.5t5 14t3 18t1.5 22.5v502l-111 -543q3 -13 7.5 -21.5t11.5 -13.5t11.5 -7t13 -3.5t9.5 -1.5zM446 1163q0 -1 -5.5 0.5t-14.5 -3.5t-17 -12t-14 -26t-6 -45v-545l115 521v24q0 39 -14.5 60.5t-29.5 23.5zM850 842 v-250q2 -24 2 -45.5t-1 -30.5l-1 -10q0 -269 -127 -408q-103 -112 -277 -112q-68 0 -125 17t-96 45.5t-71.5 66t-50 79t-32 84t-18.5 81t-8.5 70t-2 51.5t0.5 25v1q-2 33 0 86v250v86q-1 7 -1 18.5t1 47t5.5 70t16.5 81t30 87t49.5 81.5t71.5 70t99.5 47t130.5 18 q69 0 127.5 -18t98 -48t71 -69t50 -82t31.5 -86t17.5 -82t7 -69t1.5 -48v-18q4 -33 0 -86z" glyph-name="zero" horiz-adv-x="892" unicode="0"/><glyph d="M383 1434v-1434h-342v1282l231 152h111z" glyph-name="one" horiz-adv-x="425" unicode="1"/><glyph d="M410 1024v-78l-361 2v60q0 426 412 426q90 0 161.5 -19t114.5 -49.5t74 -68t43.5 -74.5t19.5 -67.5t7 -49.5v-19q0 -10 -1.5 -26t-14 -56t-34.5 -67l-462 -623l524 2v-317h-852v80v233q0 52 21.5 112.5t51.5 110t60.5 91.5t51.5 66l22 24l260 293q16 18 18.5 41.5 t-10.5 42.5q-17 28 -51 28q-28 0 -41.5 -24.5t-13.5 -49.5v-24z" glyph-name="two" horiz-adv-x="950" unicode="2"/><glyph d="M709 743v-38q61 0 104.5 -33.5t61.5 -81t27.5 -95t9.5 -81.5l-1 -33v-22.5t-7 -55t-21 -77.5t-47 -82.5t-79 -78t-123.5 -55t-174.5 -22.5q-99 0 -174.5 26t-120.5 67.5t-73.5 100t-39 116t-10.5 122.5v61h352v-100v-11t4.5 -24t13 -30t27.5 -24t45 -11q4 0 11 0.5 t21.5 5.5t26 13.5t20.5 26.5t9 42q0 62 -20 107.5t-49 66t-58 32t-49 12.5l-20 1h-70h-57v272l53 -2h80q42 0 75 11.5t52.5 30t33 41.5t19 45.5t8.5 41t3 30.5l-1 11q0 24 -9 42t-20.5 26.5t-26 13.5t-21.5 5.5t-11 0.5q-27 0 -46.5 -10.5t-27.5 -25t-12 -29t-4 -24.5v-11 v-101h-352v62q0 63 12.5 122t43.5 116.5t77.5 99.5t119.5 68t165 26q97 0 174.5 -21t124 -54.5t79.5 -74t46.5 -81.5t21 -74.5t7.5 -54.5l-1 -21q-2 -1 0 -18t-2 -46.5t-8.5 -64t-20 -69.5t-35.5 -63.5t-55.5 -46.5t-80.5 -18z" glyph-name="three" horiz-adv-x="954" unicode="3"/><glyph d="M485 1130l-59 -512h80l49 512h-70zM817 618h94v-294h-94v-324h-342v324h-434l209 1108h567v-814z" glyph-name="four" horiz-adv-x="954" unicode="4"/><glyph d="M762 1434v-299h-408v-224h29q10 32 29 56t39.5 34.5t39.5 17t31 7.5h13q49 0 88.5 -19t62.5 -49.5t39.5 -67t23.5 -73t10.5 -67t2.5 -49.5v-19v-367q0 -4 0.5 -11t-1.5 -29.5t-6.5 -43.5t-16 -50.5t-28 -54.5t-45 -50.5t-64.5 -43t-89.5 -29t-116.5 -11.5 q-81 0 -143.5 22t-102 60t-64 93.5t-34.5 116.5t-10 136v35h313l2 -86q2 -4 -0.5 -26t10 -47.5t37.5 -25.5q0 1 3.5 0t9.5 2t11 7.5t9 16.5t4 30v6v346q0 4 0.5 10t-1 22t-5 28t-12 22t-21.5 10q-22 0 -34 -49v-154h-2v-6h-324l2 873h2h717z" glyph-name="five" horiz-adv-x="804" unicode="5"/><glyph d="M403 270q19 0 28.5 24t8.5 48v25v221v18v8t-2 18t-6 22.5t-13 17.5t-22 8q-43 0 -43 -78l2 -233q2 -4 -0.5 -26t10 -47.5t37.5 -25.5zM762 1032h-283l2 19q0 4 0.5 10.5t-2 22.5t-8 28.5t-20.5 23t-37 11.5h-2q-27 0 -42 -16t-16 -32l-2 -16v-184v-86h31q10 39 41 70 q21 20 48 31.5t44 12.5l16 1q50 0 89.5 -19t63 -49.5t40.5 -67t23.5 -73t10 -67t3.5 -49.5v-19l-2 -185q0 -5 0.5 -14t-1.5 -37t-6.5 -55t-16 -63.5t-28 -68t-45 -63.5t-64.5 -55t-88.5 -37t-115.5 -14q-76 0 -136.5 23.5t-97 61.5t-62.5 83.5t-36.5 91t-16 83.5t-5.5 61v24 l2 618q0 95 22.5 168t57.5 115t84 68.5t93.5 35.5t94.5 9h13q84 -2 147.5 -27t101 -62.5t61.5 -92t33 -106.5t11 -114z" glyph-name="six" horiz-adv-x="804" unicode="6"/><glyph d="M41 1434h688l-319 -1434h-340l229 1143h-258v291z" glyph-name="seven" horiz-adv-x="770" unicode="7"/><glyph d="M424 1030q0 -5 0.5 -13.5t3.5 -29.5t8.5 -37t17 -29.5t27.5 -13.5q26 0 41 30.5t17 61.5l2 31q0 121 -60 121q-27 0 -42 -34t-15 -87zM424 401q0 -27 0.5 -39.5t3.5 -32t8.5 -28t16.5 -15.5t28 -7q60 0 60 122q0 66 -14 95.5t-46 29.5q-37 0 -47 -26t-10 -99zM883 1065 q-2 -1 0 -18t-2.5 -46.5t-9.5 -64t-21.5 -69.5t-37.5 -63.5t-57.5 -46.5t-82.5 -18v-39q5 0 14 -1.5t35 -9.5t49.5 -20.5t52.5 -37.5t50 -57.5t35 -83.5t14 -113q0 -8 -0.5 -22.5t-8 -55t-22 -77.5t-47 -82.5t-77.5 -78t-119.5 -55t-166.5 -22.5q-76 0 -139 13.5t-106.5 36 t-77.5 52t-53.5 62.5t-33.5 65.5t-19 62t-7.5 52t-2.5 36.5l1 13q0 60 14 110t36 82.5t48.5 57.5t53 38.5t48.5 21.5t36 11l14 2v39q-65 0 -111 33.5t-65 81.5t-28.5 96t-8.5 82v33q0 67 14 123t38 94t55 67.5t65 46.5t68 28.5t65 15.5t55 6t38 1l14 -1h22t55 -6t77.5 -17.5 t82 -39.5t78 -67t54.5 -104t22 -147z" glyph-name="eight" horiz-adv-x="962" unicode="8"/><glyph d="M399 1155q-19 0 -28.5 -24t-8.5 -48v-24v-213v-19q0 -3 0.5 -8t3 -17.5t6.5 -22t13 -17.5t21 -8q43 0 43 77v226q-1 1 0 10.5t-1.5 24t-6.5 29t-15 24.5t-27 10zM41 395h283l-2 -18q0 -4 -0.5 -10.5t2 -22.5t8 -28.5t20.5 -23t37 -11.5h2q27 0 42 15.5t17 31.5l1 16v191 v86h-31q-10 -39 -41 -70q-21 -20 -48 -31t-44 -12l-17 -2q-49 0 -88.5 19t-63 49.5t-40 67t-23.5 73t-10.5 67t-3.5 49.5v19l2 176q0 5 -0.5 14t1.5 37t6.5 55t16 64t28 68.5t45 63.5t64.5 54.5t88.5 37t115.5 14.5q76 0 136.5 -23.5t97 -61.5t62.5 -83.5t36.5 -91t16 -83.5 t5.5 -61v-24l-2 -617q0 -95 -22.5 -168t-57.5 -115t-84 -68t-93.5 -35t-94.5 -9h-13q-84 2 -147.5 26.5t-101 62t-61.5 92t-33 106.5t-11 114z" glyph-name="nine" horiz-adv-x="804" unicode="9"/><glyph d="M41 266v316h266v-316h-266zM41 852v315h266v-315h-266z" glyph-name="colon" horiz-adv-x="348" unicode=":"/><glyph d="M115 852v315h266v-315h-266zM41 90l74 492h266l-74 -492h-266z" glyph-name="semicolon" horiz-adv-x="421" unicode=";"/><glyph d="M766 340h-352l-371 377l371 377h352l-406 -377z" glyph-name="less" horiz-adv-x="806" unicode="&lt;"/><glyph d="M41 758v219h803v-219h-803zM41 457v219h803v-219h-803z" glyph-name="equal" horiz-adv-x="884" unicode="="/><glyph d="M395 340h-352l403 377l-403 377h352l371 -377z" glyph-name="greater" horiz-adv-x="806" unicode="&gt;"/><glyph d="M551 455h-238q0 266 99 469q15 29 24 68.5t11 63.5l2 25q0 24 -4 41t-9.5 25t-11.5 12.5t-10 4.5l-4 1q-25 0 -37.5 -25t-12.5 -50v-25l-2 -86l-317 -2l2 37q0 95 16.5 169t55.5 136t111 95.5t175 33.5q82 0 146.5 -18t103 -47.5t65.5 -64.5t37.5 -70t16 -64.5t4.5 -47.5 v-18q1 -54 -23 -118.5t-58 -126.5t-67.5 -127.5t-55.5 -142t-19 -148.5zM268 0v315h342v-315h-342z" glyph-name="question" horiz-adv-x="817" unicode="?"/><glyph d="M1327 911v-391q0 -8 -0.5 -21t-6.5 -52t-16.5 -76t-33 -87.5t-53 -94t-80 -87.5t-111 -75t-148.5 -50.5t-190 -19.5q-128 0 -231 31t-166.5 76.5t-110.5 109t-68.5 115.5t-33.5 109.5t-13.5 78t-1.5 33.5v424v19t5 49t14.5 73t30.5 85t50.5 91t78 85t109 73t147.5 49 t190 19q142 0 253.5 -31t177 -81t112 -110.5t64 -121t26.5 -110.5t7 -81zM1108 514l-2 453q0 70 -23 125t-60 88t-81.5 56t-89 32.5t-81.5 14t-60 3.5h-23q-9 0 -23.5 -0.5t-56.5 -6t-80.5 -16.5t-85.5 -36t-81 -59t-57 -90.5t-23 -127.5v-436q0 -69 17 -124.5t43.5 -91.5 t62.5 -63.5t72 -41t73.5 -22.5t64.5 -11t49 -3t23 -1t23.5 0.5t51 2.5t67.5 10.5t76.5 22t75 40.5t65.5 63t45.5 92.5t17.5 126.5zM522 1182h344l78 -883h-209l-12 178h-55l-15 -178h-209zM694 1022l-35 -387h74l-28 387h-11z" glyph-name="at" horiz-adv-x="1390" unicode="@"/><glyph d="M168 1434h559l127 -1434h-340l-20 289h-88l-25 -289h-340zM449 1176l-58 -631h121l-49 631h-14z" glyph-name="A" unicode="A"/><glyph d="M381 1182v-338q41 0 70 17.5t41.5 42.5t19 50t6.5 42v18q0 52 -14 88.5t-34 51.5t-40.5 22t-34.5 6h-14zM430 260q40 2 62 43t24 81l2 40q0 47 -8 80.5t-18 51t-27.5 27t-29 11.5t-30.5 2.5t-24 1.5v-338h49zM854 385q-2 -1 0 -13.5t-1.5 -35t-6 -51t-14.5 -61t-26.5 -64 t-41 -60.5t-59 -51.5t-80.5 -35.5t-105 -13h-479v1434h479q71 0 128 -20.5t91.5 -53.5t59 -72.5t34.5 -79.5t15.5 -73t5.5 -53v-21v-18.5t-3 -45t-9.5 -64t-21 -67.5t-34.5 -63.5t-54 -45t-77 -18.5v-37q41 0 73.5 -18t53 -44t35.5 -62.5t21.5 -66.5t10.5 -63t4.5 -44.5 t0.5 -18.5z" glyph-name="B" unicode="B"/><glyph d="M528 369l2 153l322 -2v-110q0 -46 -9.5 -96t-36.5 -110.5t-69.5 -107t-116 -78.5t-167.5 -32q-87 0 -156.5 28.5t-111.5 74.5t-72 101.5t-43 111t-20 101.5t-7 75v28q-2 33 0 86v250v86q-1 7 -1 18.5t1 47t5.5 70t17 81t31 87t50 81.5t72.5 70t101.5 47t132.5 18 q95 0 169 -32t116 -79t69 -108t36 -111t9 -96v-113l-324 -2v158q0 4 0.5 11t-2 24t-9 30t-22 24t-38.5 11q-19 0 -35 -12q-33 -21 -33 -76v-721q0 -25 7 -43t16 -26t20.5 -13t16.5 -5.5t8 -0.5q36 0 54 25t17 51v25z" glyph-name="C" horiz-adv-x="892" unicode="C"/><glyph d="M512 365v704q0 24 -7 42t-15.5 26.5t-20 13.5t-16.5 5.5t-9 0.5h-61v-881h61q3 0 8.5 1t17 6t20 13.5t15.5 26.5t7 42zM852 1094v-754v-84q-1 -10 -4 -27.5t-23.5 -61.5t-53.5 -78t-102 -61.5t-161 -27.5h-467v1434h467q67 0 122 -14t90 -36.5t61 -50t39 -55t21 -50 t9 -36.5l2 -14q2 -33 0 -84z" glyph-name="D" horiz-adv-x="894" unicode="D"/><glyph d="M41 1434h649v-293h-307v-291h272v-272h-272v-285h307v-293h-307h-342v1430v4z" glyph-name="E" horiz-adv-x="731" unicode="E"/><glyph d="M41 1434h649v-293h-307v-291h272v-272h-272v-578h-342v1427v7z" glyph-name="F" horiz-adv-x="731" unicode="F"/><glyph d="M514 1176h-59q-21 0 -35.5 -6.5t-22 -15.5t-11.5 -24t-4.5 -25.5t-0.5 -27.5v-637q0 -45 10 -76.5t22.5 -45.5t29.5 -21.5t24 -8t14 0.5q32 0 54.5 16t31.5 39.5t14 46.5t5 39v16l2 93h-133v274h446v-813h-266l37 223h-37q-17 -107 -87 -170t-173 -63q-69 0 -125 27 t-89.5 70.5t-58 95.5t-35 104.5t-16.5 96t-6 70.5v27v334v17l-1 143q1 -2 1 -5v-3q0 28 2.5 58t12.5 80t26.5 94t49 91.5t75.5 81.5t110.5 56t149.5 22q79 0 143.5 -16.5t108 -42.5t76 -63.5t51 -74t29.5 -79t14.5 -74.5t3.5 -64v-106h-313v149q0 4 0.5 10.5t-2 23t-9 29.5 t-22 23.5t-37.5 10.5z" glyph-name="G" horiz-adv-x="942" unicode="G"/><glyph d="M487 1434h342v-1434h-342v551h-104v-551h-342v1434h342v-613h104v613z" glyph-name="H" horiz-adv-x="872" unicode="H"/><glyph d="M41 0v1434h342v-1434h-342z" glyph-name="I" horiz-adv-x="425" unicode="I"/><glyph d="M170 1434h342v-1196q0 -98 -70 -168t-168 -70h-233v334h49q3 0 8.5 0.5t19.5 6t24.5 15.5t19 32.5t8.5 53.5v992z" glyph-name="J" horiz-adv-x="552" unicode="J"/><glyph d="M575 731v-29q67 -27 115.5 -80t75.5 -117t42 -151.5t18.5 -169t0.5 -184.5h-352q1 45 0 117t-17.5 236t-49.5 259h-25v-612h-342v1434h342v-637h23q51 248 61 637h369q-2 -3 0.5 -34t-3 -88.5t-11.5 -124t-26 -139.5t-46 -135.5t-72 -112t-103 -69.5z" glyph-name="K" horiz-adv-x="876" unicode="K"/><glyph d="M41 1434h342v-1100h203v-334h-545v1434z" glyph-name="L" horiz-adv-x="626" unicode="L"/><glyph d="M707 1434h378v-1434h-342v692l-106 -692h-6h-135h-7l-106 692v-692h-342v1434h379l139 -873z" glyph-name="M" horiz-adv-x="1128" unicode="M"/><glyph d="M489 1434h342v-1434h-231h-111l-106 692v-692h-342v1434h342l106 -689v689z" glyph-name="N" horiz-adv-x="874" unicode="N"/><glyph d="M504 356v721q0 39 -14.5 60.5t-29.5 23.5l-14 2q0 -1 -5.5 0.5t-14.5 -3.5t-17 -12t-14 -26t-6 -45v-721q0 -18 2 -32t6.5 -23t8 -15t10.5 -9.5t10.5 -4.5t11 -2.5t8.5 -1.5l6 1q5 1 7 1.5t7.5 2.5t8 4l7.5 6t7 8t5.5 10.5t5 14t3 18t1.5 22.5zM850 846v-258q2 -24 2 -45 t-1 -30l-1 -9v-1q1 -17 0.5 -37.5t-7 -75.5t-19.5 -102.5t-42.5 -105.5t-71 -99t-110 -69t-154.5 -28q-84 0 -152 28.5t-109 69.5t-71 99.5t-43 106t-20 102.5t-7.5 75t-0.5 36v1q-2 31 0 84v258v84q0 7 -0.5 18.5t1.5 46.5t7 69.5t17.5 81t30.5 86.5t49.5 81t71.5 70t98 47 t128 18q67 0 124 -17.5t96 -47.5t70.5 -69t50 -82t32.5 -86t19.5 -82t8.5 -69t3 -47v-18q4 -33 0 -84z" glyph-name="O" horiz-adv-x="892" unicode="O"/><glyph d="M381 1182v-338q41 0 70 17.5t41.5 42.5t19 50t6.5 42v18q0 52 -14 88.5t-34 51.5t-40.5 22t-34.5 6h-14zM381 592v-592h-340v1434h340q80 0 147.5 -14t114 -37t83.5 -53.5t58.5 -64t37 -67t21.5 -64t9 -53.5t2 -37v-14q-4 -1 0 -24t-6.5 -62.5t-22 -85.5t-48 -93.5 t-84 -85.5t-129 -62.5t-183.5 -24.5z" glyph-name="P" unicode="P"/><glyph d="M289 -408l51 338h264l-51 -338h-264zM504 356v721q0 39 -14.5 60.5t-29.5 23.5l-14 2q0 -1 -5.5 0.5t-14.5 -3.5t-17 -12t-14 -26t-6 -45v-721q0 -18 2 -32t6.5 -23t8 -15t10.5 -9.5t10.5 -4.5t11 -2.5t8.5 -1.5l6 1q5 1 7 1.5t7.5 2.5t8 4l7.5 6t7 8t5.5 10.5t5 14t3 18 t1.5 22.5zM850 846v-258q2 -24 2 -45t-1 -30l-1 -9v-1q1 -17 0.5 -37.5t-7 -75.5t-19.5 -102.5t-42.5 -105.5t-71 -99t-110 -69t-154.5 -28q-84 0 -152 28.5t-109 69.5t-71 99.5t-43 106t-20 102.5t-7.5 75t-0.5 36v1q-2 31 0 84v258v84q0 7 -0.5 18.5t1.5 46.5t7 69.5 t17.5 81t30.5 86.5t49.5 81t71.5 70t98 47t128 18q67 0 124 -17.5t96 -47.5t70.5 -69t50 -82t32.5 -86t19.5 -82t8.5 -69t3 -47v-18q4 -33 0 -84z" glyph-name="Q" horiz-adv-x="892" unicode="Q"/><glyph d="M381 1182v-338q41 0 70 17.5t41.5 42.5t19 50t6.5 42v18q0 52 -14 88.5t-34 51.5t-40.5 22t-34.5 6h-14zM582 754v-27q62 -22 109.5 -64t76.5 -96.5t49 -121.5t27 -139.5t10.5 -150.5t-0.5 -155h-350q1 44 0 115.5t-18 234.5t-50 258h-22v-608h-37h-303h-33v1434h479 q71 0 128 -20.5t91.5 -53.5t59 -72.5t34.5 -79.5t15.5 -73t5.5 -53v-21v-18t-5 -43.5t-13.5 -62t-28.5 -65t-48 -61t-74 -42t-103 -15.5z" glyph-name="R" unicode="R"/><glyph d="M309 578l-180 241q-2 4 -16.5 30t-18.5 34.5t-15.5 33t-15.5 41.5t-10 43.5t-8 55t-2 61.5q0 4 -0.5 11.5t1.5 30t6.5 44.5t16 51.5t28.5 55t46 51.5t66 44.5t91 30t118 11.5q103 0 175 -33.5t111 -95.5t55.5 -136t16.5 -169v-37l-317 2l-2 86q-2 4 0.5 26t-10 48 t-37.5 26q-2 0 -4.5 0.5t-9 -1.5t-12 -7t-9.5 -17t-4 -30q0 -5 1 -13.5t9 -36.5t21.5 -58t44 -75.5t71.5 -90.5l133 -174q5 -6 13 -16.5t29 -46t37 -73t30 -95.5t16 -116q0 -4 0.5 -11.5t-1.5 -30t-6.5 -44t-16 -51.5t-28.5 -55t-46 -51t-66 -44.5t-91 -30t-118 -11.5 q-103 0 -175 33.5t-111 95.5t-55.5 136t-16.5 169l-2 37l317 -2l2 -86q1 -1 0 -10.5t1.5 -25t6.5 -30t15 -25t27 -10.5q0 1 4 0t10 2t11.5 7.5t9.5 16.5t4 30q0 8 -4 24.5t-39 82t-97 147.5z" glyph-name="S" horiz-adv-x="817" unicode="S"/><glyph d="M41 1434h817v-330h-237v-1104h-342v1104h-238v330z" glyph-name="T" horiz-adv-x="899" unicode="T"/><glyph d="M872 1434l-2 -930v-1q-2 -5 0.5 -25t-2.5 -51.5t-9 -70.5t-18.5 -81.5t-32.5 -84t-50 -79.5t-71 -66.5t-96.5 -45.5t-125.5 -17q-86 0 -154.5 28.5t-110 70t-71.5 100.5t-43.5 107t-20.5 103t-7.5 75.5t-0.5 36.5v1l-2 930h351v-1078q0 -31 5.5 -50t18 -26.5t17 -9 t18.5 -2.5q11 1 17 3t17.5 9.5t17 27t5.5 48.5v1078h350z" glyph-name="U" horiz-adv-x="915" unicode="U"/><glyph d="M514 1434h340l-127 -1434h-559l-127 1434h340l25 -545l26 -631h17l34 631z" glyph-name="V" unicode="V"/><glyph d="M1206 1434h338l-127 -1434h-557l-57 1204h-19l-57 -1204h-559l-127 1434h340l25 -545l26 -631h17l34 631l31 545h557l25 -545l26 -631h17l35 631z" glyph-name="W" horiz-adv-x="1587" unicode="W"/><glyph d="M559 1434h342l-239 -709v-14l239 -711h-342l-76 442h-24l-76 -442h-342l238 709v16l-238 709h342l76 -443h24z" glyph-name="X" horiz-adv-x="942" unicode="X"/><glyph d="M559 1434h342l-260 -709v-725h-342v727l-258 707h342l76 -445h24z" glyph-name="Y" horiz-adv-x="942" unicode="Y"/><glyph d="M41 1434h817v-342l-469 -723l-2 -27h471v-342h-817v342l471 723v27h-471v342z" glyph-name="Z" horiz-adv-x="901" unicode="Z"/><glyph d="M66 1772h522v-250h-232v-1608h228v-252l-518 2v2h-5z" glyph-name="bracketleft" horiz-adv-x="649" unicode="["/><glyph d="M764 0h-256l-465 1423h254z" glyph-name="backslash" horiz-adv-x="804" unicode="\"/><glyph d="M61 1772h523l4 -2106h-4v-2l-518 -2v252h227v1608h-232v250z" glyph-name="bracketright" horiz-adv-x="649" unicode="]"/><glyph d="M43 846v280l377 308l377 -308v-280l-377 307z" glyph-name="asciicircum" horiz-adv-x="837" unicode="^"/><glyph d="M10 -217v219h815v-219h-815z" glyph-name="underscore" horiz-adv-x="835" unicode="_"/><glyph d="M365 805h-322q0 8 1 22t8 54t20 76t41 80.5t66 76.5t100 54t139 22q70 0 128 -14t98 -38t71.5 -54.5t49.5 -64.5t30.5 -68t17.5 -64.5t7 -54.5t2 -38l-1 -14v-780h-342v195q-17 -44 -34.5 -76t-43.5 -63t-63.5 -47.5t-83.5 -16.5q-62 0 -106.5 42.5t-65.5 112.5t-30 138 t-9 141q0 81 19.5 142t68 101t123.5 40q89 0 140.5 -31.5t82.5 -104.5v244q0 35 -14.5 53.5t-28.5 19.5l-14 1q-18 0 -30.5 -11.5t-17 -29t-6 -28t-1.5 -17.5zM479 332v6q2 59 0 90q-4 100 -43 100q-24 0 -37 -29.5t-15 -58.5l-1 -30v-60q0 -5 0.5 -13t3 -28.5t7.5 -36 t16 -28.5t26 -13q39 0 43 101z" glyph-name="a" horiz-adv-x="864" unicode="a"/><glyph d="M477 346v191v108v193q0 5 -0.5 12.5t-3 27.5t-7.5 35.5t-16 28t-26 12.5q-39 0 -43 -100v-55v-471q5 -99 43 -99q24 0 37 29t15 58zM819 702v-223q-2 -1 0.5 -26.5t-2 -68.5t-9.5 -93.5t-21 -102t-37.5 -93.5t-59 -68.5t-84.5 -26.5q-88 0 -139 51.5t-86 141.5v-193h-340 v1434h340v-443q75 193 225 193q69 0 116.5 -49.5t66 -120.5t26.5 -142t6 -120z" glyph-name="b" horiz-adv-x="862" unicode="b"/><glyph d="M43 516v113q0 7 -0.5 19.5t1 51t6.5 76t18 88t31.5 94t50.5 88t73.5 76t101.5 51t132 19.5q80 0 145.5 -22t107.5 -59.5t72.5 -82t45.5 -94.5t22 -91.5t6 -78.5v-68l-324 -2v113q0 4 0.5 11t-2 24t-9 30t-22 24t-38.5 11q-19 0 -37 -10q-33 -25 -33 -78v-459q0 -25 7 -43 t16 -26t21 -13t17 -5.5t9 -0.5q36 0 54 25t17 51v25l3 108l321 -2v-65q1 -45 -8.5 -95.5t-36.5 -111t-69.5 -108t-116.5 -79.5t-168 -32q-92 0 -164 29t-114.5 75.5t-72.5 103t-41.5 113t-17.5 103t-5 75.5z" glyph-name="c" horiz-adv-x="888" unicode="c"/><glyph d="M383 645v-108v-191q0 -5 0.5 -13t3 -28t7.5 -35.5t16 -28t26 -12.5q36 0 45 99v471v55q-9 100 -45 100q-24 0 -37 -29t-15 -58l-1 -29v-193zM43 479v223q0 6 -1 17t-1 43.5t1.5 64.5t7 75.5t14.5 81t25.5 75.5t38 64.5t54 43.5t72.5 17q84 0 137.5 -52.5t89.5 -140.5v443 h340v-1434h-340v193q-37 -90 -88 -141.5t-139 -51.5q-47 0 -84 26.5t-58.5 68.5t-36.5 93.5t-21 102.5t-9 93t-3 68z" glyph-name="d" horiz-adv-x="862" unicode="d"/><glyph d="M420 897q-33 -21 -33 -76v-121h137v109q1 4 1 11t-2 24t-8 30t-21.5 24t-38.5 11q-19 0 -35 -12zM846 700v-116h-459v-224q0 -24 7 -42t16 -26.5t20.5 -13.5t16.5 -5.5t8 -0.5q36 0 53.5 25t16.5 51l-1 25l2 106l320 -2v-63q1 -36 -6 -77t-22.5 -90.5t-46 -93 t-72.5 -80.5t-106 -59t-142 -22q-71 0 -130.5 18t-99.5 48t-72 69t-50 82.5t-31 87t-17.5 82.5t-6.5 69t-2 48l1 18v119q0 7 -0.5 19.5t1.5 50.5t6.5 75t17 87t31 93t50.5 87t72 75t99.5 50.5t130.5 19.5q95 0 168.5 -32t115 -78.5t68.5 -107t35.5 -110.5t7.5 -96v-66z" glyph-name="e" horiz-adv-x="888" unicode="e"/><glyph d="M381 1067h199v-276h-199v-789l-340 -2v1032v22.5t7.5 56.5t22 80t49 84.5t82.5 79.5t128.5 56t181.5 23h72v-287q-7 0 -34.5 2t-72 -6.5t-67.5 -26.5q-29 -24 -29 -49z" glyph-name="f" horiz-adv-x="624" unicode="f"/><glyph d="M473 328v55v475q-4 98 -43 98q-24 0 -37 -28.5t-15 -57.5l-1 -28v-498q0 -5 0.5 -12.5t3 -27.5t7.5 -35t16 -27.5t26 -12.5q39 0 43 99zM342 -416q-60 -2 -127 5t-104 15l-37 7v319q10 -2 27.5 -4.5t66 -7.5t91 -6t91 5.5t78.5 21.5q5 2 11.5 6t18 25t11.5 50v164 q-75 -180 -217 -180q-50 0 -88.5 26t-60 68t-36 92t-19 100.5t-6.5 92.5t0 68l1 26v234q2 1 -0.5 26t2 67.5t9.5 92t20.5 100t36.5 92t58 67.5t83 26q85 0 135.5 -50.5t85.5 -138.5v189h334v-1133v-65v-22.5t-7.5 -56t-22 -79.5t-48.5 -84t-81.5 -79t-127 -56t-178.5 -23z" glyph-name="g" horiz-adv-x="849" unicode="g"/><glyph d="M838 723v-723h-351v825q0 5 -0.5 13t-3.5 29t-8 37t-16.5 29t-26.5 13q-24 0 -34.5 -40t-9.5 -80l1 -40v-786h-348v1434h348v-449q32 80 98 137.5t134 57.5q67 0 114 -47t66.5 -114t29 -134.5t8.5 -114.5z" glyph-name="h" horiz-adv-x="878" unicode="h"/><glyph d="M41 1270v315h342v-315h-342zM41 0v1182h342v-1182h-342z" glyph-name="i" horiz-adv-x="425" unicode="i"/><glyph d="M47 -401l-6 323q1 2 14 0t33 2.5t39 11.5t33 26.5t14 47.5l4 1172h332v-1202q0 -5 0.5 -14t-2 -35.5t-8.5 -52.5t-20.5 -61t-36 -65t-57.5 -60t-81.5 -50.5t-112 -32.5t-145.5 -10zM168 1270v315h342v-315h-342z" glyph-name="j" horiz-adv-x="552" unicode="j"/><glyph d="M575 612v-30q57 -23 99.5 -54t70.5 -69.5t45.5 -86t26 -104t10.5 -123.5t0 -145h-344q1 12 1 32t-2.5 80.5t-9 117.5t-23 131t-41.5 133h-25v-494h-342v1434h342v-756l23 -2q59 128 69 504h361q0 -6 0.5 -16.5t-1 -43.5t-4.5 -66t-11.5 -79t-20 -87t-32 -86t-46 -80 t-63.5 -65t-83 -45z" glyph-name="k" horiz-adv-x="876" unicode="k"/><glyph d="M41 0v1434h342v-1434h-342z" glyph-name="l" horiz-adv-x="425" unicode="l"/><glyph d="M1284 717v-717h-348v819q0 5 -0.5 13t-3.5 29t-8 37t-16.5 29t-26.5 13q-11 0 -19.5 -9t-13 -25t-7.5 -33.5t-3.5 -41t-0.5 -40t0.5 -36.5t0.5 -26v-729h-349v819q0 5 -0.5 13t-4 29t-9 37t-17 29t-26.5 13q-24 0 -34.5 -40t-9.5 -80l1 -40v-780h-348v1180h348v-201 q34 85 94 143.5t138 59.5q125 0 182 -168l16 -56q35 86 103.5 154.5t144.5 69.5q49 0 88 -25t61 -66t37.5 -91t21.5 -99.5t8.5 -90.5t1.5 -67z" glyph-name="m" horiz-adv-x="1327" unicode="m"/><glyph d="M838 717v-717h-351v819q0 5 -0.5 13t-3.5 29t-8 37t-16.5 29t-26.5 13q-24 0 -34.5 -40t-9.5 -80l1 -40v-780h-348v1180h348v-201q34 85 94 143.5t138 59.5q67 1 114 -47t66.5 -116.5t29 -137t8.5 -116.5z" glyph-name="n" horiz-adv-x="878" unicode="n"/><glyph d="M459 272q3 0 8 0.5t16 6t20 14t16 26.5t7 43v457q0 35 -17 61.5t-50 26.5q-34 0 -52 -26.5t-18 -61.5v-457q0 -25 7 -43t16 -26.5t21 -14t17 -6t9 -0.5zM43 516v113q0 7 -0.5 19.5t1 51t6.5 76t17.5 88t31 94t50.5 88t73 76t101 51t132 19.5t132 -19.5t101 -52 t73.5 -74.5t51.5 -89t32.5 -93.5t19 -88.5t8 -74.5t1.5 -52.5v-19v-113q-4 -2 0 -29.5t-5 -75t-19.5 -102.5t-42.5 -112t-74 -103t-114.5 -75t-163.5 -29q-92 0 -164 29t-114.5 75.5t-72 102.5t-41 112t-17 102.5t-4.5 75.5z" glyph-name="o" horiz-adv-x="915" unicode="o"/><glyph d="M477 645v193q0 5 -0.5 12.5t-3 27.5t-7.5 35.5t-16 28t-26 12.5q-39 0 -43 -100v-469q-2 -26 0 -57q5 -99 43 -99q24 0 37 29t15 58l1 30v191v108zM819 702v-221q1 -10 1.5 -27.5t-0.5 -67.5t-6.5 -95t-20 -100.5t-36.5 -95.5t-61 -67.5t-90 -27.5q-150 0 -225 193v-443 h-340v1434h340v-193q35 90 86 141.5t139 51.5q65 0 110.5 -49.5t64.5 -120.5t29 -142t10 -120z" glyph-name="p" horiz-adv-x="862" unicode="p"/><glyph d="M383 838v-193v-108v-191q0 -5 0.5 -13t3 -28t7.5 -35.5t16 -28t26 -12.5q36 0 45 99v57v469q-9 100 -45 100q-24 0 -37 -29t-15 -58zM43 481v221q2 1 -0.5 26.5t2 69t9.5 94t21 102.5t37 94.5t58 69t84 26.5q88 0 139 -51.5t88 -141.5v193h340v-1434h-340v443 q-36 -88 -89.5 -140.5t-137.5 -52.5q-51 0 -90 26.5t-60.5 69t-36.5 93.5t-19.5 102.5t-6 94t0.5 68.5z" glyph-name="q" horiz-adv-x="862" unicode="q"/><glyph d="M815 664h-348q12 274 -35 276q-24 1 -34.5 -39t-9.5 -81l1 -40v-780h-348v1180h348v-201q35 86 95 144.5t137 58.5q104 0 150 -77t44 -206v-235z" glyph-name="r" horiz-adv-x="856" unicode="r"/><glyph d="M467 344v8t-4 20t-11.5 30t-25.5 35t-43 38q-127 85 -227 160q-32 22 -55 52t-33.5 57t-17 51t-6.5 39l-1 14q-1 7 -1.5 19.5t3.5 49t14.5 69t38 73t68 69t109.5 48.5t157 20q188 0 281.5 -108.5t93.5 -294.5v-39l-332 2l-2 51v10t-2 22.5t-6.5 29t-15 22.5t-25.5 10 q0 -1 -4 0t-10.5 -2.5t-12 -9t-10 -20t-4.5 -35.5q-5 -44 18 -60q248 -183 265 -196q39 -29 68.5 -64.5t42.5 -66.5t20.5 -57.5t8.5 -41.5l1 -16q1 -7 1.5 -19.5t-4.5 -47.5t-16 -67t-38.5 -71.5t-67.5 -67.5t-108.5 -47.5t-155.5 -19.5q-101 0 -175.5 31.5t-117 88 t-62.5 127t-20 156.5v39l330 -2l4 -41q2 -4 -0.5 -27t10.5 -50t39 -27q2 0 4.5 -0.5t9.5 1t12.5 6.5t10 18t4.5 32z" glyph-name="s" horiz-adv-x="847" unicode="s"/><glyph d="M383 907q0 -3 2 -192.5t2 -192.5q0 -38 4.5 -68.5t10.5 -46.5t12.5 -27t11.5 -14l4 -4q21 -23 60 -31t66.5 -5.5t29.5 4.5v-330h-72q-79 0 -146 13.5t-113 37t-82.5 53.5t-58.5 63t-37.5 66.5t-21.5 63.5t-9.5 53.5t-3.5 37.5l1 13v1033l340 -2v-250h199v-273z" glyph-name="t" horiz-adv-x="626" unicode="t"/><glyph d="M41 465v717h348v-820q0 -5 0.5 -13t3.5 -28.5t8.5 -36.5t16.5 -29t26 -13q24 0 35.5 40t10.5 80l-1 39v781h349v-1180h-349v201q-34 -86 -94 -144t-137 -59q-49 0 -88 25t-61 66t-37.5 91t-21.5 99.5t-8.5 90.5t-1.5 67z" glyph-name="u" horiz-adv-x="878" unicode="u"/><glyph d="M514 1182h340l-127 -1182h-559l-127 1182h340l51 -924h17z" glyph-name="v" horiz-adv-x="894" unicode="v"/><glyph d="M514 1182h526l52 -924h16l68 924h337l-127 -1182h-557l-36 911h-29l-37 -911h-559l-127 1182h340l51 -924h17z" glyph-name="w" horiz-adv-x="1556" unicode="w"/><glyph d="M567 1180h351l-213 -580v-14l213 -586h-351l-75 442h-25l-76 -442h-350l211 584v16l-211 580h350l76 -441h25z" glyph-name="x" horiz-adv-x="958" unicode="x"/><glyph d="M487 317l2 863v2h340v-1205q1 -8 0.5 -22.5t-7.5 -56.5t-21.5 -79.5t-49 -84t-82.5 -79.5t-128 -56t-181 -23h-272v328q31 -3 79.5 -6t144 4t128.5 32q5 3 13 9.5t21 38t13 75.5v142h-16q-42 -115 -84.5 -156.5t-128.5 -42.5q-49 0 -87.5 25t-60.5 66t-37.5 91t-21 99.5 t-8 90.5t-1.5 67l1 26v717h348v-820q0 -5 0.5 -13t3.5 -28.5t8 -36.5t16.5 -29t26.5 -13q33 0 41 75z" glyph-name="y" horiz-adv-x="880" unicode="y"/><glyph d="M41 1182h817v-344l-448 -469l-2 -27h450v-342h-817v342l451 469v27h-451v344z" glyph-name="z" horiz-adv-x="901" unicode="z"/><glyph d="M63 709v315h343v-315h-343zM63 -410l62 979h219l62 -979h-343z" glyph-name="exclamdown" horiz-adv-x="468" unicode="¡"/><glyph d="M41 627v29t5.5 72t16.5 103.5t36.5 111.5t61 108.5t95 83t133.5 45.5v106h121v-106q67 -8 121.5 -33.5t90 -63t61 -79.5t38.5 -88t19 -84t6 -72v-66l-322 -2v111q0 4 0.5 11t-2 24t-9 30t-22 24t-38.5 11q-33 0 -50.5 -26.5t-17.5 -61.5v-453q0 -24 7 -42t16 -26.5 t20.5 -13.5t16.5 -5.5t8 -0.5q36 0 54 25t17 51v25l2 106l318 -2l2 -63q0 -42 -8 -88t-31.5 -102t-59.5 -101.5t-97.5 -81t-139.5 -45.5v-104h-121v104q-74 7 -133.5 39.5t-95 78.5t-61.5 100.5t-36.5 107t-16 96t-5.5 70.5v26v111z" glyph-name="cent" horiz-adv-x="886" unicode="¢"/><glyph d="M895 0h-854v377q0 16 0.5 30.5t4.5 49t10.5 62t21.5 61.5t35.5 57t53 39t73.5 16l2 39q-54 0 -94.5 32.5t-60 79t-31 93t-13.5 78.5l-2 33v22t7 54t21 76.5t46.5 81.5t78 77t121 54t170.5 22q97 0 171.5 -25.5t118.5 -66t72 -98t38 -113.5t10 -121v-60l-346 -2l2 101 q0 4 0.5 10.5t-2 23.5t-9 30t-22 23.5t-37.5 10.5q-4 0 -8 -0.5t-15.5 -7.5t-19.5 -19.5t-15 -40t-7 -65.5q0 -73 12.5 -125.5t30.5 -74.5t35.5 -33.5t29.5 -10.5h13h100h55v-123l-53 2h-111q-35 0 -61.5 -17t-42 -40.5t-25.5 -59t-13.5 -62.5t-4 -63t0 -47.5t1.5 -27.5h510 h2v-332z" glyph-name="sterling" horiz-adv-x="935" unicode="£"/><glyph d="M487 1434h340l-213 -869h97v-121h-107v-43h107v-120h-107v-281h-340v281h-123v120h123v43h-123v121h115l-215 869h340l43 -406l20 -2z" glyph-name="yen" horiz-adv-x="870" unicode="¥"/><glyph d="M1327 911v-391q0 -8 -0.5 -21t-6.5 -52t-16.5 -76t-33 -87.5t-53 -94t-80 -87.5t-111 -75t-148.5 -50.5t-190 -19.5q-128 0 -231 31t-166.5 76.5t-110.5 109t-68.5 115.5t-33.5 109.5t-13.5 78t-1.5 33.5v424v19t5 49t14.5 73t30.5 85t50.5 91t78 85t109 73t147.5 49 t190 19q142 0 253.5 -31t177 -81t112 -110.5t64 -121t26.5 -110.5t7 -81zM1108 514l-2 453q0 70 -23 125t-60 88t-81.5 56t-89 32.5t-81.5 14t-60 3.5h-23q-9 0 -23.5 -0.5t-56.5 -6t-80.5 -16.5t-85.5 -36t-81 -59t-57 -90.5t-23 -127.5v-436q0 -69 17 -124.5t43.5 -91.5 t62.5 -63.5t72 -41t73.5 -22.5t64.5 -11t49 -3t23 -1t23.5 0.5t51 2.5t67.5 10.5t76.5 22t75 40.5t65.5 63t45.5 92.5t17.5 126.5zM729 518v92h195v-67q1 -27 -4.5 -58t-22 -67.5t-42.5 -65t-71 -48t-102 -19.5q-53 0 -95 17.5t-67 45.5t-43.5 62t-26.5 67.5t-12 61.5t-4 45 v18q-2 18 0 51v152v53q0 7 -0.5 18t2.5 44t10 63t24.5 66.5t43 62.5t69 44t99.5 18q58 0 103 -19.5t70.5 -48.5t42 -65.5t22 -67.5t4.5 -58l2 -69h-197v94q-1 0 0 6t-1 15.5t-5.5 18t-13 15t-23.5 6.5q-12 0 -22 -6q-21 -17 -21 -47v-438q0 -24 11.5 -37t18.5 -14.5t13 -1.5 q22 0 32.5 15.5t10.5 30.5v15z" glyph-name="copyright" horiz-adv-x="1390" unicode="©"/><glyph d="M1327 911v-391q0 -8 -0.5 -21t-6.5 -52t-16.5 -76t-33 -87.5t-53 -94t-80 -87.5t-111 -75t-148.5 -50.5t-190 -19.5q-128 0 -231 31t-166.5 76.5t-110.5 109t-68.5 115.5t-33.5 109.5t-13.5 78t-1.5 33.5v424v19t5 49t14.5 73t30.5 85t50.5 91t78 85t109 73t147.5 49 t190 19q142 0 253.5 -31t177 -81t112 -110.5t64 -121t26.5 -110.5t7 -81zM1108 514l-2 453q0 70 -23 125t-60 88t-81.5 56t-89 32.5t-81.5 14t-60 3.5h-23q-9 0 -23.5 -0.5t-56.5 -6t-80.5 -16.5t-85.5 -36t-81 -59t-57 -90.5t-23 -127.5v-436q0 -69 17 -124.5t43.5 -91.5 t62.5 -63.5t72 -41t73.5 -22.5t64.5 -11t49 -3t23 -1t23.5 0.5t51 2.5t67.5 10.5t76.5 22t75 40.5t65.5 63t45.5 92.5t17.5 126.5zM672 1018v-209q39 0 60 26t22 52l2 26q0 32 -8.5 55t-21 32t-25 14t-21.5 4h-8zM795 752v-17q57 -20 94 -64.5t53 -111t20.5 -128.5t2.5 -146 h-217q0 28 -0.5 72t-11 145.5t-31.5 159.5h-15v-377h-20h-191h-18v889h297q60 0 103.5 -24t62.5 -58t29.5 -68t10.5 -58l1 -24q0 -8 -0.5 -21t-9 -46t-24.5 -58t-51.5 -45.5t-84.5 -19.5z" glyph-name="registered" horiz-adv-x="1390" unicode="®"/><glyph d="M61 1217v219h965v-219h-965z" glyph-name="macron" horiz-adv-x="1087" unicode="¯"/><glyph d="M82 137v219h815v-219h-815zM61 760v219h318v317h219v-317h317v-219h-317v-318h-219v318h-318z" glyph-name="plusminus" horiz-adv-x="976" unicode="±"/><glyph d="M829 1436h220v-1436h-220v1436zM537 592q-80 0 -147.5 15t-113.5 40.5t-83 58t-59 69t-37.5 73t-21.5 69t-9.5 58t-3.5 40.5l1 15v23t7.5 56.5t22 80t49 85t83 80t129.5 56.5t183 23h215v-1434h-215v592z" glyph-name="paragraph" horiz-adv-x="1112" unicode="¶"/><glyph d="M63 680v55q2 1 -0.5 15.5t2 40t9 54.5t20 59t36 54.5t56.5 40t82 15.5q45 0 81 -15.5t57 -40t36 -54.5t21 -59.5t9.5 -54t3.5 -40.5l-1 -15v-55q-2 -1 0 -14.5t-2.5 -37t-9.5 -51t-21 -55.5t-36.5 -50.5t-56.5 -37t-81 -14.5q-62 0 -106.5 27t-62.5 65t-27.5 76t-9.5 65z" glyph-name="periodcentered" horiz-adv-x="538" unicode="·"/><glyph d="M285 567h239q0 -269 -98 -469q-15 -29 -24 -68t-11 -63l-2 -24q0 -24 4 -42t9.5 -26t11.5 -12.5t10 -4.5l4 -1q25 0 37 25t11 50l-1 25l2 86l318 2v-35q0 -96 -17 -170.5t-56 -136.5t-111 -95.5t-175 -33.5q-82 0 -146.5 18t-103 47.5t-65.5 64.5t-37.5 70t-16 64.5 t-5.5 47.5l1 18q-1 54 23 118.5t58 127t67.5 128t55 142t18.5 147.5zM569 1024v-315h-342v315h342z" glyph-name="questiondown" horiz-adv-x="858" unicode="¿"/><glyph d="M168 1434h559l127 -1434h-340l-20 289h-88l-25 -289h-340zM449 1176l-58 -631h121l-49 631h-14zM317 1536l-49 338h264l52 -338h-267z" glyph-name="Agrave" unicode="À"/><glyph d="M168 1434h559l127 -1434h-340l-20 289h-88l-25 -289h-340zM449 1176l-58 -631h121l-49 631h-14zM606 1874l-51 -338h-264l51 338h264z" glyph-name="Aacute" unicode="Á"/><glyph d="M168 1434h559l127 -1434h-340l-20 289h-88l-25 -289h-340zM449 1176l-58 -631h121l-49 631h-14zM227 1503v164l222 180l219 -180v-164l-219 178z" glyph-name="Acircumflex" unicode="Â"/><glyph d="M168 1434h559l127 -1434h-340l-20 289h-88l-25 -289h-340zM449 1176l-58 -631h121l-49 631h-14zM553 1653q-26 -2 -53 35q-6 10 -64 90q-15 21 -36.5 32.5t-35.5 13.5l-14 1q-3 0 -8 0.5t-19.5 -1.5t-28 -6.5t-30 -15.5t-28 -27.5t-19.5 -44t-8 -63.5q0 -75 44.5 -113 t119.5 -38h14v135h-20q-39 -3 -39 20v1q-1 2 0.5 5t4 5t8.5 4t15 2q17 1 25 -9q3 -5 78 -106q18 -25 43 -39.5t41 -15.5l16 -2q3 0 8 -0.5t19 1.5t27 6.5t29 15.5t27 27.5t19 44t8 62.5q0 79 -45.5 115.5t-118.5 36.5h-16l2 -133l17 -2q40 4 40 -21q-1 -1 0 -4.5t-4.5 -7.5 t-17.5 -4z" glyph-name="Atilde" unicode="Ã"/><glyph d="M168 1434h559l127 -1434h-340l-20 289h-88l-25 -289h-340zM449 1176l-58 -631h121l-49 631h-14zM55 1800h316v-264h-316v264zM526 1800h316v-264h-316v264z" glyph-name="Adieresis" unicode="Ä"/><glyph d="M170 1434h160q-13 23 -19 51.5t-6 45.5v17v39q1 1 -0.5 11t1.5 28t6.5 38.5t14.5 42t25.5 38.5t39.5 28t57 11q44 0 75 -20.5t44 -49t19.5 -57.5t6.5 -49v-21v-39q4 -63 -25 -114h158l127 -1434h-340l-20 289h-88l-25 -289h-340zM451 1464q2 0 6 1t10 8.5t6 21.5v160 q0 31 -22 31q-11 0 -18 -9.5t-7 -21.5v-160q0 -31 25 -31zM449 1176l-58 -631h121l-49 631h-14z" glyph-name="Aring" unicode="Å"/><glyph d="M170 1434h1194v-293h-305v-291h270v-272h-270v-285h305v-293h-850l-20 289h-88l-25 -289h-340zM449 1176l-58 -631h121l-49 631h-14z" glyph-name="AE" horiz-adv-x="1404" unicode="Æ"/><glyph d="M528 369l2 153l322 -2v-110q0 -46 -9.5 -96t-36.5 -110.5t-69.5 -107t-116 -78.5t-167.5 -32q-87 0 -156.5 28.5t-111.5 74.5t-72 101.5t-43 111t-20 101.5t-7 75v28q-2 33 0 86v250v86q-1 7 -1 18.5t1 47t5.5 70t17 81t31 87t50 81.5t72.5 70t101.5 47t132.5 18 q95 0 169 -32t116 -79t69 -108t36 -111t9 -96v-113l-324 -2v158q0 4 0.5 11t-2 24t-9 30t-22 24t-38.5 11q-19 0 -35 -12q-33 -21 -33 -76v-721q0 -25 7 -43t16 -26t20.5 -13t16.5 -5.5t8 -0.5q36 0 54 25t17 51v25zM289 -408l51 338h264l-51 -338h-264z" glyph-name="Ccedilla" horiz-adv-x="892" unicode="Ç"/><glyph d="M41 1434h649v-293h-307v-291h272v-272h-272v-285h307v-293h-307h-342v1430v4zM258 1536l-51 338h266l51 -338h-266z" glyph-name="Egrave" horiz-adv-x="731" unicode="È"/><glyph d="M41 1434h649v-293h-307v-291h272v-272h-272v-285h307v-293h-307h-342v1430v4zM524 1874l-51 -338h-266l51 338h266zM41 1434h649v-293h-307v-291h272v-272h-272v-285h307v-293h-307h-342v1430v4z" glyph-name="Eacute" horiz-adv-x="731" unicode="É"/><glyph d="M41 1434h649v-293h-307v-291h272v-272h-272v-285h307v-293h-307h-342v1430v4zM145 1503v164l220 180l221 -180v-164l-221 178z" glyph-name="Ecircumflex" horiz-adv-x="731" unicode="Ê"/><glyph d="M41 1434h649v-293h-307v-291h272v-272h-272v-285h307v-293h-307h-342v1430v4zM-29 1800h316v-264h-316v264zM444 1800h316v-264h-316v264z" glyph-name="Edieresis" horiz-adv-x="731" unicode="Ë"/><glyph d="M41 0v1434h342v-1434h-342zM106 1536l-51 338h264l52 -338h-265z" glyph-name="Igrave" horiz-adv-x="425" unicode="Ì"/><glyph d="M41 0v1434h342v-1434h-342zM55 1536l51 338h265l-52 -338h-264z" glyph-name="Iacute" horiz-adv-x="425" unicode="Í"/><glyph d="M49 0v1434h342v-1434h-342zM0 1503v164l221 180l221 -180v-164l-221 178z" glyph-name="Icircumflex" horiz-adv-x="442" unicode="Î"/><glyph d="M41 0v1434h342v-1434h-342zM-180 1800h315v-264h-315v264zM291 1800h315v-264h-315v264z" glyph-name="Idieresis" horiz-adv-x="425" unicode="Ï"/><glyph d="M946 1094v-756v-82q-1 -10 -4 -27.5t-23.5 -61.5t-53.5 -78t-102 -61.5t-161 -27.5h-467v606h-94v221h94v607h467q67 0 122 -14t90 -36.5t61 -50t39 -55t21 -50t9 -36.5l2 -14q2 -33 0 -84zM606 365v704q0 24 -7 42t-15.5 26.5t-19.5 13.5t-16 5.5t-9 0.5h-62v-330h62 v-221h-62v-330h62q3 0 8.5 1t16.5 6t19.5 13.5t15.5 26.5t7 42z" glyph-name="Eth" horiz-adv-x="989" unicode="Ð"/><glyph d="M489 1434h342v-1434h-231h-111l-106 692v-692h-342v1434h342l106 -689v689zM553 1653q-26 -2 -53 35q-6 10 -64 90q-15 21 -36.5 32.5t-35.5 13.5l-14 1q-3 0 -8 0.5t-19.5 -1.5t-28 -6.5t-30 -15.5t-28 -27.5t-19.5 -44t-8 -63.5q0 -75 44.5 -113t119.5 -38h14v135h-20 q-39 -3 -39 20v1q-1 2 0.5 5t4 5t8.5 4t15 2q17 1 25 -9q3 -5 78 -106q18 -25 43 -39.5t41 -15.5l16 -2q3 0 8 -0.5t19 1.5t27 6.5t29 15.5t27 27.5t19 44t8 62.5q0 79 -45.5 115.5t-118.5 36.5h-16l2 -133l17 -2q40 4 40 -21q-1 -1 0 -4.5t-4.5 -7.5t-17.5 -4z" glyph-name="Ntilde" horiz-adv-x="874" unicode="Ñ"/><glyph d="M504 356v721q0 39 -14.5 60.5t-29.5 23.5l-14 2q0 -1 -5.5 0.5t-14.5 -3.5t-17 -12t-14 -26t-6 -45v-721q0 -18 2 -32t6.5 -23t8 -15t10.5 -9.5t10.5 -4.5t11 -2.5t8.5 -1.5l6 1q5 1 7 1.5t7.5 2.5t8 4l7.5 6t7 8t5.5 10.5t5 14t3 18t1.5 22.5zM850 846v-258q2 -24 2 -45 t-1 -30l-1 -9v-1q1 -17 0.5 -37.5t-7 -75.5t-19.5 -102.5t-42.5 -105.5t-71 -99t-110 -69t-154.5 -28q-84 0 -152 28.5t-109 69.5t-71 99.5t-43 106t-20 102.5t-7.5 75t-0.5 36v1q-2 31 0 84v258v84q0 7 -0.5 18.5t1.5 46.5t7 69.5t17.5 81t30.5 86.5t49.5 81t71.5 70t98 47 t128 18q67 0 124 -17.5t96 -47.5t70.5 -69t50 -82t32.5 -86t19.5 -82t8.5 -69t3 -47v-18q4 -33 0 -84zM340 1536l-51 338h264l51 -338h-264z" glyph-name="Ograve" horiz-adv-x="892" unicode="Ò"/><glyph d="M504 356v721q0 39 -14.5 60.5t-29.5 23.5l-14 2q0 -1 -5.5 0.5t-14.5 -3.5t-17 -12t-14 -26t-6 -45v-721q0 -18 2 -32t6.5 -23t8 -15t10.5 -9.5t10.5 -4.5t11 -2.5t8.5 -1.5l6 1q5 1 7 1.5t7.5 2.5t8 4l7.5 6t7 8t5.5 10.5t5 14t3 18t1.5 22.5zM850 846v-258q2 -24 2 -45 t-1 -30l-1 -9v-1q1 -17 0.5 -37.5t-7 -75.5t-19.5 -102.5t-42.5 -105.5t-71 -99t-110 -69t-154.5 -28q-84 0 -152 28.5t-109 69.5t-71 99.5t-43 106t-20 102.5t-7.5 75t-0.5 36v1q-2 31 0 84v258v84q0 7 -0.5 18.5t1.5 46.5t7 69.5t17.5 81t30.5 86.5t49.5 81t71.5 70t98 47 t128 18q67 0 124 -17.5t96 -47.5t70.5 -69t50 -82t32.5 -86t19.5 -82t8.5 -69t3 -47v-18q4 -33 0 -84zM604 1874l-51 -338h-264l51 338h264z" glyph-name="Oacute" horiz-adv-x="892" unicode="Ó"/><glyph d="M504 356v721q0 39 -14.5 60.5t-29.5 23.5l-14 2q0 -1 -5.5 0.5t-14.5 -3.5t-17 -12t-14 -26t-6 -45v-721q0 -18 2 -32t6.5 -23t8 -15t10.5 -9.5t10.5 -4.5t11 -2.5t8.5 -1.5l6 1q5 1 7 1.5t7.5 2.5t8 4l7.5 6t7 8t5.5 10.5t5 14t3 18t1.5 22.5zM850 846v-258q2 -24 2 -45 t-1 -30l-1 -9v-1q1 -17 0.5 -37.5t-7 -75.5t-19.5 -102.5t-42.5 -105.5t-71 -99t-110 -69t-154.5 -28q-84 0 -152 28.5t-109 69.5t-71 99.5t-43 106t-20 102.5t-7.5 75t-0.5 36v1q-2 31 0 84v258v84q0 7 -0.5 18.5t1.5 46.5t7 69.5t17.5 81t30.5 86.5t49.5 81t71.5 70t98 47 t128 18q67 0 124 -17.5t96 -47.5t70.5 -69t50 -82t32.5 -86t19.5 -82t8.5 -69t3 -47v-18q4 -33 0 -84zM225 1503v164l221 180l222 -180v-164l-222 178z" glyph-name="Ocircumflex" horiz-adv-x="892" unicode="Ô"/><glyph d="M504 356v721q0 39 -14.5 60.5t-29.5 23.5l-14 2q0 -1 -5.5 0.5t-14.5 -3.5t-17 -12t-14 -26t-6 -45v-721q0 -18 2 -32t6.5 -23t8 -15t10.5 -9.5t10.5 -4.5t11 -2.5t8.5 -1.5l6 1q5 1 7 1.5t7.5 2.5t8 4l7.5 6t7 8t5.5 10.5t5 14t3 18t1.5 22.5zM850 846v-258q2 -24 2 -45 t-1 -30l-1 -9v-1q1 -17 0.5 -37.5t-7 -75.5t-19.5 -102.5t-42.5 -105.5t-71 -99t-110 -69t-154.5 -28q-84 0 -152 28.5t-109 69.5t-71 99.5t-43 106t-20 102.5t-7.5 75t-0.5 36v1q-2 31 0 84v258v84q0 7 -0.5 18.5t1.5 46.5t7 69.5t17.5 81t30.5 86.5t49.5 81t71.5 70t98 47 t128 18q67 0 124 -17.5t96 -47.5t70.5 -69t50 -82t32.5 -86t19.5 -82t8.5 -69t3 -47v-18q4 -33 0 -84zM553 1653q-26 -2 -53 35q-6 10 -64 90q-15 21 -36.5 32.5t-35.5 13.5l-14 1q-3 0 -8 0.5t-19.5 -1.5t-28 -6.5t-30 -15.5t-28 -27.5t-19.5 -44t-8 -63.5q0 -75 44.5 -113 t119.5 -38h14v135h-20q-39 -3 -39 20v1q-1 2 0.5 5t4 5t8.5 4t15 2q17 1 25 -9q3 -5 78 -106q18 -25 43 -39.5t41 -15.5l16 -2q3 0 8 -0.5t19 1.5t27 6.5t29 15.5t27 27.5t19 44t8 62.5q0 79 -45.5 115.5t-118.5 36.5h-16l2 -133l17 -2q40 4 40 -21q-1 -1 0 -4.5t-4.5 -7.5 t-17.5 -4z" glyph-name="Otilde" horiz-adv-x="892" unicode="Õ"/><glyph d="M504 356v721q0 39 -14.5 60.5t-29.5 23.5l-14 2q0 -1 -5.5 0.5t-14.5 -3.5t-17 -12t-14 -26t-6 -45v-721q0 -18 2 -32t6.5 -23t8 -15t10.5 -9.5t10.5 -4.5t11 -2.5t8.5 -1.5l6 1q5 1 7 1.5t7.5 2.5t8 4l7.5 6t7 8t5.5 10.5t5 14t3 18t1.5 22.5zM850 846v-258q2 -24 2 -45 t-1 -30l-1 -9v-1q1 -17 0.5 -37.5t-7 -75.5t-19.5 -102.5t-42.5 -105.5t-71 -99t-110 -69t-154.5 -28q-84 0 -152 28.5t-109 69.5t-71 99.5t-43 106t-20 102.5t-7.5 75t-0.5 36v1q-2 31 0 84v258v84q0 7 -0.5 18.5t1.5 46.5t7 69.5t17.5 81t30.5 86.5t49.5 81t71.5 70t98 47 t128 18q67 0 124 -17.5t96 -47.5t70.5 -69t50 -82t32.5 -86t19.5 -82t8.5 -69t3 -47v-18q4 -33 0 -84zM53 1800h316v-264h-316v264zM524 1800h316v-264h-316v264z" glyph-name="Odieresis" horiz-adv-x="892" unicode="Ö"/><glyph d="M668 1096l153 -156l-223 -223l223 -223l-153 -156l-226 223l-223 -223l-156 156l224 223l-224 223l156 156l223 -224z" glyph-name="multiply" horiz-adv-x="884" unicode="×"/><glyph d="M850 846v-258q2 -24 2 -45t-1 -30l-1 -9v-1q1 -17 0.5 -37.5t-7 -75.5t-19.5 -102.5t-42.5 -105.5t-71 -99t-110 -69t-154.5 -28q-76 0 -137 22l-28 -110h-111l43 161q-49 39 -84.5 99t-51.5 111t-24.5 110.5t-9 82t-0.5 41.5v1q-4 33 0 84v258q-2 23 -2 44t1 30l1 10 q0 7 -0.5 18.5t1.5 46.5t7 69.5t17.5 81t30.5 86.5t49.5 81t71.5 70t98 47t128 18q74 0 138 -23l28 111h111l-45 -164q50 -40 86.5 -100.5t52 -117.5t24 -109t9.5 -83v-32q4 -33 0 -84zM389 709l111 407q-6 22 -19.5 33.5t-24.5 12.5l-10 1q0 -1 -5.5 0.5t-14.5 -3.5 t-17 -12t-14 -26t-6 -45v-368zM504 356v373l-111 -414q3 -13 7.5 -21.5t11.5 -13.5t11.5 -7t13 -3.5t9.5 -1.5l6 1q5 1 7 1.5t7.5 2.5t8 4l7.5 6t7 8t5.5 10.5t5 14t3 18t1.5 22.5z" glyph-name="Oslash" horiz-adv-x="892" unicode="Ø"/><glyph d="M872 1434l-2 -930v-1q-2 -5 0.5 -25t-2.5 -51.5t-9 -70.5t-18.5 -81.5t-32.5 -84t-50 -79.5t-71 -66.5t-96.5 -45.5t-125.5 -17q-86 0 -154.5 28.5t-110 70t-71.5 100.5t-43.5 107t-20.5 103t-7.5 75.5t-0.5 36.5v1l-2 930h351v-1078q0 -31 5.5 -50t18 -26.5t17 -9 t18.5 -2.5q11 1 17 3t17.5 9.5t17 27t5.5 48.5v1078h350zM340 1536l-51 338h264l51 -338h-264z" glyph-name="Ugrave" horiz-adv-x="915" unicode="Ù"/><glyph d="M872 1434l-2 -930v-1q-2 -5 0.5 -25t-2.5 -51.5t-9 -70.5t-18.5 -81.5t-32.5 -84t-50 -79.5t-71 -66.5t-96.5 -45.5t-125.5 -17q-86 0 -154.5 28.5t-110 70t-71.5 100.5t-43.5 107t-20.5 103t-7.5 75.5t-0.5 36.5v1l-2 930h351v-1078q0 -31 5.5 -50t18 -26.5t17 -9 t18.5 -2.5q11 1 17 3t17.5 9.5t17 27t5.5 48.5v1078h350zM604 1874l-51 -338h-264l51 338h264z" glyph-name="Uacute" horiz-adv-x="915" unicode="Ú"/><glyph d="M872 1434l-2 -930v-1q-2 -5 0.5 -25t-2.5 -51.5t-9 -70.5t-18.5 -81.5t-32.5 -84t-50 -79.5t-71 -66.5t-96.5 -45.5t-125.5 -17q-86 0 -154.5 28.5t-110 70t-71.5 100.5t-43.5 107t-20.5 103t-7.5 75.5t-0.5 36.5v1l-2 930h351v-1078q0 -31 5.5 -50t18 -26.5t17 -9 t18.5 -2.5q11 1 17 3t17.5 9.5t17 27t5.5 48.5v1078h350zM238 1503v164l219 180l221 -180v-164l-221 178z" glyph-name="Ucircumflex" horiz-adv-x="915" unicode="Û"/><glyph d="M872 1434l-2 -930v-1q-2 -5 0.5 -25t-2.5 -51.5t-9 -70.5t-18.5 -81.5t-32.5 -84t-50 -79.5t-71 -66.5t-96.5 -45.5t-125.5 -17q-86 0 -154.5 28.5t-110 70t-71.5 100.5t-43.5 107t-20.5 103t-7.5 75.5t-0.5 36.5v1l-2 930h351v-1078q0 -31 5.5 -50t18 -26.5t17 -9 t18.5 -2.5q11 1 17 3t17.5 9.5t17 27t5.5 48.5v1078h350zM63 1800h316v-264h-316v264zM537 1800h315v-264h-315v264z" glyph-name="Udieresis" horiz-adv-x="915" unicode="Ü"/><glyph d="M559 1434h342l-260 -709v-725h-342v727l-258 707h342l76 -445h24zM629 1874l-51 -338h-265l52 338h264z" glyph-name="Yacute" horiz-adv-x="942" unicode="Ý"/><glyph d="M854 385q-2 -1 0 -13.5t-1.5 -35t-6 -51t-14.5 -61t-26.5 -64t-41 -60.5t-59 -51.5t-80.5 -35.5t-105 -13h-479v1434h479q71 0 128 -20.5t91.5 -53.5t59 -72.5t34.5 -79.5t15.5 -73t5.5 -53v-21v-18.5t-3 -45t-9.5 -64t-21 -67.5t-34.5 -63.5t-54 -45t-77 -18.5v-37 q41 0 73.5 -18t53 -44t35.5 -62.5t21.5 -66.5t10.5 -63t4.5 -44.5t0.5 -18.5zM381 1255v-995h49q42 0 73.5 16.5t48 41t28 54t13 55t4 44t-0.5 21.5q0 92 -31.5 151t-91.5 59v37q37 0 55.5 71.5t18.5 142.5v71q0 123 -37 177t-88 54h-41z" glyph-name="germandbls" horiz-adv-x="1292" unicode="ß"/><glyph d="M365 805h-322q0 8 1 22t8 54t20 76t41 80.5t66 76.5t100 54t139 22q70 0 128 -14t98 -38t71.5 -54.5t49.5 -64.5t30.5 -68t17.5 -64.5t7 -54.5t2 -38l-1 -14v-780h-342v195q-17 -44 -34.5 -76t-43.5 -63t-63.5 -47.5t-83.5 -16.5q-62 0 -106.5 42.5t-65.5 112.5t-30 138 t-9 141q0 81 19.5 142t68 101t123.5 40q89 0 140.5 -31.5t82.5 -104.5v244q0 35 -14.5 53.5t-28.5 19.5l-14 1q-18 0 -30.5 -11.5t-17 -29t-6 -28t-1.5 -17.5zM479 332v6q2 59 0 90q-4 100 -43 100q-24 0 -37 -29.5t-15 -58.5l-1 -30v-60q0 -5 0.5 -13t3 -28.5t7.5 -36 t16 -28.5t26 -13q39 0 43 101zM315 1280l-49 338h264l52 -338h-267z" glyph-name="agrave" horiz-adv-x="864" unicode="à"/><glyph d="M365 805h-322q0 8 1 22t8 54t20 76t41 80.5t66 76.5t100 54t139 22q70 0 128 -14t98 -38t71.5 -54.5t49.5 -64.5t30.5 -68t17.5 -64.5t7 -54.5t2 -38l-1 -14v-780h-342v195q-17 -44 -34.5 -76t-43.5 -63t-63.5 -47.5t-83.5 -16.5q-62 0 -106.5 42.5t-65.5 112.5t-30 138 t-9 141q0 81 19.5 142t68 101t123.5 40q89 0 140.5 -31.5t82.5 -104.5v244q0 35 -14.5 53.5t-28.5 19.5l-14 1q-18 0 -30.5 -11.5t-17 -29t-6 -28t-1.5 -17.5zM479 332v6q2 59 0 90q-4 100 -43 100q-24 0 -37 -29.5t-15 -58.5l-1 -30v-60q0 -5 0.5 -13t3 -28.5t7.5 -36 t16 -28.5t26 -13q39 0 43 101zM582 1618l-52 -338h-264l49 338h267z" glyph-name="aacute" horiz-adv-x="864" unicode="á"/><glyph d="M365 805h-322q0 8 1 22t8 54t20 76t41 80.5t66 76.5t100 54t139 22q70 0 128 -14t98 -38t71.5 -54.5t49.5 -64.5t30.5 -68t17.5 -64.5t7 -54.5t2 -38l-1 -14v-780h-342v195q-17 -44 -34.5 -76t-43.5 -63t-63.5 -47.5t-83.5 -16.5q-62 0 -106.5 42.5t-65.5 112.5t-30 138 t-9 141q0 81 19.5 142t68 101t123.5 40q89 0 140.5 -31.5t82.5 -104.5v244q0 35 -14.5 53.5t-28.5 19.5l-14 1q-18 0 -30.5 -11.5t-17 -29t-6 -28t-1.5 -17.5zM479 332v6q2 59 0 90q-4 100 -43 100q-24 0 -37 -29.5t-15 -58.5l-1 -30v-60q0 -5 0.5 -13t3 -28.5t7.5 -36 t16 -28.5t26 -13q39 0 43 101zM211 1270v164l221 180l221 -180v-164l-221 178z" glyph-name="acircumflex" horiz-adv-x="864" unicode="â"/><glyph d="M365 805h-322q0 8 1 22t8 54t20 76t41 80.5t66 76.5t100 54t139 22q70 0 128 -14t98 -38t71.5 -54.5t49.5 -64.5t30.5 -68t17.5 -64.5t7 -54.5t2 -38l-1 -14v-780h-342v195q-17 -44 -34.5 -76t-43.5 -63t-63.5 -47.5t-83.5 -16.5q-62 0 -106.5 42.5t-65.5 112.5t-30 138 t-9 141q0 81 19.5 142t68 101t123.5 40q89 0 140.5 -31.5t82.5 -104.5v244q0 35 -14.5 53.5t-28.5 19.5l-14 1q-18 0 -30.5 -11.5t-17 -29t-6 -28t-1.5 -17.5zM479 332v6q2 59 0 90q-4 100 -43 100q-24 0 -37 -29.5t-15 -58.5l-1 -30v-60q0 -5 0.5 -13t3 -28.5t7.5 -36 t16 -28.5t26 -13q39 0 43 101zM532 1415q-26 -4 -53 33q-9 14 -32.5 47.5t-30.5 44.5q-14 20 -35.5 31t-36.5 13l-14 1q-3 0 -8 0.5t-20 -1t-28.5 -5.5t-29.5 -15t-28 -27t-20 -43.5t-8 -63.5q0 -76 44 -114t120 -38h17l-2 133h-21q-39 1 -39 21q0 2 0.5 4.5t7.5 7t21 4.5 q16 2 24 -6q3 -4 17.5 -24t33 -45t27.5 -38q19 -25 44.5 -39.5t41.5 -15.5l15 -2q0 1 7.5 -0.5t20 1.5t26.5 7t29 16t27 27.5t19.5 43.5t7.5 63q0 78 -45 113.5t-119 35.5h-16l2 -133h16q43 5 43 -20v-1v-2.5t-0.5 -3t-2.5 -3.5t-4.5 -3.5t-7 -2.5t-10.5 -1z" glyph-name="atilde" horiz-adv-x="864" unicode="ã"/><glyph d="M365 805h-322q0 8 1 22t8 54t20 76t41 80.5t66 76.5t100 54t139 22q70 0 128 -14t98 -38t71.5 -54.5t49.5 -64.5t30.5 -68t17.5 -64.5t7 -54.5t2 -38l-1 -14v-780h-342v195q-17 -44 -34.5 -76t-43.5 -63t-63.5 -47.5t-83.5 -16.5q-62 0 -106.5 42.5t-65.5 112.5t-30 138 t-9 141q0 81 19.5 142t68 101t123.5 40q89 0 140.5 -31.5t82.5 -104.5v244q0 35 -14.5 53.5t-28.5 19.5l-14 1q-18 0 -30.5 -11.5t-17 -29t-6 -28t-1.5 -17.5zM479 332v6q2 59 0 90q-4 100 -43 100q-24 0 -37 -29.5t-15 -58.5l-1 -30v-60q0 -5 0.5 -13t3 -28.5t7.5 -36 t16 -28.5t26 -13q39 0 43 101zM55 1544h316v-266h-316v266zM494 1544h315v-266h-315v266z" glyph-name="adieresis" horiz-adv-x="864" unicode="ä"/><glyph d="M365 805h-322q0 8 1 22t8 54t20 76t41 80.5t66 76.5t100 54t139 22q70 0 128 -14t98 -38t71.5 -54.5t49.5 -64.5t30.5 -68t17.5 -64.5t7 -54.5t2 -38l-1 -14v-780h-342v195q-17 -44 -34.5 -76t-43.5 -63t-63.5 -47.5t-83.5 -16.5q-62 0 -106.5 42.5t-65.5 112.5t-30 138 t-9 141q0 81 19.5 142t68 101t123.5 40q89 0 140.5 -31.5t82.5 -104.5v244q0 35 -14.5 53.5t-28.5 19.5l-14 1q-18 0 -30.5 -11.5t-17 -29t-6 -28t-1.5 -17.5zM479 332v6q2 59 0 90q-4 100 -43 100q-24 0 -37 -29.5t-15 -58.5l-1 -30v-60q0 -5 0.5 -13t3 -28.5t7.5 -36 t16 -28.5t26 -13q39 0 43 101zM434 1376q3 0 6.5 1t10 8.5t6.5 21.5v156q0 30 -23 30q-11 0 -17.5 -9t-6.5 -21v-156q0 -31 24 -31zM291 1458v39q0 4 -0.5 11t1.5 27t6 38t14 40.5t24.5 38.5t39.5 27t56 11q43 0 73.5 -20t43.5 -48t19.5 -56.5t6.5 -48.5v-20v-39 q-1 -1 0.5 -10t-1.5 -25.5t-6.5 -35.5t-14.5 -38.5t-25.5 -35t-39.5 -25.5t-56 -10q-43 0 -73.5 18.5t-43 45t-19 53t-6.5 45.5z" glyph-name="aring" horiz-adv-x="864" unicode="å"/><glyph d="M365 805h-322q0 8 1 22t8 54t20 76t41 80.5t66 76.5t100 54t139 22q244 0 344 -166q106 162 315 162q95 0 168.5 -32t115.5 -79t68.5 -107.5t35.5 -110.5t8 -95v-66v-116h-459v-215q0 -25 7 -43t15.5 -26.5t19.5 -13.5t16 -5.5t9 -0.5q22 0 37.5 10t22 25t9 29.5 t2.5 24.5l-1 10l2 108l320 -2v-63q1 -45 -8.5 -95.5t-37 -110t-69.5 -106.5t-115 -78.5t-166 -31.5q-157 0 -256 86v-82h-342v195q-17 -44 -34.5 -76t-43.5 -63t-63.5 -47.5t-83.5 -16.5q-62 0 -106.5 42.5t-65.5 112.5t-30 138t-9 141q0 60 11.5 116.5t35 106t66 79.5 t98.5 30q146 0 223 -185v244q0 35 -14.5 53.5t-28.5 19.5l-14 1q-18 0 -30.5 -11.5t-17 -29t-6 -28t-1.5 -17.5zM1081 905q-33 0 -50 -26.5t-17 -61.5v-121h137v109q0 4 0.5 11t-2 24t-9 30t-22 24t-37.5 11zM479 332v6q2 59 0 90q-4 100 -43 100q-24 0 -37 -29.5t-15 -58.5 l-1 -30v-60q0 -5 0.5 -13t3 -28.5t7.5 -36t16 -28.5t26 -13q39 0 43 101z" glyph-name="ae" horiz-adv-x="1515" unicode="æ"/><glyph d="M43 516v113q0 7 -0.5 19.5t1 51t6.5 76t18 88t31.5 94t50.5 88t73.5 76t101.5 51t132 19.5q80 0 145.5 -22t107.5 -59.5t72.5 -82t45.5 -94.5t22 -91.5t6 -78.5v-68l-324 -2v113q0 4 0.5 11t-2 24t-9 30t-22 24t-38.5 11q-19 0 -37 -10q-33 -25 -33 -78v-459q0 -25 7 -43 t16 -26t21 -13t17 -5.5t9 -0.5q36 0 54 25t17 51v25l3 108l321 -2v-65q1 -45 -8.5 -95.5t-36.5 -111t-69.5 -108t-116.5 -79.5t-168 -32q-92 0 -164 29t-114.5 75.5t-72.5 103t-41.5 113t-17.5 103t-5 75.5zM299 -393l47 330h266l-49 -330h-264z" glyph-name="ccedilla" horiz-adv-x="888" unicode="ç"/><glyph d="M420 897q-33 -21 -33 -76v-121h137v109q1 4 1 11t-2 24t-8 30t-21.5 24t-38.5 11q-19 0 -35 -12zM846 700v-116h-459v-224q0 -24 7 -42t16 -26.5t20.5 -13.5t16.5 -5.5t8 -0.5q36 0 53.5 25t16.5 51l-1 25l2 106l320 -2v-63q1 -36 -6 -77t-22.5 -90.5t-46 -93 t-72.5 -80.5t-106 -59t-142 -22q-71 0 -130.5 18t-99.5 48t-72 69t-50 82.5t-31 87t-17.5 82.5t-6.5 69t-2 48l1 18v119q0 7 -0.5 19.5t1.5 50.5t6.5 75t17 87t31 93t50.5 87t72 75t99.5 50.5t130.5 19.5q95 0 168.5 -32t115 -78.5t68.5 -107t35.5 -110.5t7.5 -96v-66z M315 1280l-49 338h264l52 -338h-267z" glyph-name="egrave" horiz-adv-x="888" unicode="è"/><glyph d="M420 897q-33 -21 -33 -76v-121h137v109q1 4 1 11t-2 24t-8 30t-21.5 24t-38.5 11q-19 0 -35 -12zM846 700v-116h-459v-224q0 -24 7 -42t16 -26.5t20.5 -13.5t16.5 -5.5t8 -0.5q36 0 53.5 25t16.5 51l-1 25l2 106l320 -2v-63q1 -36 -6 -77t-22.5 -90.5t-46 -93 t-72.5 -80.5t-106 -59t-142 -22q-71 0 -130.5 18t-99.5 48t-72 69t-50 82.5t-31 87t-17.5 82.5t-6.5 69t-2 48l1 18v119q0 7 -0.5 19.5t1.5 50.5t6.5 75t17 87t31 93t50.5 87t72 75t99.5 50.5t130.5 19.5q95 0 168.5 -32t115 -78.5t68.5 -107t35.5 -110.5t7.5 -96v-66z M602 1618l-51 -340h-264l51 340h264z" glyph-name="eacute" horiz-adv-x="888" unicode="é"/><glyph d="M420 897q-33 -21 -33 -76v-121h137v109q1 4 1 11t-2 24t-8 30t-21.5 24t-38.5 11q-19 0 -35 -12zM846 700v-116h-459v-224q0 -24 7 -42t16 -26.5t20.5 -13.5t16.5 -5.5t8 -0.5q36 0 53.5 25t16.5 51l-1 25l2 106l320 -2v-63q1 -36 -6 -77t-22.5 -90.5t-46 -93 t-72.5 -80.5t-106 -59t-142 -22q-71 0 -130.5 18t-99.5 48t-72 69t-50 82.5t-31 87t-17.5 82.5t-6.5 69t-2 48l1 18v119q0 7 -0.5 19.5t1.5 50.5t6.5 75t17 87t31 93t50.5 87t72 75t99.5 50.5t130.5 19.5q95 0 168.5 -32t115 -78.5t68.5 -107t35.5 -110.5t7.5 -96v-66z M223 1270v164l221 180l222 -180v-164l-222 178z" glyph-name="ecircumflex" horiz-adv-x="888" unicode="ê"/><glyph d="M420 897q-33 -21 -33 -76v-121h137v109q1 4 1 11t-2 24t-8 30t-21.5 24t-38.5 11q-19 0 -35 -12zM846 700v-116h-459v-224q0 -24 7 -42t16 -26.5t20.5 -13.5t16.5 -5.5t8 -0.5q36 0 53.5 25t16.5 51l-1 25l2 106l320 -2v-63q1 -36 -6 -77t-22.5 -90.5t-46 -93 t-72.5 -80.5t-106 -59t-142 -22q-71 0 -130.5 18t-99.5 48t-72 69t-50 82.5t-31 87t-17.5 82.5t-6.5 69t-2 48l1 18v119q0 7 -0.5 19.5t1.5 50.5t6.5 75t17 87t31 93t50.5 87t72 75t99.5 50.5t130.5 19.5q95 0 168.5 -32t115 -78.5t68.5 -107t35.5 -110.5t7.5 -96v-66z M55 1544h316v-266h-316v266zM494 1544h315v-266h-315v266z" glyph-name="edieresis" horiz-adv-x="888" unicode="ë"/><glyph d="M100 1270l-51 338h266l52 -338h-267zM41 0v1182h342v-1182h-342z" glyph-name="igrave" horiz-adv-x="425" unicode="ì"/><glyph d="M41 0v1182h342v-1182h-342zM367 1608l-52 -338h-266l51 338h267z" glyph-name="iacute" horiz-adv-x="425" unicode="í"/><glyph d="M41 0v1182h342v-1182h-342zM-8 1270v164l221 180l221 -180v-164l-221 178z" glyph-name="icircumflex" horiz-adv-x="425" unicode="î"/><glyph d="M41 0v1182h342v-1182h-342zM-164 1544h316v-266h-316v266zM274 1544h316v-266h-316v266z" glyph-name="idieresis" horiz-adv-x="425" unicode="ï"/><glyph glyph-name="eth" horiz-adv-x="1239" unicode="ð"/><glyph d="M838 717v-717h-351v819q0 5 -0.5 13t-3.5 29t-8 37t-16.5 29t-26.5 13q-24 0 -34.5 -40t-9.5 -80l1 -40v-780h-348v1180h348v-201q34 85 94 143.5t138 59.5q67 1 114 -47t66.5 -116.5t29 -137t8.5 -116.5zM541 1415q-29 -2 -54 35q-20 31 -65 92q-14 20 -35.5 31 t-36.5 13l-14 1q-3 0 -8 0.5t-19.5 -1.5t-27.5 -6t-29 -15t-27.5 -27.5t-19.5 -44t-8 -63.5q0 -76 43.5 -114t119.5 -38h15v135h-21q-39 -2 -39 21q0 2 0.5 4.5t7 7t19.5 4.5q19 2 25 -8q4 -4 18 -23.5t33 -45.5t28 -38q18 -25 43 -39.5t41 -15.5l15 -2q0 1 7.5 -0.5t20 1.5 t26.5 7t29 16t27 27.5t19.5 43.5t7.5 63q0 80 -45 115.5t-119 35.5h-14v-133l18 -2q41 5 41 -20q-1 -1 0 -4.5t-4.5 -8t-17.5 -4.5z" glyph-name="ntilde" horiz-adv-x="878" unicode="ñ"/><glyph d="M459 272q3 0 8 0.5t16 6t20 14t16 26.5t7 43v457q0 35 -17 61.5t-50 26.5q-34 0 -52 -26.5t-18 -61.5v-457q0 -25 7 -43t16 -26.5t21 -14t17 -6t9 -0.5zM43 516v113q0 7 -0.5 19.5t1 51t6.5 76t17.5 88t31 94t50.5 88t73 76t101 51t132 19.5t132 -19.5t101 -52 t73.5 -74.5t51.5 -89t32.5 -93.5t19 -88.5t8 -74.5t1.5 -52.5v-19v-113q-4 -2 0 -29.5t-5 -75t-19.5 -102.5t-42.5 -112t-74 -103t-114.5 -75t-163.5 -29q-92 0 -164 29t-114.5 75.5t-72 102.5t-41 112t-17 102.5t-4.5 75.5zM315 1280l-49 338h264l52 -338h-267z" glyph-name="ograve" horiz-adv-x="915" unicode="ò"/><glyph d="M459 272q3 0 8 0.5t16 6t20 14t16 26.5t7 43v457q0 35 -17 61.5t-50 26.5q-34 0 -52 -26.5t-18 -61.5v-457q0 -25 7 -43t16 -26.5t21 -14t17 -6t9 -0.5zM43 516v113q0 7 -0.5 19.5t1 51t6.5 76t17.5 88t31 94t50.5 88t73 76t101 51t132 19.5t132 -19.5t101 -52 t73.5 -74.5t51.5 -89t32.5 -93.5t19 -88.5t8 -74.5t1.5 -52.5v-19v-113q-4 -2 0 -29.5t-5 -75t-19.5 -102.5t-42.5 -112t-74 -103t-114.5 -75t-163.5 -29q-92 0 -164 29t-114.5 75.5t-72 102.5t-41 112t-17 102.5t-4.5 75.5zM616 1618l-51 -338h-266l51 338h266z" glyph-name="oacute" horiz-adv-x="915" unicode="ó"/><glyph d="M459 272q3 0 8 0.5t16 6t20 14t16 26.5t7 43v457q0 35 -17 61.5t-50 26.5q-34 0 -52 -26.5t-18 -61.5v-457q0 -25 7 -43t16 -26.5t21 -14t17 -6t9 -0.5zM43 516v113q0 7 -0.5 19.5t1 51t6.5 76t17.5 88t31 94t50.5 88t73 76t101 51t132 19.5t132 -19.5t101 -52 t73.5 -74.5t51.5 -89t32.5 -93.5t19 -88.5t8 -74.5t1.5 -52.5v-19v-113q-4 -2 0 -29.5t-5 -75t-19.5 -102.5t-42.5 -112t-74 -103t-114.5 -75t-163.5 -29q-92 0 -164 29t-114.5 75.5t-72 102.5t-41 112t-17 102.5t-4.5 75.5zM238 1270v164l219 180l221 -180v-164l-221 178z" glyph-name="ocircumflex" horiz-adv-x="915" unicode="ô"/><glyph d="M459 272q3 0 8 0.5t16 6t20 14t16 26.5t7 43v457q0 35 -17 61.5t-50 26.5q-34 0 -52 -26.5t-18 -61.5v-457q0 -25 7 -43t16 -26.5t21 -14t17 -6t9 -0.5zM43 516v113q0 7 -0.5 19.5t1 51t6.5 76t17.5 88t31 94t50.5 88t73 76t101 51t132 19.5t132 -19.5t101 -52 t73.5 -74.5t51.5 -89t32.5 -93.5t19 -88.5t8 -74.5t1.5 -52.5v-19v-113q-4 -2 0 -29.5t-5 -75t-19.5 -102.5t-42.5 -112t-74 -103t-114.5 -75t-163.5 -29q-92 0 -164 29t-114.5 75.5t-72 102.5t-41 112t-17 102.5t-4.5 75.5zM559 1415q-28 -2 -53 35q-14 21 -66 92 q-14 20 -35.5 31t-36.5 13l-14 1q-3 0 -8 0.5t-19.5 -1.5t-27.5 -6t-29 -15t-27.5 -27.5t-19.5 -44t-8 -63.5q0 -76 44 -114t120 -38h14v135h-20q-39 -2 -39 21v4.5t6.5 7t19.5 4.5q19 2 25 -8q8 -11 80 -107q18 -25 42.5 -39.5t40.5 -15.5l15 -2q0 1 7.5 -0.5t20 1.5 t26.5 7t29 16t27 27.5t19.5 43.5t7.5 63q0 80 -44.5 115.5t-118.5 35.5h-15v-133l19 -2q41 5 41 -20q-1 -1 0 -4.5t-5 -8t-18 -4.5z" glyph-name="otilde" horiz-adv-x="915" unicode="õ"/><glyph d="M459 272q3 0 8 0.5t16 6t20 14t16 26.5t7 43v457q0 35 -17 61.5t-50 26.5q-34 0 -52 -26.5t-18 -61.5v-457q0 -25 7 -43t16 -26.5t21 -14t17 -6t9 -0.5zM43 516v113q0 7 -0.5 19.5t1 51t6.5 76t17.5 88t31 94t50.5 88t73 76t101 51t132 19.5t132 -19.5t101 -52 t73.5 -74.5t51.5 -89t32.5 -93.5t19 -88.5t8 -74.5t1.5 -52.5v-19v-113q-4 -2 0 -29.5t-5 -75t-19.5 -102.5t-42.5 -112t-74 -103t-114.5 -75t-163.5 -29q-92 0 -164 29t-114.5 75.5t-72 102.5t-41 112t-17 102.5t-4.5 75.5zM82 1544h315v-266h-315v266zM518 1544h316v-266 h-316v266z" glyph-name="odieresis" horiz-adv-x="915" unicode="ö"/><glyph d="M340 1055q1 1 0 10t1.5 25t5.5 35t13 38t23 34.5t36 25.5t52 10q39 0 67 -18.5t39.5 -44.5t18 -52t6.5 -44v-19v-35q-1 0 0 -9t-2 -24t-6 -32.5t-13 -35.5t-23 -32.5t-36 -23.5t-51 -9q-39 0 -67.5 17t-40 41.5t-17.5 49t-6 41.5v17v35zM61 606v221h816v-221h-816z M340 399q1 1 0 10t1.5 25t5.5 34.5t13 37.5t23 34.5t36 25t52 9.5q39 0 67 -18t39.5 -44t18 -52t6.5 -44v-18v-34q-1 0 0 -9t-2 -24t-6 -32.5t-13 -35.5t-23 -32.5t-36 -23.5t-51 -9q-39 0 -67.5 17t-40 41.5t-17.5 49t-6 41.5v17v34z" glyph-name="divide" horiz-adv-x="937" unicode="÷"/><glyph d="M43 516v113q0 7 -0.5 19.5t1 51t6.5 76t17.5 88t31 94t50.5 88t73 76t101 51t132 19.5q104 0 180 -39l20 64h60l-31 -93q58 -42 99 -108.5t58 -131t25.5 -123.5t7.5 -95v-37v-113q-4 -2 0 -29.5t-5 -75t-19.5 -102.5t-42.5 -112t-74 -103t-114.5 -75t-163.5 -29 q-73 0 -138 20l-26 -73h-60l33 94q-69 35 -117 98t-67.5 127.5t-29 124t-8.5 97.5zM389 819v-407l137 415q-2 34 -18.5 57t-48.5 23q-34 0 -52 -26t-18 -62zM459 272q3 0 8 0.5t16.5 6t21 14t16.5 26.5t7 43v287l-116 -354q21 -23 47 -23z" glyph-name="oslash" horiz-adv-x="917" unicode="ø"/><glyph d="M41 465v717h348v-820q0 -5 0.5 -13t3.5 -28.5t8.5 -36.5t16.5 -29t26 -13q24 0 35.5 40t10.5 80l-1 39v781h349v-1180h-349v201q-34 -86 -94 -144t-137 -59q-49 0 -88 25t-61 66t-37.5 91t-21.5 99.5t-8.5 90.5t-1.5 67zM315 1280l-49 338h264l52 -338h-267z" glyph-name="ugrave" horiz-adv-x="878" unicode="ù"/><glyph d="M41 465v717h348v-820q0 -5 0.5 -13t3.5 -28.5t8.5 -36.5t16.5 -29t26 -13q24 0 35.5 40t10.5 80l-1 39v781h349v-1180h-349v201q-34 -86 -94 -144t-137 -59q-49 0 -88 25t-61 66t-37.5 91t-21.5 99.5t-8.5 90.5t-1.5 67zM598 1618l-51 -338h-266l51 338h266z" glyph-name="uacute" horiz-adv-x="878" unicode="ú"/><glyph d="M41 465v717h348v-820q0 -5 0.5 -13t3.5 -28.5t8.5 -36.5t16.5 -29t26 -13q24 0 35.5 40t10.5 80l-1 39v781h349v-1180h-349v201q-34 -86 -94 -144t-137 -59q-49 0 -88 25t-61 66t-37.5 91t-21.5 99.5t-8.5 90.5t-1.5 67zM219 1270v164l219 180l221 -180v-164l-221 178z" glyph-name="ucircumflex" horiz-adv-x="878" unicode="û"/><glyph d="M41 465v717h348v-820q0 -5 0.5 -13t3.5 -28.5t8.5 -36.5t16.5 -29t26 -13q24 0 35.5 40t10.5 80l-1 39v781h349v-1180h-349v201q-34 -86 -94 -144t-137 -59q-49 0 -88 25t-61 66t-37.5 91t-21.5 99.5t-8.5 90.5t-1.5 67zM63 1544h316v-266h-316v266zM500 1544h315v-266 h-315v266z" glyph-name="udieresis" horiz-adv-x="878" unicode="ü"/><glyph d="M487 317l2 863v2h340v-1205q1 -8 0.5 -22.5t-7.5 -56.5t-21.5 -79.5t-49 -84t-82.5 -79.5t-128 -56t-181 -23h-272v328q31 -3 79.5 -6t144 4t128.5 32q5 3 13 9.5t21 38t13 75.5v142h-16q-42 -115 -84.5 -156.5t-128.5 -42.5q-49 0 -87.5 25t-60.5 66t-37.5 91t-21 99.5 t-8 90.5t-1.5 67l1 26v717h348v-820q0 -5 0.5 -13t3.5 -28.5t8 -36.5t16.5 -29t26.5 -13q33 0 41 75zM582 1618l-52 -338h-264l49 338h267z" glyph-name="yacute" horiz-adv-x="880" unicode="ý"/><glyph d="M487 317l2 863v2h340v-1205q1 -8 0.5 -22.5t-7.5 -56.5t-21.5 -79.5t-49 -84t-82.5 -79.5t-128 -56t-181 -23h-272v328q31 -3 79.5 -6t144 4t128.5 32q5 3 13 9.5t21 38t13 75.5v142h-16q-42 -115 -84.5 -156.5t-128.5 -42.5q-49 0 -87.5 25t-60.5 66t-37.5 91t-21 99.5 t-8 90.5t-1.5 67l1 26v717h348v-820q0 -5 0.5 -13t3.5 -28.5t8 -36.5t16.5 -29t26.5 -13q33 0 41 75zM63 1544h316v-266h-316v266zM502 1544h315v-266h-315v266z" glyph-name="ydieresis" horiz-adv-x="880" unicode="ÿ"/><glyph d="M946 1094v-756v-82q-1 -10 -4 -27.5t-23.5 -61.5t-53.5 -78t-102 -61.5t-161 -27.5h-467v606h-94v221h94v607h467q67 0 122 -14t90 -36.5t61 -50t39 -55t21 -50t9 -36.5l2 -14q2 -33 0 -84zM606 365v704q0 24 -7 42t-15.5 26.5t-19.5 13.5t-16 5.5t-9 0.5h-62v-330h62 v-221h-62v-330h62q3 0 8.5 1t16.5 6t19.5 13.5t15.5 26.5t7 42z" glyph-name="Dcroat" horiz-adv-x="989" unicode="Đ"/><glyph d="M43 479v223q0 6 -1 17t-1 43.5t1.5 64.5t7 75.5t14.5 81t25.5 75.5t38 64.5t54 43.5t72.5 17q84 0 137.5 -52.5t89.5 -140.5v234h-75v118h77v93h336l2 -93h70v-118h-70v-1225h-340v193q-37 -90 -88 -141.5t-139 -51.5q-47 0 -84 26.5t-58.5 68.5t-36.5 93.5t-21 102.5 t-9 93t-3 68zM436 229q38 0 43 99v471q2 26 0 55q-4 100 -43 100q-24 0 -37 -29t-15 -58l-1 -29v-492q0 -5 0.5 -13t3 -28t7.5 -35.5t16 -28t26 -12.5z" glyph-name="dcroat" horiz-adv-x="931" unicode="đ"/><glyph d="M121 1434h342v-607h78v-221h-78v-272h203v-334h-545v606h-78v221h78v607z" glyph-name="Lslash" horiz-adv-x="706" unicode="Ł"/><glyph d="M113 0v606h-72v221h72v607h342v-607h73v-221h-73v-606h-342z" glyph-name="lslash" horiz-adv-x="569" unicode="ł"/><glyph d="M446 1430l908 4l2 -297h-305v-291h270v-273h-270v-286h305v-287h-910q-84 0 -152 27.5t-109 67.5t-71 97t-43 103.5t-20 99.5t-7.5 72.5t-0.5 35.5v1q-4 33 0 84v258q-2 23 -2 44t1 30l1 10q0 6 -0.5 17.5t1.5 45.5t7 67t17.5 78t30.5 84t49.5 78.5t71.5 67t98 45 t128 17.5zM504 356v721q0 39 -14.5 60.5t-29.5 23.5l-14 2q0 -1 -5.5 0.5t-14.5 -3.5t-17 -12t-14 -26t-6 -45v-721q0 -18 2 -32t6.5 -23t8 -15t10.5 -9.5t10.5 -4.5t11 -2.5t8.5 -1.5l6 1q5 1 7 1.5t7.5 2.5t8 4l7.5 6t7 8t5.5 10.5t5 14t3 18t1.5 22.5z" glyph-name="OE" horiz-adv-x="1396" unicode="Œ"/><glyph d="M43 629q0 7 -0.5 19.5t1 51t6.5 76t17.5 88t31 94t50.5 88t73 76t101 51t132 19.5q252 0 356 -229q101 231 352 231q94 0 167.5 -32t115.5 -79t69 -107.5t36 -110.5t8 -95v-68v-114h-461v-223q0 -25 7 -43t16 -26.5t20.5 -13.5t16.5 -5.5t9 -0.5q22 0 37.5 10t22 25 t9 29.5t2.5 24.5l-1 10l2 108l320 -2v-63q1 -45 -8.5 -95.5t-37 -110t-69.5 -106.5t-115 -78.5t-166 -31.5q-250 0 -350 213q-103 -219 -358 -219q-92 0 -164 29t-114.5 75.5t-72 102.5t-41 112t-17 102.5t-4.5 75.5l1 29v113zM1167 911q-34 0 -51.5 -25.5t-17.5 -60.5v-123 h139v111q0 4 0.5 10.5t-2 23.5t-9 30t-22 23.5t-37.5 10.5zM459 272q3 0 8 0.5t16.5 6t21 14t16.5 26.5t7 43v457q0 35 -18 61.5t-51 26.5q-34 0 -52 -26t-18 -62v-457q0 -25 7 -43t16 -26.5t21 -14t17 -6t9 -0.5z" glyph-name="oe" horiz-adv-x="1601" unicode="œ"/><glyph d="M309 578l-180 241q-2 4 -16.5 30t-18.5 34.5t-15.5 33t-15.5 41.5t-10 43.5t-8 55t-2 61.5q0 4 -0.5 11.5t1.5 30t6.5 44.5t16 51.5t28.5 55t46 51.5t66 44.5t91 30t118 11.5q103 0 175 -33.5t111 -95.5t55.5 -136t16.5 -169v-37l-317 2l-2 86q-2 4 0.5 26t-10 48 t-37.5 26q-2 0 -4.5 0.5t-9 -1.5t-12 -7t-9.5 -17t-4 -30q0 -5 1 -13.5t9 -36.5t21.5 -58t44 -75.5t71.5 -90.5l133 -174q5 -6 13 -16.5t29 -46t37 -73t30 -95.5t16 -116q0 -4 0.5 -11.5t-1.5 -30t-6.5 -44t-16 -51.5t-28.5 -55t-46 -51t-66 -44.5t-91 -30t-118 -11.5 q-103 0 -175 33.5t-111 95.5t-55.5 136t-16.5 169l-2 37l317 -2l2 -86q1 -1 0 -10.5t1.5 -25t6.5 -30t15 -25t27 -10.5q0 1 4 0t10 2t11.5 7.5t9.5 16.5t4 30q0 8 -4 24.5t-39 82t-97 147.5zM188 1681v166l220 -180l221 180v-166l-221 -178z" glyph-name="Scaron" horiz-adv-x="817" unicode="Š"/><glyph d="M467 344v8t-4 20t-11.5 30t-25.5 35t-43 38q-127 85 -227 160q-32 22 -55 52t-33.5 57t-17 51t-6.5 39l-1 14q-1 7 -1.5 19.5t3.5 49t14.5 69t38 73t68 69t109.5 48.5t157 20q188 0 281.5 -108.5t93.5 -294.5v-39l-332 2l-2 51v10t-2 22.5t-6.5 29t-15 22.5t-25.5 10 q0 -1 -4 0t-10.5 -2.5t-12 -9t-10 -20t-4.5 -35.5q-5 -44 18 -60q248 -183 265 -196q39 -29 68.5 -64.5t42.5 -66.5t20.5 -57.5t8.5 -41.5l1 -16q1 -7 1.5 -19.5t-4.5 -47.5t-16 -67t-38.5 -71.5t-67.5 -67.5t-108.5 -47.5t-155.5 -19.5q-101 0 -175.5 31.5t-117 88 t-62.5 127t-20 156.5v39l330 -2l4 -41q2 -4 -0.5 -27t10.5 -50t39 -27q2 0 4.5 -0.5t9.5 1t12.5 6.5t10 18t4.5 32zM203 1448v166l221 -180l221 180v-166l-221 -178z" glyph-name="scaron" horiz-adv-x="847" unicode="š"/><glyph d="M559 1434h342l-260 -709v-725h-342v727l-258 707h342l76 -445h24zM78 1800h315v-264h-315v264zM549 1800h315v-264h-315v264z" glyph-name="Ydieresis" horiz-adv-x="942" unicode="Ÿ"/><glyph d="M41 1434h817v-342l-469 -723l-2 -27h471v-342h-817v342l471 723v27h-471v342zM229 1681v166l222 -180l221 180v-166l-221 -178z" glyph-name="Zcaron" horiz-adv-x="901" unicode="Ž"/><glyph d="M41 1182h817v-344l-448 -469l-2 -27h450v-342h-817v342l451 469v27h-451v344zM229 1448v166l222 -180l221 180v-166l-221 -178z" glyph-name="zcaron" horiz-adv-x="901" unicode="ž"/><glyph d="M670 1133q22 0 32.5 7t10.5 14v7q0 18 -19 27t-38 8h-19l-29 2l-2 236h27q130 0 209.5 -63.5t79.5 -203.5q0 -62 -13.5 -111t-34.5 -77.5t-47 -48.5t-52 -27.5t-47 -11.5t-34 -3l-14 1q-4 0 -11.5 0.5t-29 6t-42 15t-46.5 30.5t-47 50q-138 187 -139 189q-5 6 -16 9 t-19 3h-8q-24 0 -36.5 -7t-13.5 -15v-7q0 -17 17 -26.5t34 -10.5h17h37l2 -237h-29q-133 0 -210 66.5t-77 201.5q0 63 13.5 112t35.5 77.5t48.5 48.5t53 27t48.5 10.5t36 2.5l13 -1q11 0 28.5 -2t58.5 -22t65 -56q21 -26 65 -89.5t50 -72.5q20 -29 43 -44t36 -15h13z" glyph-name="tilde" horiz-adv-x="985" unicode="˜"/><glyph d="M41 606v221h815v-221h-815z" glyph-name="endash" unicode="–"/><glyph d="M41 606v221h1122v-221h-1122z" glyph-name="emdash" horiz-adv-x="1206" unicode="—"/><glyph d="M307 1434l74 -492h-266l-74 492h266z" glyph-name="quoteleft" horiz-adv-x="421" unicode="‘"/><glyph d="M41 942l74 492h266l-74 -492h-266z" glyph-name="quoteright" horiz-adv-x="421" unicode="’"/><glyph d="M41 -176l74 491h266l-74 -491h-266z" glyph-name="quotesinglbase" horiz-adv-x="421" unicode="‚"/><glyph d="M674 1434l74 -492h-267l-73 492h266zM307 1434l74 -492h-266l-74 492h266z" glyph-name="quotedblleft" horiz-adv-x="788" unicode="“"/><glyph d="M41 942l74 492h266l-74 -492h-266zM408 942l73 492h267l-74 -492h-266z" glyph-name="quotedblright" horiz-adv-x="788" unicode="”"/><glyph d="M41 -176l74 491h266l-74 -491h-266zM408 -176l73 491h267l-74 -491h-266z" glyph-name="quotedblbase" horiz-adv-x="788" unicode="„"/><glyph d="M371 1434h291l-87 -342l400 92v-299l-400 102l-2 -102l89 -885h-291l88 879l-2 108l-396 -102v299l396 -86z" glyph-name="dagger" horiz-adv-x="1038" unicode="†"/><glyph d="M373 1434h291l-86 -342l399 92v-299l-399 102l-3 -102l13 -125l387 90v-299l-375 96l64 -647h-291l65 649l-377 -98v299l388 -84l12 113l-2 108l-396 -102v299l396 -86z" glyph-name="daggerdbl" horiz-adv-x="1040" unicode="‡"/><glyph d="M63 680v55q2 1 -0.5 15.5t2 40t9 54.5t20 59t36 54.5t56.5 40t82 15.5q45 0 81 -15.5t57 -40t36 -54.5t21 -59.5t9.5 -54t3.5 -40.5l-1 -15v-55q-2 -1 0 -14.5t-2.5 -37t-9.5 -51t-21 -55.5t-36.5 -50.5t-56.5 -37t-81 -14.5q-62 0 -106.5 27t-62.5 65t-27.5 76t-9.5 65z" glyph-name="bullet" horiz-adv-x="538" unicode="•"/><glyph d="M594 375l2 151l315 -2v-108q1 -44 -8.5 -93.5t-36.5 -108.5t-68.5 -105t-113.5 -77.5t-164 -31.5q-82 0 -148.5 18t-107.5 47.5t-71 64.5t-43.5 70t-21 64.5t-8.5 47.5l-1 18q-4 31 0 82v163h-78v121h78v43h-78v119h78v164q-2 23 -2 43.5t1 29.5l1 9v19t7 46t19.5 65.5 t42 69.5t70.5 65t109 46t153 19q93 0 166 -31.5t114.5 -78t68 -106t35 -109t7.5 -93.5v-111l-317 -2v156q0 4 0.5 10.5t-2 23.5t-9 30t-22 23.5t-37.5 10.5q-19 0 -35 -12q-30 -19 -30 -76v-211h143v-119h-143v-43h143v-121h-143v-210q0 -24 7 -42t15.5 -26.5t19 -13.5 t15.5 -6t8 -1q22 0 37.5 10t22 25t9 29.5t1.5 24.5v10z" glyph-name="Euro" horiz-adv-x="954" unicode="€"/><glyph d="M981 1434h236v-889h-213v428l-66 -428h-92l-66 428v-428h-211v684h-147v-684h-213v684h-148v205h742l88 -541z" glyph-name="trademark" horiz-adv-x="1280" unicode="™"/><glyph d="M61 606v221h816v-221h-816z" glyph-name="minus" horiz-adv-x="937" unicode="−"/></font>
</defs>
</svg>
