<svg xmlns="http://www.w3.org/2000/svg" xmlns:xlink="http://www.w3.org/1999/xlink" version="1.1"><metadata>Created by FontForge 20170731 at Sun Nov 6 04:34:52 2022 By Aleksey,,, Copyright (c) 2020 by Nicolo` tromben. All rights reserved.</metadata><defs><font id="SandroGrottesco-Light" horiz-adv-x="1574"><font-face x-height="1122" ascent="1638" bbox="-250 -494 2918 2040" cap-height="1581" descent="-410" font-family="Sandro Grottesco Light" font-stretch="normal" font-weight="400" panose-1="0 0 5 0 0 0 0 0 0 0" underline-position="-307" underline-thickness="102" unicode-range="U+0020-2212" units-per-em="2048"/><glyph d="M358 1122h639v-82h-639l11 -1040h-82l-11 1040h-299v82h299q-1 103 25.5 183.5t73 133.5t114.5 87.5t144.5 50t167.5 16.5h196v-82h-196q-79 -1 -143 -12.5t-122 -39t-96.5 -70.5t-60.5 -110.5t-21 -156.5zM2564 561q0 -272 -179.5 -425.5t-477.5 -153.5 q-190 0 -340 64.5t-238 201.5v-248h-82v1581h82v-707q89 138 239.5 202.5t338.5 64.5q299 0 478 -154t179 -426zM2482 561q0 241 -156 369.5t-419 128.5q-254 0 -409.5 -118t-168.5 -345v-72q15 -229 170 -345t408 -116q264 0 419.5 128.5t155.5 369.5z" glyph-name="f_b" horiz-adv-x="2646" unicode="fb"/><glyph d="M1653 1511q-79 -1 -143 -12.5t-122 -39t-96.5 -70.5t-60.5 -110.5t-21 -156.5h639v-82h-639l11 -1040h-82l-11 1040h-770l11 -1040h-82l-11 1040h-299v82h299q-1 103 25.5 183.5t73 133.5t114.5 87.5t144.5 50t167.5 16.5q247 6 481 -102q129 99 371 102q339 6 647 -196 l-45 -70q-119 78 -239 122t-197.5 53.5t-165.5 8.5zM1128 1122q-3 190 91 305q-197 88 -418 84q-79 -1 -143 -12.5t-122 -39t-96.5 -70.5t-60.5 -110.5t-21 -156.5h770z" glyph-name="f_f" horiz-adv-x="2299" unicode="ff"/><glyph d="M1653 1511q-79 -1 -143 -12.5t-122 -39t-96.5 -70.5t-60.5 -110.5t-21 -156.5h639v-82h-639l11 -1040h-82l-11 1040h-770l11 -1040h-82l-11 1040h-299v82h299q-1 103 25.5 183.5t73 133.5t114.5 87.5t144.5 50t167.5 16.5q247 6 481 -102q129 99 371 102q339 6 647 -196 l-45 -70q-119 78 -239 122t-197.5 53.5t-165.5 8.5zM1128 1122q-3 190 91 305q-197 88 -418 84q-79 -1 -143 -12.5t-122 -39t-96.5 -70.5t-60.5 -110.5t-21 -156.5h770zM2294 0h-82v1122h82v-1122z" glyph-name="f_f_i" horiz-adv-x="2439" unicode="ffi"/><glyph d="M358 1122h639v-82h-639l11 -1040h-82l-11 1040h-299v82h299q-1 103 25.5 183.5t73 133.5t114.5 87.5t144.5 50t167.5 16.5q339 6 647 -196l-45 -70q-119 78 -239 122t-197.5 53.5t-165.5 8.5q-79 -1 -143 -12.5t-122 -39t-96.5 -70.5t-60.5 -110.5t-21 -156.5zM1360 0h82 v1122h-82v-1122z" glyph-name="f_i" horiz-adv-x="1587" unicode="fi"/><glyph d="M358 1122h639v-82h-639l11 -1040h-82l-11 1040h-299v82h299q-1 103 25.5 183.5t73 133.5t114.5 87.5t144.5 50t167.5 16.5h196v-82h-196q-79 -1 -143 -12.5t-122 -39t-96.5 -70.5t-60.5 -110.5t-21 -156.5zM1247 0h82v1581h-82v-1581z" glyph-name="f_l" horiz-adv-x="1501" unicode="fl"/><glyph d="M1886 248l51 -64q-123 -101 -251.5 -151.5t-280.5 -50.5q-203 0 -320 106q-177 -106 -395 -106q-123 0 -226 45.5t-157 142.5q-47 84 -47 213v657h-309v82h309v459h82v-459h633v459h82v-459h629v-82h-629v-659q0 -108 37 -172q40 -72 126 -109t185 -37q70 -1 132.5 9.5 t157.5 54t191 121.5zM690 63q176 -4 342 89q-2 6 -10 18q-47 84 -47 213v657h-633v-659q0 -108 37 -172q40 -72 126 -109t185 -37z" glyph-name="t_t" horiz-adv-x="1978" unicode="tt"/><glyph d="M190 1581h650v-2050h-650v2050zM682 1376v68h-338v-68h133v-76h-135v-67h340v67h-135v76h135zM547 1036v144h-205v-213h340v69h-135zM410 1110h67v-74h-67v74zM682 844v67h-340v-67h135v-76h-135v-68h205v144h135zM682 584v204h-68v-135h-272v-69h340zM682 305v232h-205 v-115h70v47h67v-96h-204v164h-68v-232h340zM682 -49v231h-340v-231h340zM410 115h204v-97h-204v97zM682 -164v68h-340v-68h143l-143 -96v-68h340v68h-209l143 96h66z" glyph-name=".notdef" horiz-adv-x="1026"/><glyph glyph-name=".null" horiz-adv-x="0"/><glyph glyph-name="nonmarkingreturn" horiz-adv-x="682"/><glyph glyph-name="space" horiz-adv-x="921"/><glyph d="M221 393h82v1188h-82v-1188zM195 49q0 -28 19.5 -47.5t47.5 -19.5t48 19.5t20 47.5t-20 48t-48 20t-47.5 -20t-19.5 -48z" glyph-name="exclam" horiz-adv-x="557" unicode="!"/><glyph d="M84 1298l156 291l71 -39l-155 -290zM295 1298l156 291l71 -39l-155 -290z" glyph-name="quotedbl" horiz-adv-x="606" unicode="&quot;"/><glyph d="M1532 1159v-82h-330l-119 -491h449v-82h-467l-121 -504h-90l121 504h-473l-121 -504h-90l121 504h-344v82h364l119 491h-483v82h501l103 422h90l-103 -422h474l102 422h90l-102 -422h309zM522 586h471l123 491h-475z" glyph-name="numbersign" horiz-adv-x="1593" unicode="#"/><glyph d="M1575 618q63 -84 63 -215q0 -123 -71 -215q-65 -87 -176 -141q-198 -100 -471 -100h-9v-244h-82v248q-169 15 -323 78q-291 118 -465 393l68 45q166 -256 428 -363q131 -56 292 -71v735q-10 1 -32 2t-33 2l-6 2q-253 22 -369 74q-213 95 -213 328q0 150 115 262 q88 83 227.5 126t310.5 40v237h82v-242q371 -33 619 -329l-64 -53q-221 264 -555 301v-676q338 -34 486 -94q121 -50 178 -130zM766 856l6 -2q9 -1 28.5 -2t28.5 -2v672q-154 3 -270 -33q-131 -37 -211 -111q-90 -87 -90 -202q0 -180 166 -252q107 -50 342 -68zM1354 121 q202 102 202 282q0 101 -45 165t-145 104q-131 53 -455 88v-731h9q258 0 434 92z" glyph-name="dollar" horiz-adv-x="1714" unicode="$"/><glyph d="M147 -158l676 1889l78 -29l-676 -1886zM416 1407q0 -79 -58 -137t-137 -58q-81 0 -137.5 57.5t-56.5 137.5q0 82 56 138.5t138 56.5q80 0 137.5 -57t57.5 -138zM109 1407q0 -46 33 -79.5t79 -33.5t79.5 33.5t33.5 79.5q0 47 -33.5 80t-79.5 33t-79 -33t-33 -80zM823 334 q80 0 137.5 -57t57.5 -138q0 -79 -57.5 -136.5t-137.5 -57.5q-81 0 -137.5 57t-56.5 137q0 82 56 138.5t138 56.5zM823 27q46 0 79.5 33t33.5 79q0 47 -33.5 80t-79.5 33q-47 0 -79.5 -33t-32.5 -80q0 -46 32.5 -79t79.5 -33z" glyph-name="percent" horiz-adv-x="1050" unicode="%"/><glyph d="M1350 283l321 -283h-123l-254 221l-30 -31q-117 -102 -263 -155q-151 -53 -335 -53q-98 0 -207 36.5t-199 100.5q-97 67 -160 166q-67 107 -67 231q0 272 215 426q70 45 139 70l-217 188v381h1014v-82h-932v-262l1036 -901q140 166 232 448l77 -24q-99 -300 -247 -477z M1208 252l25 22l-774 674q-89 -23 -166 -76q-178 -126 -178 -356q0 -100 55 -188q50 -80 139 -142q77 -56 175 -89.5t182 -33.5q332 0 542 189z" glyph-name="ampersand" horiz-adv-x="1660" unicode="&amp;"/><glyph d="M469 -121l68 47q-2 0 -21 29.5t-53.5 93t-65.5 133.5q-139 312 -149 592q0 285 129 598q28 70 60 135.5t51 96.5l18 30l-70 45q0 -1 -8 -14.5t-21 -38t-29.5 -55.5t-37 -75.5t-39.5 -90.5q-55 -135 -92 -287q-43 -176 -43 -344v-2q6 -166 55 -342q39 -142 103 -283 q32 -73 68 -139t54.5 -95.5t22.5 -33.5z" glyph-name="parenleft" horiz-adv-x="632" unicode="("/><glyph d="M424 1118q43 -176 43 -344v-2q-6 -166 -55 -342q-39 -142 -103 -283q-32 -73 -68 -139t-54.5 -95.5t-22.5 -33.5l-68 47q2 0 21 30t53.5 93.5t65.5 132.5q139 312 149 592q0 283 -129 600q-28 70 -60.5 135t-50.5 95l-18 30l70 45q0 -1 8 -14.5t21 -38t29.5 -55.5 t37 -75.5t39.5 -90.5q55 -135 92 -287z" glyph-name="parenright" horiz-adv-x="630" unicode=")"/><glyph d="M774 1425l47 -67l-280 -187l280 -184l-47 -67l-266 176v-322h-82v322l-268 -176l-45 67l280 184l-280 187l45 67l268 -178v322h82v-322z" glyph-name="asterisk" horiz-adv-x="931" unicode="*"/><glyph d="M686 870h444v-82h-444v-444h-82v444h-444v82h444v445h82v-445z" glyph-name="plus" horiz-adv-x="1267" unicode="+"/><glyph d="M145 -186l72 -39l156 288l-72 39z" glyph-name="comma" horiz-adv-x="528" unicode=","/><glyph d="M139 573h908v82h-908v-82z" glyph-name="hyphen" horiz-adv-x="1181" unicode="-"/><glyph d="M166 49q0 -28 19.5 -47.5t47.5 -19.5q29 0 49.5 19.5t20.5 47.5t-20.5 48t-49.5 20q-28 0 -47.5 -20t-19.5 -48z" glyph-name="period" horiz-adv-x="468" unicode="."/><glyph d="M-4 -172h90l678 1888h-92z" glyph-name="slash" horiz-adv-x="755" unicode="/"/><glyph d="M762 -18q167 0 297 61t211 170.5t122.5 254.5t41.5 320q0 141 -26.5 263.5t-81 223.5t-133.5 173t-189 111.5t-242 39.5q-165 0 -294 -60t-211 -169t-124.5 -256.5t-42.5 -325.5q0 -179 42 -325t123.5 -254t211 -167.5t295.5 -59.5zM762 1518q149 0 263 -55t185 -154 t106.5 -230.5t35.5 -290.5q0 -162 -36.5 -293.5t-108 -228.5t-185 -150t-260.5 -53q-150 0 -264.5 53.5t-185 151.5t-105.5 228.5t-35 291.5q0 129 22 239.5t69 201.5t116 155t166 99t217 35z" glyph-name="zero" horiz-adv-x="1523" unicode="0"/><glyph d="M612 1581v-1499h447v-82h-987v82h458v1417h-458v82h540z" glyph-name="one" horiz-adv-x="1130" unicode="1"/><glyph d="M111 0h1308v82h-1226v90q104 21 270.5 69t337.5 121q111 47 204.5 99t179 118t145.5 137t95 157t35 178q0 133 -52.5 238.5t-143.5 172t-209 101t-254 34.5q-126 0 -234.5 -19.5t-199.5 -62t-155 -105.5t-100 -154.5t-36 -204.5h82q0 101 34 181t92 132.5t140.5 87 t175.5 49.5t201 15q121 0 224.5 -29t182.5 -85.5t124.5 -146.5t45.5 -204q0 -100 -50 -193t-139 -169.5t-191.5 -136.5t-227.5 -114q-139 -59 -324 -114.5t-335 -83.5v-240z" glyph-name="two" horiz-adv-x="1523" unicode="2"/><glyph d="M813 -18q180 0 322.5 54t228.5 164.5t86 262.5q0 83 -17 148t-46.5 111.5t-78.5 80t-103.5 54.5t-131 33t-151.5 16.5t-174 4.5v117l606 139v414h-1250v-82h1168v-266l-606 -139v-265h41q134 0 230 -7t172 -24t124 -43.5t79 -68.5t43.5 -95.5t12.5 -127.5 q0 -130 -77.5 -222.5t-200.5 -135t-277 -42.5q-316 0 -492 136.5t-176 414.5h-82q0 -209 94.5 -352.5t260.5 -211.5t395 -68z" glyph-name="three" horiz-adv-x="1531" unicode="3"/><glyph d="M1110 0h82v397h244v82h-244v1102h-367l-796 -815v-369h1081v-397zM1110 479h-999v254l749 766h250v-1020z" glyph-name="four" horiz-adv-x="1394" unicode="4"/><glyph d="M862 -18q197 0 349 72t236.5 206t84.5 311q0 261 -179.5 407t-490.5 146q-118 0 -218.5 -34.5t-166.5 -82t-139 -120.5h-98v610h1220v82h-1302v-774h213q61 61 104 97t103 72t129 52t155 16q96 0 181.5 -17.5t160.5 -55t129.5 -92t85.5 -133t31 -173.5 q0 -233 -163 -370.5t-425 -137.5q-121 0 -239 33.5t-210 92t-149 144.5t-57 183h-82q0 -95 42.5 -181t115.5 -149t167.5 -110t200 -70.5t211.5 -23.5z" glyph-name="five" horiz-adv-x="1619" unicode="5"/><glyph d="M782 1104q144 0 270 -37.5t220 -107.5t148.5 -177t54.5 -239q0 -133 -52.5 -240t-146 -177t-219.5 -107t-275 -37q-152 0 -277.5 36.5t-218.5 106.5t-144.5 179.5t-51.5 248.5q0 239 84 433.5t233 324.5t355.5 200t451.5 70v-82q-357 0 -617.5 -155t-365.5 -441 q96 96 240.5 148.5t310.5 52.5zM782 63q130 0 239.5 30t192.5 88.5t130.5 151t48.5 210.5q0 150 -81.5 260t-218.5 164.5t-311 54.5q-162 0 -297 -51t-221 -154t-92 -242v-22q0 -125 45.5 -219.5t128 -153.5t192.5 -88t244 -29z" glyph-name="six" horiz-adv-x="1570" unicode="6"/><glyph d="M225 0h82v530l1082 623v428h-1381v-82h1299v-299l-1082 -620v-580z" glyph-name="seven" horiz-adv-x="1370" unicode="7"/><glyph d="M1128 850q158 -43 241 -145.5t83 -278.5q0 -202 -180 -323t-486 -121q-303 0 -491.5 121.5t-188.5 322.5q0 175 82.5 277.5t241.5 146.5q-274 89 -274 375q0 90 53 164t141 121t197.5 72.5t226.5 25.5q115 0 225.5 -25.5t201.5 -72t146.5 -121t55.5 -164.5 q0 -286 -275 -375zM238 1225q0 -97 37 -163.5t110.5 -104t168 -53t224.5 -15.5h2q103 0 182 9t148.5 32t114.5 60.5t70.5 96.5t25.5 138q0 72 -50.5 131t-132 95t-176 55.5t-188.5 19.5q-93 0 -185 -19t-172 -54.5t-129.5 -95t-49.5 -132.5zM786 63q266 0 425 97t159 266 q0 90 -27 156.5t-75 109.5t-123.5 69t-162.5 36t-202 10h-2q-112 0 -196.5 -9.5t-161.5 -34.5t-126 -67.5t-77.5 -110t-28.5 -159.5q0 -165 165 -264t433 -99z" glyph-name="eight" horiz-adv-x="1519" unicode="8"/><glyph d="M1538 1036q11 -185 -5.5 -341.5t-66.5 -290t-132 -226t-208.5 -144.5t-289.5 -52q-248 0 -421.5 72.5t-310.5 248.5l68 62q130 -163 282 -227t382 -64q149 0 261 46.5t183.5 137t111.5 211.5t54 281q-93 -122 -257.5 -183t-346.5 -61q-114 0 -217 21t-191 64t-153 105 t-101.5 149t-36.5 191q4 142 56 250t145 176t218.5 102.5t279.5 34.5q325 0 502 -136t194 -427zM1446 1036q-6 130 -50 222t-124 146t-185.5 78.5t-244.5 24.5q-137 0 -246 -27.5t-189.5 -84t-124.5 -147.5t-46 -212q0 -105 50 -190t134.5 -138t192.5 -81.5t229 -28.5 q163 0 300 53t220.5 154.5t83.5 230.5z" glyph-name="nine" horiz-adv-x="1632" unicode="9"/><glyph d="M176 985q0 -29 20 -48t48 -19q29 0 48 19t19 48q0 28 -19 48t-48 20q-28 0 -48 -20t-20 -48zM176 49q0 -28 20 -47.5t48 -19.5q29 0 48 19.5t19 47.5t-19 48t-48 20q-28 0 -48 -20t-20 -48z" glyph-name="colon" horiz-adv-x="493" unicode=":"/><glyph d="M274 985q0 -28 20 -47.5t48 -19.5q29 0 48.5 19.5t19.5 47.5t-19.5 48t-48.5 20q-28 0 -48 -20t-20 -48zM152 -186l71 -39l156 288l-72 39z" glyph-name="semicolon" horiz-adv-x="589" unicode=";"/><glyph d="M180 731l1069 -495l35 75l-989 457l989 457l-35 73l-1069 -493v-74z" glyph-name="less" horiz-adv-x="1497" unicode="&lt;"/><glyph d="M147 993h969v82h-969v-82zM147 422h969v82h-969v-82z" glyph-name="equal" horiz-adv-x="1257" unicode="="/><glyph d="M221 311l35 -75l1067 495v74l-1067 493l-35 -73l987 -457z" glyph-name="greater" horiz-adv-x="1495" unicode="&gt;"/><glyph d="M735 410l82 -2v2q3 115 84 208q77 89 203 136q101 39 166.5 72t111.5 75q111 102 111 279q0 104 -53 190q-51 81 -144 141q-188 115 -479 115q-222 0 -395 -106q-97 -62 -164 -156q-71 -110 -88 -240l80 -10q35 223 215 336q150 94 352 94q126 0 246 -26q113 -27 188 -76 q160 -102 160 -262q0 -138 -84 -219q-73 -65 -252 -132q-155 -59 -245.5 -169t-94.5 -248v-2zM709 49q0 -28 19.5 -47.5t47.5 -19.5t48 19.5t20 47.5t-20 48t-48 20t-47.5 -20t-19.5 -48z" glyph-name="question" horiz-adv-x="1677" unicode="?"/><glyph d="M1935 569q0 -24 -2 -49t-10.5 -85.5t-35 -119t-66.5 -100.5q-75 -78 -191 -78q-122 0 -198 82q-54 54 -78 137q-56 -100 -156.5 -159.5t-218.5 -59.5q-178 0 -304 125.5t-126 302.5q0 117 57.5 216t156.5 156.5t216 57.5q106 0 196.5 -47.5t149.5 -130.5v201h82v-453v-16 q0 -24 2.5 -52t10 -70t26 -83t45.5 -70q52 -55 139 -55q83 0 133 53q57 57 80 183q4 27 6.5 55t2.5 42l1 15v2q0 321 -196 514q-104 101 -256 154q-159 57 -373 57q-210 0 -375 -59q-152 -53 -254 -158q-196 -193 -196 -520t196 -520q102 -105 254 -158q165 -59 375 -59v-82 q-221 0 -401 63q-171 62 -285 176q-221 218 -221 580t221 580q114 114 285 176q180 63 401 63q225 0 399 -61q168 -58 285 -172q109 -106 166 -252.5t57 -321.5zM979 219q139 0 239.5 96.5t106.5 233.5v18q0 143 -101.5 244.5t-244.5 101.5q-145 0 -246.5 -101.5 t-101.5 -246.5q0 -143 102 -244.5t246 -101.5z" glyph-name="at" horiz-adv-x="2056" unicode="@"/><glyph d="M553 1581h469l551 -1581h-88l-150 436h-1093l-152 -436h-86zM610 1499l-340 -981h1037l-342 981h-355z" glyph-name="A" unicode="A"/><glyph d="M1505 420q0 -63 -13 -115.5t-35 -92t-58 -71.5t-76 -54t-95 -38t-107.5 -25.5t-122.5 -15t-131.5 -7t-141.5 -1.5h-535v1499h-2v82h492q92 0 166 -6t148 -21.5t128.5 -44t97.5 -70t65 -103.5t22 -142q0 -280 -230 -379q201 -36 314.5 -133t113.5 -262zM272 1497l-2 -657 h410q108 0 185 7.5t149 29.5t115.5 60.5t69.5 102.5t26 154q0 167 -120 234q-103 58 -357 67q-54 2 -433 2h-43zM1423 420q0 63 -22.5 114t-59 86t-94 60.5t-117.5 40t-140 23.5t-150.5 11.5t-159.5 2.5h-410v-676h455q76 0 127.5 1t117.5 4.5t110.5 10.5t96 19t85 29.5 t67 43t52.5 58t30.5 76t11.5 96.5z" glyph-name="B" horiz-adv-x="1556" unicode="B"/><glyph d="M928 -25q280 0 481 120.5t289 353.5l-86 32q-76 -206 -256 -309.5t-428 -103.5q-347 0 -542.5 192.5t-195.5 527.5q0 339 197 531t541 192q242 0 417 -96.5t259 -294.5l84 37q-93 223 -292 335t-468 112q-385 0 -607.5 -221t-222.5 -595q0 -375 223.5 -594t606.5 -219z" glyph-name="C" horiz-adv-x="1761" unicode="C"/><glyph d="M1520 821q0 -229 -42 -383t-137.5 -253t-243.5 -142t-368 -43h-541v1581h541q210 0 356.5 -40.5t245 -131.5t144 -235t45.5 -353zM1438 821q0 193 -39.5 322.5t-128 209t-219 113t-322.5 33.5l-459 -2v-1415h459q202 0 335 37t218 125.5t120.5 227t35.5 349.5z" glyph-name="D" horiz-adv-x="1609" unicode="D"/><glyph d="M1427 750h-1157v-668h1182v-82h-1264l2 1581l1262 -2v-82l-1182 2v-668h1157v-81z" glyph-name="E" horiz-adv-x="1490" unicode="E"/><glyph d="M1454 1579v-82l-1182 2v-670h1158v-81h-1158l-2 -748h-82l2 1579h1264z" glyph-name="F" horiz-adv-x="1499" unicode="F"/><glyph d="M1741 829v-829h-82v387q-102 -210 -293 -311t-444 -101q-384 0 -604 220.5t-220 595.5q0 376 221 595.5t603 219.5q268 0 466 -114t291 -339l-75 -31q-85 204 -263 303t-419 99q-350 0 -546 -195.5t-196 -537.5q0 -344 196.5 -539t545.5 -195q329 0 522 173.5t215 488.5 v29h-758v81h840z" glyph-name="G" horiz-adv-x="1873" unicode="G"/><glyph d="M1384 829v752h82l-2 -1581h-82l2 748h-1114v-748h-82l2 1581h82l-2 -752h1114z" glyph-name="H" horiz-adv-x="1654" unicode="H"/><glyph d="M1032 1581v-82h-430v-1417h430v-82h-942v82h430v1417h-430v82h942z" glyph-name="I" horiz-adv-x="1122" unicode="I"/><glyph d="M819 1581h780v-82h-350v-739q0 -208 -30 -352q-39 -159 -111 -248q-145 -185 -492 -185q-217 0 -368 117.5t-217 335.5l78 25q58 -191 187 -293.5t320 -102.5q309 0 428 154q123 155 123 549v739h-348v82z" glyph-name="J" horiz-adv-x="1753" unicode="J"/><glyph d="M1526 1581l-762 -790l801 -791h-117l-758 750h-420v-750h-82v1581h82v-750h420l721 750h115z" glyph-name="K" horiz-adv-x="1560" unicode="K"/><glyph d="M188 1581h82v-1499h1131v-82h-1213v1581z" glyph-name="L" horiz-adv-x="1423" unicode="L"/><glyph d="M1290 1581h484v-1581h-82v1499h-330l-178 -1499h-404l-180 1499h-330v-1499h-82v1581h486l178 -1499h258z" glyph-name="M" horiz-adv-x="1961" unicode="M"/><glyph d="M1505 1581h82v-1581h-553l-305 1499h-459v-1499h-82v1581h607l307 -1499h403v1499z" glyph-name="N" horiz-adv-x="1771" unicode="N"/><glyph d="M913 -25q384 0 604 220.5t220 597.5t-221 595t-603 218q-383 0 -603 -219.5t-220 -593.5q0 -377 220.5 -597.5t602.5 -220.5zM913 1524q351 0 546.5 -194.5t195.5 -536.5q0 -345 -196.5 -540.5t-545.5 -195.5q-351 0 -546 196t-195 540q0 343 196.5 537t544.5 194z" glyph-name="O" horiz-adv-x="1826" unicode="O"/><glyph d="M188 0h82v791h551q114 0 202.5 10.5t171 38t136 73.5t85.5 120.5t32 174.5q0 67 -17 121t-46 92.5t-74.5 67t-96 46t-117 28t-131.5 14.5t-145 4h-633v-1581zM821 872h-551v627h551q105 0 179 -5.5t147.5 -23.5t118.5 -49t72.5 -84.5t27.5 -128.5q0 -62 -15 -112 t-41 -84.5t-66.5 -60t-84 -40.5t-102 -24t-113 -12t-123.5 -3z" glyph-name="P" horiz-adv-x="1505" unicode="P"/><glyph d="M1505 184l178 -184h-114l-127 131q-206 -156 -529 -156q-386 0 -604.5 219.5t-218.5 596.5q0 378 220.5 596.5t602.5 218.5q385 0 603.5 -219.5t218.5 -595.5q0 -377 -230 -607zM1384 190l-464 476l59 57l469 -481q120 150 162.5 259.5t42.5 289.5q0 346 -195.5 539.5 t-544.5 193.5q-351 0 -546 -195.5t-195 -537.5q0 -344 196 -539t545 -195q134 0 258 33.5t213 99.5z" glyph-name="Q" horiz-adv-x="1824" unicode="Q"/><glyph d="M913 793l539 -793h-98l-539 791h-545v-791h-82v1581h633q80 0 145 -4t131.5 -14.5t117 -28t96 -46t74.5 -67t46 -92.5t17 -121q0 -91 -26.5 -161t-72.5 -115.5t-115 -75.5t-146 -44.5t-175 -18.5zM821 1499h-551v-627h551q69 0 123.5 3t113 12t102 24t84 40.5t66.5 60 t41 84.5t15 112q0 75 -27.5 128.5t-72.5 84.5t-118.5 49t-147.5 23.5t-179 5.5z" glyph-name="R" horiz-adv-x="1595" unicode="R"/><glyph d="M920 -25q137 0 262.5 27.5t228.5 81t165 141.5t62 199q0 223 -206 324q-142 68 -448 101q-56 5 -212 19q-286 27 -400 95.5t-114 220.5q0 89 54.5 159t143 109.5t194 57.5t214.5 12q362 -18 602 -299l64 53q-78 91 -168.5 156.5t-179 100.5t-164 51.5t-150.5 19.5 q-134 7 -257 -17.5t-220.5 -75.5t-156 -136t-58.5 -191q0 -191 139.5 -282.5t450.5 -115.5q318 -29 432 -51q231 -45 309 -149q49 -65 49 -162q0 -93 -57.5 -165.5t-151.5 -115t-203 -64.5t-224 -22q-252 0 -463.5 111t-347.5 319l-68 -45q147 -227 378 -347t501 -120z" glyph-name="S" horiz-adv-x="1714" unicode="S"/><glyph d="M43 1581h1407v-82h-662v-1499h-81v1499h-664v82z" glyph-name="T" horiz-adv-x="1492" unicode="T"/><glyph d="M903 -25q234 0 404.5 98.5t258 274t87.5 408.5v825h-82v-825q0 -324 -175.5 -511.5t-492.5 -187.5q-319 0 -493 188.5t-174 510.5v825h-82v-825q0 -235 88.5 -411t258.5 -273t402 -97z" glyph-name="U" horiz-adv-x="1806" unicode="U"/><glyph d="M926 82l538 1499h86l-567 -1581h-405l-568 1581h86l539 -1499h291z" glyph-name="V" horiz-adv-x="1550" unicode="V"/><glyph d="M1552 82l189 1499h82l-197 -1581h-395l-180 1499h-256l-181 -1499h-395l-199 1581h84l187 -1499h250l180 1499h403l181 -1499h247z" glyph-name="W" horiz-adv-x="1843" unicode="W"/><glyph d="M1331 1581h99l-519 -786l521 -795h-99l-493 754h-267l-493 -754h-98l520 795l-518 786h98l491 -745h267z" glyph-name="X" horiz-adv-x="1433" unicode="X"/><glyph d="M954 674h-137v-592h352v-82h-784v82h350v592h-137l-602 907h98l549 -825h268l549 825h99z" glyph-name="Y" horiz-adv-x="1554" unicode="Y"/><glyph d="M47 0h1352v82h-1270v262l1270 850v387h-1352v-82h1270v-262l-1270 -850v-387z" glyph-name="Z" horiz-adv-x="1439" unicode="Z"/><glyph d="M229 -150h326v82h-244v1684h244v82h-326v-1848z" glyph-name="bracketleft" horiz-adv-x="651" unicode="["/><glyph d="M-12 1716l678 -1888h90l-676 1888h-92z" glyph-name="backslash" horiz-adv-x="751" unicode="\"/><glyph d="M98 -150h326v1848h-326v-82h244v-1684h-244v-82z" glyph-name="bracketright" horiz-adv-x="651" unicode="]"/><glyph d="M59 -82h1213v82h-1213v-82z" glyph-name="underscore" horiz-adv-x="1329" unicode="_"/><glyph d="M61 1501l447 -260l45 80l-444 260z" glyph-name="grave" horiz-adv-x="614" unicode="`"/><glyph d="M1419 709q4 -44 4 -131v-578h-82v410q-140 -199 -323 -312t-395 -116q-73 0 -146 13t-141.5 41.5t-121 69t-84.5 99t-32 127.5q0 318 791 327q232 0 452 -22q-6 224 -136 323t-388 99q-135 0 -292 -50t-267 -128l-47 67q109 79 275.5 136t330.5 57q126 0 229 -25 t184 -75.5t130 -135t59 -196.5zM1341 555q-199 23 -452 23q-142 -2 -262 -15t-224 -40t-163.5 -76t-59.5 -115q0 -78 69 -141.5t169.5 -95.5t204.5 -32q111 1 214 38.5t192 106.5t164 153.5t148 193.5z" glyph-name="a" horiz-adv-x="1579" unicode="a"/><glyph d="M1483 561q0 -272 -180 -425.5t-478 -153.5q-190 0 -339 64.5t-238 201.5v-248h-82v1581h82v-707q90 138 239.5 202.5t337.5 64.5q299 0 478.5 -154t179.5 -426zM1401 561q0 241 -156.5 369.5t-419.5 128.5q-254 0 -409 -118t-168 -345v-72q15 -229 169.5 -345t407.5 -116 q264 0 420 128.5t156 369.5z" glyph-name="b" horiz-adv-x="1564" unicode="b"/><glyph d="M793 -18q337 0 524 157l-53 64q-160 -140 -471 -140q-137 0 -250.5 31t-198.5 91.5t-132.5 156t-47.5 217.5q0 165 84 279.5t223.5 167.5t321.5 53q303 0 471 -139l53 63q-188 158 -524 158q-209 0 -367.5 -65t-251 -198t-92.5 -319q0 -184 93 -316t251.5 -196.5 t366.5 -64.5z" glyph-name="c" horiz-adv-x="1402" unicode="c"/><glyph d="M739 1141q188 0 338.5 -64.5t239.5 -202.5v707h82v-1581h-82v248q-88 -137 -238 -201.5t-340 -64.5q-298 0 -477.5 153.5t-179.5 425.5t179 426t478 154zM739 63q253 0 408 116t170 345v72q-13 227 -168.5 345t-409.5 118q-263 0 -419 -128.5t-156 -369.5t155.5 -369.5 t419.5 -128.5z" glyph-name="d" horiz-adv-x="1568" unicode="d"/><glyph d="M1452 518h-1286q9 -149 90.5 -253.5t212 -153t299.5 -48.5q145 0 271.5 40t205.5 122l58 -57q-178 -186 -535 -186q-312 0 -499 152t-187 425q0 185 89 318t242 198.5t355 65.5q316 0 500 -159.5t184 -463.5zM166 600h1202q-8 117 -56.5 206t-129.5 143.5t-185 82 t-229 27.5q-262 0 -424.5 -117t-177.5 -342z" glyph-name="e" horiz-adv-x="1533" unicode="e"/><glyph d="M358 1122h639v-82h-639l11 -1040h-82l-11 1040h-299v82h299q-1 103 25.5 183.5t73 133.5t114.5 87.5t144.5 50t167.5 16.5q339 6 647 -196l-45 -70q-119 78 -239 122t-197.5 53.5t-165.5 8.5q-79 -1 -143 -12.5t-122 -39t-96.5 -70.5t-60.5 -110.5t-21 -156.5z" glyph-name="f" horiz-adv-x="1447" unicode="f"/><glyph d="M1397 870v252h82v-1018q0 -108 -46 -211t-130 -180q-201 -188 -551 -188q-264 0 -461 96q-147 71 -266 211l63 53q101 -122 238 -190q177 -88 426 -88q314 0 495 166q71 68 110.5 154.5t39.5 176.5v144q-171 -266 -578 -266q-299 0 -478 153t-179 424q0 184 84 316.5 t231 199t342 66.5q411 0 578 -271zM1397 559q0 245 -157.5 372.5t-420.5 127.5t-419 -128t-156 -372q0 -239 156.5 -367.5t418.5 -128.5q265 0 421.5 129.5t156.5 366.5z" glyph-name="g" horiz-adv-x="1449" unicode="g"/><glyph d="M1339 682v-680h-82v666q0 169 -107.5 280t-266.5 111q-74 0 -145.5 -23t-150.5 -75t-156 -117t-183 -166v-678h-82v1581h82v-790q89 83 157 138.5t149.5 108t163.5 78t165 25.5q196 0 326 -129.5t130 -329.5z" glyph-name="h" horiz-adv-x="1495" unicode="h"/><glyph d="M145 1376q0 -31 21.5 -52t52.5 -21q29 0 50.5 21.5t21.5 51.5q0 31 -21.5 52.5t-50.5 21.5q-31 0 -52.5 -21.5t-21.5 -52.5zM178 0h82v1122h-82v-1122z" glyph-name="i" horiz-adv-x="428" unicode="i"/><glyph d="M571 1376q0 -31 21.5 -52t52.5 -21q29 0 50.5 21.5t21.5 51.5q0 31 -21.5 52.5t-50.5 21.5q-31 0 -52.5 -21.5t-21.5 -52.5zM266 -453q199 0 310.5 122t111.5 333v1120h-82v-1120q0 -179 -88 -276t-252 -97q-49 0 -101.5 16.5t-103.5 50t-88 94t-47 138.5l-82 -10 q20 -163 142 -267t280 -104z" glyph-name="j" horiz-adv-x="851" unicode="j"/><glyph d="M1348 0h-97l-434 690l-569 -352v-338h-82v1581h82v-1147l1116 688l43 -71l-520 -318z" glyph-name="k" horiz-adv-x="1396" unicode="k"/><glyph d="M170 0h82v1581h-82v-1581z" glyph-name="l" horiz-adv-x="423" unicode="l"/><glyph d="M2118 682v-682h-82v668q0 170 -98 280.5t-250 110.5q-50 0 -95.5 -11t-90 -37.5t-80 -54t-81.5 -77t-78.5 -88t-86.5 -105.5v-686h-82v668q0 171 -97 281t-249 110q-50 0 -95 -10.5t-88.5 -36t-77 -50.5t-79 -74t-76 -84.5t-84.5 -101.5v-702h-82v1122h82v-293 q74 84 120.5 131t109 94t127.5 67t143 20q152 0 268.5 -94t148.5 -246q63 82 119.5 140t121 105.5t135 71t147.5 23.5q184 0 307 -132t123 -327z" glyph-name="m" horiz-adv-x="2275" unicode="m"/><glyph d="M1339 682v-682h-82v668q0 169 -107.5 280t-266.5 111q-74 0 -145.5 -23t-150.5 -75t-156 -117t-183 -166v-678h-82v1122h82v-331q89 83 157 138.5t149.5 108t163.5 78t165 25.5q196 0 326 -129.5t130 -329.5z" glyph-name="n" horiz-adv-x="1497" unicode="n"/><glyph d="M741 -18q299 0 478.5 154t179.5 425q0 183 -83.5 315t-231 198.5t-343.5 66.5q-303 0 -481 -152.5t-178 -427.5q0 -274 179.5 -426.5t479.5 -152.5zM741 1061q266 0 421 -130.5t155 -369.5q0 -242 -155.5 -370t-420.5 -128t-421 128t-156 370q0 243 156.5 371.5 t420.5 128.5z" glyph-name="o" horiz-adv-x="1482" unicode="o"/><glyph d="M825 -18q-188 0 -338 64t-239 202v-717h-82v1591h82v-248q89 137 238.5 202t338.5 65q298 0 478 -154t180 -426q0 -271 -179.5 -425t-478.5 -154zM825 1059q-253 0 -407.5 -116t-169.5 -345v-72q13 -227 168 -345t409 -118q263 0 419.5 128.5t156.5 369.5t-156 369.5 t-420 128.5z" glyph-name="p" horiz-adv-x="1564" unicode="p"/><glyph d="M82 561q0 181 83 313t230.5 199.5t343.5 67.5q189 0 339 -65t239 -202v248h82v-1591h-82v717q-89 -138 -239.5 -202t-338.5 -64q-299 0 -478 153.5t-179 425.5zM164 561q0 -241 156 -369.5t419 -128.5q254 0 409.5 118t168.5 345v72q-15 229 -170 345t-408 116 q-264 0 -419.5 -128.5t-155.5 -369.5z" glyph-name="q" horiz-adv-x="1564" unicode="q"/><glyph d="M1174 760l-82 -8q-10 79 -48 141t-90.5 96.5t-106.5 52t-104 17.5q-138 0 -255.5 -88t-239.5 -281v-690h-82v1122h82v-286q110 149 228.5 227t266.5 78q165 0 288 -107.5t143 -273.5z" glyph-name="r" horiz-adv-x="1210" unicode="r"/><glyph d="M793 -18q88 0 171.5 10t165 34t141.5 60t97 92t37 125q0 39 -8.5 73t-27.5 61t-42 49t-59.5 40t-71 31.5t-86 24t-95 18t-107.5 14.5t-115 11.5t-125 9.5q-51 3 -85.5 6t-82.5 9.5t-80.5 15.5t-68 24t-56.5 34.5t-35 48t-14 63.5q0 62 45.5 108t120.5 70.5t159.5 35.5 t173.5 9q309 -13 515 -209l55 59q-224 214 -565 232q-112 4 -214 -12t-186.5 -51.5t-135 -98t-50.5 -143.5q0 -55 19.5 -98.5t58 -72.5t82 -49.5t105 -33t113.5 -18.5t120 -11q307 -25 415 -47q187 -39 230 -130q16 -32 16 -73q0 -63 -49 -111.5t-129.5 -75t-169.5 -40 t-182 -13.5q-201 0 -388 80.5t-303 229.5l-65 -51q131 -165 334.5 -252.5t421.5 -87.5z" glyph-name="s" horiz-adv-x="1476" unicode="s"/><glyph d="M1161 248l51 -64q-123 -101 -251.5 -151.5t-280.5 -50.5q-123 0 -226 45.5t-157 142.5q-50 89 -47 213l6 657h-305v82h305l4 459h82l-4 -459h633v-82h-633l-6 -659q-3 -102 37 -172q40 -72 126 -109t185 -37q70 -1 132.5 9.5t157.5 54t191 121.5z" glyph-name="t" horiz-adv-x="1253" unicode="t"/><glyph d="M154 440v682h82v-667q0 -169 107.5 -280.5t266.5 -111.5q74 0 145.5 23t150.5 75t156 117t183 166v678h82v-1122h-82v332q-89 -83 -157 -138.5t-149.5 -108t-163.5 -78t-165 -25.5q-196 0 -326 129t-130 329z" glyph-name="u" horiz-adv-x="1492" unicode="u"/><glyph d="M645 88l539 1034h92l-586 -1122h-92l-584 1122h92z" glyph-name="v" horiz-adv-x="1267" unicode="v"/><glyph d="M1346 106l387 1016h92l-434 -1122h-93l-376 997l-381 -997h-92l-424 1122h92l379 -1013l378 1013h93z" glyph-name="w" horiz-adv-x="1847" unicode="w"/><glyph d="M1110 1122h115l-559 -567l551 -555h-117l-494 498l-491 -498h-117l551 555l-559 567h114l502 -508z" glyph-name="x" horiz-adv-x="1222" unicode="x"/><glyph d="M778 141l510 981h92l-651 -1253q-29 -50 -37.5 -64.5t-33 -55t-38 -56.5t-36 -42.5t-43.5 -42t-45 -26.5q-60 -31 -129 -31q-57 0 -113 21q-77 26 -139.5 86t-102.5 145l76 35q32 -70 82.5 -119t110.5 -69q97 -36 178 4q36 18 73 61.5t59.5 80.5t65.5 114l74 141 l-555 1071h92z" glyph-name="y" horiz-adv-x="1372" unicode="y"/><glyph d="M156 82h1171v-82h-1286v92l1169 948h-1169v82h1286v-92z" glyph-name="z" horiz-adv-x="1357" unicode="z"/><glyph d="M522 -59l21 -76q-61 -14 -118.5 -16t-113.5 13.5t-92 49.5q-86 83 -49 242l78 383q22 114 -33 155t-197 41v80q140 0 196 42.5t34 156.5l-78 381q-38 163 49 241q38 36 97 51.5t115.5 13t111.5 -17.5l-21 -73q-58 18 -133 12t-113 -41q-53 -53 -26 -168v-2l78 -383 q19 -89 -5 -155t-87 -97q128 -77 92 -252l-78 -385q-27 -117 26 -170q38 -34 113 -39t133 13z" glyph-name="braceleft" horiz-adv-x="616" unicode="{"/><glyph d="M207 -172h82v1888h-82v-1888z" glyph-name="bar" horiz-adv-x="495" unicode="|"/><glyph d="M76 -135l20 76q58 -18 133 -13t113 39q54 54 27 170l-78 385q-36 175 92 252q-63 31 -87 97t-5 155l78 383v2q26 115 -27 168q-38 35 -113 41t-133 -12l-20 73q55 15 111.5 17.5t115 -13t96.5 -51.5q88 -79 50 -241l-78 -381q-22 -115 33.5 -157t195.5 -42v-80 q-142 0 -196.5 -40.5t-32.5 -155.5l78 -383q37 -158 -50 -242q-36 -34 -92 -49.5t-113 -13.5t-118 16z" glyph-name="braceright" horiz-adv-x="618" unicode="}"/><glyph d="M199 1266q0 -28 19.5 -48t47.5 -20t48 20t20 48t-20 47.5t-48 19.5t-47.5 -19.5t-19.5 -47.5zM307 -266v1188h-82v-1188h82z" glyph-name="exclamdown" horiz-adv-x="557" unicode="¡"/><glyph d="M786 1059v-996q311 0 471 140l54 -64q-187 -157 -525 -157v-258h-81v260q-284 21 -456.5 170.5t-172.5 404.5q0 258 171.5 408.5t457.5 171.5v262h81v-260q337 0 525 -158l-54 -63q-168 139 -471 139zM158 559q0 -222 149.5 -347.5t397.5 -145.5v991q-120 -10 -218.5 -45 t-172.5 -95.5t-115 -151.5t-41 -206z" glyph-name="cent" horiz-adv-x="1390" unicode="¢"/><glyph d="M152 82h1169v-82h-1274l-20 78q5 3 14.5 9.5t35 33t46.5 61.5q62 104 79 213t17 344h-172v82h172q0 103 0.5 154.5t3.5 122.5t9 106.5t16.5 82t27.5 75.5t40.5 59.5t56.5 59.5q140 125 387 125q243 0 385 -115q166 -129 166 -369h-82q0 199 -133 305q-126 97 -336 97 q-214 0 -334 -105q-21 -19 -37.5 -39t-29 -37.5t-21.5 -46t-15.5 -46.5t-10.5 -58.5t-6.5 -62t-3.5 -77.5t-1 -84.5v-101.5v-45h713v-82h-713q0 -274 -29.5 -410.5t-119.5 -246.5z" glyph-name="sterling" horiz-adv-x="1368" unicode="£"/><glyph d="M1460 1581h103l-686 -932h649v-82h-690v-258h690v-82h-690v-227h-82v227h-691v82h691v258h-691v82h652l-688 932h102l666 -903z" glyph-name="yen" horiz-adv-x="1576" unicode="¥"/><glyph d="M1120 305q178 -75 178 -250q0 -80 -45.5 -143t-122.5 -100.5t-169.5 -56.5t-194.5 -19q-195 0 -372 91t-283 249l67 47q99 -146 257 -225.5t331 -79.5q83 0 160.5 14t144 41t106.5 74.5t40 107.5q0 35 -9.5 63.5t-31 51t-46 39t-66.5 30t-79.5 22t-97.5 16.5t-107.5 13 t-122.5 11q-103 6 -177.5 22t-136 48t-93 86t-31.5 131q0 91 57 156.5t152 103.5q-96 24 -152.5 89.5t-56.5 162.5q0 80 44 142t117.5 96.5t162.5 50.5t186 12q77 -3 152 -21.5t169.5 -72t170.5 -136.5l-60 -55q-172 190 -436 203q-110 5 -204 -15.5t-157 -73.5t-63 -130 q0 -101 82 -145.5t281 -59.5q108 -9 168 -16t146 -21.5t133.5 -36.5t96 -55t69.5 -83t21 -116q0 -90 -48.5 -159t-135.5 -101q1 0 3 -1t3 -1zM664 383q148 -12 271 -18t202.5 42.5t79.5 159.5q0 38 -12.5 69t-32 53t-56 39.5t-71.5 29t-92.5 21t-105.5 15.5t-122 13 q-110 5 -204 -16t-157 -74t-63 -129q0 -101 82 -145.5t281 -59.5z" glyph-name="section" horiz-adv-x="1456" unicode="§"/><glyph d="M61 1376q0 -31 21.5 -52t52.5 -21t52.5 21t21.5 52t-21.5 52.5t-52.5 21.5t-52.5 -21.5t-21.5 -52.5zM537 1376q0 -31 21 -52t52 -21q30 0 51 21.5t21 51.5q0 31 -21.5 52.5t-50.5 21.5q-31 0 -52 -21.5t-21 -52.5z" glyph-name="dieresis" horiz-adv-x="743" unicode="¨"/><glyph d="M899 -25q384 0 603.5 220.5t219.5 597.5t-220.5 595t-602.5 218q-383 0 -603 -219.5t-220 -593.5q0 -377 220.5 -597.5t602.5 -220.5zM899 1524q351 0 546 -194.5t195 -536.5q0 -345 -196 -540.5t-545 -195.5q-351 0 -546 196t-195 540q0 343 196.5 537t544.5 194z M899 223q193 0 328.5 85.5t195.5 244.5l-77 29q-51 -138 -168 -207.5t-279 -69.5q-227 0 -355 129.5t-128 358.5q0 226 127 355.5t356 129.5q157 0 271.5 -65t168.5 -195l76 31q-62 153 -197.5 232t-318.5 79q-261 0 -413 -153t-152 -414q0 -263 152 -416.5t413 -153.5z" glyph-name="copyright" horiz-adv-x="1798" unicode="©"/><glyph d="M821 1325q2 -19 2 -78v-340h-47v242q-82 -117 -191.5 -184t-234.5 -68q-73 0 -141.5 22t-118 70.5t-49.5 114.5q0 188 467 192q121 0 268 -12q-4 133 -80.5 190.5t-228.5 57.5q-79 0 -172.5 -29t-159.5 -73l-26 36q64 47 162 81t196 34q100 0 174.5 -25.5t123 -84 t56.5 -146.5zM776 1237q-120 10 -268 10q-84 -1 -154.5 -8t-132 -23t-96.5 -44.5t-35 -67.5q0 -68 82.5 -113t177.5 -45q237 3 426 291z" glyph-name="ordfeminine" horiz-adv-x="876" unicode="ª"/><glyph d="M143 731l1067 -495l35 75l-987 457l987 457l-35 73l-1067 -493v-74zM821 731l1067 -495l35 75l-987 457l987 457l-35 73l-1067 -493v-74z" glyph-name="guillemotleft" horiz-adv-x="2031" unicode="«"/><glyph d="M899 1606q382 0 602.5 -218t220.5 -595t-219.5 -597.5t-603.5 -220.5q-382 0 -602.5 220.5t-220.5 597.5q0 374 220 593.5t603 219.5zM899 57q349 0 545 195.5t196 540.5q0 342 -195 536.5t-546 194.5q-348 0 -544.5 -194t-196.5 -537q0 -344 195 -540t546 -196z M1393 1081q0 -136 -109 -192t-313 -58l377 -548h-101l-373 548h-294v-548h-82l2 1050l461 -2q104 0 178 -11t134 -37.5t90 -77t30 -124.5zM580 913h381q67 0 117 4t96 14.5t74.5 29t45.5 49t17 71.5q0 43 -16 73t-43.5 48.5t-73.5 29t-96 14t-121 3.5h-379z" glyph-name="registered" horiz-adv-x="1798" unicode="®"/><glyph d="M61 1331h854v92h-854v-92z" glyph-name="macron" horiz-adv-x="976" unicode="¯"/><glyph d="M240 1241q79 0 136.5 57.5t57.5 137.5q0 81 -57 137.5t-137 56.5q-82 0 -138.5 -56t-56.5 -138q0 -80 57 -137.5t138 -57.5zM240 1548q46 0 79 -32.5t33 -79.5q0 -46 -33 -79.5t-79 -33.5q-47 0 -80 33.5t-33 79.5q0 47 33 79.5t80 32.5z" glyph-name="degree" horiz-adv-x="479" unicode="°"/><glyph d="M350 1057q-79 -35 -182 -60h414v-82h-535v140l33 6q4 0 35.5 7t91.5 25.5t112 41.5q222 94 222 215q0 69 -43 106q-51 45 -156 45q-115 0 -170 -37q-57 -37 -57 -114h-82q0 124 94 184q76 49 215 49q137 0 209 -63q72 -66 72 -170q0 -98 -91 -183q-68 -62 -182 -110z" glyph-name="uni00B2" horiz-adv-x="655" unicode="²"/><glyph d="M350 913q116 0 189 54q84 57 84 159q0 120 -84 166q-66 32 -191 35l238 55v199h-512v-82h430v-51l-238 -55v-148h41q145 0 193 -26q41 -20 41 -93q0 -67 -56.5 -99t-134.5 -32q-111 0 -172 45q-63 48 -63 146h-82q0 -139 96 -211q83 -62 221 -62z" glyph-name="uni00B3" horiz-adv-x="663" unicode="³"/><glyph d="M61 1321l48 -80l444 260l-47 80z" glyph-name="acute" horiz-adv-x="614" unicode="´"/><glyph d="M281 -494q90 0 153.5 64.5t63.5 155.5q0 79 -50.5 140t-125.5 75v59h-82v-137h41q56 0 95.5 -40t39.5 -97t-39.5 -97.5t-95.5 -40.5q-57 0 -97.5 40.5t-40.5 97.5h-82q0 -91 64.5 -155.5t155.5 -64.5z" glyph-name="cedilla" horiz-adv-x="559" unicode="¸"/><glyph d="M256 1581v-584h152v-82h-390v82h156v502h-156v82h238z" glyph-name="uni00B9" horiz-adv-x="413" unicode="¹"/><glyph d="M117 311l35 -75l1067 495v74l-1067 493l-35 -73l987 -457zM795 311l34 -75l1067 495v74l-1067 493l-34 -73l987 -457z" glyph-name="guillemotright" horiz-adv-x="2031" unicode="»"/><glyph d="M1051 1266q0 28 -20 47.5t-48 19.5t-48 -19.5t-20 -47.5t20 -48t48 -20t48 20t20 48zM1024 905l-82 2v-2q-3 -116 -84 -209q-76 -88 -203 -135q-101 -39 -166.5 -72t-111.5 -75q-111 -102 -111 -279q0 -104 53 -190q52 -83 144 -142q186 -114 479 -114q222 0 395 106 q97 62 164 156q71 110 88 239l-80 11q-35 -223 -215 -336q-150 -94 -352 -94q-126 0 -246 26q-113 27 -188 76q-160 102 -160 262q0 138 84 219q71 63 252 131q155 59 245.5 169.5t94.5 248.5v2z" glyph-name="questiondown" horiz-adv-x="1656" unicode="¿"/><glyph d="M319 1960l447 -260l45 80l-444 260zM553 1581h469l551 -1581h-88l-150 436h-1093l-152 -436h-86zM610 1499l-340 -981h1037l-342 981h-355z" glyph-name="Agrave" unicode="À"/><glyph d="M719 1780l47 -80l444 260l-47 80zM553 1581h469l551 -1581h-88l-150 436h-1093l-152 -436h-86zM610 1499l-340 -981h1037l-342 981h-355z" glyph-name="Aacute" unicode="Á"/><glyph d="M766 1898l399 -221l45 80l-444 248l-442 -248l43 -80zM553 1581h469l551 -1581h-88l-150 436h-1093l-152 -436h-86zM610 1499l-340 -981h1037l-342 981h-355z" glyph-name="Acircumflex" unicode="Â"/><glyph d="M961 1692q92 0 156.5 76.5t64.5 185.5h-92q0 -69 -38.5 -119.5t-90.5 -50.5q-25 0 -55 13t-46 23.5t-55 37.5q-41 30 -68 47.5t-71.5 34t-87.5 16.5q-95 0 -162 -82q-60 -76 -60 -180h93q0 71 37.5 120.5t91.5 49.5q29 0 62 -13t53.5 -26.5t58.5 -40.5q41 -30 64.5 -45.5 t64.5 -31t80 -15.5zM553 1581h469l551 -1581h-88l-150 436h-1093l-152 -436h-86zM610 1499l-340 -981h1037l-342 981h-355z" glyph-name="Atilde" unicode="Ã"/><glyph d="M455 1835q0 -31 21 -52.5t52 -21.5t52.5 21.5t21.5 52.5t-21.5 52.5t-52.5 21.5t-52 -21.5t-21 -52.5zM930 1835q0 -31 21.5 -52.5t52.5 -21.5q29 0 50 21.5t21 52.5t-21 52.5t-50 21.5q-31 0 -52.5 -21.5t-21.5 -52.5zM553 1581h469l551 -1581h-88l-150 436h-1093 l-152 -436h-86zM610 1499l-340 -981h1037l-342 981h-355z" glyph-name="Adieresis" unicode="Ä"/><glyph d="M766 1651q80 0 137.5 57.5t57.5 136.5t-57.5 137t-137.5 58q-81 0 -138 -57.5t-57 -137.5t57 -137t138 -57zM766 1958q46 0 79.5 -33.5t33.5 -79.5t-33.5 -79t-79.5 -33q-47 0 -80 33t-33 79t33 79.5t80 33.5zM553 1581h469l551 -1581h-88l-150 436h-1093l-152 -436h-86z M610 1499l-340 -981h1037l-342 981h-355z" glyph-name="Aring" unicode="Å"/><glyph d="M1815 1579v-82l-793 2v-668h768v-81h-768v-668h793v-82h-875v436h-698l-152 -436h-86l549 1581zM610 1499l-340 -981h670v981h-330z" glyph-name="AE" horiz-adv-x="1853" unicode="Æ"/><glyph d="M1612 481l86 -32q-85 -224 -274 -344.5t-453 -129.5v-32q75 -14 125.5 -75t50.5 -140q0 -91 -63.5 -155.5t-153.5 -64.5q-91 0 -155 64.5t-64 155.5h82q0 -57 40 -97.5t97 -40.5q56 0 95.5 40.5t39.5 97.5t-39.5 97t-95.5 40h-41v110q-366 12 -578.5 230t-212.5 583 q0 374 222.5 595t607.5 221q269 0 468 -112t292 -335l-84 -37q-84 198 -259 294.5t-417 96.5q-344 0 -541 -192t-197 -531q0 -335 195.5 -527.5t542.5 -192.5q248 0 428 103.5t256 309.5z" glyph-name="Ccedilla" horiz-adv-x="1761" unicode="Ç"/><glyph d="M395 1960l447 -260l45 80l-445 260zM1427 750h-1157v-668h1182v-82h-1264l2 1581l1262 -2v-82l-1182 2v-668h1157v-81z" glyph-name="Egrave" horiz-adv-x="1490" unicode="È"/><glyph d="M795 1780l47 -80l444 260l-47 80zM1427 750h-1157v-668h1182v-82h-1264l2 1581l1262 -2v-82l-1182 2v-668h1157v-81z" glyph-name="Eacute" horiz-adv-x="1490" unicode="É"/><glyph d="M842 1898l399 -221l45 80l-444 248l-443 -248l43 -80zM1427 750h-1157v-668h1182v-82h-1264l2 1581l1262 -2v-82l-1182 2v-668h1157v-81z" glyph-name="Ecircumflex" horiz-adv-x="1490" unicode="Ê"/><glyph d="M530 1835q0 -31 21.5 -52.5t52.5 -21.5t52.5 21.5t21.5 52.5t-21.5 52.5t-52.5 21.5t-52.5 -21.5t-21.5 -52.5zM1006 1835q0 -31 21 -52.5t52 -21.5q29 0 50.5 21.5t21.5 52.5t-21.5 52.5t-50.5 21.5q-31 0 -52 -21.5t-21 -52.5zM1427 750h-1157v-668h1182v-82h-1264 l2 1581l1262 -2v-82l-1182 2v-668h1157v-81z" glyph-name="Edieresis" horiz-adv-x="1490" unicode="Ë"/><glyph d="M115 1960l446 -260l45 80l-444 260zM1032 1581v-82h-430v-1417h430v-82h-942v82h430v1417h-430v82h942z" glyph-name="Igrave" horiz-adv-x="1122" unicode="Ì"/><glyph d="M514 1780l47 -80l445 260l-48 80zM1032 1581v-82h-430v-1417h430v-82h-942v82h430v1417h-430v82h942z" glyph-name="Iacute" horiz-adv-x="1122" unicode="Í"/><glyph d="M561 1898l400 -221l45 80l-445 248l-442 -248l43 -80zM1032 1581v-82h-430v-1417h430v-82h-942v82h430v1417h-430v82h942z" glyph-name="Icircumflex" horiz-adv-x="1122" unicode="Î"/><glyph d="M250 1835q0 -31 21.5 -52.5t52.5 -21.5t52 21.5t21 52.5t-21 52.5t-52 21.5t-52.5 -21.5t-21.5 -52.5zM725 1835q0 -31 21.5 -52.5t52.5 -21.5q29 0 50 21.5t21 52.5t-21 52.5t-50 21.5q-31 0 -52.5 -21.5t-21.5 -52.5zM1032 1581v-82h-430v-1417h430v-82h-942v82h430 v1417h-430v82h942z" glyph-name="Idieresis" horiz-adv-x="1122" unicode="Ï"/><glyph d="M467 1960l446 -260l45 80l-444 260zM913 -25q384 0 604 220.5t220 597.5t-221 595t-603 218q-383 0 -603 -219.5t-220 -593.5q0 -377 220.5 -597.5t602.5 -220.5zM913 1524q351 0 546.5 -194.5t195.5 -536.5q0 -345 -196.5 -540.5t-545.5 -195.5q-351 0 -546 196 t-195 540q0 343 196.5 537t544.5 194z" glyph-name="Ograve" horiz-adv-x="1826" unicode="Ò"/><glyph d="M866 1780l47 -80l445 260l-47 80zM913 -25q384 0 604 220.5t220 597.5t-221 595t-603 218q-383 0 -603 -219.5t-220 -593.5q0 -377 220.5 -597.5t602.5 -220.5zM913 1524q351 0 546.5 -194.5t195.5 -536.5q0 -345 -196.5 -540.5t-545.5 -195.5q-351 0 -546 196t-195 540 q0 343 196.5 537t544.5 194z" glyph-name="Oacute" horiz-adv-x="1826" unicode="Ó"/><glyph d="M913 1898l400 -221l45 80l-445 248l-442 -248l43 -80zM913 -25q384 0 604 220.5t220 597.5t-221 595t-603 218q-383 0 -603 -219.5t-220 -593.5q0 -377 220.5 -597.5t602.5 -220.5zM913 1524q351 0 546.5 -194.5t195.5 -536.5q0 -345 -196.5 -540.5t-545.5 -195.5 q-351 0 -546 196t-195 540q0 343 196.5 537t544.5 194z" glyph-name="Ocircumflex" horiz-adv-x="1826" unicode="Ô"/><glyph d="M1108 1692q92 0 156.5 76.5t64.5 185.5h-92q0 -69 -38.5 -119.5t-90.5 -50.5q-25 0 -55 13t-46 23.5t-55 37.5q-41 30 -68 47.5t-71.5 34t-87.5 16.5q-95 0 -162 -82q-59 -75 -59 -180h92q0 71 37.5 120.5t91.5 49.5q29 0 62 -13t53.5 -26.5t58.5 -40.5 q41 -30 64.5 -45.5t64.5 -31t80 -15.5zM913 -25q384 0 604 220.5t220 597.5t-221 595t-603 218q-383 0 -603 -219.5t-220 -593.5q0 -377 220.5 -597.5t602.5 -220.5zM913 1524q351 0 546.5 -194.5t195.5 -536.5q0 -345 -196.5 -540.5t-545.5 -195.5q-351 0 -546 196 t-195 540q0 343 196.5 537t544.5 194z" glyph-name="Otilde" horiz-adv-x="1826" unicode="Õ"/><glyph d="M602 1835q0 -31 21.5 -52.5t52.5 -21.5t52.5 21.5t21.5 52.5t-21.5 52.5t-52.5 21.5t-52.5 -21.5t-21.5 -52.5zM1077 1835q0 -31 21.5 -52.5t52.5 -21.5q29 0 50.5 21.5t21.5 52.5t-21.5 52.5t-50.5 21.5q-31 0 -52.5 -21.5t-21.5 -52.5zM913 -25q384 0 604 220.5 t220 597.5t-221 595t-603 218q-383 0 -603 -219.5t-220 -593.5q0 -377 220.5 -597.5t602.5 -220.5zM913 1524q351 0 546.5 -194.5t195.5 -536.5q0 -345 -196.5 -540.5t-545.5 -195.5q-351 0 -546 196t-195 540q0 343 196.5 537t544.5 194z" glyph-name="Odieresis" horiz-adv-x="1826" unicode="Ö"/><glyph d="M578 829l315 -315l-57 -57l-316 315l-313 -315l-60 57l316 315l-316 314l60 59l313 -315l316 315l57 -59z" glyph-name="multiply" horiz-adv-x="1075" unicode="×"/><glyph d="M1479 1581l-70 -106q158 -104 243 -278t85 -404q0 -377 -220 -597.5t-604 -220.5q-240 0 -428 95l-45 -70h-92l72 109q-159 103 -244.5 278.5t-85.5 405.5q0 374 220 593.5t603 219.5q240 0 428 -93l45 68h93zM172 793q0 -210 74.5 -367t216.5 -250l833 1268 q-160 80 -383 80q-348 0 -544.5 -194t-196.5 -537zM913 57q349 0 545.5 195.5t196.5 540.5q0 208 -74.5 364.5t-216.5 249.5l-834 -1270q166 -80 383 -80z" glyph-name="Oslash" horiz-adv-x="1826" unicode="Ø"/><glyph d="M457 1960l446 -260l45 80l-444 260zM903 -25q234 0 404.5 98.5t258 274t87.5 408.5v825h-82v-825q0 -324 -175.5 -511.5t-492.5 -187.5q-319 0 -493 188.5t-174 510.5v825h-82v-825q0 -235 88.5 -411t258.5 -273t402 -97z" glyph-name="Ugrave" horiz-adv-x="1806" unicode="Ù"/><glyph d="M856 1780l47 -80l445 260l-48 80zM903 -25q234 0 404.5 98.5t258 274t87.5 408.5v825h-82v-825q0 -324 -175.5 -511.5t-492.5 -187.5q-319 0 -493 188.5t-174 510.5v825h-82v-825q0 -235 88.5 -411t258.5 -273t402 -97z" glyph-name="Uacute" horiz-adv-x="1806" unicode="Ú"/><glyph d="M903 1898l400 -221l45 80l-445 248l-442 -248l43 -80zM903 -25q234 0 404.5 98.5t258 274t87.5 408.5v825h-82v-825q0 -324 -175.5 -511.5t-492.5 -187.5q-319 0 -493 188.5t-174 510.5v825h-82v-825q0 -235 88.5 -411t258.5 -273t402 -97z" glyph-name="Ucircumflex" horiz-adv-x="1806" unicode="Û"/><glyph d="M592 1835q0 -31 21.5 -52.5t52.5 -21.5t52 21.5t21 52.5t-21 52.5t-52 21.5t-52.5 -21.5t-21.5 -52.5zM1067 1835q0 -31 21.5 -52.5t52.5 -21.5q29 0 50 21.5t21 52.5t-21 52.5t-50 21.5q-31 0 -52.5 -21.5t-21.5 -52.5zM903 -25q234 0 404.5 98.5t258 274t87.5 408.5 v825h-82v-825q0 -324 -175.5 -511.5t-492.5 -187.5q-319 0 -493 188.5t-174 510.5v825h-82v-825q0 -235 88.5 -411t258.5 -273t402 -97z" glyph-name="Udieresis" horiz-adv-x="1806" unicode="Ü"/><glyph d="M729 1780l47 -80l445 260l-47 80zM954 674h-137v-592h352v-82h-784v82h350v592h-137l-602 907h98l549 -825h268l549 825h99z" glyph-name="Yacute" horiz-adv-x="1554" unicode="Ý"/><glyph d="M1491 428q0 -244 -172 -341q-130 -73 -414 -83q-91 -3 -291 -2h-120v82q365 -5 486 4q241 17 338 100q91 80 91 240q0 69 -20 120.5t-66.5 90t-114.5 63.5t-174 40.5t-235 21.5t-305 6v82h20q81 0 120 0.5t108 2.5t103.5 6.5t89 13t81.5 21.5t65 32t56.5 45t38 59 t27 76.5t7.5 95.5q0 49 -10.5 89t-31.5 69.5t-48 52t-66.5 37t-79 24t-93.5 14.5t-102.5 7t-112.5 2h-410l-2 -1730h-82l2 1812h492q123 0 213.5 -9t171.5 -33.5t132 -66.5t80 -109t29 -159q0 -134 -58 -231t-173 -146q209 -37 319.5 -131.5t110.5 -267.5z" glyph-name="germandbls" horiz-adv-x="1560" unicode="ß"/><glyph d="M371 1520l446 -260l45 79l-444 260zM1419 709q4 -44 4 -131v-578h-82v410q-140 -199 -323 -312t-395 -116q-73 0 -146 13t-141.5 41.5t-121 69t-84.5 99t-32 127.5q0 318 791 327q232 0 452 -22q-6 224 -136 323t-388 99q-135 0 -292 -50t-267 -128l-47 67 q109 79 275.5 136t330.5 57q126 0 229 -25t184 -75.5t130 -135t59 -196.5zM1341 555q-199 23 -452 23q-142 -2 -262 -15t-224 -40t-163.5 -76t-59.5 -115q0 -78 69 -141.5t169.5 -95.5t204.5 -32q111 1 214 38.5t192 106.5t164 153.5t148 193.5z" glyph-name="agrave" horiz-adv-x="1579" unicode="à"/><glyph d="M770 1339l47 -79l445 260l-48 79zM1419 709q4 -44 4 -131v-578h-82v410q-140 -199 -323 -312t-395 -116q-73 0 -146 13t-141.5 41.5t-121 69t-84.5 99t-32 127.5q0 318 791 327q232 0 452 -22q-6 224 -136 323t-388 99q-135 0 -292 -50t-267 -128l-47 67 q109 79 275.5 136t330.5 57q126 0 229 -25t184 -75.5t130 -135t59 -196.5zM1341 555q-199 23 -452 23q-142 -2 -262 -15t-224 -40t-163.5 -76t-59.5 -115q0 -78 69 -141.5t169.5 -95.5t204.5 -32q111 1 214 38.5t192 106.5t164 153.5t148 193.5z" glyph-name="aacute" horiz-adv-x="1579" unicode="á"/><glyph d="M817 1458l400 -221l45 80l-445 248l-442 -248l43 -80zM1419 709q4 -44 4 -131v-578h-82v410q-140 -199 -323 -312t-395 -116q-73 0 -146 13t-141.5 41.5t-121 69t-84.5 99t-32 127.5q0 318 791 327q232 0 452 -22q-6 224 -136 323t-388 99q-135 0 -292 -50t-267 -128 l-47 67q109 79 275.5 136t330.5 57q126 0 229 -25t184 -75.5t130 -135t59 -196.5zM1341 555q-199 23 -452 23q-142 -2 -262 -15t-224 -40t-163.5 -76t-59.5 -115q0 -78 69 -141.5t169.5 -95.5t204.5 -32q111 1 214 38.5t192 106.5t164 153.5t148 193.5z" glyph-name="acircumflex" horiz-adv-x="1579" unicode="â"/><glyph d="M1012 1251q92 0 156.5 76.5t64.5 185.5h-92q0 -69 -38.5 -119.5t-90.5 -50.5q-25 0 -55 13t-46 23.5t-55 37.5q-41 31 -68 48t-71.5 34t-87.5 17q-95 0 -162 -82q-59 -75 -59 -181h92q0 71 37.5 120.5t91.5 49.5q29 0 62 -13t53.5 -26.5t58.5 -40.5q41 -30 64.5 -45.5 t64.5 -31t80 -15.5zM1419 709q4 -44 4 -131v-578h-82v410q-140 -199 -323 -312t-395 -116q-73 0 -146 13t-141.5 41.5t-121 69t-84.5 99t-32 127.5q0 318 791 327q232 0 452 -22q-6 224 -136 323t-388 99q-135 0 -292 -50t-267 -128l-47 67q109 79 275.5 136t330.5 57 q126 0 229 -25t184 -75.5t130 -135t59 -196.5zM1341 555q-199 23 -452 23q-142 -2 -262 -15t-224 -40t-163.5 -76t-59.5 -115q0 -78 69 -141.5t169.5 -95.5t204.5 -32q111 1 214 38.5t192 106.5t164 153.5t148 193.5z" glyph-name="atilde" horiz-adv-x="1579" unicode="ã"/><glyph d="M506 1395q0 -31 21.5 -52.5t52.5 -21.5t52 21.5t21 52.5t-21 52t-52 21t-52.5 -21t-21.5 -52zM981 1395q0 -31 21.5 -52.5t52.5 -21.5q29 0 50 21.5t21 52.5t-21 52t-50 21q-31 0 -52.5 -21t-21.5 -52zM1419 709q4 -44 4 -131v-578h-82v410q-140 -199 -323 -312 t-395 -116q-73 0 -146 13t-141.5 41.5t-121 69t-84.5 99t-32 127.5q0 318 791 327q232 0 452 -22q-6 224 -136 323t-388 99q-135 0 -292 -50t-267 -128l-47 67q109 79 275.5 136t330.5 57q126 0 229 -25t184 -75.5t130 -135t59 -196.5zM1341 555q-199 23 -452 23 q-142 -2 -262 -15t-224 -40t-163.5 -76t-59.5 -115q0 -78 69 -141.5t169.5 -95.5t204.5 -32q111 1 214 38.5t192 106.5t164 153.5t148 193.5z" glyph-name="adieresis" horiz-adv-x="1579" unicode="ä"/><glyph d="M817 1210q79 0 137 58t58 137t-57.5 136.5t-137.5 57.5q-81 0 -137.5 -57t-56.5 -137t56.5 -137.5t137.5 -57.5zM817 1518q46 0 79.5 -33.5t33.5 -79.5t-33.5 -79.5t-79.5 -33.5q-47 0 -79.5 33.5t-32.5 79.5t32.5 79.5t79.5 33.5zM1419 709q4 -44 4 -131v-578h-82v410 q-140 -199 -323 -312t-395 -116q-73 0 -146 13t-141.5 41.5t-121 69t-84.5 99t-32 127.5q0 318 791 327q232 0 452 -22q-6 224 -136 323t-388 99q-135 0 -292 -50t-267 -128l-47 67q109 79 275.5 136t330.5 57q126 0 229 -25t184 -75.5t130 -135t59 -196.5zM1341 555 q-199 23 -452 23q-142 -2 -262 -15t-224 -40t-163.5 -76t-59.5 -115q0 -78 69 -141.5t169.5 -95.5t204.5 -32q111 1 214 38.5t192 106.5t164 153.5t148 193.5z" glyph-name="aring" horiz-adv-x="1579" unicode="å"/><glyph d="M2025 63q145 0 272 40t206 122l57 -57q-178 -186 -535 -186q-271 0 -449 116t-222 330l-13 -18q-140 -199 -323 -312t-395 -116q-73 0 -146 13t-141.5 41.5t-121 69t-84.5 99t-32 127.5q0 318 791 327q232 0 452 -22q-6 224 -136 323t-388 99q-135 0 -292 -50t-267 -128 l-47 67q109 79 275.5 136t330.5 57q146 0 261 -32.5t199.5 -105t119.5 -182.5q76 155 240 237.5t388 82.5q316 0 500.5 -159.5t184.5 -463.5h-1287q9 -149 90.5 -253.5t212 -153t299.5 -48.5zM2025 1059q-171 0 -300.5 -49t-210 -152.5t-91.5 -253.5v-4h1203 q-11 155 -93.5 260t-210.5 152t-297 47zM623 63q111 1 214 38.5t192 106.5t164 153.5t148 193.5q-199 23 -452 23q-142 -2 -262 -15t-224 -40t-163.5 -76t-59.5 -115q0 -78 69 -141.5t169.5 -95.5t204.5 -32z" glyph-name="ae" horiz-adv-x="2803" unicode="æ"/><glyph d="M1264 203l53 -64q-176 -147 -481 -157v-41q75 -14 125.5 -75t50.5 -140q0 -91 -63.5 -155.5t-153.5 -64.5q-91 0 -155.5 64.5t-64.5 155.5h82q0 -57 40.5 -97.5t97.5 -40.5q56 0 95.5 40.5t39.5 97.5t-39.5 97t-95.5 40h-41v119q-197 6 -347 72.5t-237.5 196.5t-87.5 308 q0 186 92.5 319t251 198t367.5 65q336 0 524 -158l-53 -63q-168 139 -471 139q-182 0 -321.5 -53t-223.5 -167.5t-84 -279.5q0 -122 47.5 -217.5t132.5 -156t198.5 -91.5t250.5 -31q311 0 471 140z" glyph-name="ccedilla" horiz-adv-x="1402" unicode="ç"/><glyph d="M322 1501l446 -260l45 80l-444 260zM1452 518h-1286q9 -149 90.5 -253.5t212 -153t299.5 -48.5q145 0 271.5 40t205.5 122l58 -57q-178 -186 -535 -186q-312 0 -499 152t-187 425q0 185 89 318t242 198.5t355 65.5q316 0 500 -159.5t184 -463.5zM166 600h1202 q-8 117 -56.5 206t-129.5 143.5t-185 82t-229 27.5q-262 0 -424.5 -117t-177.5 -342z" glyph-name="egrave" horiz-adv-x="1533" unicode="è"/><glyph d="M721 1321l47 -80l444 260l-47 80zM1452 518h-1286q9 -149 90.5 -253.5t212 -153t299.5 -48.5q145 0 271.5 40t205.5 122l58 -57q-178 -186 -535 -186q-312 0 -499 152t-187 425q0 185 89 318t242 198.5t355 65.5q316 0 500 -159.5t184 -463.5zM166 600h1202 q-8 117 -56.5 206t-129.5 143.5t-185 82t-229 27.5q-262 0 -424.5 -117t-177.5 -342z" glyph-name="eacute" horiz-adv-x="1533" unicode="é"/><glyph d="M721 1321l47 -80l444 260l-47 80zM1452 518h-1286q9 -149 90.5 -253.5t212 -153t299.5 -48.5q145 0 271.5 40t205.5 122l58 -57q-178 -186 -535 -186q-312 0 -499 152t-187 425q0 185 89 318t242 198.5t355 65.5q316 0 500 -159.5t184 -463.5zM166 600h1202 q-8 117 -56.5 206t-129.5 143.5t-185 82t-229 27.5q-262 0 -424.5 -117t-177.5 -342z" glyph-name="ecircumflex" horiz-adv-x="1533" unicode="ê"/><glyph d="M457 1376q0 -31 21 -52t52 -21t52.5 21t21.5 52t-21.5 52.5t-52.5 21.5t-52 -21.5t-21 -52.5zM932 1376q0 -31 21.5 -52t52.5 -21q29 0 50 21t21 52t-21 52.5t-50 21.5q-31 0 -52.5 -21.5t-21.5 -52.5zM1452 518h-1286q9 -149 90.5 -253.5t212 -153t299.5 -48.5 q145 0 271.5 40t205.5 122l58 -57q-178 -186 -535 -186q-312 0 -499 152t-187 425q0 185 89 318t242 198.5t355 65.5q316 0 500 -159.5t184 -463.5zM166 600h1202q-8 117 -56.5 206t-129.5 143.5t-185 82t-229 27.5q-262 0 -424.5 -117t-177.5 -342z" glyph-name="edieresis" horiz-adv-x="1533" unicode="ë"/><glyph d="M-250 1501l447 -260l45 80l-445 260zM145 0h82v1122h-82v-1122z" glyph-name="igrave" horiz-adv-x="364" unicode="ì"/><glyph d="M145 1321l48 -80l444 260l-47 80zM145 0h82v1122h-82v-1122z" glyph-name="iacute" horiz-adv-x="671" unicode="í"/><glyph d="M193 1440l399 -221l45 79l-444 248l-443 -248l43 -79zM145 0h82v1122h-82v-1122z" glyph-name="icircumflex" horiz-adv-x="364" unicode="î"/><glyph d="M-119 1376q0 -31 21.5 -52t52.5 -21t52.5 21t21.5 52t-21.5 52.5t-52.5 21.5t-52.5 -21.5t-21.5 -52.5zM356 1376q0 -31 21.5 -52t52.5 -21q30 0 51 21.5t21 51.5q0 31 -21.5 52.5t-50.5 21.5q-31 0 -52.5 -21.5t-21.5 -52.5zM145 0h82v1122h-82v-1122z" glyph-name="idieresis" horiz-adv-x="364" unicode="ï"/><glyph d="M295 1501l446 -260l45 80l-444 260zM741 -18q299 0 478.5 154t179.5 425q0 183 -83.5 315t-231 198.5t-343.5 66.5q-303 0 -481 -152.5t-178 -427.5q0 -274 179.5 -426.5t479.5 -152.5zM741 1061q266 0 421 -130.5t155 -369.5q0 -242 -155.5 -370t-420.5 -128t-421 128 t-156 370q0 243 156.5 371.5t420.5 128.5z" glyph-name="ograve" horiz-adv-x="1482" unicode="ò"/><glyph d="M694 1321l47 -80l445 260l-47 80zM741 -18q299 0 478.5 154t179.5 425q0 183 -83.5 315t-231 198.5t-343.5 66.5q-303 0 -481 -152.5t-178 -427.5q0 -274 179.5 -426.5t479.5 -152.5zM741 1061q266 0 421 -130.5t155 -369.5q0 -242 -155.5 -370t-420.5 -128t-421 128 t-156 370q0 243 156.5 371.5t420.5 128.5z" glyph-name="oacute" horiz-adv-x="1482" unicode="ó"/><glyph d="M741 1440l400 -221l45 79l-445 248l-442 -248l43 -79zM741 -18q299 0 478.5 154t179.5 425q0 183 -83.5 315t-231 198.5t-343.5 66.5q-303 0 -481 -152.5t-178 -427.5q0 -274 179.5 -426.5t479.5 -152.5zM741 1061q266 0 421 -130.5t155 -369.5q0 -242 -155.5 -370 t-420.5 -128t-421 128t-156 370q0 243 156.5 371.5t420.5 128.5z" glyph-name="ocircumflex" horiz-adv-x="1482" unicode="ô"/><glyph d="M934 1233q92 0 156.5 76.5t64.5 185.5h-92q0 -69 -38.5 -119.5t-90.5 -50.5q-25 0 -55 13t-46 23.5t-55 37.5q-41 30 -68 47.5t-71.5 34t-87.5 16.5q-95 0 -162 -82q-59 -75 -59 -180h92q0 71 37.5 120.5t91.5 49.5q29 0 62 -13t53.5 -26.5t58.5 -40.5q41 -30 64.5 -45.5 t64.5 -31t80 -15.5zM741 -18q299 0 478.5 154t179.5 425q0 183 -83.5 315t-231 198.5t-343.5 66.5q-303 0 -481 -152.5t-178 -427.5q0 -274 179.5 -426.5t479.5 -152.5zM741 1061q266 0 421 -130.5t155 -369.5q0 -242 -155.5 -370t-420.5 -128t-421 128t-156 370 q0 243 156.5 371.5t420.5 128.5z" glyph-name="otilde" horiz-adv-x="1482" unicode="õ"/><glyph d="M430 1376q0 -31 21.5 -52t52.5 -21t52.5 21t21.5 52t-21.5 52.5t-52.5 21.5t-52.5 -21.5t-21.5 -52.5zM905 1376q0 -31 21.5 -52t52.5 -21q29 0 50.5 21.5t21.5 51.5q0 31 -21.5 52.5t-50.5 21.5q-31 0 -52.5 -21.5t-21.5 -52.5zM741 -18q299 0 478.5 154t179.5 425 q0 183 -83.5 315t-231 198.5t-343.5 66.5q-303 0 -481 -152.5t-178 -427.5q0 -274 179.5 -426.5t479.5 -152.5zM741 1061q266 0 421 -130.5t155 -369.5q0 -242 -155.5 -370t-420.5 -128t-421 128t-156 370q0 243 156.5 371.5t420.5 128.5z" glyph-name="odieresis" horiz-adv-x="1482" unicode="ö"/><glyph d="M524 1065q0 -29 20 -48.5t48 -19.5q29 0 48 19.5t19 48.5q0 28 -19 48t-48 20q-28 0 -48 -20t-20 -48zM106 870h971v-82h-971v82zM524 598q0 -28 20 -48t48 -20q29 0 48 20t19 48t-19 48t-48 20q-28 0 -48 -20t-20 -48z" glyph-name="divide" horiz-adv-x="1169" unicode="÷"/><glyph d="M1313 1122l-111 -118q197 -154 197 -443q0 -271 -179.5 -425t-478.5 -154q-234 0 -397 94l-70 -76h-104l111 119q-199 156 -199 442q0 275 178 427.5t481 152.5q230 0 398 -94l69 75h105zM164 561q0 -250 172 -383l745 807q-143 76 -340 76q-264 0 -420.5 -128.5 t-156.5 -371.5zM741 63q265 0 420.5 128t155.5 370q0 250 -170 381l-746 -805q139 -74 340 -74z" glyph-name="oslash" horiz-adv-x="1482" unicode="ø"/><glyph d="M287 1501l446 -260l45 80l-444 260zM154 440v682h82v-667q0 -169 107.5 -280.5t266.5 -111.5q74 0 145.5 23t150.5 75t156 117t183 166v678h82v-1122h-82v332q-89 -83 -157 -138.5t-149.5 -108t-163.5 -78t-165 -25.5q-196 0 -326 129t-130 329z" glyph-name="ugrave" horiz-adv-x="1492" unicode="ù"/><glyph d="M686 1321l47 -80l445 260l-48 80zM154 440v682h82v-667q0 -169 107.5 -280.5t266.5 -111.5q74 0 145.5 23t150.5 75t156 117t183 166v678h82v-1122h-82v332q-89 -83 -157 -138.5t-149.5 -108t-163.5 -78t-165 -25.5q-196 0 -326 129t-130 329z" glyph-name="uacute" horiz-adv-x="1492" unicode="ú"/><glyph d="M733 1440l400 -221l45 79l-445 248l-442 -248l43 -79zM154 440v682h82v-667q0 -169 107.5 -280.5t266.5 -111.5q74 0 145.5 23t150.5 75t156 117t183 166v678h82v-1122h-82v332q-89 -83 -157 -138.5t-149.5 -108t-163.5 -78t-165 -25.5q-196 0 -326 129t-130 329z" glyph-name="ucircumflex" horiz-adv-x="1492" unicode="û"/><glyph d="M422 1376q0 -31 21.5 -52t52.5 -21t52 21t21 52t-21 52.5t-52 21.5t-52.5 -21.5t-21.5 -52.5zM897 1376q0 -31 21.5 -52t52.5 -21q29 0 50 21t21 52t-21 52.5t-50 21.5q-31 0 -52.5 -21.5t-21.5 -52.5zM154 440v682h82v-667q0 -169 107.5 -280.5t266.5 -111.5 q74 0 145.5 23t150.5 75t156 117t183 166v678h82v-1122h-82v332q-89 -83 -157 -138.5t-149.5 -108t-163.5 -78t-165 -25.5q-196 0 -326 129t-130 329z" glyph-name="udieresis" horiz-adv-x="1492" unicode="ü"/><glyph d="M731 1339l47 -79l445 260l-47 79zM778 141l510 981h92l-651 -1253q-29 -50 -37.5 -64.5t-33 -55t-38 -56.5t-36 -42.5t-43.5 -42t-45 -26.5q-60 -31 -129 -31q-57 0 -113 21q-77 26 -139.5 86t-102.5 145l76 35q32 -70 82.5 -119t110.5 -69q97 -36 178 4q36 18 73 61.5 t59.5 80.5t65.5 114l74 141l-555 1071h92z" glyph-name="yacute" horiz-adv-x="1372" unicode="ý"/><glyph d="M467 1395q0 -31 21.5 -52.5t52.5 -21.5t52 21.5t21 52.5t-21 52t-52 21t-52.5 -21t-21.5 -52zM942 1395q0 -31 21.5 -52.5t52.5 -21.5q29 0 50 21.5t21 52.5t-21 52t-50 21q-31 0 -52.5 -21t-21.5 -52zM778 141l510 981h92l-651 -1253q-29 -50 -37.5 -64.5t-33 -55 t-38 -56.5t-36 -42.5t-43.5 -42t-45 -26.5q-60 -31 -129 -31q-57 0 -113 21q-77 26 -139.5 86t-102.5 145l76 35q32 -70 82.5 -119t110.5 -69q97 -36 178 4q36 18 73 61.5t59.5 80.5t65.5 114l74 141l-555 1071h92z" glyph-name="ydieresis" horiz-adv-x="1372" unicode="ÿ"/><glyph d="M338 1790h854v92h-854v-92zM553 1581h469l551 -1581h-88l-150 436h-1093l-152 -436h-86zM610 1499l-340 -981h1037l-342 981h-355z" glyph-name="Amacron" unicode="Ā"/><glyph d="M389 1350h854v92h-854v-92zM1419 709q4 -44 4 -131v-578h-82v410q-140 -199 -323 -312t-395 -116q-73 0 -146 13t-141.5 41.5t-121 69t-84.5 99t-32 127.5q0 318 791 327q232 0 452 -22q-6 224 -136 323t-388 99q-135 0 -292 -50t-267 -128l-47 67q109 79 275.5 136 t330.5 57q126 0 229 -25t184 -75.5t130 -135t59 -196.5zM1341 555q-199 23 -452 23q-142 -2 -262 -15t-224 -40t-163.5 -76t-59.5 -115q0 -78 69 -141.5t169.5 -95.5t204.5 -32q111 1 214 38.5t192 106.5t164 153.5t148 193.5z" glyph-name="amacron" horiz-adv-x="1579" unicode="ā"/><glyph d="M881 1780l47 -80l444 260l-47 80zM928 -25q280 0 481 120.5t289 353.5l-86 32q-76 -206 -256 -309.5t-428 -103.5q-347 0 -542.5 192.5t-195.5 527.5q0 339 197 531t541 192q242 0 417 -96.5t259 -294.5l84 37q-93 223 -292 335t-468 112q-385 0 -607.5 -221t-222.5 -595 q0 -375 223.5 -594t606.5 -219z" glyph-name="Cacute" horiz-adv-x="1761" unicode="Ć"/><glyph d="M881 1780l47 -80l444 260l-47 80zM928 -25q280 0 481 120.5t289 353.5l-86 32q-76 -206 -256 -309.5t-428 -103.5q-347 0 -542.5 192.5t-195.5 527.5q0 339 197 531t541 192q242 0 417 -96.5t259 -294.5l84 37q-93 223 -292 335t-468 112q-385 0 -607.5 -221t-222.5 -595 q0 -375 223.5 -594t606.5 -219z" glyph-name="Cacute" horiz-adv-x="1761" unicode="ć"/><glyph d="M414 1790h854v92h-854v-92zM1427 750h-1157v-668h1182v-82h-1264l2 1581l1262 -2v-82l-1182 2v-668h1157v-81z" glyph-name="Emacron" horiz-adv-x="1490" unicode="Ē"/><glyph d="M340 1331h854v92h-854v-92zM1452 518h-1286q9 -149 90.5 -253.5t212 -153t299.5 -48.5q145 0 271.5 40t205.5 122l58 -57q-178 -186 -535 -186q-312 0 -499 152t-187 425q0 185 89 318t242 198.5t355 65.5q316 0 500 -159.5t184 -463.5zM166 600h1202q-8 117 -56.5 206 t-129.5 143.5t-185 82t-229 27.5q-262 0 -424.5 -117t-177.5 -342z" glyph-name="emacron" horiz-adv-x="1533" unicode="ē"/><glyph d="M379 1233q92 0 156.5 76.5t64.5 185.5h-92q0 -69 -38.5 -119.5t-90.5 -50.5q-25 0 -55 13t-46 23.5t-55 37.5q-41 30 -68 47.5t-71.5 34t-87.5 16.5q-95 0 -162 -82q-59 -75 -59 -180h92q0 71 37.5 120.5t91.5 49.5q29 0 62 -13t53.5 -26.5t58.5 -40.5q41 -30 64.5 -45.5 t64.5 -31t80 -15.5zM145 0h82v1122h-82v-1122z" glyph-name="itilde" horiz-adv-x="364" unicode="ĩ"/><glyph d="M133 1790h854v92h-854v-92zM1032 1581v-82h-430v-1417h430v-82h-942v82h430v1417h-430v82h942z" glyph-name="Imacron" horiz-adv-x="1122" unicode="Ī"/><glyph d="M-236 1331h854v92h-854v-92zM145 0h82v1122h-82v-1122z" glyph-name="imacron" horiz-adv-x="712" unicode="ī"/><glyph d="M485 1790h854v92h-854v-92zM913 -25q384 0 604 220.5t220 597.5t-221 595t-603 218q-383 0 -603 -219.5t-220 -593.5q0 -377 220.5 -597.5t602.5 -220.5zM913 1524q351 0 546.5 -194.5t195.5 -536.5q0 -345 -196.5 -540.5t-545.5 -195.5q-351 0 -546 196t-195 540 q0 343 196.5 537t544.5 194z" glyph-name="Omacron" horiz-adv-x="1826" unicode="Ō"/><glyph d="M313 1331h854v92h-854v-92zM741 -18q299 0 478.5 154t179.5 425q0 183 -83.5 315t-231 198.5t-343.5 66.5q-303 0 -481 -152.5t-178 -427.5q0 -274 179.5 -426.5t479.5 -152.5zM741 1061q266 0 421 -130.5t155 -369.5q0 -242 -155.5 -370t-420.5 -128t-421 128t-156 370 q0 243 156.5 371.5t420.5 128.5z" glyph-name="omacron" horiz-adv-x="1482" unicode="ō"/><glyph d="M2918 1579v-82l-1181 2v-668h1157v-81h-1157v-668h1181v-82h-1265v391q-93 -199 -283.5 -307.5t-456.5 -108.5q-382 0 -602.5 220.5t-220.5 597.5q0 374 220 593.5t603 219.5q266 0 457.5 -109t286.5 -309v393zM913 57q349 0 545.5 195.5t196.5 540.5q0 342 -195.5 536.5 t-546.5 194.5q-348 0 -544.5 -194t-196.5 -537q0 -344 195 -540t546 -196z" glyph-name="OE" horiz-adv-x="2957" unicode="Œ"/><glyph d="M2003 63q145 0 271.5 40t205.5 122l57 -57q-178 -186 -534 -186q-238 0 -407.5 90.5t-237.5 259.5q-66 -167 -227.5 -258.5t-389.5 -91.5q-300 0 -479.5 152.5t-179.5 426.5q0 275 178 427.5t481 152.5q229 0 391.5 -91.5t227.5 -261.5q68 171 238 262t405 91 q316 0 500 -159.5t184 -463.5h-1286q9 -149 90.5 -253.5t212 -153t299.5 -48.5zM741 63q265 0 420.5 128t155.5 370q0 239 -155 369.5t-421 130.5q-264 0 -420.5 -128.5t-156.5 -371.5q0 -242 156 -370t421 -128zM2003 1059q-262 0 -424.5 -117t-177.5 -342h1202 q-8 117 -56.5 206t-129.5 143.5t-185 82t-229 27.5z" glyph-name="oe" horiz-adv-x="2781" unicode="œ"/><glyph d="M1284 1925l-45 80l-399 -221l-400 221l-43 -80l443 -248zM920 -25q137 0 262.5 27.5t228.5 81t165 141.5t62 199q0 223 -206 324q-142 68 -448 101q-56 5 -212 19q-286 27 -400 95.5t-114 220.5q0 89 54.5 159t143 109.5t194 57.5t214.5 12q362 -18 602 -299l64 53 q-78 91 -168.5 156.5t-179 100.5t-164 51.5t-150.5 19.5q-134 7 -257 -17.5t-220.5 -75.5t-156 -136t-58.5 -191q0 -191 139.5 -282.5t450.5 -115.5q318 -29 432 -51q231 -45 309 -149q49 -65 49 -162q0 -93 -57.5 -165.5t-151.5 -115t-203 -64.5t-224 -22 q-252 0 -463.5 111t-347.5 319l-68 -45q147 -227 378 -347t501 -120z" glyph-name="Scaron" horiz-adv-x="1714" unicode="Š"/><glyph d="M1194 1466l-45 80l-399 -221l-400 221l-43 -80l443 -247zM793 -18q88 0 171.5 10t165 34t141.5 60t97 92t37 125q0 39 -8.5 73t-27.5 61t-42 49t-59.5 40t-71 31.5t-86 24t-95 18t-107.5 14.5t-115 11.5t-125 9.5q-51 3 -85.5 6t-82.5 9.5t-80.5 15.5t-68 24t-56.5 34.5 t-35 48t-14 63.5q0 62 45.5 108t120.5 70.5t159.5 35.5t173.5 9q309 -13 515 -209l55 59q-224 214 -565 232q-112 4 -214 -12t-186.5 -51.5t-135 -98t-50.5 -143.5q0 -55 19.5 -98.5t58 -72.5t82 -49.5t105 -33t113.5 -18.5t120 -11q307 -25 415 -47q187 -39 230 -130 q16 -32 16 -73q0 -63 -49 -111.5t-129.5 -75t-169.5 -40t-182 -13.5q-201 0 -388 80.5t-303 229.5l-65 -51q131 -165 334.5 -252.5t421.5 -87.5z" glyph-name="scaron" horiz-adv-x="1476" unicode="š"/><glyph d="M475 1790h854v92h-854v-92zM903 -25q234 0 404.5 98.5t258 274t87.5 408.5v825h-82v-825q0 -324 -175.5 -511.5t-492.5 -187.5q-319 0 -493 188.5t-174 510.5v825h-82v-825q0 -235 88.5 -411t258.5 -273t402 -97z" glyph-name="Umacron" horiz-adv-x="1806" unicode="Ū"/><glyph d="M305 1331h854v92h-854v-92zM154 440v682h82v-667q0 -169 107.5 -280.5t266.5 -111.5q74 0 145.5 23t150.5 75t156 117t183 166v678h82v-1122h-82v332q-89 -83 -157 -138.5t-149.5 -108t-163.5 -78t-165 -25.5q-196 0 -326 129t-130 329z" glyph-name="umacron" horiz-adv-x="1492" unicode="ū"/><glyph d="M465 1835q0 -31 21.5 -52.5t52.5 -21.5t52 21.5t21 52.5t-21 52.5t-52 21.5t-52.5 -21.5t-21.5 -52.5zM940 1835q0 -31 21.5 -52.5t52.5 -21.5q29 0 50 21.5t21 52.5t-21 52.5t-50 21.5q-31 0 -52.5 -21.5t-21.5 -52.5zM954 674h-137v-592h352v-82h-784v82h350v592h-137 l-602 907h98l549 -825h268l549 825h99z" glyph-name="Ydieresis" horiz-adv-x="1554" unicode="Ÿ"/><glyph d="M1167 1925l-45 80l-399 -221l-399 221l-43 -80l442 -248zM47 0h1352v82h-1270v262l1270 850v387h-1352v-82h1270v-262l-1270 -850v-387z" glyph-name="Zcaron" horiz-adv-x="1439" unicode="Ž"/><glyph d="M1135 1466l-45 80l-400 -221l-399 221l-43 -80l442 -247zM156 82h1171v-82h-1286v92l1169 948h-1169v82h1286v-92z" glyph-name="zcaron" horiz-adv-x="1357" unicode="ž"/><glyph d="M504 1440l399 -221l45 79l-444 248l-443 -248l43 -79z" glyph-name="circumflex" horiz-adv-x="1009" unicode="ˆ"/><glyph d="M948 1466l-45 80l-399 -221l-400 221l-43 -80l443 -247z" glyph-name="caron" horiz-adv-x="1009" unicode="ˇ"/><glyph d="M256 1192q80 0 137.5 57.5t57.5 136.5q0 80 -57.5 137.5t-137.5 57.5q-81 0 -138 -57.5t-57 -137.5t57 -137t138 -57zM256 1499q46 0 79.5 -33.5t33.5 -79.5t-33.5 -79t-79.5 -33q-47 0 -80 33t-33 79t33 79.5t80 33.5z" glyph-name="ring" horiz-adv-x="512" unicode="˚"/><glyph d="M666 1233q92 0 156.5 76.5t64.5 185.5h-92q0 -69 -38.5 -119.5t-90.5 -50.5q-25 0 -55 13t-46 23.5t-55 37.5q-41 30 -68 47.5t-71.5 34t-87.5 16.5q-95 0 -162 -82q-60 -76 -60 -180h93q0 71 37.5 120.5t91.5 49.5q29 0 62 -13t53.5 -26.5t58.5 -40.5q41 -30 64.5 -45.5 t64.5 -31t80 -15.5z" glyph-name="tilde" horiz-adv-x="948" unicode="˜"/><glyph d="M98 573h1104v82h-1104v-82z" glyph-name="endash" horiz-adv-x="1341" unicode="–"/><glyph d="M139 573h1784v82h-1784v-82z" glyph-name="emdash" horiz-adv-x="2060" unicode="—"/><glyph d="M172 1550l72 39l155 -291l-71 -38z" glyph-name="quoteleft" horiz-adv-x="567" unicode="‘"/><glyph d="M178 1298l156 291l72 -39l-156 -290z" glyph-name="quoteright" horiz-adv-x="567" unicode="’"/><glyph d="M154 -188l155 290l72 -39l-156 -290z" glyph-name="quotesinglbase" horiz-adv-x="561" unicode="‚"/><glyph d="M172 1550l72 39l155 -291l-71 -38zM383 1550l72 39l155 -291l-71 -38z" glyph-name="quotedblleft" horiz-adv-x="780" unicode="“"/><glyph d="M176 1298l156 291l71 -39l-155 -290zM387 1298l156 291l71 -39l-155 -290z" glyph-name="quotedblright" horiz-adv-x="778" unicode="”"/><glyph d="M174 -188l156 290l71 -39l-155 -290zM385 -188l156 290l71 -39l-155 -290z" glyph-name="quotedblbase" horiz-adv-x="792" unicode="„"/><glyph d="M172 606q0 -41 29.5 -71.5t70.5 -30.5q44 0 74.5 30t30.5 72t-30.5 71.5t-74.5 29.5q-41 0 -70.5 -30t-29.5 -71z" glyph-name="bullet" horiz-adv-x="550" unicode="•"/><glyph d="M172 49q0 -28 20 -47.5t48 -19.5q29 0 49 19.5t20 47.5t-20 48t-49 20q-28 0 -48 -20t-20 -48zM391 49q0 -28 20 -47.5t48 -19.5q29 0 49 19.5t20 47.5t-20 48t-49 20q-28 0 -48 -20t-20 -48zM610 49q0 -28 20 -47.5t48 -19.5q29 0 49.5 19.5t20.5 47.5t-20.5 48 t-49.5 20q-28 0 -48 -20t-20 -48z" glyph-name="ellipsis" horiz-adv-x="921" unicode="…"/><glyph d="M1794 457l76 -29q-83 -223 -271 -346q-197 -133 -493 -133q-212 0 -367 63q-149 60 -258 181q-136 151 -180 374h-303v82h291q-8 55 -8 129q0 72 8 129h-291v82h303q44 225 180 373q103 118 258 180q163 66 367 66q283 0 483 -125q186 -120 271 -330l-76 -31 q-77 190 -240 291q-179 113 -438 113q-188 0 -336 -60q-140 -57 -229 -157q-115 -130 -156 -320h1077v-82h-1091q-9 -65 -9 -129q0 -68 9 -129h1091v-82h-1077q41 -192 156 -319q89 -103 229 -160t336 -57q271 0 448 119q165 107 240 307z" glyph-name="Euro" horiz-adv-x="1945" unicode="€"/><glyph d="M385 645h1585v-82h-1583q81 -46 141 -106q91 -93 140 -210.5t49 -246.5h-82q0 235 -164 399q-79 79 -182.5 121.5t-216.5 42.5v82q112 0 215.5 43t183.5 123q164 164 164 399h82q0 -129 -49 -247t-140 -209q-68 -68 -143 -109z" glyph-name="arrowleft" horiz-adv-x="2041" unicode="←"/><glyph d="M883 872q163 -163 399 -163v-82q-129 0 -247 48.5t-210 139.5q-60 60 -106 141v-956h-82v958q-41 -75 -109 -143q-91 -91 -209 -139.5t-247 -48.5v82q236 0 399 163q80 80 123 184t43 216h82q0 -113 42.5 -217t121.5 -183z" glyph-name="arrowup" horiz-adv-x="1353" unicode="↑"/><glyph d="M1571 811q80 -80 183.5 -123t215.5 -43v-82q-113 0 -216.5 -42.5t-182.5 -121.5q-164 -164 -164 -399h-82q0 129 48.5 247t139.5 210q59 59 142 106h-1583v82h1585q-77 42 -144 109q-91 91 -139.5 209t-48.5 247h82q0 -235 164 -399z" glyph-name="arrowright" horiz-adv-x="2041" unicode="→"/><glyph d="M825 457q92 91 210 139.5t247 48.5v-82q-235 0 -399 -164q-79 -79 -121.5 -182.5t-42.5 -216.5h-82q0 112 -43 215.5t-123 183.5q-164 164 -399 164v82q129 0 247 -48.5t209 -139.5q67 -67 109 -144v959h82v-957q47 83 106 142z" glyph-name="arrowdown" horiz-adv-x="1353" unicode="↓"/><glyph d="M92 870h971v-82h-971v82z" glyph-name="minus" horiz-adv-x="1144" unicode="−"/></font>
</defs>
</svg>
